<?xml version="1.0" encoding="UTF-8" standalone="no"?>
<svg
   xmlns:dc="http://purl.org/dc/elements/1.1/"
   xmlns:cc="http://creativecommons.org/ns#"
   xmlns:rdf="http://www.w3.org/1999/02/22-rdf-syntax-ns#"
   xmlns:svg="http://www.w3.org/2000/svg"
   xmlns="http://www.w3.org/2000/svg"
   xmlns:sodipodi="http://sodipodi.sourceforge.net/DTD/sodipodi-0.dtd"
   xmlns:inkscape="http://www.inkscape.org/namespaces/inkscape"
   width="119.59563mm"
   height="92.567917mm"
   viewBox="0 0 119.59563 92.567917"
   version="1.1"
   id="svg1373"
   inkscape:version="1.0.1 (3bc2e813f5, 2020-09-07)"
   sodipodi:docname="dfa-prog-q1.svg">
  <defs
     id="defs1367" />
  <sodipodi:namedview
     id="base"
     pagecolor="#ffffff"
     bordercolor="#666666"
     borderopacity="1.0"
     inkscape:pageopacity="0.0"
     inkscape:pageshadow="2"
     inkscape:zoom="0.35"
     inkscape:cx="245.79371"
     inkscape:cy="516.8147"
     inkscape:document-units="mm"
     inkscape:current-layer="layer1"
     inkscape:document-rotation="0"
     showgrid="false"
     fit-margin-top="0"
     fit-margin-left="0"
     fit-margin-right="0"
     fit-margin-bottom="0"
     inkscape:window-width="1440"
     inkscape:window-height="773"
     inkscape:window-x="0"
     inkscape:window-y="635"
     inkscape:window-maximized="1" />
  <metadata
     id="metadata1370">
    <rdf:RDF>
      <cc:Work
         rdf:about="">
        <dc:format>image/svg+xml</dc:format>
        <dc:type
           rdf:resource="http://purl.org/dc/dcmitype/StillImage" />
        <dc:title></dc:title>
      </cc:Work>
    </rdf:RDF>
  </metadata>
  <g
     inkscape:label="Layer 1"
     inkscape:groupmode="layer"
     id="layer1"
     transform="translate(-40.800414,-11.42611)">
    <g
       id="g1365"
       transform="matrix(0.26458333,0,0,0.26458333,23.800838,-25.380601)"
       style="fill:#000000">
      <path
         class="write-chisel-pen"
         fill="#ffffff"
         stroke-width="4"
         __comx="302.457"
         __comy="463.706"
         __timestamp="0x17638dcac3c"
         d="m 297.78837,463.67298 h 0.387 v -1.549 l 0.06,-1.737 h -0.508 v 2.032 l 0.06,1.254 m 0.448,-3.286 h -0.508 v 2.032 l 1.639,4.081 h 0.554 v -2.215 l -1.685,-3.897 m 1.685,3.897 h -0.554 v 2.215 l 2.766,17.669 h 0.563 v -2.252 l -2.775,-17.633 m 2.775,17.633 h -0.563 v 2.252 l 0.776,1.894 h 0.562 v -2.25 l -0.775,-1.896 m 0.213,1.896 v 2.25 h 0.562 l 0.675,-5.941 v -2.334 h -0.583 l -0.654,6.025 m 0.654,-6.025 v 2.334 h 0.583 l 2.987,-0.716 v -2.298 h -0.575 l -2.996,0.68 m 3.571,-0.68 h -0.575 v 2.298 l 3.104,0.492 h 0.571 v -2.286 l -3.101,-0.505 m 3.101,0.505 h -0.571 v 2.286 l 2.101,2.011 h 0.58 v -2.32 l -2.109,-1.977 m 2.109,1.977 h -0.58 v 2.32 l 1.086,2.682 h 0.624 v -2.497 l -1.13,-2.504 m 1.13,5.001 v -2.497 h -0.624 l -0.576,2.104 v 2.678 h 0.669 l 0.531,-2.284 m -0.531,2.284 v -2.678 h -0.669 l -3.107,1.677 v 2.715 h 0.679 l 3.098,-1.714 m -3.098,1.714 v -2.715 h -0.679 l -2.988,0.414 v 2.686 h 0.671 l 2.995,-0.384 m -3.667,0.384 h 0.671 v -2.686 l -5.035,-1.301 h -0.574 v 2.297 l 4.938,1.69 m -4.938,-1.69 h 0.574 v -2.297 l -0.493,-10e-4 h -0.475 v 1.899 l 0.394,0.398 m -0.394,-0.398 h 0.475 v -1.899 l -0.429,0.188 h -0.281 v 1.124 l 0.236,0.587"
         id="path233"
         style="color-interpolation:linearRGB;fill:#000000" />
      <path
         class="write-chisel-pen"
         fill="#ffffff"
         stroke-width="4"
         __comx="152.906"
         __comy="283.935"
         __timestamp="0x17638dc8869"
         d="m 149.47837,298.20798 h 0.275 v -1.101 l 0.069,-0.575 h -0.413 v 1.652 l 0.069,0.024 m -0.069,-0.024 h 0.413 v -1.652 l -0.1,-1.084 h -0.656 v 2.624 l 0.343,0.113 m -0.343,-0.113 h 0.656 v -2.624 l -2.533,-15.619 h -0.687 v 2.748 l 2.564,15.495 m -2.564,-18.242 v 2.748 h 0.687 l 4.884,-0.363 v -2.818 h -0.705 l -4.867,0.434 m 5.571,-0.434 h -0.705 v 2.818 l 13.513,2.812 h 0.715 v -2.858 l -13.523,-2.772 m 12.808,5.631 h 0.715 v -2.858 l -0.589,-0.558 h -0.645 v 2.578 l 0.519,0.838 m -0.519,-0.838 h 0.645 v -2.578 l -0.391,0.136 h -0.527 v 2.108 l 0.274,0.335 m -0.274,-0.335 h 0.527 v -2.108 l -0.443,-0.1 h -0.527 v 2.108 l 0.443,0.1"
         id="path235"
         style="color-interpolation:linearRGB;fill:#000000" />
      <path
         class="write-chisel-pen"
         fill="#ffffff"
         stroke-width="4"
         __comx="291.859"
         __comy="353.785"
         __timestamp="0x17638dc834a"
         d="m 441.09437,406.58198 h 0.313 v -1.251 l -0.217,-0.317 h -0.322 v 1.287 l 0.226,0.281 m -0.226,-0.281 h 0.322 v -1.287 l -0.218,-0.659 h -0.552 v 2.206 l 0.447,-0.26 m 0.104,0.26 v -2.206 h -0.552 l -3.903,0.597 v 2.409 h 0.602 l 3.853,-0.799 m -3.853,0.799 v -2.409 h -0.602 l -11.192,6.577 v 2.418 h 0.604 l 11.19,-6.586 m -11.19,6.586 v -2.418 h -0.604 l -12.855,9.368 v 2.43 h 0.607 l 12.852,-9.38 m -12.852,9.38 v -2.43 h -0.607 l -28.04,12.439 v 2.482 h 0.621 l 28.027,-12.492 m -28.027,12.492 v -2.482 h -0.621 l -25.048,8.052 v 2.532 h 0.633 l 25.035,-8.103 m -25.035,8.103 v -2.532 h -0.633 l -17.177,6.672 v 2.552 h 0.638 l 17.172,-6.691 m -17.172,6.691 v -2.552 h -0.638 l -13.967,3.367 v 2.6 h 0.65 l 13.955,-3.414 m -13.955,3.414 v -2.6 h -0.65 l -14.745,2.259 v 2.668 h 0.667 l 14.728,-2.328 m -14.728,2.328 v -2.668 h -0.667 l -8.867,0.289 v 2.689 h 0.672 l 8.862,-0.309 m -9.534,0.309 h 0.672 v -2.689 l -5.426,-0.809 h -0.678 v 2.712 l 5.432,0.786 m -5.432,-0.786 h 0.678 v -2.712 l -14.734,-4.999 h -0.685 v 2.738 l 14.74,4.973 m -14.74,-4.973 h 0.685 v -2.738 l -8.641,-4.293 h -0.687 v 2.748 l 8.644,4.283 m -8.644,-4.283 h 0.687 v -2.748 l -19.056,-14.069 h -0.691 v 2.763 l 19.06,14.053 m -19.06,-14.053 h 0.691 v -2.763 l -9.529,-8.876 h -0.691 v 2.764 l 9.529,8.875 m -9.529,-8.875 h 0.691 v -2.764 l -26.589,-29.037 h -0.7 v 2.799 l 26.597,29.002 m -26.597,-29.002 h 0.7 v -2.799 l -19.942,-23.145 h -0.705 v 2.818 l 19.947,23.126 m -19.947,-23.126 h 0.705 v -2.818 l -8.865,-12.165 h -0.704 v 2.817 l 8.864,12.167 m -8.864,-12.167 h 0.704 v -2.817 l -8.755,-14.056 h -0.702 v 2.807 l 8.752,14.066 m -8.752,-14.066 h 0.702 v -2.807 l -6.426,-13.366 h -0.703 v 2.813 l 6.427,13.36 m -6.427,-13.36 h 0.703 v -2.813 l -6.204,-9.376 h -0.704 v 2.817 l 6.206,9.372 m -6.206,-9.372 h 0.704 v -2.817 l -5.428,-10.974 h -0.706 v 2.826 l 5.43,10.965 m -5.43,-10.965 h 0.706 v -2.826 l -13.628,-21.643 h -0.708 v 2.832 l 13.629,21.637 m -13.629,-21.637 h 0.708 v -2.832 l -2.77,-6.483 h -0.709 v 2.835 l 2.771,6.48 m -2.771,-6.48 h 0.709 v -2.835 h -0.075 -0.559 v 2.236 l -0.075,0.598 m 0.075,-2.835 v 2.236 h 0.559 l 0.161,-1.283 v -0.867 h -0.217 l -0.504,-0.086 m 0.504,0.086 v 0.867 h 0.217 l 0.222,-0.997 v -0.867 h -0.217 l -0.222,0.997"
         id="path237"
         style="color-interpolation:linearRGB;fill:#000000" />
      <path
         class="write-chisel-pen"
         fill="#ffffff"
         stroke-width="4"
         __comx="313.18"
         __comy="395.48"
         __timestamp="0x176389bee56"
         d="m 309.38137,396.09898 v 0.103 h 0.026 l 0.336,-0.14 v -1.019 h -0.255 l -0.107,1.056 m 0.107,-0.037 h 0.255 v -1.019 l 0.028,-0.611 h -0.311 v 1.244 l 0.028,0.386 m -0.028,-0.386 h 0.311 v -1.244 l -0.243,-3.55 h -0.491 v 1.962 l 0.422,2.832 m -0.422,-2.832 h 0.491 v -1.962 l -0.089,-0.488 h -0.535 v 2.14 l 0.133,0.31 m -0.133,-0.31 h 0.535 v -2.14 l -0.847,-0.557 h -0.614 v 2.455 l 0.926,0.241 m -0.312,-0.241 v -2.455 h -0.614 l -0.799,2.697 v 2.646 h 0.662 l 0.752,-2.888 m -0.752,0.242 h -0.662 v 2.646 l 0.109,6.889 h 0.665 v -2.662 l -0.113,-6.873 m 0.113,6.873 h -0.665 v 2.662 l 4.769,19.43 h 0.658 v -2.63 l -4.761,-19.462 m 4.761,19.462 h -0.658 v 2.63 l 0.881,0.42 h 0.668 v -2.673 l -0.892,-0.377 m 0.224,0.377 v 2.673 h 0.668 l 0.111,-2.192 v -2.676 h -0.669 l -0.11,2.196 m 0.11,-2.196 v 2.676 h 0.669 l 1.437,-2.704 v -2.652 h -0.663 l -1.443,2.681 m 1.443,-2.681 v 2.652 h 0.663 l 3.204,-0.536 v -2.578 h -0.645 l -3.223,0.462 m 3.867,-0.462 h -0.645 v 2.578 l 2.329,0.588 h 0.64 v -2.559 l -2.324,-0.608 m 2.324,0.608 h -0.64 v 2.559 l 2.775,1.974 h 0.629 v -2.517 l -2.765,-2.015 m 2.765,2.015 h -0.629 v 2.517 l 1.661,2.796 h 0.631 v -2.526 l -1.663,-2.788 m 1.663,2.788 h -0.631 v 2.526 l 0.311,3.077 h 0.674 v -2.697 l -0.354,-2.906 m 0.354,5.603 v -2.697 h -0.674 l -1.782,2.056 v 2.773 h 0.693 l 1.763,-2.133 m -1.763,2.133 v -2.773 h -0.693 l -3.554,2.16 v 2.842 h 0.711 l 3.537,-2.228 m -3.537,2.228 v -2.842 h -0.711 l -3.547,0.893 v 2.851 h 0.713 l 3.545,-0.902 m -4.257,0.902 h 0.713 v -2.851 l -2.564,-0.837 h -0.683 v 2.731 l 2.534,0.958 m -2.534,-0.958 h 0.683 v -2.731 l -1.036,-2.44 h -0.606 v 2.424 l 0.959,2.746 m -0.959,-5.17 v 2.424 h 0.606 l 0.302,-1.717 v -2.182 h -0.546 l -0.363,1.475 m 0.363,-1.475 v 2.182 h 0.546 l 0.597,-1.765 v -1.644 h -0.411 l -0.732,1.227 m 0.732,-1.227 v 1.644 h 0.411 l 0.729,-1.527 v -0.384 h -0.096 l -1.044,0.268 m 1.044,-0.268 v 0.384 h 0.096 l 0.776,-0.299 v -0.384 h -0.096 l -0.776,0.299"
         id="path513"
         style="color-interpolation:linearRGB;fill:#000000" />
      <path
         class="write-chisel-pen"
         fill="#ffffff"
         stroke-width="4"
         __comx="472.906"
         __comy="341.683"
         __timestamp="0x176389bdf3b"
         d="m 455.68137,339.74498 h 0.169 v -0.675 l 0.095,-1.377 h -0.358 v 1.434 l 0.095,0.618 m -0.095,-0.618 h 0.358 v -1.434 l -0.34,-0.613 h -0.565 v 2.261 l 0.547,-0.214 m 0.019,0.214 v -2.261 h -0.565 l -1.459,0.025 v 2.411 h 0.603 l 1.422,-0.175 m -1.422,0.175 v -2.411 h -0.603 l -3.329,2.672 v 2.452 h 0.613 l 3.319,-2.713 m -3.319,2.713 v -2.452 h -0.613 l -5.101,7.064 v 2.484 h 0.621 l 5.093,-7.096 m -5.093,7.096 v -2.484 h -0.621 l -2.328,5.082 v 2.492 h 0.623 l 2.326,-5.09 m -2.326,5.09 v -2.492 h -0.623 l -5.212,18.032 v 2.529 h 0.632 l 5.203,-18.068 m -5.203,18.068 v -2.529 h -0.632 l -1.773,9.671 v 2.532 h 0.633 l 1.772,-9.675 m -1.772,9.675 v -2.532 h -0.633 v 3.89 2.531 h 0.633 v -3.888 m 0,1.358 h -0.633 v 2.531 l 2.546,6.291 h 0.637 v -2.547 l -2.551,-6.274 m 2.551,6.274 h -0.637 v 2.547 l 5.317,8.184 h 0.64 v -2.56 l -5.32,-8.171 m 5.32,8.171 h -0.64 v 2.56 l 5.65,6.586 h 0.642 v -2.569 l -5.652,-6.578 m 5.652,6.578 h -0.642 v 2.569 l 4.543,3.988 h 0.642 v -2.567 l -4.543,-3.99 m 4.543,3.99 h -0.642 v 2.567 l 3.88,1.789 h 0.639 v -2.556 l -3.877,-1.801 m 3.877,1.801 h -0.639 v 2.556 l 8.754,1.194 h 0.638 v -2.551 l -8.753,-1.199 m 8.115,1.199 v 2.551 h 0.638 l 4.654,-0.399 v -2.551 h -0.638 l -4.654,0.399 m 4.654,-0.399 v 2.551 h 0.638 l 13.852,-6.278 v -2.56 h -0.64 l -13.849,6.287 m 13.849,-6.287 v 2.56 h 0.64 l 8.311,-4.883 v -2.567 h -0.642 l -8.309,4.89 m 8.309,-4.89 v 2.567 h 0.642 l 9.861,-9.175 v -2.565 h -0.641 l -9.862,9.174 m 9.862,-9.174 v 2.565 h 0.641 l 6.094,-6.88 v -2.567 h -0.642 l -6.094,6.882 m 6.094,-6.882 v 2.567 h 0.642 l 5.763,-10.766 v -2.575 h -0.644 l -5.761,10.774 m 5.761,-10.774 v 2.575 h 0.644 l 0.563,-4.054 v -2.645 h -0.661 l -0.545,4.123 m 0.545,-1.479 h 0.661 v -2.645 l -2.872,-12.698 h -0.678 v 2.711 l 2.889,12.632 m -2.889,-12.632 h 0.678 v -2.711 l -2.54,-6.118 h -0.695 v 2.781 l 2.557,6.048 m -2.557,-6.048 h 0.695 v -2.781 l -4.096,-5.8 h -0.704 v 2.814 l 4.104,5.767 m -4.104,-5.767 h 0.704 v -2.814 l -3.986,-4 h -0.709 v 2.836 l 3.992,3.978 m -3.992,-3.978 h 0.709 v -2.836 l -4.32,-2.098 h -0.711 v 2.844 l 4.322,2.09 m -4.322,-2.09 h 0.711 v -2.844 l -9.308,-2.193 h -0.711 v 2.842 l 9.307,2.195 m -9.307,-2.195 h 0.711 v -2.842 l -19.501,-2.992 h -0.711 v 2.842 l 19.501,2.992 m -19.501,-2.992 h 0.711 v -2.842 l -11.196,-0.481 h -0.702 v 2.807 l 11.187,0.516 m -10.485,-0.516 v -2.807 h -0.702 l -2.544,0.716 v 2.77 h 0.693 l 2.553,-0.68 m -2.553,0.68 v -2.77 h -0.693 l -3.871,2.822 v 2.711 h 0.678 l 3.886,-2.762 m -3.886,2.762 v -2.711 h -0.678 l -4.202,5.517 v 2.646 h 0.662 l 4.219,-5.453 m -4.219,5.453 v -2.646 h -0.662 l -4.608,10.951 v 2.284 h 0.571 l 4.699,-10.589 m -4.699,10.589 v -2.284 h -0.571 l -0.178,1.371 v 1.935 h 0.484 l 0.265,-1.022 m -0.265,1.022 v -1.935 h -0.484 l 0.063,1.25 v 1.429 h 0.357 l 0.063,-0.745 m -0.063,-0.685 h -0.357 v 1.429 l 0.273,0.048 h 0.033 v -0.13 l 0.052,-1.348 m -0.052,1.348 h -0.033 v 0.13 l 0.111,0.598 h 0.033 v -0.13 l -0.111,-0.598"
         id="path515"
         style="color-interpolation:linearRGB;fill:#000000" />
      <path
         class="write-chisel-pen"
         fill="#ffffff"
         stroke-width="4"
         __comx="472.302"
         __comy="343.398"
         __timestamp="0x176389bad6d"
         d="m 471.56637,339.53198 h 0.311 v -1.244 l -2.463,-0.543 h -0.483 v 1.931 l 2.634,-0.144 m -2.634,0.144 h 0.483 v -1.931 l -0.31,-0.191 h -0.528 v 2.113 l 0.355,0.008 m 0.173,-0.008 v -2.113 h -0.528 l -3.49,-0.022 v 2.557 h 0.639 l 3.379,-0.421 m -3.379,0.421 v -2.557 h -0.639 l -2.438,1.296 v 2.557 h 0.639 l 2.438,-1.296 m -2.438,1.296 v -2.557 h -0.639 l -4.654,4.485 v 2.562 h 0.641 l 4.653,-4.49 m -4.653,4.49 v -2.562 h -0.641 l -6.427,8.574 v 2.567 h 0.642 l 6.426,-8.579 m -6.426,8.579 v -2.567 h -0.642 l -4.32,8.579 v 2.56 h 0.64 l 4.322,-8.573 m -4.322,8.573 v -2.56 h -0.64 l -1.996,6.675 v 2.574 h 0.643 l 1.993,-6.688 m -1.993,6.688 v -2.574 h -0.643 l -0.666,6.777 v 2.582 h 0.645 l 0.664,-6.785 m -0.664,4.204 h -0.645 v 2.582 l 0.442,7.183 h 0.647 v -2.588 l -0.444,-7.177 m 0.444,7.177 h -0.647 v 2.588 l 2.438,6.382 h 0.647 v -2.588 l -2.438,-6.382 m 2.438,6.382 h -0.647 v 2.588 l 2.217,3.189 h 0.646 v -2.583 l -2.216,-3.194 m 2.216,3.194 h -0.646 v 2.583 l 4.431,3.993 h 0.648 v -2.591 l -4.433,-3.985 m 4.433,3.985 h -0.648 v 2.591 l 7.091,4.289 h 0.648 v -2.593 l -7.092,-4.287 m 7.092,4.287 h -0.648 v 2.593 l 6.093,2.197 h 0.65 v -2.6 l -6.095,-2.191 m 6.095,2.191 h -0.65 v 2.6 l 6.204,1 h 0.651 v -2.604 l -6.206,-0.995 m 5.555,0.995 v 2.604 h 0.651 l 6.317,-0.096 v -2.612 h -0.653 l -6.315,0.104 m 6.315,-0.104 v 2.612 h 0.653 l 4.987,-1.195 v -2.616 h -0.654 l -4.986,1.198 m 4.986,-1.198 v 2.616 h 0.654 l 3.437,-2.286 v -2.63 h -0.658 l -3.433,2.301 m 3.433,-2.301 v 2.63 h 0.658 l 12.746,-14.544 v -2.662 h -0.665 l -12.738,14.576 m 12.738,-14.576 v 2.662 h 0.665 l 2.663,-5.869 v -2.692 h -0.673 l -2.655,5.899 m 2.655,-5.899 v 2.692 h 0.673 l 1.888,-7.664 v -2.721 h -0.68 l -1.88,7.693 m 1.88,-7.693 v 2.721 h 0.68 l 0.118,-6.452 v -2.781 h -0.695 l -0.103,6.512 m 0.103,-3.731 h 0.695 v -2.781 l -1.105,-3.802 h -0.702 v 2.807 l 1.111,3.777 m -1.111,-3.777 h 0.702 v -2.807 l -3.765,-6.091 h -0.705 v 2.821 l 3.769,6.076 m -3.769,-6.076 h 0.705 v -2.821 l -4.546,-4.776 h -0.7 v 2.799 l 4.54,4.798 m -4.54,-4.798 h 0.7 v -2.799 l -6.539,-4.881 h -0.697 v 2.789 l 6.536,4.892 m -6.536,-4.892 h 0.697 v -2.789 l -6.875,-3.867 h -0.686 v 2.745 l 6.864,3.911 m -6.864,-3.911 h 0.686 v -2.745 l -6.212,-1.868 h -0.673 v 2.69 l 6.198,1.922 m -5.526,-1.922 v -2.69 h -0.673 l -5.974,0.135 v 2.619 h 0.655 l 5.992,-0.064 m -5.992,0.064 v -2.619 h -0.655 l -10.81,5.68 v 2.228 h 0.557 l 10.908,-5.289 m -10.908,5.289 v -2.228 h -0.557 l -3.615,3.059 v 1.893 h 0.473 l 3.698,-2.724 m -3.698,2.724 v -1.893 h -0.473 l -3.252,3.082 v 1.314 h 0.329 l 3.396,-2.503 m -3.396,2.503 v -1.314 h -0.329 l -2.743,3.345 v 0.208 h 0.052 l 3.019,-2.239 m -3.019,2.239 v -0.208 h -0.052 l -2.327,2.693 v 0.208 h 0.052 l 2.327,-2.693"
         id="path517"
         style="color-interpolation:linearRGB;fill:#000000" />
      <path
         class="write-chisel-pen"
         fill="#ffffff"
         stroke-width="4"
         __comx="469.969"
         __comy="360.438"
         __timestamp="0x176389b5e32"
         d="m 460.79137,358.78298 h 0.363 v -1.453 l -0.567,-0.689 h -0.558 v 2.234 l 0.762,-0.091 m -0.762,0.091 h 0.558 v -2.234 l -0.615,-0.497 h -0.658 v 2.63 l 0.714,0.101 m -0.057,-2.731 h -0.658 v 2.63 l 15.502,1.938 h 0.679 v -2.717 l -15.523,-1.851 m 15.523,1.851 h -0.679 v 2.717 l 4.213,1.386 h 0.674 v -2.697 l -4.208,-1.406 m 4.208,1.406 h -0.674 v 2.697 l 3.103,2.293 h 0.674 v -2.695 l -3.102,-2.294 m 3.102,2.294 h -0.674 v 2.695 l 2.104,3.095 h 0.676 v -2.703 l -2.106,-3.087 m 2.106,3.087 h -0.676 v 2.703 l 1.991,7.693 h 0.683 v -2.732 l -1.998,-7.664 m 1.998,10.396 v -2.732 h -0.683 l -0.342,3.752 v 2.808 h 0.702 l 0.323,-3.827 m -0.323,3.827 v -2.808 h -0.702 l -1.784,3.545 v 2.899 h 0.725 l 1.762,-3.635 m -1.762,3.635 v -2.899 h -0.725 l -3.554,3.458 v 2.963 h 0.741 l 3.538,-3.522 m -3.538,3.522 v -2.963 h -0.741 l -5.431,2.685 v 2.978 h 0.744 l 5.427,-2.7 m -5.427,2.7 v -2.978 h -0.744 l -6.315,0.799 v 2.975 h 0.744 l 6.316,-0.796 m -7.06,0.796 h 0.744 v -2.975 l -5.219,-0.853 h -0.721 v 2.886 l 5.197,0.942 m -5.197,-0.942 h 0.721 v -2.886 l -2.79,-1.516 h -0.682 v 2.726 l 2.75,1.676 m -2.75,-1.676 h 0.682 v -2.726 l -0.175,-1.438 h -0.553 v 2.212 l 0.047,1.952 m -0.047,-4.164 v 2.212 h 0.553 l 0.842,-0.378 v -1.855 h -0.464 l -0.931,0.021 m 0.931,-0.021 v 1.855 h 0.464 l 1.125,-0.574 v -1.106 h -0.277 l -1.313,-0.175 m 1.589,0.175 h -0.277 v 1.106 l 1.467,-0.55 h 0.001 v -0.005 l -1.192,-0.55"
         id="path519"
         style="color-interpolation:linearRGB;fill:#000000" />
      <path
         class="write-chisel-pen"
         fill="#ffffff"
         stroke-width="4"
         __comx="468.049"
         __comy="360.438"
         __timestamp="0x176389b5c5f"
         d="m 471.24337,355.70998 v -1.49 h -0.373 l -1.308,-0.356 v 2.203 h 0.551 l 1.13,-0.356 m -1.13,0.356 v -2.203 h -0.551 l -0.341,0.265 v 2.272 h 0.568 l 0.324,-0.334 m -0.324,0.334 v -2.272 h -0.568 l -0.339,5.158 v 2.327 h 0.582 l 0.325,-5.213 m -0.325,2.886 h -0.582 v 2.327 l 3.81,19.574 h 0.496 v -1.985 l -3.725,-19.916 m 3.725,19.916 h -0.496 v 1.985 l 0.382,0.001 h 0.397 v -1.589 l -0.283,-0.398 m -0.114,0.398 v 1.589 h 0.397 l 0.031,-0.618 v -0.951 h -0.238 l -0.191,-0.02 m 0.191,0.971 h 0.238 v -0.951 -0.698 h -0.238 v 0.951 0.698"
         id="path521"
         style="color-interpolation:linearRGB;fill:#000000" />
      <path
         class="write-chisel-pen"
         fill="#ffffff"
         stroke-width="4"
         __comx="422.329"
         __comy="360.438"
         __timestamp="0x176389b55fe"
         d="m 419.22437,366.11898 v -1.964 h -0.491 l -0.727,-0.048 v 2.459 h 0.615 l 0.603,-0.447 m -0.603,-2.012 h -0.615 v 2.459 l 7.736,2.772 h 0.654 v -2.617 l -7.776,-2.613 m 7.776,2.613 h -0.654 v 2.617 l 5.429,3.191 h 0.654 v -2.617 l -5.429,-3.191 m 5.429,3.191 h -0.654 v 2.617 l 1.106,2.002 h 0.658 v -2.633 l -1.11,-1.986 m 1.11,4.62 v -2.633 h -0.658 l -0.236,5.227 v 2.751 h 0.688 l 0.207,-5.344 m -0.207,5.344 v -2.751 h -0.688 l -1.674,4.839 v 2.845 h 0.711 l 1.65,-4.934 m -1.65,4.934 v -2.845 h -0.711 l -5.677,9.969 v 3.051 h 0.763 l 5.625,-10.175 m -6.388,7.124 v 3.051 h 0.763 l 1.165,-0.712 v -2.624 h -0.656 l -1.272,0.285 m 1.272,-0.285 v 2.624 h 0.656 l 0.531,-0.193 v -2.436 h -0.609 l -0.577,0.006 m 0.577,-0.006 v 2.436 h 0.609 l 0.499,-0.521 v -1.993 h -0.498 l -0.609,0.078 m 0.609,-0.078 v 1.993 h 0.498 l 0.484,-1.122 v -0.546 h -0.137 l -0.846,-0.325 m 0.846,0.325 v 0.546 h 0.137 l 0.111,-0.399 v -0.546 h -0.137 l -0.111,0.399"
         id="path523"
         style="color-interpolation:linearRGB;fill:#000000" />
      <path
         class="write-chisel-pen"
         fill="#ffffff"
         stroke-width="4"
         __comx="339.705"
         __comy="360.438"
         __timestamp="0x176389b53ef"
         d="m 258.07237,290.02498 h 0.04 v -0.16 l 0.034,-0.879 h -0.33 v 1.319 l 0.256,-0.28 m -0.256,0.28 h 0.33 v -1.319 l -0.287,-0.281 h -0.42 v 1.682 l 0.378,-0.082 m 0.043,0.082 v -1.682 h -0.42 l -0.22,0.161 v 2.557 h 0.639 l 10e-4,-1.036 m -10e-4,-1.521 h -0.639 v 2.557 l 1.104,13.178 h 0.647 v -2.587 l -1.112,-13.149 m 1.112,13.149 h -0.647 v 2.587 l 2.435,12.976 h 0.653 v -2.611 l -2.441,-12.952 m 2.441,12.952 h -0.653 v 2.611 l 4.315,12.393 h 0.666 v -2.665 l -4.328,-12.338 m 4.328,12.338 h -0.666 v 2.665 l 6.314,12.773 h 0.671 v -2.682 l -6.318,-12.756 m 6.318,12.756 h -0.671 v 2.682 l 6.426,9.574 h 0.671 v -2.684 l -6.427,-9.573 m 6.427,9.573 h -0.671 v 2.684 l 7.756,9.174 h 0.671 v -2.684 l -7.756,-9.174 m 7.756,9.174 h -0.671 v 2.684 l 13.96,12.868 h 0.673 v -2.692 l -13.962,-12.86 m 13.962,12.86 h -0.673 v 2.692 l 9.745,7.002 h 0.684 v -2.735 l -9.756,-6.959 m 9.756,6.959 h -0.684 v 2.735 l 7.422,3.199 h 0.688 v -2.751 l -7.426,-3.183 m 7.426,3.183 h -0.688 v 2.751 l 8.199,1.896 h 0.688 v -2.754 l -8.2,-1.893 m 8.2,1.893 h -0.688 v 2.754 l 13.739,1.799 h 0.69 v -2.761 l -13.741,-1.791 m 13.741,1.791 h -0.69 v 2.761 l 21.162,1.102 h 0.693 v -2.77 l -21.164,-1.092 m 20.472,1.092 v 2.77 h 0.693 l 17.95,-0.099 v -2.772 h -0.693 l -17.95,0.1 m 17.95,-0.1 v 2.772 h 0.693 l 11.967,-1.296 v -2.772 h -0.693 l -11.967,1.296 m 11.967,-1.296 v 2.772 h 0.693 l 31.247,-9.572 v -2.775 h -0.694 l -31.246,9.575 m 31.246,-9.575 v 2.775 h 0.694 l 6.825,-1.873 v -2.419 h -0.605 l -6.914,1.517 m 6.914,0.902 h 0.605 v -2.419 l -0.61,0.169 h -0.271 v 1.085 l 0.277,1.166 m -0.277,-1.166 h 0.271 v -1.085 l -0.332,-0.598 h -0.271 v 1.085 l 0.332,0.598"
         id="path525"
         style="color-interpolation:linearRGB;fill:#000000" />
      <path
         class="write-chisel-pen"
         fill="#ffffff"
         stroke-width="4"
         __comx="345.046"
         __comy="304.869"
         __timestamp="0x176389b4a25"
         d="m 349.07837,307.42198 h 0.412 v -1.646 l -0.251,-0.523 h -0.573 v 2.293 l 0.413,-0.124 m -0.413,0.124 h 0.573 v -2.293 l -0.523,-0.326 h -0.636 v 2.546 l 0.586,0.073 m 0.051,-0.073 v -2.546 h -0.636 l -2.352,-0.102 v 2.749 h 0.687 l 2.301,-0.102 m -2.301,0.102 v -2.749 h -0.687 l -3.103,2.191 v 2.755 h 0.689 l 3.102,-2.197 m -3.102,2.197 v -2.755 h -0.689 l -3.768,4.284 v 2.763 h 0.691 l 3.767,-4.292 m -3.767,4.292 v -2.763 h -0.691 l -2.437,4.891 v 2.754 h 0.688 l 2.439,-4.882 m -2.439,4.882 v -2.754 h -0.688 l -0.33,2.402 v 2.737 h 0.684 l 0.335,-2.385 m -0.335,-0.352 h -0.684 v 2.737 l 1.001,1.98 h 0.677 v -2.707 l -0.994,-2.009 m 0.994,2.009 h -0.677 v 2.707 l 2.438,0.795 h 0.675 v -2.701 l -2.437,-0.801 m 1.761,0.801 v 2.701 h 0.675 l 3.107,-1.279 v -2.735 h -0.684 l -3.098,1.313 m 3.098,-1.313 v 2.735 h 0.684 l 2.888,-3.06 v -2.798 h -0.699 l -2.873,3.123 m 2.873,-3.123 v 2.798 h 0.699 l 2.553,-4.369 v -2.835 h -0.709 l -2.544,4.406 m 2.544,-4.406 v 2.835 h 0.709 l 0.56,-3.765 v -2.883 h -0.721 l -0.548,3.814 m 1.269,-3.814 h -0.721 v 2.883 l 0.999,3.185 h 0.717 v -2.87 l -0.995,-3.198 m 0.995,3.198 h -0.717 v 2.87 l 2.767,3.003 h 0.723 v -2.893 l -2.773,-2.98 m 2.773,2.98 h -0.723 v 2.893 l 7.195,5.413 h 0.737 v -2.949 l -7.209,-5.357 m 6.472,8.306 h 0.737 v -2.949 l -0.479,-1.651 h -0.665 v 2.66 l 0.407,1.939 m -0.407,-1.939 h 0.665 v -2.66 l -0.496,-0.788 h -0.561 v 2.243 l 0.391,1.206 m -0.391,-1.206 h 0.561 v -2.243 l -0.951,-0.195 h -0.209 v 0.837 l 0.6,1.6 m -0.6,-1.6 h 0.209 v -0.837 l -1.108,-0.798 h -0.209 v 0.837 l 1.108,0.798"
         id="path527"
         style="color-interpolation:linearRGB;fill:#000000" />
      <path
         class="write-chisel-pen"
         fill="#ffffff"
         stroke-width="4"
         __comx="277.889"
         __comy="288.455"
         __timestamp="0x176389b4439"
         d="m 276.06837,300.91698 v -0.203 h -0.051 l -0.566,-0.836 v 2.074 h 0.518 l 0.098,-1.035 m -0.617,1.035 h 0.518 v -2.074 l -0.7,-1.399 h -0.669 v 2.678 l 0.851,0.795 m -0.851,-0.795 h 0.669 v -2.678 l -0.549,-0.519 h -0.68 v 2.718 l 0.559,0.478 m -0.559,-0.478 h 0.68 v -2.718 l -5.641,-9.911 h -0.699 v 2.795 l 5.661,9.834 m -5.661,-12.629 v 2.795 h 0.699 l 0.325,-0.728 v -2.735 h -0.684 l -0.34,0.668 m 0.34,-0.668 v 2.735 h 0.684 l 3.992,-1.183 v -2.763 h -0.691 l -3.985,1.21 m 3.985,-1.21 v 2.763 h 0.691 l 12.414,-0.085 v -2.793 h -0.698 l -12.406,0.115 m 12.406,-0.115 v 2.793 h 0.698 l 7.874,-1.27 v -2.845 h -0.711 l -7.86,1.322 m 7.86,1.523 h 0.711 v -2.845 h -0.075 -0.562 v 2.247 l -0.075,0.598"
         id="path529"
         style="color-interpolation:linearRGB;fill:#000000" />
      <path
         class="write-chisel-pen"
         fill="#ffffff"
         stroke-width="4"
         __comx="319.85"
         __comy="248.583"
         __timestamp="0x176389b3ff3"
         d="m 372.58737,239.83298 h 0.373 v -1.493 l -0.26,-0.49 h -0.518 v 2.074 l 0.405,-0.091 m 0.113,0.091 v -2.074 h -0.518 l -0.249,0.391 v 2.289 h 0.572 l 0.195,-0.606 m -0.195,0.606 v -2.289 h -0.572 l -0.924,2.343 v 2.59 h 0.647 l 0.849,-2.643 m -0.849,2.643 v -2.59 h -0.647 l -0.785,14.125 v 2.662 h 0.665 l 0.767,-14.197 m -0.767,14.197 v -2.662 h -0.665 l -1.335,6.562 v 2.701 h 0.675 l 1.325,-6.601 m -1.325,6.601 v -2.701 h -0.675 l -3.217,7.264 v 2.732 h 0.683 l 3.209,-7.295 m -3.209,7.295 v -2.732 h -0.683 l -9.313,14.336 v 2.78 h 0.695 l 9.302,-14.384 m -9.302,14.384 v -2.78 h -0.695 l -7.543,7.845 v 2.847 h 0.712 l 7.526,-7.912 m -7.526,7.912 v -2.847 h -0.712 l -5.987,4.073 v 2.877 h 0.719 l 5.98,-4.104 m -5.98,4.104 v -2.877 h -0.719 l -12.644,6.434 v 2.974 h 0.743 l 12.619,-6.53 m -12.619,6.53 v -2.974 h -0.743 l -7.649,2.778 v 3.001 h 0.75 l 7.642,-2.806 m -7.642,2.806 v -3.001 h -0.75 l -5.212,0.681 v 3.035 h 0.759 l 5.204,-0.715 m -5.962,0.715 h 0.759 v -3.035 l -10.526,-0.402 h -0.76 v 3.04 l 10.527,0.396 m -10.527,-0.396 h 0.76 v -3.04 l -5.207,-1.398 h -0.761 v 3.044 l 5.208,1.394 m -5.208,-1.394 h 0.761 v -3.044 l -10.085,-5.176 h -0.756 v 3.026 l 10.081,5.195 m -10.081,-5.195 h 0.756 v -3.026 l -9.662,-6.096 h -0.713 v 2.851 l 9.618,6.27 m -9.618,-6.27 h 0.713 v -2.851 l -8.863,-7.784 h -0.716 v 2.863 l 8.866,7.773 m -8.15,-10.635 h -0.716 v 2.863 l 0.664,-0.441 h 0.495 v -1.982 l -0.444,-0.441 m 0.444,0.441 h -0.495 v 1.982 l 0.835,-0.136 h 0.377 v -1.51 l -0.717,-0.336 m 0.717,0.336 h -0.377 v 1.51 l 0.902,-0.506 h 0.124 v -0.498 l -0.649,-0.506 m 0.649,0.506 h -0.124 v 0.498 l 0.665,0.1 h 0.124 v -0.498 l -0.665,-0.1"
         id="path531"
         style="color-interpolation:linearRGB;fill:#000000" />
      <path
         class="write-chisel-pen"
         fill="#ffffff"
         stroke-width="4"
         __comx="373.434"
         __comy="202.672"
         __timestamp="0x176389b3423"
         d="m 386.76737,203.74398 h 0.379 v -1.514 l -1.58,-0.929 h -0.544 v 2.175 l 1.745,0.268 m -1.745,-0.268 h 0.544 v -2.175 l -0.648,-0.169 h -0.579 v 2.314 l 0.682,0.03 m -0.682,-0.03 h 0.579 v -2.314 l -2.958,-0.432 h -0.645 v 2.58 l 3.025,0.166 m -2.38,-0.166 v -2.58 h -0.645 l -5.112,3.131 v 2.7 h 0.675 l 5.082,-3.251 m -5.082,3.251 v -2.7 h -0.675 l -4.877,4.782 v 2.709 h 0.677 l 4.874,-4.791 m -4.874,4.791 v -2.709 h -0.677 l -4.101,6.177 v 2.72 h 0.68 l 4.098,-6.188 m -4.098,6.188 v -2.72 h -0.68 l -1.218,3.994 v 2.711 h 0.678 l 1.22,-3.984 m -1.22,1.274 h -0.678 v 2.711 l 0.112,2.888 h 0.676 v -2.703 l -0.11,-2.896 m 0.11,2.896 h -0.676 v 2.703 l 1.662,1.396 h 0.676 v -2.703 l -1.662,-1.396 m 1.662,1.396 h -0.676 v 2.703 l 5.969,0.658 h 0.705 v -2.821 l -5.998,-0.539 m 5.293,0.539 v 2.821 h 0.705 l 7.662,-0.733 v -2.951 h -0.738 l -7.629,0.863 m 7.629,-0.863 v 2.951 h 0.738 l 4.101,-1.291 v -2.961 h -0.74 l -4.098,1.301 m 4.098,1.66 h 0.74 v -2.961 l -0.93,0.075 h -0.653 v 2.612 l 0.843,0.274 m -0.843,-0.274 h 0.653 v -2.612 l -0.582,0.012 h -0.597 v 2.388 l 0.526,0.212 m -0.526,-0.212 h 0.597 v -2.388 l -0.72,0.121 h -0.487 v 1.946 l 0.61,0.321 m -0.61,-0.321 h 0.487 v -1.946 l -0.565,0.287 h -0.244 v 0.974 l 0.322,0.685 m -0.322,-0.685 h 0.244 v -0.974 l -0.332,-0.199 h -0.244 v 0.974 l 0.332,0.199"
         id="path533"
         style="color-interpolation:linearRGB;fill:#000000" />
      <path
         class="write-chisel-pen"
         fill="#ffffff"
         stroke-width="4"
         __comx="380.8"
         __comy="189.647"
         __timestamp="0x176389b2d6f"
         d="m 373.73037,189.84898 v -1.447 h -0.362 l -2.374,0.109 v 1.827 h 0.457 l 2.279,-0.489 m -2.279,0.489 v -1.827 h -0.457 l -5.461,4.06 v 2.083 h 0.521 l 5.397,-4.316 m -5.397,4.316 v -2.083 h -0.521 l -4.006,5.118 v 2.219 h 0.555 l 3.972,-5.253 m -3.972,5.253 v -2.219 h -0.555 l -3.776,6.846 v 2.289 h 0.572 l 3.759,-6.916 m -3.759,6.916 v -2.289 h -0.572 l -2.665,10.746 v 2.337 h 0.584 l 2.653,-10.794 m -2.653,10.794 v -2.337 h -0.584 l -0.223,8.172 v 2.348 h 0.587 l 0.22,-8.183 m -0.22,5.835 h -0.587 v 2.348 l 0.886,3.195 h 0.589 v -2.355 l -0.887,-3.188 m 0.887,3.188 h -0.589 v 2.355 l 4.763,7.184 h 0.591 v -2.364 l -4.766,-7.176 m 4.766,7.176 h -0.591 v 2.364 l 3.212,2.7 h 0.594 v -2.378 l -3.215,-2.686 m 3.215,2.686 h -0.594 v 2.378 l 4.647,1.82 h 0.607 v -2.428 l -4.66,-1.77 m 4.66,1.77 h -0.607 v 2.428 l 4.761,0.612 h 0.614 v -2.455 l -4.768,-0.585 m 4.154,0.585 v 2.455 h 0.614 l 10.419,-0.586 v -2.481 h -0.62 l -10.412,0.611 m 10.412,-0.611 v 2.481 h 0.62 l 6.317,-1.389 v -2.494 h -0.624 l -6.314,1.403 m 6.314,-1.403 v 2.494 h 0.624 l 3.105,-2.186 v -2.511 h -0.628 l -3.101,2.202 m 3.101,-2.202 v 2.511 h 0.628 l 9.211,-10.611 v -2.629 h -0.657 l -9.182,10.729 m 9.182,-10.729 v 2.629 h 0.657 l 8.213,-11.315 v -2.735 h -0.684 l -8.186,11.422 m 8.186,-11.422 v 2.735 h 0.684 l 2.007,-5.235 v -2.836 h -0.709 l -1.982,5.336 m 1.982,-2.5 h 0.709 v -2.836 l 0.006,-5.111 h -0.721 v 2.886 l 0.006,5.061 m -0.006,-5.061 h 0.721 v -2.886 l -1.992,-5.196 h -0.727 v 2.906 l 1.997,5.176 m -1.997,-5.176 h 0.727 v -2.906 l -3.766,-4.991 h -0.729 v 2.916 l 3.769,4.981 m -3.769,-4.981 h 0.729 v -2.916 l -5.986,-4.576 h -0.723 v 2.893 l 5.981,4.599 m -5.981,-4.599 h 0.723 v -2.893 l -7.314,-3.586 h -0.721 v 2.884 l 7.312,3.594 m -7.312,-3.594 h 0.721 v -2.884 l -7.537,-1.485 h -0.716 v 2.863 l 7.532,1.507 m -6.816,-1.507 v -2.863 h -0.716 l -7.963,1.754 v 2.745 h 0.686 l 7.993,-1.636 m -7.993,1.636 v -2.745 h -0.686 l -3.972,2.161 v 2.611 h 0.653 l 4.006,-2.027 m -4.006,2.027 v -2.611 h -0.653 l -6.938,6.651 v 2.273 h 0.568 l 7.023,-6.313 m -7.023,6.313 v -2.273 h -0.568 l -2.379,3.924 v 1.805 h 0.451 l 2.496,-3.456 m -2.496,3.456 v -1.805 h -0.451 l -1.495,4.359 v 0.467 h 0.117 l 1.829,-3.021 m -1.829,3.021 v -0.467 h -0.117 l -1.329,3.59 v 0.467 h 0.117 l 1.329,-3.59"
         id="path535"
         style="color-interpolation:linearRGB;fill:#000000" />
      <path
         class="write-chisel-pen"
         fill="#ffffff"
         stroke-width="4"
         __comx="310.09"
         __comy="252.948"
         __timestamp="0x176389b1b27"
         d="m 318.98437,254.48898 h 0.322 v -1.287 l -0.009,-0.708 h -0.526 v 2.104 l 0.213,-0.109 m 0.313,0.109 v -2.104 h -0.526 l -4.51,0.785 v 2.728 h 0.682 l 4.354,-1.409 m -4.354,1.409 v -2.728 h -0.682 l -0.999,0.691 v 2.741 h 0.685 l 0.996,-0.705 m -0.996,0.705 v -2.741 h -0.685 l -3.768,3.786 v 2.748 h 0.687 l 3.766,-3.793 m -3.766,3.793 v -2.748 h -0.687 l -2.216,3.691 v 2.745 h 0.686 l 2.217,-3.688 m -2.217,3.688 v -2.745 h -0.686 l -1.216,4.201 v 2.718 h 0.68 l 1.222,-4.175 m -1.222,1.457 h -0.68 v 2.718 l 0.887,2.091 h 0.678 v -2.712 l -0.886,-2.097 m 0.886,2.097 h -0.678 v 2.712 l 2.1,1.715 h 0.688 v -2.751 l -2.11,-1.676 m 2.11,1.676 h -0.688 v 2.751 l 4.641,1.146 h 0.712 v -2.848 l -4.666,-1.048 m 3.954,1.048 v 2.848 h 0.712 l 3.666,-0.062 v -2.923 h -0.731 l -3.647,0.137 m 3.647,-0.137 v 2.923 h 0.731 l 2.334,-1.468 v -2.979 h -0.745 l -2.32,1.524 m 2.32,1.455 h 0.745 v -2.979 h -0.075 -0.595 v 2.381 l -0.075,0.598 m 0.075,-0.598 h 0.595 v -2.381 l -0.577,0.236 h -0.328 v 1.311 l 0.31,0.834 m -0.31,-0.834 h 0.328 v -1.311 l -0.554,-0.399 h -0.328 v 1.311 l 0.554,0.399"
         id="path537"
         style="color-interpolation:linearRGB;fill:#000000" />
      <path
         class="write-chisel-pen"
         fill="#ffffff"
         stroke-width="4"
         __comx="338.193"
         __comy="200.243"
         __timestamp="0x176389b1669"
         d="m 335.10637,219.20798 h 0.432 v -1.727 l -1.032,-0.505 h -0.584 v 2.337 l 1.184,-0.106 m -0.6,-2.232 h -0.584 v 2.337 l 0.614,0.202 h 0.685 v -2.741 l -0.715,0.202 m 0.715,-0.202 h -0.685 v 2.741 l 12.181,4.916 h 0.7 v -2.801 l -12.196,-4.857 m 12.196,4.857 h -0.7 v 2.801 l 1.327,1.605 h 0.705 v -2.82 l -1.332,-1.586 m 1.332,4.406 v -2.82 h -0.705 l -1.79,3.619 v 2.961 h 0.74 l 1.755,-3.76 m -1.755,3.76 v -2.961 h -0.74 l -5.211,6.468 v 2.989 h 0.747 l 5.204,-6.496 m -5.952,6.496 h 0.747 v -2.989 h -0.1 -0.548 v 2.191 l -0.1,0.798 m 0.1,-2.989 v 2.191 h 0.548 l 0.031,-0.618 v -1.553 h -0.388 l -0.19,-0.02 m 0.19,1.573 h 0.388 v -1.553 -0.399 h -0.388 v 1.553 0.399"
         id="path539"
         style="color-interpolation:linearRGB;fill:#000000" />
      <path
         class="write-chisel-pen"
         fill="#ffffff"
         stroke-width="4"
         __comx="306.808"
         __comy="200.243"
         __timestamp="0x176389b144b"
         d="m 276.93437,255.50798 v -0.931 h -0.233 l -0.411,-0.316 v 1.564 h 0.391 l 0.253,-0.316 m -0.253,0.316 v -1.564 h -0.391 l -0.39,-0.23 v 2.024 h 0.506 l 0.275,-0.23 m -0.781,-1.794 v 2.024 h 0.506 l 0.341,0.177 v -2.976 h -0.744 l -0.103,0.775 m 0.103,-0.775 v 2.976 h 0.744 l 24.71,-10.267 v -2.985 h -0.746 l -24.708,10.276 m 24.708,-10.276 v 2.985 h 0.746 l 34.34,-17.688 v -2.91 h -0.728 l -34.358,17.614 m 34.358,-17.614 v 2.91 h 0.728 l 8.205,-5.563 v -2.953 h -0.738 l -8.194,5.606 m 8.194,-2.653 h 0.738 v -2.953 l -0.695,0.463 h -0.457 v 1.827 l 0.413,0.663 m 0.043,-0.663 v -1.827 h -0.457 -0.554 v 1.827 h 0.457 0.554"
         id="path541"
         style="color-interpolation:linearRGB;fill:#000000" />
      <path
         class="write-chisel-pen"
         fill="#ffffff"
         stroke-width="4"
         __comx="301.06"
         __comy="200.243"
         __timestamp="0x176389b0c09"
         d="m 310.29437,142.28898 h 0.416 v -1.663 l -0.809,-0.609 h -0.571 v 2.282 l 0.964,-0.011 m -0.964,0.011 h 0.571 v -2.282 l -0.429,-0.256 h -0.599 v 2.395 l 0.457,0.143 m -0.457,-0.143 h 0.599 v -2.395 l -4.395,-0.649 h -0.674 v 2.695 l 4.47,0.349 m -3.796,-0.349 v -2.695 h -0.674 l -3.768,1.893 v 2.698 h 0.675 l 3.767,-1.896 m -3.767,1.896 v -2.698 h -0.675 l -3.877,4.192 v 2.69 h 0.673 l 3.879,-4.184 m -3.879,4.184 v -2.69 h -0.673 l -1.655,4.017 v 2.633 h 0.658 l 1.669,-3.96 m -1.669,1.327 h -0.658 v 2.633 l 0.448,1.576 h 0.649 v -2.595 l -0.438,-1.615 m 0.438,1.615 h -0.649 v 2.595 l 1.662,1.097 h 0.649 v -2.595 l -1.662,-1.097 m 1.662,1.097 h -0.649 v 2.595 l 2.437,0.302 h 0.65 v -2.601 l -2.438,-0.296 m 1.788,0.296 v 2.601 h 0.65 l 2.662,-0.888 v -2.621 h -0.655 l -2.657,0.907 m 2.657,-0.907 v 2.621 h 0.655 l 2.885,-3.473 v -2.654 h -0.664 l -2.877,3.507 m 2.877,-3.507 v 2.654 h 0.664 l 1.332,-4.278 v -2.675 h -0.669 l -1.327,4.298 m 1.327,-1.624 h 0.669 v -2.675 l -0.555,-3.088 h -0.667 v 2.668 l 0.553,3.095 m 0.114,-3.095 v -2.668 h -0.667 l -0.118,3.66 v 2.728 h 0.682 l 0.103,-3.719 m -0.103,0.992 h -0.682 v 2.728 l 1.435,4.309 h 0.692 v -2.769 l -1.446,-4.267 m 1.446,4.267 h -0.692 v 2.769 l 1.33,1.296 h 0.692 v -2.769 l -1.33,-1.296 m 1.33,1.296 h -0.692 v 2.769 l 3.972,1.064 h 0.725 v -2.902 l -4.006,-0.931 m 3.28,3.833 h 0.725 v -2.902 l -0.5,-0.072 h -0.612 v 2.447 l 0.386,0.527 m -0.386,-0.527 h 0.612 v -2.447 l -0.627,0.091 h -0.466 v 1.865 l 0.481,0.49 m -0.481,-0.49 h 0.466 v -1.865 l -1.096,0.741 h -0.046 v 0.184 l 0.676,0.94 m -0.676,-0.94 h 0.046 v -0.184 l -1.33,-0.199 h -0.046 v 0.184 l 1.33,0.199"
         id="path543"
         style="color-interpolation:linearRGB;fill:#000000" />
      <path
         class="write-chisel-pen"
         fill="#ffffff"
         stroke-width="4"
         __comx="255.237"
         __comy="200.243"
         __timestamp="0x176389b05ef"
         d="m 255.17537,214.05598 v -0.597 h -0.149 l -1.303,-0.336 v 1.269 h 0.317 l 1.135,-0.336 m -1.452,0.336 h 0.317 v -1.269 l -0.407,-0.244 h -0.389 v 1.557 l 0.479,-0.044 m -0.479,0.044 h 0.389 v -1.557 l -0.595,-1.077 h -0.529 v 2.115 l 0.735,0.519 m -0.735,-0.519 h 0.529 v -2.115 l -0.2,-0.587 h -0.573 v 2.291 l 0.244,0.411 m -0.244,-0.411 h 0.573 v -2.291 l -0.3,-1.026 h -0.637 v 2.547 l 0.364,0.769 m 0.272,-3.317 h -0.637 v 2.547 l 1.764,5.819 h 0.654 v -2.617 l -1.782,-5.749 m 1.782,5.749 h -0.654 v 2.617 l 1.107,7.881 h 0.656 v -2.624 l -1.109,-7.875 m 1.109,7.875 h -0.656 v 2.624 l 0.331,1.001 h 0.658 v -2.632 l -0.333,-0.993 m -0.325,0.993 v 2.632 h 0.658 l 2.459,-2.307 v -2.805 h -0.701 l -2.416,2.48 m 2.416,-2.48 v 2.805 h 0.701 l 6.637,-10.116 v -2.717 h -0.679 l -6.659,10.028 m 6.659,-7.311 h 0.679 v -2.717 l -0.214,0.015 h -0.472 v 1.889 l 0.007,0.813 m -0.007,-0.813 h 0.472 v -1.889 l -0.333,-0.598 h -0.472 v 1.889 l 0.333,0.598"
         id="path545"
         style="color-interpolation:linearRGB;fill:#000000" />
      <path
         class="write-chisel-pen"
         fill="#ffffff"
         stroke-width="4"
         __comx="273.736"
         __comy="200.243"
         __timestamp="0x176389b01cf"
         d="m 268.16937,236.86098 h 0.233 v -0.934 l -0.257,-0.501 h -0.384 v 1.538 l 0.408,-0.103 m -0.408,-1.435 v 1.538 h 0.384 l 0.679,0.203 v -2.542 h -0.636 l -0.428,0.802 m 0.428,-0.802 v 2.542 h 0.636 l 4.545,-3.085 v -2.556 h -0.639 l -4.541,3.098 m 4.541,-3.098 v 2.556 h 0.639 l 3.768,-3.787 v -2.56 h -0.64 l -3.767,3.792 m 3.767,-3.792 v 2.56 h 0.64 l 11.749,-15.642 v -2.59 h -0.647 l -11.742,15.671 m 11.742,-15.671 v 2.59 h 0.647 l 2.55,-4.582 v -2.601 h -0.65 l -2.547,4.593 m 2.547,-4.593 v 2.601 h 0.65 l 2.559,-8.134 v -2.689 h -0.672 l -2.537,8.221 m 2.537,-8.221 v 2.689 h 0.672 l 2.235,-13.189 v -2.836 h -0.709 l -2.198,13.337 m 2.198,-10.501 h 0.709 v -2.836 l -0.106,-6.204 h -0.72 v 2.879 l 0.116,6.162 m -0.116,-6.162 h 0.72 v -2.879 l -1.321,-6.118 h -0.737 v 2.949 l 1.338,6.048 m -1.338,-6.048 h 0.737 v -2.949 l -3.765,-9.883 h -0.742 v 2.969 l 3.77,9.862 m -3.77,-9.862 h 0.742 v -2.969 l -4.43,-7.985 h -0.746 v 2.985 l 4.434,7.97 m -4.434,-7.97 h 0.746 v -2.985 l -5.32,-5.381 h -0.744 v 2.976 l 5.317,5.389 m -5.317,-5.389 h 0.744 v -2.976 l -2.771,-1.592 h -0.742 v 2.969 l 2.769,1.599 m -2.769,-1.599 h 0.742 v -2.969 l -5.212,-0.978 h -0.733 v 2.932 l 5.203,1.016 m -4.47,-1.016 v -2.932 h -0.733 l -3.872,0.624 v 2.88 h 0.72 l 3.885,-0.573 m -3.885,0.573 v -2.88 h -0.72 l -3.099,3.305 v 2.852 h 0.713 l 3.106,-3.277 m -3.106,3.277 v -2.852 h -0.713 l -1.439,3.297 v 2.839 h 0.71 l 1.442,-3.284 m -1.442,3.284 v -2.839 h -0.71 l -3.982,18.176 v 2.786 h 0.696 l 3.996,-18.123 m -3.996,18.123 v -2.786 h -0.696 l -1.215,9.489 v 2.755 h 0.689 l 1.223,-9.459 m -1.223,9.459 v -2.755 h -0.689 l -1.44,28.324 v 2.749 h 0.687 l 1.441,-28.318 m -1.441,25.569 h -0.687 v 2.749 l 0.885,10.479 h 0.691 v -2.764 l -0.888,-10.463 m 0.197,13.228 h 0.691 v -2.764 l -0.168,-3.261 h -0.576 v 2.305 l 0.054,3.72 m -0.054,-3.72 h 0.576 v -2.305 l -0.162,-0.893 h -0.474 v 1.897 l 0.06,1.301 m -0.06,-1.301 h 0.474 v -1.897 l -0.239,-0.685 h -0.218 v 0.874 l -0.017,1.708 m 0.017,-1.708 h 0.218 v -0.874 l -0.222,-1.197 h -0.218 v 0.874 l 0.222,1.197"
         id="path547"
         style="color-interpolation:linearRGB;fill:#000000" />
      <path
         class="write-chisel-pen"
         fill="#ffffff"
         stroke-width="4"
         __comx="244.826"
         __comy="232.344"
         __timestamp="0x176389ae39b"
         d="m 245.29737,229.16998 h 0.327 v -1.307 l -1.357,-0.433 h -0.493 v 1.974 l 1.524,-0.233 m -1.03,0.233 v -1.974 h -0.493 l -0.463,-0.079 v 2.132 h 0.533 l 0.423,-0.079 m -0.423,0.079 v -2.132 h -0.533 l -3.027,0.06 v 2.411 h 0.603 l 2.957,-0.339 m -2.957,0.339 v -2.411 h -0.603 l -4.326,2.872 v 2.45 h 0.613 l 4.316,-2.912 m -4.316,2.912 v -2.45 h -0.613 l -4.324,4.276 v 2.474 h 0.618 l 4.318,-4.3 m -4.318,4.3 v -2.474 h -0.618 l -3.879,5.882 v 2.477 h 0.619 l 3.878,-5.885 m -3.878,5.885 v -2.477 h -0.619 l -2.77,7.082 v 2.474 h 0.618 l 2.771,-7.079 m -2.771,7.079 v -2.474 h -0.618 l -1.994,7.979 v 2.472 h 0.618 l 1.995,-7.977 m -1.995,7.977 v -2.472 h -0.618 l -0.663,7.785 v 2.459 h 0.615 l 0.666,-7.772 m -0.666,5.313 h -0.615 v 2.459 l 0.888,5.08 h 0.612 v -2.447 l -0.885,-5.092 m 0.885,5.092 h -0.612 v 2.447 l 3.548,6.97 h 0.606 v -2.424 l -3.543,-6.992 m 3.543,6.992 h -0.606 v 2.424 l 3.107,3.87 h 0.597 v -2.386 l -3.098,-3.908 m 3.098,3.908 h -0.597 v 2.386 l 4.994,4.157 h 0.581 v -2.323 l -4.978,-4.22 m 4.978,4.22 h -0.581 v 2.323 l 5.43,2.988 h 0.579 v -2.316 l -5.428,-2.995 m 5.428,2.995 h -0.579 v 2.316 l 6.097,1.385 h 0.574 v -2.295 l -6.092,-1.407 m 6.092,1.407 h -0.574 v 2.295 l 6.316,0.2 h 0.574 v -2.297 l -6.316,-0.199 m 5.742,0.199 v 2.297 h 0.574 l 5.762,-0.798 v -2.297 h -0.574 l -5.762,0.798 m 5.762,-0.798 v 2.297 h 0.574 l 5.325,-3.365 v -2.348 h -0.587 l -5.312,3.416 m 5.312,-3.416 v 2.348 h 0.587 l 3.113,-2.952 v -2.428 h -0.607 l -3.093,3.032 m 3.093,-3.032 v 2.428 h 0.607 l 2.223,-3.763 v -2.481 h -0.62 l -2.209,3.816 m 2.209,-3.816 v 2.481 h 0.62 l 1.887,-5.571 v -2.507 h -0.627 l -1.88,5.598 m 1.88,-5.598 v 2.507 h 0.627 l 1.789,-10.306 v -2.638 h -0.66 l -1.757,10.437 m 1.757,-10.437 v 2.638 h 0.66 l 0.229,-6.353 v -2.697 h -0.674 l -0.214,6.411 m 0.214,-3.715 h 0.674 v -2.697 l -1.209,-6.324 h -0.695 v 2.78 l 1.229,6.241 m -1.229,-6.241 h 0.695 v -2.78 l -3.318,-6.505 h -0.706 v 2.826 l 3.33,6.459 m -3.33,-6.459 h 0.706 v -2.826 l -2.659,-3.291 h -0.706 v 2.826 l 2.659,3.291 m -2.659,-3.291 h 0.706 v -2.826 l -7.094,-5.974 h -0.702 v 2.808 l 7.089,5.992 m -7.089,-5.992 h 0.702 v -2.808 l -8.761,-4.658 h -0.687 v 2.749 l 8.746,4.716 m -8.746,-4.716 h 0.687 v -2.749 l -9.102,-2.127 h -0.654 v 2.616 l 9.069,2.261 m -8.415,-2.261 v -2.616 h -0.654 l -4.312,0.437 v 2.539 h 0.635 l 4.331,-0.361 m -4.331,0.361 v -2.539 h -0.635 l -7.473,4.635 v 2.045 h 0.511 l 7.596,-4.141 m -7.596,4.141 v -2.045 h -0.511 l -3.014,3.946 v 1.334 h 0.334 l 3.191,-3.235 m -3.191,3.235 v -1.334 h -0.334 l -2.327,4.089 v 1.334 h 0.334 l 2.327,-4.089"
         id="path549"
         style="color-interpolation:linearRGB;fill:#000000" />
      <path
         class="write-chisel-pen"
         fill="#ffffff"
         stroke-width="4"
         __comx="245.933"
         __comy="241.931"
         __timestamp="0x176389adfb3"
         d="m 238.38337,244.80498 h 0.416 v -1.663 l -0.698,-0.708 h -0.57 v 2.28 l 0.853,0.09 m -0.853,-2.371 v 2.28 h 0.57 l 1.122,-0.342 v -2.395 h -0.599 l -1.094,0.456 m 1.094,-0.456 v 2.395 h 0.599 l 6.649,-2.092 v -2.4 h -0.6 l -6.648,2.097 m 6.648,-2.097 v 2.4 h 0.6 l 4.872,-0.312 v -2.374 h -0.594 l -4.878,0.286 m 5.472,-0.286 h -0.594 v 2.374 l 2.107,0.691 h 0.59 v -2.36 l -2.104,-0.705 m 2.104,0.705 h -0.59 v 2.36 l 1.104,2.11 h 0.598 v -2.392 l -1.112,-2.078 m 1.112,4.47 v -2.392 h -0.598 l -0.233,2.346 v 2.486 h 0.621 l 0.21,-2.44 m -0.21,2.44 v -2.486 h -0.621 l -1.67,2.761 v 2.549 h 0.637 l 1.654,-2.824 m -1.654,2.824 v -2.549 h -0.637 l -3.55,2.774 v 2.585 h 0.646 l 3.541,-2.81 m -3.541,2.81 v -2.585 h -0.646 l -1.87,0.356 v 2.472 h 0.618 l 1.898,-0.243 m -2.516,-2.229 v 2.472 h 0.618 l 4.647,-0.824 v -2.419 h -0.605 l -4.66,0.771 m 5.265,-0.771 h -0.605 v 2.419 l 3.548,0.389 h 0.6 v -2.399 l -3.543,-0.409 m 3.543,0.409 h -0.6 v 2.399 l 3.104,1.887 h 0.596 v -2.383 l -3.101,-1.903 m 3.101,1.903 h -0.596 v 2.383 l 1.883,3.094 h 0.597 v -2.388 l -1.884,-3.089 m 1.884,3.089 h -0.597 v 2.388 l 0.76,4.649 h 0.628 v -2.511 l -0.791,-4.526 m 0.791,7.037 v -2.511 h -0.628 l -0.904,2.821 v 2.652 h 0.663 l 0.869,-2.963 m -0.869,2.963 v -2.652 h -0.663 l -2.564,2.83 v 2.777 h 0.694 l 2.533,-2.954 m -2.533,2.954 v -2.777 h -0.694 l -3.884,1.772 v 2.823 h 0.706 l 3.872,-1.818 m -3.872,1.818 v -2.823 h -0.706 l -4.539,0.117 v 2.789 h 0.697 l 4.547,-0.083 m -5.244,0.083 h 0.697 v -2.789 l -2.004,-0.659 h -0.678 v 2.711 l 1.985,0.737 m -1.985,-0.737 h 0.678 v -2.711 l -2.688,-2.678 h -0.621 v 2.482 l 2.631,2.906 m -2.631,-2.906 h 0.621 v -2.482 l -0.5,-3.363 h -0.507 v 2.028 l 0.387,3.817 m -0.387,-5.845 v 2.028 h 0.507 l 0.145,-1.704 v -1.412 h -0.353 l -0.299,1.088 m 0.299,-1.088 v 1.412 h 0.353 l 0.283,-1.537 v -0.133 h -0.033 l -0.603,0.258 m 0.603,-0.258 v 0.133 h 0.033 l 0.332,-0.399 v -0.133 h -0.033 l -0.332,0.399"
         id="path551"
         style="color-interpolation:linearRGB;fill:#000000" />
      <path
         class="write-chisel-pen"
         fill="#ffffff"
         stroke-width="4"
         __comx="240.609"
         __comy="240.332"
         __timestamp="0x176389add39"
         d="m 244.67337,240.92298 v -1.677 h -0.419 l -1.144,1.652 v 1.964 h 0.491 l 1.072,-1.938 m -1.072,1.938 v -1.964 h -0.491 l -0.565,9.926 v 2.057 h 0.514 l 0.542,-10.019 m -0.542,7.962 h -0.514 v 2.057 l 1.82,10.281 h 0.419 v -1.677 l -1.725,-10.661 m 1.725,10.661 h -0.419 v 1.677 l 0.284,0.349 h 0.294 v -1.178 l -0.159,-0.848 m 0.159,0.848 h -0.294 v 1.178 l 0.205,0.022 h 0.106 v -0.423 l -0.016,-0.776"
         id="path553"
         style="color-interpolation:linearRGB;fill:#000000" />
      <path
         class="write-chisel-pen"
         fill="#ffffff"
         stroke-width="4"
         __comx="175.621"
         __comy="215.119"
         __timestamp="0x176389ac597"
         d="m 175.36437,212.83598 h 0.138 v -0.551 l -0.317,-0.605 h -0.39 v 1.561 l 0.569,-0.405 m -0.179,0.405 v -1.561 h -0.39 l -0.53,0.349 v 2.259 h 0.565 l 0.356,-1.047 m -0.356,1.047 v -2.259 h -0.565 l -0.119,0.864 v 2.325 h 0.581 l 0.103,-0.931 m -0.103,0.931 v -2.325 h -0.581 l -0.564,13.023 v 2.407 h 0.602 l 0.544,-13.105 m -0.544,10.698 h -0.602 v 2.407 l 0.998,9.372 h 0.601 v -2.404 l -0.997,-9.376 m 0.997,9.376 h -0.601 v 2.404 l 1.109,4.185 h 0.599 v -2.397 l -1.107,-4.192 m 0.508,6.589 h 0.599 v -2.397 l -0.208,-6.338 h -0.627 v 2.507 l 0.235,6.227 m -0.235,-8.735 v 2.507 h 0.627 l 2.433,-1.713 v -2.472 h -0.618 l -2.442,1.678 m 3.06,-1.678 h -0.618 v 2.472 l 3.106,0.683 h 0.61 v -2.442 l -3.099,-0.713 m 3.099,0.713 h -0.61 v 2.442 l 2.219,2.283 h 0.605 v -2.421 l -2.214,-2.304 m 2.214,2.304 h -0.605 v 2.421 l 0.099,2.441 h 0.629 v -2.516 l -0.123,-2.346 m 0.123,4.862 v -2.516 h -0.629 l -1.115,2.465 v 2.572 h 0.643 l 1.101,-2.521 m -1.101,2.521 v -2.572 h -0.643 l -3.105,3.281 v 2.591 h 0.648 l 3.1,-3.301 m -3.1,3.301 v -2.591 h -0.648 l -1.43,0.041 v 2.509 h 0.627 l 1.451,0.041 m -2.078,-0.041 h 0.627 v -2.509 l -0.617,-1.246 h -0.502 v 2.009 l 0.491,1.746 m -0.491,-3.755 v 2.009 h 0.502 l 0.195,-1.005 v -1.793 h -0.448 l -0.249,0.79 m 0.249,-0.79 v 1.793 h 0.448 l 0.403,-0.859 v -1.471 h -0.368 l -0.483,0.537 m 0.483,-0.537 v 1.471 h 0.368 l 0.567,-0.889 v -0.69 h -0.172 l -0.762,0.108 m 0.762,-0.108 v 0.69 h 0.172 l 0.5,-0.616 v -0.256 h -0.064 l -0.608,0.182 m 0.608,-0.182 v 0.256 h 0.064 l 0.332,-0.199 v -0.256 h -0.064 l -0.332,0.199"
         id="path555"
         style="color-interpolation:linearRGB;fill:#000000" />
      <path
         class="write-chisel-pen"
         fill="#ffffff"
         stroke-width="4"
         __comx="205.616"
         __comy="244.132"
         __timestamp="0x176389a64fe"
         d="m 200.33737,246.91798 h 0.276 v -1.104 l -0.679,-0.485 h -0.469 v 1.875 l 0.872,-0.286 m -0.872,0.286 h 0.469 v -1.875 l -0.293,-0.259 h -0.548 v 2.193 l 0.372,-0.059 m 0.176,-2.134 h -0.548 v 2.193 l 3.938,1.299 h 0.649 v -2.598 l -4.039,-0.895 m 4.039,0.895 h -0.649 v 2.598 l 14.729,8.11 h 0.665 v -2.662 l -14.745,-8.046 m 14.745,10.708 v -2.662 h -0.665 l -4.247,1.949 v 2.951 h 0.738 l 4.175,-2.239 m -4.175,2.239 v -2.951 h -0.738 l -9.742,8.71 v 2.883 h 0.721 l 9.759,-8.642 m -10.48,5.759 v 2.883 h 0.721 l 0.235,-0.587 v -2.108 h -0.527 l -0.429,-0.188"
         id="path557"
         style="color-interpolation:linearRGB;fill:#000000" />
      <path
         class="write-chisel-pen"
         fill="#ffffff"
         stroke-width="4"
         __comx="177.12"
         __comy="251.645"
         __timestamp="0x176389a5a22"
         d="m 152.45537,256.70398 h 0.083 v -0.332 l -0.058,-0.952 h -0.409 v 1.638 l 0.385,-0.354 m 0.025,-1.284 h -0.409 v 1.638 l 0.658,0.671 h 0.645 v -2.58 l -0.893,0.272 m 0.893,-0.272 h -0.645 v 2.58 l 9.966,1.423 h 0.658 v -2.633 l -9.979,-1.369 m 9.321,1.369 v 2.633 h 0.658 l 45.103,-1.072 v -2.684 h -0.671 l -45.091,1.122 m 45.091,1.562 h 0.671 v -2.684 l -0.239,0.012 h -0.416 v 1.662 l -0.017,1.009 m 0.017,-1.009 h 0.416 v -1.662 l -0.239,0.012 h -0.16 v 0.641 l -0.017,1.009 m 0.017,-1.009 h 0.16 v -0.641 l -0.221,-0.698 h -0.16 v 0.641 l 0.221,0.698"
         id="path559"
         style="color-interpolation:linearRGB;fill:#000000" />
      <path
         class="write-chisel-pen"
         fill="#ffffff"
         stroke-width="4"
         __comx="122.979"
         __comy="233.154"
         __timestamp="0x176389a4be9"
         d="m 126.05237,232.75598 v -0.303 h -0.076 l -0.774,-0.435 v 1.173 h 0.293 l 0.556,-0.435 m -0.556,0.435 v -1.173 h -0.293 l -0.463,-0.08 v 1.334 h 0.334 l 0.423,-0.08 m -0.423,0.08 v -1.334 h -0.334 l -4.967,-0.066 v 2.064 h 0.516 l 4.784,-0.664 m -4.784,0.664 v -2.064 h -0.516 l -0.892,0.175 v 2.113 h 0.528 l 0.88,-0.224 m -0.88,0.224 v -2.113 h -0.528 l -2.89,0.76 v 2.19 h 0.547 l 2.871,-0.836 m -2.871,0.836 v -2.19 h -0.547 l -4.988,2.885 v 2.204 h 0.551 l 4.984,-2.899 m -4.984,2.899 v -2.204 h -0.551 l -3.103,2.891 v 2.206 h 0.552 l 3.102,-2.893 m -3.102,2.893 v -2.206 h -0.552 l -2.107,4.184 v 2.215 h 0.554 l 2.104,-4.193 m -2.104,4.193 v -2.215 h -0.554 l -1.108,5.485 v 2.215 h 0.554 l 1.108,-5.485 m -1.108,5.485 v -2.215 h -0.554 l -0.222,7.678 v 2.217 h 0.554 l 0.221,-7.68 m -0.221,5.462 h -0.554 v 2.217 l 2.217,6.977 h 0.552 v -2.21 l -2.215,-6.984 m 2.215,6.984 h -0.552 v 2.21 l 2.775,4.768 h 0.543 v -2.173 l -2.765,-4.805 m 2.765,4.805 h -0.543 v 2.173 l 4.323,3.982 h 0.54 v -2.16 l -4.32,-3.995 m 4.32,3.995 h -0.54 v 2.16 l 6.883,4.437 h 0.515 v -2.059 l -6.857,-4.538 m 6.857,4.538 h -0.515 v 2.059 l 6.766,2.365 h 0.5 v -2.001 l -6.752,-2.422 m 6.752,2.422 h -0.5 v 2.001 l 4.766,0.492 h 0.497 v -1.987 l -4.763,-0.505 m 4.266,0.505 v 1.987 h 0.497 l 9.315,-0.966 v -2.049 h -0.512 l -9.3,1.028 m 9.3,-1.028 v 2.049 h 0.512 l 3.216,-1.387 v -2.068 h -0.517 l -3.211,1.406 m 3.211,-1.406 v 2.068 h 0.517 l 1.996,-1.887 v -2.083 h -0.521 l -1.993,1.902 m 1.993,-1.902 v 2.083 h 0.521 l 1.564,-4.436 v -2.186 h -0.546 l -1.538,4.539 m 1.538,-4.539 v 2.186 h 0.546 l 0.254,-8.845 v -2.447 h -0.612 l -0.189,9.105 m 0.189,-6.659 h 0.612 v -2.447 l -1.304,-19.349 h -0.663 v 2.651 l 1.355,19.144 m -1.355,-19.144 h 0.663 v -2.651 l -1.214,-5.705 h -0.673 v 2.692 l 1.224,5.664 m -1.224,-5.664 h 0.673 v -2.692 l -2.548,-3.592 h -0.674 v 2.695 l 2.549,3.588 m -2.549,-3.588 h 0.674 v -2.695 l -5.212,-2.777 h -0.666 v 2.665 l 5.204,2.807 m -5.204,-2.807 h 0.666 v -2.665 l -7.991,-0.947 h -0.641 v 2.564 l 7.965,1.048 m -7.324,-1.048 v -2.564 h -0.641 l -9.175,1.884 v 2.386 h 0.597 l 9.219,-1.706 m -9.219,1.706 v -2.386 h -0.597 l -8.923,5.893 v 1.968 h 0.492 l 9.027,-5.475 m -9.027,5.475 v -1.968 h -0.492 l -3.731,4.135 v 1.675 h 0.419 l 3.804,-3.843 m -3.804,3.843 v -1.675 h -0.419 l -2.874,4.76 v 0.732 h 0.183 l 3.11,-3.816 m -3.11,3.816 v -0.732 h -0.183 l -2.216,4.089 v 0.732 h 0.183 l 2.216,-4.089"
         id="path561"
         style="color-interpolation:linearRGB;fill:#000000" />
      <path
         class="write-chisel-pen"
         fill="#ffffff"
         stroke-width="4"
         __comx="123.288"
         __comy="256.724"
         __timestamp="0x176389a47ae"
         d="m 122.71937,261.84798 v 1.546 h 0.387 l 4.843,-0.087 v -2.171 h -0.543 l -4.686,0.711 m 4.686,-0.711 v 2.171 h 0.543 l 1.791,-1.267 v -1.432 h -0.358 l -1.976,0.528 m 1.976,-0.528 v 1.432 h 0.358 l 0.356,-0.748 v -0.734 h -0.184 l -0.53,0.05 m 0.53,-0.05 v 0.734 h 0.184 l 0.048,-0.65 v -0.232 h -0.058 l -0.174,0.148 m 0.174,0.084 h 0.058 v -0.232 -0.399 h -0.058 v 0.232 0.399"
         id="path563"
         style="color-interpolation:linearRGB;fill:#000000" />
      <path
         class="write-chisel-pen"
         fill="#ffffff"
         stroke-width="4"
         __comx="126.573"
         __comy="255.463"
         __timestamp="0x176389a4661"
         d="m 123.83837,269.95998 v -0.316 h -0.079 l -0.567,-0.497 v 1.31 h 0.327 l 0.319,-0.497 m -0.319,0.497 v -1.31 h -0.327 l -0.824,-0.194 v 1.698 h 0.425 l 0.727,-0.194 m -1.152,0.194 h 0.425 v -1.698 l -0.002,-1.034 h -0.642 v 2.569 l 0.22,0.163 m -0.22,-2.732 v 2.569 h 0.642 l 0.333,-4.584 v -2.575 h -0.644 l -0.332,4.591 m 0.332,-4.591 v 2.575 h 0.644 l 4.212,-18.742 v -2.587 h -0.647 l -4.209,18.754 m 4.856,-18.754 h -0.647 v 2.587 l 1.122,5.431 h 0.62 v -2.479 l -1.095,-5.539 m 1.095,5.539 h -0.62 v 2.479 l 5.097,12.265 h 0.619 v -2.477 l -5.097,-12.267 m 5.097,12.267 h -0.619 v 2.477 l 2.993,5.181 h 0.617 v -2.469 l -2.991,-5.19 m 2.991,5.19 h -0.617 v 2.469 l 0.785,0.163 h 0.599 v -2.395 l -0.766,-0.236 m 0.168,2.631 h 0.599 v -2.395 l -0.607,-0.983 h -0.492 v 1.968 l 0.501,1.41 m -0.501,-1.41 h 0.492 v -1.968 l -0.499,-0.277 h -0.381 v 1.525 l 0.388,0.72 m -0.388,-0.72 h 0.381 v -1.525 l -0.646,-0.529 h -0.197 v 0.788 l 0.462,1.266 m -0.462,-1.266 h 0.197 v -0.788 l -0.826,-0.398 h -0.097 v 0.387 l 0.725,0.799 m -0.725,-0.799 h 0.097 v -0.387 l -0.665,-0.499 h -0.097 v 0.387 l 0.665,0.499"
         id="path565"
         style="color-interpolation:linearRGB;fill:#000000" />
      <path
         class="write-chisel-pen"
         fill="#ffffff"
         stroke-width="4"
         __comx="82.901"
         __comy="245.744"
         __timestamp="0x1763899e623"
         d="m 77.877368,246.20698 h 0.319 v -1.276 l -1.125,-0.475 h -0.506 v 2.026 l 1.313,-0.275 m -0.806,0.275 v -2.026 h -0.506 l -0.37,-0.15 v 2.327 h 0.582 l 0.295,-0.15 m -0.295,-2.176 h -0.582 v 2.327 l 5.826,3.977 h 0.676 v -2.703 l -5.92,-3.601 m 5.92,3.601 h -0.676 v 2.703 l 12.519,5.892 h 0.68 v -2.72 l -12.523,-5.875 m 12.523,5.875 h -0.68 v 2.72 l 0.656,1.132 h 0.698 v -2.79 l -0.674,-1.062 m 0.674,3.852 v -2.79 h -0.698 l -4.436,6.268 v 2.82 h 0.705 l 4.428,-6.298 m -4.428,6.298 v -2.82 h -0.705 l -10.547,9.688 v 2.989 h 0.747 l 10.505,-9.857 m -11.252,6.868 v 2.989 h 0.747 l 0.682,-0.776 v -2.235 h -0.559 l -0.87,0.022 m 0.87,-0.022 v 2.235 h 0.559 l 0.389,-0.614 v -1.805 h -0.451 l -0.497,0.184 m 0.497,-0.184 v 1.805 h 0.451 l 0.538,-1.204 v -0.793 h -0.198 l -0.791,0.192 m 0.791,-0.192 v 0.793 h 0.198 l 0.554,-0.997 v -0.793 h -0.198 l -0.554,0.997"
         id="path567"
         style="color-interpolation:linearRGB;fill:#000000" />
      <path
         class="write-chisel-pen"
         fill="#ffffff"
         stroke-width="4"
         __comx="73.234"
         __comy="252.842"
         __timestamp="0x1763899e21f"
         d="m 64.994368,258.79098 h 0.379 v -1.514 l -0.585,-0.818 h -0.538 v 2.153 l 0.745,0.179 m -0.745,-2.332 v 2.153 h 0.538 l 0.95,0.054 v -2.659 h -0.665 l -0.823,0.452 m 0.823,-0.452 v 2.659 h 0.665 l 22.767,-0.434 v -2.19 h -0.547 l -22.884,-0.035 m 22.884,0.035 v 2.19 h 0.547 l -0.017,-1.009 v -1.168 h -0.292 l -0.239,-0.012 m 0.239,1.18 h 0.292 v -1.168 l -0.111,-0.499 h -0.292 v 1.168 l 0.111,0.499"
         id="path569"
         style="color-interpolation:linearRGB;fill:#000000" />
    </g>
  </g>
</svg>
