<?xml version="1.0" encoding="UTF-8" standalone="no"?>
<svg
   xmlns:dc="http://purl.org/dc/elements/1.1/"
   xmlns:cc="http://creativecommons.org/ns#"
   xmlns:rdf="http://www.w3.org/1999/02/22-rdf-syntax-ns#"
   xmlns:svg="http://www.w3.org/2000/svg"
   xmlns="http://www.w3.org/2000/svg"
   xmlns:sodipodi="http://sodipodi.sourceforge.net/DTD/sodipodi-0.dtd"
   xmlns:inkscape="http://www.inkscape.org/namespaces/inkscape"
   width="145.79865mm"
   height="80.137794mm"
   viewBox="0 0 145.79865 80.137794"
   version="1.1"
   id="svg3003"
   inkscape:version="1.0.1 (3bc2e813f5, 2020-09-07)"
   sodipodi:docname="nfa-repr-q1.svg">
  <defs
     id="defs2997" />
  <sodipodi:namedview
     id="base"
     pagecolor="#ffffff"
     bordercolor="#666666"
     borderopacity="1.0"
     inkscape:pageopacity="0.0"
     inkscape:pageshadow="2"
     inkscape:zoom="0.35"
     inkscape:cx="298.52567"
     inkscape:cy="476.6199"
     inkscape:document-units="mm"
     inkscape:current-layer="layer1"
     inkscape:document-rotation="0"
     showgrid="false"
     inkscape:window-width="1440"
     inkscape:window-height="773"
     inkscape:window-x="0"
     inkscape:window-y="635"
     inkscape:window-maximized="1"
     fit-margin-top="0"
     fit-margin-left="0"
     fit-margin-right="0"
     fit-margin-bottom="0" />
  <metadata
     id="metadata3000">
    <rdf:RDF>
      <cc:Work
         rdf:about="">
        <dc:format>image/svg+xml</dc:format>
        <dc:type
           rdf:resource="http://purl.org/dc/dcmitype/StillImage" />
        <dc:title></dc:title>
      </cc:Work>
    </rdf:RDF>
  </metadata>
  <g
     inkscape:label="Layer 1"
     inkscape:groupmode="layer"
     id="layer1"
     transform="translate(-26.848416,-22.060986)">
    <g
       id="g2933"
       transform="matrix(0.26458333,0,0,0.26458333,-182.1106,-8.9010791)"
       style="fill:#000000">
      <path
         class="write-chisel-pen"
         fill="#ffffff"
         stroke-width="4"
         __comx="1007.457"
         __comy="372.154"
         __timestamp="0x17638c95735"
         d="m 1013.7974,374.59398 v -1.097 h -0.274 l -3.415,-0.365 v 1.827 h 0.457 l 3.233,-0.365 m -3.233,0.365 v -1.827 h -0.457 l -0.451,0.369 v 1.887 h 0.472 l 0.436,-0.429 m -0.436,0.429 v -1.887 h -0.472 l -1.447,2.07 v 1.937 h 0.484 l 1.434,-2.119 m -1.434,2.119 v -1.937 h -0.484 l -0.224,2.083 v 1.958 h 0.49 l 0.219,-2.105 m -0.219,0.147 h -0.49 v 1.958 l 0.776,1.095 h 0.489 v -1.954 l -0.775,-1.099 m 0.775,1.099 h -0.489 v 1.954 l 2.097,0.431 h 0.505 v -2.018 l -2.113,-0.367 m 1.609,0.367 v 2.018 h 0.505 l 1.564,-0.648 v -2.119 h -0.53 l -1.539,0.748 m 1.539,-0.748 v 2.119 h 0.53 l 2.231,-3.73 v -2.237 h -0.559 l -2.201,3.849 m 2.761,-1.611 v -2.237 h -0.559 l -0.462,10.295 v 2.39 h 0.597 l 0.424,-10.448 m -0.424,10.448 v -2.39 h -0.597 l -1.114,4.166 v 2.435 h 0.609 l 1.102,-4.211 m -1.711,4.211 h 0.609 v -2.435 l -5.615,-1.841 h -0.682 v 2.726 l 5.687,1.55 m -5.687,-1.55 h 0.682 v -2.726 l -1.365,-1.056 h -0.611 v 2.445 l 1.294,1.337 m -0.683,-3.782 h -0.611 v 2.445 l 0.661,-0.427 h 0.398 v -1.591 l -0.447,-0.427 m 0.049,0.427 v 1.591 h 0.398 l 0.33,-0.554 v -0.683 h -0.171 l -0.557,-0.354 m 0.727,0.354 h -0.171 v 0.683 h 0.443 0.171 v -0.683 h -0.443"
         id="path245"
         style="color-interpolation:linearRGB;fill:#000000" />
      <path
         class="write-chisel-pen"
         fill="#ffffff"
         stroke-width="4"
         __comx="995.653"
         __comy="369.503"
         __timestamp="0x17638c94162"
         d="m 996.54537,381.47398 h 0.324 v -1.296 l -0.262,-0.38 h -0.464 v 1.857 l 0.402,-0.181 m -0.402,-1.676 v 1.857 h 0.464 l 0.398,0.062 v -2.381 h -0.595 l -0.267,0.461 m 0.862,-0.461 h -0.595 v 2.381 l 3.94303,-0.26 h 0.465 v -1.861 l -3.81303,-0.26 m 3.34803,0.26 v 1.861 h 0.465 l 0.382,-0.345 v -1.37 h -0.342 l -0.505,-0.146 m 0.847,0.146 h -0.342 v 1.37 l 0.415,-0.332 h 0.176 v -0.705 l -0.249,-0.332"
         id="path247"
         style="color-interpolation:linearRGB;fill:#000000" />
      <path
         class="write-chisel-pen"
         fill="#ffffff"
         stroke-width="4"
         __comx="981.681"
         __comy="369.503"
         __timestamp="0x17638c93f40"
         d="m 984.25137,376.34098 v -1.401 h -0.35 l -1.165,-0.127 v 1.853 h 0.463 l 1.051,-0.326 m -1.051,0.326 v -1.853 h -0.463 l -1.359,3.87 v 2.091 h 0.523 l 1.3,-4.108 m -1.3,4.108 v -2.091 h -0.523 l -0.341,4.751 v 2.162 h 0.54 l 0.323,-4.822 m -0.323,2.66 h -0.54 v 2.162 l 0.775,1.598 h 0.542 v -2.167 l -0.776,-1.593 m 0.776,1.593 h -0.542 v 2.167 l 1.996,1.092 h 0.54 v -2.158 l -1.993,-1.102 m 1.454,1.102 v 2.158 h 0.54 l 1.665,-0.389 v -2.179 h -0.545 l -1.66,0.409 m 1.66,-0.409 v 2.179 h 0.545 l 1.555,-1.58 v -2.21 h -0.552 l -1.547,1.611 m 1.547,-1.611 v 2.21 h 0.552 l 1.336,-3.863 v -2.263 h -0.566 l -1.323,3.916 m 1.323,-1.653 h 0.566 v -2.263 l -0.111,-2.892 h -0.566 v 2.263 l 0.111,2.892 m -0.111,-2.892 h 0.566 v -2.263 l -1.44,-2.895 h -0.567 v 2.268 l 1.441,2.889 m -1.441,-2.889 h 0.567 v -2.268 l -2.219,-0.986 h -0.561 v 2.244 l 2.213,1.009 m -1.652,-1.009 v -2.244 h -0.561 l -1.762,0.641 v 2.158 h 0.54 l 1.784,-0.555 m -1.784,0.555 v -2.158 h -0.54 l -2.032,3.583 v 1.574 h 0.394 l 2.178,-2.999 m -2.178,2.999 v -1.574 h -0.394 l -0.029,1.025 v 0.919 h 0.23 l 0.193,-0.371 m -0.193,0.371 v -0.919 h -0.23 l 0.097,0.985 v 0.146 h 0.037 l 0.097,-0.212 m -0.097,0.066 h -0.037 v 0.146 l 0.111,0.399 h 0.037 v -0.146 l -0.111,-0.399"
         id="path249"
         style="color-interpolation:linearRGB;fill:#000000" />
      <path
         class="write-chisel-pen"
         fill="#ffffff"
         stroke-width="4"
         __comx="963.259"
         __comy="369.503"
         __timestamp="0x17638c938cf"
         d="m 958.84537,358.27498 v 0.627 h 0.157 l 0.583,0.902 v -2.63 h -0.658 l -0.082,1.101 m 0.082,-1.101 v 2.63 h 0.658 l 2.125,-6.704 v -2.784 h -0.696 l -2.086,6.858 m 2.086,-6.858 v 2.784 h 0.696 l 1.087,-0.68 v -2.621 h -0.655 l -1.128,0.517 m 1.783,-0.517 h -0.655 v 2.621 l 2.985,0.625 h 0.669 v -2.675 l -2.998,-0.571 m 2.998,0.571 h -0.669 v 2.675 l 7.75,7.904 h 0.682 v -2.726 l -7.763,-7.852 m 7.081,7.852 v 2.726 h 0.682 l 0.402,-0.763 v -2.397 h -0.599 l -0.484,0.434 m 0.484,1.963 h 0.599 v -2.397 l -0.039,-0.442 h -0.521 v 2.083 l -0.039,0.755 m 0.039,-0.755 h 0.521 v -2.083 l -0.075,-0.496 h -0.37 v 1.48 l -0.075,1.1 m 0.075,-1.1 h 0.37 v -1.48 l -0.169,-0.122 h -0.032 v 0.127 l -0.169,1.474 m 0.169,-1.474 h 0.032 v -0.127 l -0.111,-0.598 h -0.032 v 0.127 l 0.111,0.598"
         id="path251"
         style="color-interpolation:linearRGB;fill:#000000" />
      <path
         class="write-chisel-pen"
         fill="#ffffff"
         stroke-width="4"
         __comx="947.599"
         __comy="369.503"
         __timestamp="0x17638c93546"
         d="m 946.34337,340.07798 h 0.119 v -0.475 l 0.116,-0.762 h -0.35 v 1.401 l 0.116,-0.164 m -0.116,0.164 h 0.35 v -1.401 l 0.034,-0.433 h -0.417 v 1.669 l 0.034,0.165 m 0.384,-0.165 v -1.669 h -0.417 l -0.777,0.248 v 2.569 h 0.642 l 0.552,-1.148 m -0.552,1.148 v -2.569 h -0.642 l -3.102,3.491 v 2.567 h 0.642 l 3.103,-3.49 m -3.103,3.49 v -2.567 h -0.642 l -5.317,8.382 v 2.557 h 0.639 l 5.32,-8.372 m -5.32,8.372 v -2.557 h -0.639 l -2.437,5.686 v 2.554 h 0.638 l 2.438,-5.683 m -2.438,5.683 v -2.554 h -0.638 l -2.768,10.478 v 2.541 h 0.635 l 2.772,-10.464 m -2.772,10.464 v -2.541 h -0.635 l -0.333,8.774 v 2.544 h 0.636 l 0.332,-8.777 m -0.332,6.233 h -0.636 v 2.544 l 0.772,10.387 h 0.644 v -2.575 l -0.779,-10.356 m 0.779,10.356 h -0.644 v 2.575 l 1.22,3.386 h 0.642 v -2.567 l -1.218,-3.395 m 1.218,3.395 h -0.642 v 2.567 l 3.435,4.484 h 0.64 v -2.56 l -3.434,-4.491 m 3.434,4.491 h -0.64 v 2.56 l 2.881,2.193 h 0.64 v -2.559 l -2.881,-2.195 m 2.881,2.195 h -0.64 v 2.559 l 6.538,2.791 h 0.639 v -2.556 l -6.537,-2.794 m 6.537,2.794 h -0.639 v 2.556 l 7.646,0.497 h 0.638 v -2.552 l -7.645,-0.5 m 7.007,0.5 v 2.552 h 0.638 l 4.544,-0.794 v -2.56 h -0.64 l -4.542,0.802 m 4.542,-0.802 v 2.56 h 0.64 l 3.658,-1.588 v -2.575 h -0.644 l -3.655,1.603 m 3.655,-1.603 v 2.575 h 0.644 l 4.214,-4.074 v -2.604 h -0.651 l -4.207,4.103 m 4.207,-4.103 v 2.604 h 0.651 l 1.778,-3.968 v -2.646 h -0.662 l -1.768,4.01 m 1.768,-4.01 v 2.646 h 0.662 l 1.126,-7.008 v -2.79 h -0.698 l -1.09,7.152 m 1.09,-7.152 v 2.79 h 0.698 l 0.115,-8.658 v -2.826 h -0.706 l -0.106,8.694 m 0.106,-5.868 h 0.706 v -2.826 l -1.213,-10.197 h -0.719 v 2.876 l 1.225,10.147 m -1.225,-10.147 h 0.719 v -2.876 l -3.339,-12.007 h -0.689 v 2.757 l 3.309,12.126 m -2.62,-12.126 v -2.757 h -0.689 l -0.144,0.61 v 2.136 h 0.534 l 0.299,0.011 m -0.299,-0.011 v -2.136 h -0.534 l -0.062,0.693 v 1.748 h 0.437 l 0.159,-0.305 m -0.159,0.305 v -1.748 h -0.437 l -0.226,1.222 v 0.9 h 0.225 l 0.438,-0.374 m -0.438,0.374 v -0.9 h -0.225 l -0.332,0.798 v 0.9 h 0.225 l 0.332,-0.798"
         id="path253"
         style="color-interpolation:linearRGB;fill:#000000" />
      <path
         class="write-chisel-pen"
         fill="#ffffff"
         stroke-width="4"
         __comx="1259.76"
         __comy="424.632"
         __timestamp="0x17638a80430"
         d="m 1269.6004,401.03898 h 0.033 v -0.13 l 0.054,-0.956 h -0.361 v 1.445 l 0.275,-0.358 m -0.275,0.358 h 0.361 v -1.445 l -0.022,-0.656 h -0.54 v 2.158 l 0.2,-0.058 m -0.2,0.058 h 0.54 v -2.158 l -0.077,-0.434 h -0.607 v 2.428 l 0.144,0.164 m 0.463,-0.164 v -2.428 h -0.607 l -4.133,0.164 v 2.698 h 0.675 l 4.066,-0.434 m -4.066,0.434 v -2.698 h -0.675 l -3.101,1.402 v 2.687 h 0.672 l 3.104,-1.391 m -3.104,1.391 v -2.687 h -0.672 l -4.649,4.206 v 2.652 h 0.663 l 4.658,-4.171 m -4.658,4.171 v -2.652 h -0.663 l -0.544,2.532 v 2.575 h 0.644 l 0.564,-2.454 m -0.564,-0.121 h -0.644 v 2.575 l 1.886,1.385 h 0.638 v -2.554 l -1.881,-1.407 m 1.881,1.407 h -0.638 v 2.554 l 6.313,1.109 h 0.645 v -2.578 l -6.319,-1.085 m 5.674,3.663 h 0.645 v -2.578 l -1.996,-0.59 h -0.641 v 2.562 l 1.992,0.606 m -1.352,-0.606 v -2.562 h -0.641 l -4.093,0.627 v 2.504 h 0.626 l 4.107,-0.569 m -4.107,0.569 v -2.504 h -0.626 l -1.882,1.303 v 2.491 h 0.623 l 1.885,-1.29 m -1.885,1.29 v -2.491 h -0.623 l -0.664,2.098 v 2.484 h 0.621 l 0.666,-2.091 m -0.666,-0.393 h -0.621 v 2.484 l 0.55,1.613 h 0.63 v -2.519 l -0.558,-1.578 m 0.558,1.578 h -0.63 v 2.519 l 1.988,1.322 h 0.643 v -2.57 l -2.001,-1.271 m 2.001,1.271 h -0.643 v 2.57 l 9.063,1.39 h 0.689 v -2.757 l -9.109,-1.203 m 9.109,3.96 v -2.757 h -0.689 l -0.517,0.591 v 1.574 h 0.394 l 0.812,0.591 m -1.206,-0.591 h 0.394 v -1.574 l -1.067,0.324 h -0.032 v 0.127 l 0.706,1.122 m -0.706,-1.122 h 0.032 v -0.127 l -1.44,-0.499 h -0.032 v 0.127 l 1.44,0.499"
         id="path365"
         style="color-interpolation:linearRGB;fill:#000000" />
      <path
         class="write-chisel-pen"
         fill="#ffffff"
         stroke-width="4"
         __comx="1333.224"
         __comy="249.46"
         __timestamp="0x176389fa465"
         d="m 1340.4654,252.98898 h 0.351 v -1.403 l -0.272,-0.344 h -0.473 v 1.891 l 0.394,-0.144 m 0.079,0.144 v -1.891 h -0.473 l -0.59,-0.146 v 2.182 h 0.546 l 0.517,-0.146 m -0.517,0.146 v -2.182 h -0.546 l -2.797,-0.106 v 2.395 h 0.599 l 2.744,-0.106 m -2.744,0.106 v -2.395 h -0.599 l -2.997,1.375 v 2.438 h 0.61 l 2.986,-1.418 m -2.986,1.418 v -2.438 h -0.61 l -1.663,1.993 v 2.442 h 0.61 l 1.662,-1.996 m -1.662,1.996 v -2.442 h -0.61 l -0.108,1.807 v 2.418 h 0.604 l 0.114,-1.783 m -0.114,-0.635 h -0.604 v 2.418 l 2.219,0.885 h 0.598 v -2.393 l -2.213,-0.91 m 1.615,0.91 v 2.393 h 0.598 l 2.776,-0.276 v -2.44 h -0.61 l -2.764,0.322 m 2.764,-0.322 v 2.44 h 0.61 l 1.338,-1.562 v -2.507 h -0.627 l -1.321,1.629 m 1.321,-1.629 v 2.507 h 0.627 l 0.666,-3.583 v -2.521 h -0.63 l -0.663,3.597 m 1.293,-1.076 v -2.521 h -0.63 l -0.378,10.19 v 2.883 h 0.721 l 0.287,-10.552 m -0.287,10.552 v -2.883 h -0.721 l -3.882,2.974 v 2.919 h 0.73 l 3.873,-3.01 m -4.603,3.01 h 0.73 v -2.919 l -1.879,-0.219 h -0.74 v 2.958 l 1.889,0.18 m -1.889,-0.18 h 0.74 v -2.958 -0.399 h -0.74 v 2.958 0.399"
         id="path417"
         style="color-interpolation:linearRGB;fill:#000000" />
      <path
         class="write-chisel-pen"
         fill="#ffffff"
         stroke-width="4"
         __comx="1322.066"
         __comy="254.034"
         __timestamp="0x176389fa03c"
         d="m 1320.8494,258.24798 v 1.44 h 0.36 l 0.697,0.374 v -2.587 h -0.647 l -0.411,0.773 m 1.057,-0.773 h -0.647 v 2.587 l 7.148,0.869 h 0.533 v -2.13 l -7.034,-1.325 m 7.034,1.325 h -0.533 v 2.13 l 0.383,-0.202 h 0.432 v -1.727 l -0.282,-0.202 m -0.15,0.202 v 1.727 h 0.432 l 0.235,-0.587 v -0.952 h -0.238 l -0.429,-0.188 m 0.429,0.188 v 0.952 h 0.238 l 0.111,-0.299 v -0.952 h -0.238 l -0.111,0.299"
         id="path419"
         style="color-interpolation:linearRGB;fill:#000000" />
      <path
         class="write-chisel-pen"
         fill="#ffffff"
         stroke-width="4"
         __comx="1306.336"
         __comy="247.526"
         __timestamp="0x176389f9e37"
         d="m 1306.1614,250.75698 v -0.729 h -0.182 l -0.865,0.141 v 1.445 h 0.361 l 0.686,-0.856 m -0.686,0.856 v -1.445 h -0.361 l -0.57,0.535 v 1.572 h 0.393 l 0.538,-0.662 m -0.538,0.662 v -1.572 h -0.393 l -1.358,2.38 v 1.799 h 0.45 l 1.301,-2.606 m -1.301,2.606 v -1.799 h -0.45 l -0.248,2.586 v 2.013 h 0.503 l 0.195,-2.799 m -0.195,0.787 h -0.503 v 2.013 l 1.851,3.72 h 0.568 v -2.273 l -1.916,-3.46 m 1.916,3.46 h -0.568 v 2.273 l 1.55,1.102 h 0.571 v -2.284 l -1.552,-1.092 m 1.552,1.092 h -0.571 v 2.284 l 4.538,0.418 h 0.58 v -2.322 l -4.548,-0.38 m 3.967,0.38 v 2.322 h 0.58 l 2.779,-0.562 v -2.393 h -0.598 l -2.761,0.634 m 2.761,-0.634 v 2.393 h 0.598 l 1.34,-1.654 v -2.476 h -0.619 l -1.319,1.736 m 1.319,-1.736 v 2.476 h 0.619 l 0.444,-2.688 v -2.484 h -0.621 l -0.442,2.697 m 0.442,-0.213 h 0.621 v -2.484 l -0.998,-2.789 h -0.619 v 2.477 l 0.997,2.796 m -0.997,-2.796 h 0.619 v -2.477 l -2.328,-2.091 h -0.618 v 2.47 l 2.326,2.098 m -2.326,-2.098 h 0.618 v -2.47 l -2.665,-1.073 h -0.606 v 2.423 l 2.653,1.121 m -2.048,-1.121 v -2.423 h -0.606 l -2.852,0.316 v 2.19 h 0.547 l 2.91,-0.083 m -2.91,0.083 v -2.19 h -0.547 l -1.052,1.423 v 1.738 h 0.434 l 1.165,-0.971 m -1.165,0.971 v -1.738 h -0.434 l -0.602,1.05 v 1.233 h 0.308 l 0.728,-0.545 m -0.728,0.545 v -1.233 h -0.308 l -0.436,1.372 v 0.285 h 0.071 l 0.673,-0.423 m -0.673,0.423 v -0.285 h -0.071 l -0.443,0.798 v 0.285 h 0.071 l 0.443,-0.798"
         id="path421"
         style="color-interpolation:linearRGB;fill:#000000" />
      <path
         class="write-chisel-pen"
         fill="#ffffff"
         stroke-width="4"
         __comx="1235.588"
         __comy="259.739"
         __timestamp="0x176389ed536"
         d="m 1234.9674,257.01498 v 1.514 h 0.379 l 0.168,-0.071 v -1.97 h -0.492 l -0.054,0.527 m 0.546,1.443 v -1.97 h -0.492 l -0.416,0.561 v 2.643 h 0.661 l 0.248,-1.234 m -0.248,1.234 v -2.643 h -0.661 l -4.341,13.583 v 2.801 h 0.7 l 4.302,-13.741 m -4.302,13.741 v -2.801 h -0.7 l -0.665,4.485 v 2.805 h 0.701 l 0.664,-4.49 m -1.366,1.685 v 2.805 h 0.701 l 11.103,-5.593 v -2.987 h -0.747 l -11.057,5.775 m 11.057,-5.775 v 2.987 h 0.747 l 6.426,-1.597 v -2.985 h -0.746 l -6.427,1.594 m 6.427,-1.594 v 2.985 h 0.746 l 0.035,-0.602 v -2.379 h -0.595 l -0.187,-0.003 m 0.187,2.383 h 0.595 v -2.379 l -0.444,0.148 h -0.371 v 1.485 l 0.221,0.746 m -0.221,-0.746 h 0.371 v -1.485 l -0.333,-0.399 h -0.371 v 1.485 l 0.333,0.399"
         id="path423"
         style="color-interpolation:linearRGB;fill:#000000" />
      <path
         class="write-chisel-pen"
         fill="#ffffff"
         stroke-width="4"
         __comx="1259.739"
         __comy="259.739"
         __timestamp="0x176389ed1a9"
         d="m 1254.7874,291.26498 v 1.623 h 0.406 l 0.826,0.545 v -2.912 h -0.728 l -0.504,0.744 m 0.504,-0.744 v 2.912 h 0.728 l 11.529,-4.565 v -2.956 h -0.739 l -11.518,4.609 m 11.518,-4.609 v 2.956 h 0.739 l 5.762,-3.289 v -2.96 h -0.74 l -5.761,3.293 m 5.761,-3.293 v 2.96 h 0.74 l 8.2,-8.078 v -2.96 h -0.74 l -8.2,8.078 m 8.2,-8.078 v 2.96 h 0.74 l 3.435,-4.986 v -2.96 h -0.74 l -3.435,4.986 m 3.435,-4.986 v 2.96 h 0.74 l 2.771,-6.576 v -2.971 h -0.743 l -2.769,6.587 m 2.769,-6.587 v 2.971 h 0.743 l 2.771,-10.367 v -2.979 h -0.745 l -2.769,10.375 m 2.769,-10.375 v 2.979 h 0.745 l 0.445,-5.778 v -2.992 h -0.748 l -0.442,5.79 m 0.442,-2.799 h 0.748 v -2.992 l -0.775,-6.483 h -0.749 v 2.994 l 0.776,6.481 m -0.776,-6.481 h 0.749 v -2.994 l -2.218,-6.376 h -0.745 v 2.982 l 2.215,6.388 m -2.215,-6.388 h 0.745 v -2.982 l -2.888,-3.859 h -0.73 v 2.922 l 2.873,3.919 m -2.873,-3.919 h 0.73 v -2.922 l -4.887,-2.747 h -0.708 v 2.83 l 4.864,2.838 m -4.864,-2.838 h 0.708 v -2.83 l -7.545,-2.054 h -0.687 v 2.749 l 7.525,2.135 m -6.837,-2.135 v -2.749 h -0.687 l -3.982,0.229 v 2.69 h 0.673 l 3.996,-0.17 m -3.996,0.17 v -2.69 h -0.673 l -3.544,1.403 v 2.676 h 0.669 l 3.547,-1.389 m -3.547,1.389 v -2.676 h -0.669 l -5.539,3.896 v 2.664 h 0.666 l 5.542,-3.883 m -5.542,3.883 v -2.664 h -0.666 l -4.322,4.685 v 2.668 h 0.667 l 4.321,-4.689 m -4.321,4.689 v -2.668 h -0.667 l -10.083,16.951 v 2.671 h 0.668 l 10.083,-16.955 m -10.083,16.955 v -2.671 h -0.668 l -7.653,16.623 v 2.732 h 0.683 l 7.638,-16.684 m -7.638,16.684 v -2.732 h -0.683 l -1.976,2.268 v 2.585 h 0.646 l 2.013,-2.12 m -2.659,-0.465 v 2.585 h 0.646 l 0.374,-1.971 v -2.034 h -0.508 l -0.512,1.42 m 0.512,-1.42 v 2.034 h 0.508 l 0.329,-1.653 v -1.12 h -0.28 l -0.557,0.74 m 0.557,-0.74 v 1.12 h 0.28 l 0.332,-1.097 v -1.12 h -0.28 l -0.332,1.097"
         id="path425"
         style="color-interpolation:linearRGB;fill:#000000" />
      <path
         class="write-chisel-pen"
         fill="#ffffff"
         stroke-width="4"
         __comx="1213.216"
         __comy="287.051"
         __timestamp="0x176389ec7c1"
         d="m 1179.1354,293.77998 h 0.353 v -1.412 l -0.116,-0.723 h -0.565 v 2.259 l 0.328,-0.124 m -0.328,0.124 h 0.565 v -2.259 l -0.413,-0.521 h -0.626 v 2.502 l 0.474,0.277 m 0.152,-0.277 v -2.502 h -0.626 l -2.918,7.23 v 2.801 h 0.7 l 2.844,-7.529 m -2.844,7.529 v -2.801 h -0.7 l -1.662,8.977 v 2.798 h 0.699 l 1.662,-8.974 m -1.662,8.974 v -2.798 h -0.699 l -0.223,6.975 v 2.81 h 0.702 l 0.22,-6.987 m -0.22,4.177 h -0.702 v 2.81 l 1.108,3.89 h 0.703 v -2.811 l -1.108,-3.888 m 1.108,3.888 h -0.703 v 2.811 l 3.541,5.004 h 0.712 v -2.847 l -3.55,-4.968 m 3.55,4.968 h -0.712 v 2.847 l 3.766,9.381 h 0.715 v -2.86 l -3.769,-9.367 m 3.769,9.367 h -0.715 v 2.86 l 4.431,5.587 h 0.716 v -2.866 l -4.433,-5.582 m 4.433,5.582 h -0.716 v 2.866 l 3.104,6.673 h 0.712 v -2.85 l -3.1,-6.689 m 3.1,6.689 h -0.712 v 2.85 l 3.325,4.085 h 0.711 v -2.842 l -3.323,-4.092 m 3.323,4.092 h -0.711 v 2.842 l 2.548,1.795 h 0.711 v -2.842 l -2.548,-1.795 m 2.548,1.795 h -0.711 v 2.842 l 4.764,1.698 h 0.712 v -2.848 l -4.765,-1.692 m 4.765,1.692 h -0.712 v 2.848 l 7.314,1.094 h 0.711 v -2.842 l -7.312,-1.1 m 6.602,1.1 v 2.842 h 0.711 l 17.062,-2.999 v -2.827 h -0.707 l -17.066,2.984 m 17.066,-2.984 v 2.827 h 0.707 l 6.203,-2.202 v -2.811 h -0.703 l -6.207,2.186 m 6.207,-2.186 v 2.811 h 0.703 l 13.946,-6.842 v -2.69 h -0.673 l -13.976,6.721 m 13.976,-6.721 v 2.69 h 0.673 l 3.656,-2.793 v -2.689 h -0.672 l -3.657,2.791 m 3.657,-2.791 v 2.689 h 0.672 l 8.631,-9.121 v -2.596 h -0.649 l -8.654,9.029 m 8.654,-9.029 v 2.596 h 0.649 l 1.547,-7.298 v -2.56 h -0.64 l -1.556,7.262 m 1.556,-4.701 h 0.64 v -2.56 l -1.986,-17.883 h -0.656 v 2.625 l 2.003,17.818 m -2.003,-17.818 h 0.656 v -2.625 l -2.769,-8.481 h -0.659 v 2.635 l 2.771,8.472 m -2.771,-8.472 h 0.659 v -2.635 l -6.093,-7.984 h -0.662 v 2.648 l 6.096,7.971 m -6.096,-7.971 h 0.662 v -2.648 l -4.539,-4.302 h -0.669 v 2.675 l 4.546,4.275 m -4.546,-4.275 h 0.669 v -2.675 l -11.855,-5.786 h -0.67 v 2.679 l 11.856,5.782 m -11.856,-5.782 h 0.67 v -2.679 l -6.43,-4.473 h -0.663 v 2.651 l 6.423,4.502 m -6.423,-4.502 h 0.663 v -2.651 l -5.098,-2.388 h -0.66 v 2.64 l 5.096,2.399 m -5.096,-2.399 h 0.66 v -2.64 l -7.315,-1.989 h -0.657 v 2.629 l 7.312,2 m -7.312,-2 h 0.657 v -2.629 l -4.657,-0.186 h -0.65 v 2.601 l 4.65,0.213 m -4,-0.213 v -2.601 h -0.65 l -10.523,5.399 v 2.574 h 0.643 l 10.53,-5.371 m -10.53,5.371 v -2.574 h -0.643 l -4.646,3.523 v 2.509 h 0.627 l 4.662,-3.458 m -4.662,3.458 v -2.509 h -0.627 l -4.874,5.292 v 2.496 h 0.624 l 4.877,-5.279 m -4.877,5.279 v -2.496 h -0.624 l -2.657,8.287 v 2.476 h 0.619 l 2.662,-8.267 m -2.662,8.267 v -2.476 h -0.619 l -2.766,4.705 v 2.44 h 0.61 l 2.774,-4.669 m -2.774,2.229 h -0.61 v 2.44 h 0.332 0.61 v -2.44 h -0.332"
         id="path427"
         style="color-interpolation:linearRGB;fill:#000000" />
      <path
         class="write-chisel-pen"
         fill="#ffffff"
         stroke-width="4"
         __comx="1209.763"
         __comy="290.144"
         __timestamp="0x176389ea779"
         d="m 1203.2034,289.41498 v 0.337 h 0.084 l 0.128,-0.23 v -0.475 h -0.119 l -0.094,0.368 m 0.094,0.107 h 0.119 v -0.475 l -0.069,-1.109 h -0.424 v 1.696 l 0.374,-0.112 m -0.374,0.112 h 0.424 v -1.696 l -3.127,-0.943 h -0.596 v 2.385 l 3.299,0.254 m -2.703,-0.254 v -2.385 h -0.596 l -0.449,-0.024 v 2.433 h 0.608 l 0.437,-0.024 m -0.437,0.024 v -2.433 h -0.608 l -3.232,1.52 v 2.585 h 0.646 l 3.194,-1.672 m -3.194,1.672 v -2.585 h -0.646 l -2.994,3.181 v 2.606 h 0.652 l 2.989,-3.202 m -2.989,3.202 v -2.606 h -0.652 l -4.216,6.561 v 2.648 h 0.662 l 4.205,-6.603 m -4.205,6.603 v -2.648 h -0.662 l -2.44,5.577 v 2.664 h 0.666 l 2.436,-5.592 m -2.436,5.592 v -2.664 h -0.666 l -1.554,10.062 v 2.684 h 0.671 l 1.549,-10.082 m -1.549,7.398 h -0.671 v 2.684 l 0.554,7.08 h 0.671 v -2.682 l -0.554,-7.081 m 0.554,7.081 h -0.671 v 2.682 l 1.883,5.886 h 0.672 v -2.687 l -1.884,-5.881 m 1.884,5.881 h -0.672 v 2.687 l 2.106,3.686 h 0.67 v -2.679 l -2.104,-3.694 m 2.104,3.694 h -0.67 v 2.679 l 2.991,3.193 h 0.671 v -2.684 l -2.992,-3.189 m 2.992,3.189 h -0.671 v 2.684 l 6.978,5.196 h 0.676 v -2.704 l -6.983,-5.175 m 6.983,5.175 h -0.676 v 2.704 l 2.99,1.102 h 0.679 v -2.715 l -2.993,-1.091 m 2.993,1.091 h -0.679 v 2.715 l 5.646,0.219 h 0.688 v -2.754 l -5.656,-0.18 m 4.967,0.18 v 2.754 h 0.688 l 3.995,-0.873 v -2.802 h -0.701 l -3.983,0.922 m 3.983,-0.922 v 2.802 h 0.701 l 15.962,-7.653 v -2.852 h -0.713 l -15.949,7.704 m 15.949,-7.704 v 2.852 h 0.713 l 8.313,-7.668 v -2.873 h -0.718 l -8.308,7.689 m 8.308,-7.689 v 2.873 h 0.718 l 3.111,-4.255 v -2.939 h -0.735 l -3.094,4.321 m 3.094,-4.321 v 2.939 h 0.735 l 0.893,-2.564 v -2.996 h -0.749 l -0.879,2.621 m 0.879,-2.621 v 2.996 h 0.749 l 0.225,-4.974 v -3.02 h -0.755 l -0.219,4.998 m 0.219,-1.978 h 0.755 v -3.02 l -0.775,-3.99 h -0.756 v 3.023 l 0.776,3.988 m -0.776,-3.988 h 0.756 v -3.023 l -2.438,-4.685 h -0.755 v 3.019 l 2.437,4.689 m -2.437,-4.689 h 0.755 v -3.019 l -5.542,-6.673 h -0.75 v 3.001 l 5.538,6.69 m -5.538,-6.69 h 0.75 v -3.001 l -6.767,-5.951 h -0.734 v 2.936 l 6.751,6.016 m -6.751,-6.016 h 0.734 v -2.936 l -5.544,-3.276 h -0.727 v 2.906 l 5.536,3.306 m -5.536,-3.306 h 0.727 v -2.906 l -6.327,-1.453 h -0.705 v 2.82 l 6.305,1.539 m -5.6,-1.539 v -2.82 h -0.705 l -6.518,0.479 v 2.66 h 0.665 l 6.557,-0.319 m -6.557,0.319 v -2.66 h -0.665 l -3.089,1.05 v 2.556 h 0.639 l 3.116,-0.945 m -3.116,0.945 v -2.556 h -0.639 l -5.163,3.371 v 2.195 h 0.549 l 5.253,-3.011 m -5.253,3.011 v -2.195 h -0.549 l -2.287,2.253 v 1.877 h 0.469 l 2.367,-1.935 m -2.367,1.935 v -1.877 h -0.469 l -1.93,2.653 v 1.359 h 0.34 l 2.059,-2.134 m -2.059,2.134 v -1.359 h -0.34 l -1.773,3.034 v 0.477 h 0.119 l 1.994,-2.152 m -1.994,2.152 v -0.477 h -0.119 l -1.44,2.693 v 0.477 h 0.119 l 1.44,-2.693"
         id="path429"
         style="color-interpolation:linearRGB;fill:#000000" />
      <path
         class="write-chisel-pen"
         fill="#ffffff"
         stroke-width="4"
         __comx="1208.482"
         __comy="309.026"
         __timestamp="0x176389e9134"
         d="m 1203.6674,300.92398 h 0.485 v -1.939 l -0.056,-0.52 h -0.595 v 2.379 l 0.166,0.079 m 0.429,-2.458 h -0.595 v 2.379 l 0.269,0.252 h 0.721 v -2.884 l -0.395,0.252 m -0.326,-0.252 v 2.884 h 0.721 l 8.774,-0.717 v -3.046 h -0.761 l -8.734,0.878 m 9.495,-0.878 h -0.761 v 3.046 l 6.592,0.281 h 0.653 v -2.611 l -6.483,-0.716 m 6.483,3.327 v -2.611 h -0.653 l -0.158,0.654 v 2.1 h 0.525 l 0.285,-0.144 m -0.285,0.144 v -2.1 h -0.525 l -0.427,0.806 v 1.087 h 0.272 l 0.681,0.207 m -0.681,-0.207 v -1.087 h -0.272 l -0.776,0.1 v 1.087 h 0.272 l 0.776,-0.1"
         id="path431"
         style="color-interpolation:linearRGB;fill:#000000" />
      <path
         class="write-chisel-pen"
         fill="#ffffff"
         stroke-width="4"
         __comx="1205.061"
         __comy="309.026"
         __timestamp="0x176389e8f76"
         d="m 1204.0314,312.77498 v 1.684 h 0.421 l 0.605,0.349 v -2.981 h -0.745 l -0.281,0.948 m 1.026,-0.948 h -0.745 v 2.981 l 7.122,-0.123 h 0.683 v -2.734 l -7.06,-0.123 m 6.377,0.123 v 2.734 h 0.683 l 0.258,-0.399 v -2.136 h -0.534 l -0.407,-0.199 m 0.407,2.335 h 0.534 v -2.136 l -0.332,-0.598 h -0.534 v 2.136 l 0.332,0.598"
         id="path433"
         style="color-interpolation:linearRGB;fill:#000000" />
      <path
         class="write-chisel-pen"
         fill="#ffffff"
         stroke-width="4"
         __comx="1207.224"
         __comy="309.026"
         __timestamp="0x176389e8e38"
         d="m 1203.7604,300.45298 h 0.299 v -1.196 l -0.248,-0.636 h -0.467 v 1.869 l 0.416,-0.037 m 0.051,0.037 v -1.869 h -0.467 l -0.295,0.305 v 2.455 h 0.614 l 0.148,-0.891 m -0.148,-1.564 h -0.614 v 2.455 l 0.065,29.102 h 0.705 v -2.82 l -0.156,-28.737 m 0.156,28.737 h -0.705 v 2.82 l 0.769,0.623 h 0.717 v -2.87 l -0.782,-0.573 m 0.064,0.573 v 2.87 h 0.717 l 13.084,-0.56 v -2.946 h -0.736 l -13.065,0.636 m 13.065,2.31 h 0.736 v -2.946 l -0.989,0.011 h -0.532 v 2.127 l 0.784,0.808 m -0.784,-0.808 h 0.532 v -2.127 l -1.124,0.209 h -0.278 v 1.111 l 0.87,0.807 m -0.87,-0.807 h 0.278 v -1.111 l -1.219,-0.499 h -0.278 v 1.111 l 1.219,0.499"
         id="path435"
         style="color-interpolation:linearRGB;fill:#000000" />
      <path
         class="write-chisel-pen"
         fill="#ffffff"
         stroke-width="4"
         __comx="1162.935"
         __comy="309.026"
         __timestamp="0x176389e8a2c"
         d="m 1163.4284,311.55898 v -1.469 h -0.367 l -0.419,-0.147 v 2.162 h 0.54 l 0.246,-0.546 m -0.246,-1.616 h -0.54 v 2.162 l 0.378,0.76 h 0.671 v -2.684 l -0.509,-0.238 m 0.509,0.238 h -0.671 v 2.684 l 3.433,2.698 h 0.674 v -2.695 l -3.436,-2.687 m 3.436,2.687 h -0.674 v 2.695 l 2.218,3.484 h 0.671 v -2.682 l -2.214,-3.497 m 2.214,3.497 h -0.671 v 2.682 l 0.666,2.588 h 0.668 v -2.673 l -0.664,-2.598 m 0.664,5.271 v -2.673 h -0.668 l -0.668,3.778 v 2.697 h 0.674 l 0.662,-3.801 m -0.662,3.801 v -2.697 h -0.674 l -1.341,1.75 v 2.787 h 0.697 l 1.318,-1.84 m -1.318,1.84 v -2.787 h -0.697 l -3.667,1.353 v 2.873 h 0.718 l 3.646,-1.439 m -4.364,1.439 h 0.718 v -2.873 l -1.592,-0.137 h -0.637 v 2.549 l 1.511,0.461 m -1.511,-3.01 v 2.549 h 0.637 l 0.301,-0.523 v -2.3 h -0.575 l -0.363,0.274 m 0.363,-0.274 v 2.3 h 0.575 l 0.718,-0.628 v -1.841 h -0.46 l -0.833,0.169 m 0.833,-0.169 v 1.841 h 0.46 l 1.085,-0.933 v -0.774 h -0.193 l -1.352,-0.135 m 1.352,0.135 v 0.774 h 0.193 l 1.44,-0.199 v -0.774 h -0.193 l -1.44,0.199"
         id="path437"
         style="color-interpolation:linearRGB;fill:#000000" />
      <path
         class="write-chisel-pen"
         fill="#ffffff"
         stroke-width="4"
         __comx="1146.715"
         __comy="309.026"
         __timestamp="0x176389e8871"
         d="m 1133.1254,318.97698 v -0.149 h -0.037 l -1.698,0.555 v 0.436 h 0.109 l 1.626,-0.842 m -1.626,0.842 v -0.436 h -0.109 l -0.29,-0.419 v 1.873 h 0.468 l -0.069,-1.018 m 0.069,-0.855 h -0.468 v 1.873 l 0.182,0.8 h 0.768 v -3.074 l -0.482,0.401 m 0.482,-0.401 h -0.768 v 3.074 l 3.984,0.619 h 0.778 v -3.114 l -3.994,-0.578 m 3.216,0.578 v 3.114 h 0.778 l 18.505,-0.097 v -3.119 h -0.78 l -18.504,0.102 m 18.504,-0.102 v 3.119 h 0.78 l 14.069,-1.111 v -3.092 h -0.773 l -14.075,1.083 m 14.848,2.009 v -3.092 h -0.773 l -0.354,0.356 v 2.379 h 0.595 l 0.532,0.356 m -0.532,-0.356 v -2.379 h -0.595 l -0.585,0.518 v 1.742 h 0.435 l 0.745,0.119 m -0.745,-0.119 v -1.742 h -0.435 l -0.698,0.953 v 0.234 h 0.059 l 1.075,0.554 m -1.133,-0.554 h 0.059 v -0.234 l -1.219,-0.1 h -0.059 v 0.234 l 1.219,0.1"
         id="path439"
         style="color-interpolation:linearRGB;fill:#000000" />
      <path
         class="write-chisel-pen"
         fill="#ffffff"
         stroke-width="4"
         __comx="1091.262"
         __comy="305.768"
         __timestamp="0x176389e6cbf"
         d="m 1082.5514,289.19998 h 0.057 v -0.229 l 0.039,-0.456 h -0.136 v 0.544 l 0.039,0.142 m -0.039,-0.142 h 0.136 v -0.544 -0.842 h -0.357 v 1.429 l 0.221,-0.044 m -0.221,0.044 h 0.357 v -1.429 l -2.461,-0.75 h -0.533 v 2.132 l 2.636,0.047 m -2.103,-0.047 v -2.132 h -0.533 l -0.56,0.077 v 2.179 h 0.545 l 0.548,-0.123 m -0.548,0.123 v -2.179 h -0.545 l -2.905,1.4 v 2.371 h 0.593 l 2.857,-1.592 m -2.857,1.592 v -2.371 h -0.593 l -2.998,2.966 v 2.423 h 0.606 l 2.985,-3.018 m -2.985,3.018 v -2.423 h -0.606 l -5.991,10.841 v 2.481 h 0.62 l 5.976,-10.899 m -5.976,10.899 v -2.481 h -0.62 l -2.995,9.164 v 2.502 h 0.626 l 2.989,-9.185 m -2.989,9.185 v -2.502 h -0.626 l -0.776,6.679 v 2.507 h 0.627 l 0.775,-6.684 m -0.775,4.177 h -0.627 v 2.507 l 0.22,8.183 h 0.63 v -2.519 l -0.223,-8.171 m 0.223,8.171 h -0.63 v 2.519 l 1.218,4.791 h 0.632 v -2.527 l -1.22,-4.783 m 1.22,4.783 h -0.632 v 2.527 l 3.099,6.095 h 0.638 v -2.551 l -3.105,-6.072 m 3.105,6.072 h -0.638 v 2.551 l 3.1,3.699 h 0.642 v -2.569 l -3.105,-3.681 m 3.105,3.681 h -0.642 v 2.569 l 5.753,4.822 h 0.66 v -2.64 l -5.771,-4.751 m 5.771,4.751 h -0.66 v 2.64 l 3.212,1.602 h 0.663 v -2.652 l -3.215,-1.589 m 3.215,1.589 h -0.663 v 2.652 l 5.424,1.217 h 0.673 v -2.693 l -5.435,-1.176 m 5.435,1.176 h -0.673 v 2.693 l 14.171,0.144 h 0.696 v -2.783 l -14.194,-0.055 m 13.498,0.055 v 2.783 h 0.696 l 3.436,-1.194 v -2.787 h -0.697 l -3.434,1.199 m 3.434,-1.199 v 2.787 h 0.697 l 7.868,-4.684 v -2.793 h -0.698 l -7.866,4.69 m 7.866,-4.69 v 2.793 h 0.698 l 6.428,-5.08 v -2.805 h -0.701 l -6.425,5.092 m 6.425,-5.092 v 2.805 h 0.701 l 3.103,-3.786 v -2.813 h -0.703 l -3.102,3.793 m 3.102,-3.793 v 2.813 h 0.703 l 2.217,-4.386 v -2.817 h -0.704 l -2.216,4.39 m 2.216,-4.39 v 2.817 h 0.704 l 1.444,-5.273 v -2.842 h -0.711 l -1.437,5.298 m 1.437,-5.298 v 2.842 h 0.711 l 0.561,-7.054 v -2.895 h -0.724 l -0.548,7.106 m 0.548,-4.212 h 0.724 v -2.895 l -0.774,-6.09 h -0.727 v 2.907 l 0.777,6.077 m -0.777,-6.077 h 0.727 v -2.907 l -2.215,-6.984 h -0.729 v 2.915 l 2.217,6.977 m -2.217,-6.977 h 0.729 v -2.915 l -3.434,-6.486 h -0.73 v 2.922 l 3.436,6.478 m -3.436,-6.478 h 0.73 v -2.922 l -3.103,-3.589 h -0.73 v 2.92 l 3.102,3.591 m -3.102,-3.591 h 0.73 v -2.92 l -6.207,-4.281 h -0.727 v 2.906 l 6.203,4.295 m -6.203,-4.295 h 0.727 v -2.906 l -4.883,-1.962 h -0.71 v 2.841 l 4.867,2.027 m -4.867,-2.027 h 0.71 v -2.841 l -6.436,-0.163 h -0.692 v 2.767 l 6.418,0.236 m -5.726,-0.236 v -2.767 h -0.692 l -7.96,2.365 v 2.625 h 0.656 l 7.996,-2.223 m -7.996,2.223 v -2.625 h -0.656 l -8.511,4.173 v 2.457 h 0.614 l 8.553,-4.004 m -8.553,4.004 v -2.457 h -0.614 l -7.07,5.173 v 2.282 h 0.571 l 7.113,-4.999 m -7.113,4.999 v -2.282 h -0.571 l -4.597,5.414 v 1.825 h 0.456 l 4.711,-4.957 m -4.711,4.957 v -1.825 h -0.456 l -1.396,2.669 v 1.473 h 0.368 l 1.484,-2.317 m -1.484,2.317 v -1.473 h -0.368 l -0.925,2.683 v 0.893 h 0.223 l 1.07,-2.103 m -1.07,2.103 v -0.893 h -0.223 l -0.732,2.669 v 0.541 h 0.135 l 0.819,-2.317 m -0.819,2.317 v -0.541 h -0.135 l -0.443,2.294 v 0.541 h 0.135 l 0.443,-2.294"
         id="path441"
         style="color-interpolation:linearRGB;fill:#000000" />
      <path
         class="write-chisel-pen"
         fill="#ffffff"
         stroke-width="4"
         __comx="1086.414"
         __comy="305.768"
         __timestamp="0x176389e64bd"
         d="m 1078.3244,304.52298 h 0.09 v -0.361 l -0.27,-0.994 h -0.437 v 1.75 l 0.617,-0.395 m -0.617,0.395 h 0.437 v -1.75 l -0.375,-0.57 h -0.573 v 2.291 l 0.511,0.028 m -0.511,-2.32 v 2.291 h 0.573 l 0.476,-0.166 v -2.557 h -0.639 l -0.41,0.432 m 1.049,-0.432 h -0.639 v 2.557 l 6.088,0.124 h 0.652 v -2.606 l -6.1,-0.075 m 6.1,0.075 h -0.652 v 2.606 l 8.313,2.183 h 0.646 v -2.585 l -8.308,-2.205 m 8.308,2.205 h -0.646 v 2.585 l 5.434,2.971 h 0.636 v -2.544 l -5.424,-3.012 m 5.424,3.012 h -0.636 v 2.544 l 1.884,2.093 h 0.636 v -2.542 l -1.883,-2.095 m 1.883,2.095 h -0.636 v 2.542 l 2.105,4.986 h 0.636 v -2.542 l -2.105,-4.986 m 2.105,4.986 h -0.636 v 2.542 l 0.104,4.515 h 0.649 v -2.596 l -0.117,-4.461 m 0.117,7.057 v -2.596 h -0.649 l -1.568,3.422 v 2.734 h 0.683 l 1.534,-3.559 m -1.534,3.559 v -2.734 h -0.683 l -3.56,2.637 v 2.845 h 0.711 l 3.532,-2.748 m -3.532,2.748 v -2.845 h -0.711 l -5.114,1.429 v 2.979 h 0.745 l 5.08,-1.563 m -5.08,1.563 v -2.979 h -0.745 l -5.986,0.387 v 3.004 h 0.751 l 5.98,-0.411 m -6.731,0.411 h 0.751 v -3.004 l -5.213,-0.776 h -0.74 v 2.96 l 5.202,0.82 m -5.202,-0.82 h 0.74 v -2.96 l -3.253,-1.436 h -0.66 v 2.641 l 3.174,1.755 m -2.513,-4.396 h -0.66 v 2.641 l 1.216,-0.873 h 0.224 v -0.895 l -0.779,-0.873 m 0.779,0.873 h -0.224 v 0.895 l 0.817,0.036 h 0.142 v -0.569 l -0.735,-0.363 m 0.735,0.363 h -0.142 v 0.569 l 1.057,0.158 h 0.022 v -0.087 l -0.937,-0.64 m 0.937,0.64 h -0.022 v 0.087 l 1.108,0.299 h 0.022 v -0.087 l -1.108,-0.299"
         id="path443"
         style="color-interpolation:linearRGB;fill:#000000" />
      <path
         class="write-chisel-pen"
         fill="#ffffff"
         stroke-width="4"
         __comx="1081.017"
         __comy="305.768"
         __timestamp="0x176389e631c"
         d="m 1083.8294,303.16798 h 0.161 v -0.642 l -0.078,-0.874 h -0.448 v 1.793 l 0.366,-0.276 m -0.366,0.276 h 0.448 v -1.793 l -0.832,-1.113 h -0.556 v 2.224 l 0.94,0.682 m -0.384,-2.906 h -0.556 v 2.224 l 0.092,3.764 h 0.593 v -2.373 l -0.129,-3.616 m 0.129,3.616 h -0.593 v 2.373 l 2.73,13.48 h 0.452 v -1.809 l -2.589,-14.044 m 2.137,15.852 h 0.452 v -1.809 l -0.493,-0.057 h -0.131 v 0.526 l 0.172,1.34 m -0.172,-1.34 h 0.131 v -0.526 l -0.386,-0.684 h -0.024 v 0.098 l 0.279,1.112 m -0.279,-1.112 h 0.024 v -0.098 l -0.554,-1.296 h -0.024 v 0.098 l 0.554,1.296"
         id="path445"
         style="color-interpolation:linearRGB;fill:#000000" />
      <path
         class="write-chisel-pen"
         fill="#ffffff"
         stroke-width="4"
         __comx="1011.178"
         __comy="305.768"
         __timestamp="0x176389e5bf3"
         d="m 1017.0794,297.39698 v 0.13 h 0.033 l 0.71,-0.316 v -0.495 h -0.124 l -0.619,0.681 m 0.619,-0.186 h 0.124 v -0.495 l -0.031,-0.719 h -0.284 v 1.136 l 0.191,0.078 m -0.191,-0.078 h 0.284 v -1.136 l -0.806,-0.821 h -0.445 v 1.78 l 0.967,0.177 m -0.967,-0.177 h 0.445 v -1.78 l -0.255,-0.508 h -0.6 v 2.399 l 0.41,-0.11 m 0.19,0.11 v -2.399 h -0.6 l -0.36,0.487 v 2.621 h 0.655 l 0.305,-0.709 m -0.96,-1.911 v 2.621 h 0.655 l 0.33,-2.203 v -2.603 h -0.651 l -0.335,2.185 m 0.335,0.418 h 0.651 v -2.603 l -0.673,-0.966 h -0.635 v 2.541 l 0.657,1.028 m -0.657,-1.028 h 0.635 v -2.541 l -1.555,-0.084 h -0.627 v 2.509 l 1.547,0.116 m -0.92,-0.116 v -2.509 h -0.627 l -1.546,1.417 v 2.467 h 0.617 l 1.556,-1.375 m -1.556,1.375 v -2.467 h -0.617 l -0.765,2.437 v 2.379 h 0.595 l 0.787,-2.35 m -0.787,-0.03 h -0.595 v 2.379 l 1.99,0.616 h 0.604 v -2.416 l -1.999,-0.58 m 1.395,0.58 v 2.416 h 0.604 l 1.227,-0.567 v -2.479 h -0.62 l -1.211,0.63 m 1.211,-0.63 v 2.479 h 0.62 l 1.112,-2.276 v -2.514 h -0.629 l -1.104,2.311 m 1.104,0.203 h 0.629 v -2.514 l -0.108,-1.605 h -0.633 v 2.532 l 0.113,1.586 m -0.113,-1.586 h 0.633 v -2.532 l -2.008,-0.545 h -0.607 v 2.426 l 1.981,0.651 m -1.375,-0.651 v -2.426 h -0.607 l -1.542,1.034 v 2.353 h 0.588 l 1.56,-0.961 m -1.56,0.961 v -2.353 h -0.588 l -1.437,3.106 v 2.325 h 0.581 l 1.444,-3.077 m -1.444,0.752 h -0.581 v 2.325 l 0.77,0.722 h 0.593 v -2.373 l -0.782,-0.674 m 0.188,0.674 v 2.373 h 0.593 l 1.343,-0.345 v -2.481 h -0.62 l -1.316,0.453 m 1.316,-0.453 v 2.481 h 0.62 l 1.566,-1.934 v -2.601 h -0.65 l -1.536,2.055 m 1.536,-2.055 v 2.601 h 0.65 l 0.227,-1.674 v -2.645 h -0.661 l -0.216,1.717 m 0.216,0.928 h 0.661 v -2.645 l -0.786,-0.556 h -0.64 v 2.56 l 0.765,0.64 m -0.125,-0.64 v -2.56 h -0.64 l -2.537,2.039 v 2.47 h 0.618 l 2.56,-1.949 m -3.177,-0.521 v 2.47 h 0.618 l 0.558,-1.878 v -2.504 h -0.626 l -0.55,1.912 m 0.55,0.593 h 0.626 v -2.504 l -0.419,0.247 h -0.453 v 1.81 l 0.246,0.447 m 0.207,-0.447 v -1.81 h -0.453 l -0.33,0.554 v 0.901 h 0.225 l 0.557,0.355 m -0.557,-0.355 v -0.901 h -0.225 l -0.332,0.399 v 0.901 h 0.225 l 0.332,-0.399"
         id="path447"
         style="color-interpolation:linearRGB;fill:#000000" />
      <path
         class="write-chisel-pen"
         fill="#ffffff"
         stroke-width="4"
         __comx="1040.336"
         __comy="301.9"
         __timestamp="0x176389e31e1"
         d="m 1038.6464,304.96498 h 0.112 v -0.446 l -0.098,-0.794 h -0.359 v 1.436 l 0.345,-0.196 m -0.345,0.196 h 0.359 v -1.436 l -0.163,-0.532 h -0.475 v 1.901 l 0.28,0.067 m -0.28,-0.067 h 0.475 v -1.901 l -0.297,-0.441 h -0.546 v 2.184 l 0.368,0.158 m -0.368,-0.158 h 0.546 v -2.184 l -0.494,-0.541 h -0.667 v 2.668 l 0.615,0.057 m 0.052,-2.725 h -0.667 v 2.668 l 0.412,0.324 h 0.729 v -2.917 l -0.474,-0.075 m 0.474,0.075 h -0.729 v 2.917 l 6.759,3.094 h 0.73 v -2.922 l -6.76,-3.089 m 6.76,3.089 h -0.73 v 2.922 l 4.104,3.373 h 0.721 v -2.886 l -4.095,-3.408 m 4.095,3.408 h -0.721 v 2.886 l 0.887,2.191 h 0.72 v -2.88 l -0.886,-2.197 m 0.886,5.077 v -2.88 h -0.72 l -0.562,2.361 v 2.946 h 0.736 l 0.546,-2.426 m -0.546,2.426 v -2.946 h -0.736 l -2.336,2.855 v 3.02 h 0.755 l 2.318,-2.929 m -2.318,2.929 v -3.02 h -0.755 l -6.765,4.063 v 3.071 h 0.768 l 6.752,-4.114 m -6.752,4.114 v -3.071 h -0.768 l -0.114,0.83 v 2.208 h 0.552 l 0.33,0.033 m -0.33,-2.241 h -0.552 v 2.208 l 0.462,-0.12 h 0.292 v -1.169 l -0.203,-0.918 m -0.09,0.918 v 1.169 h 0.292 l 0.332,-0.399 v -1.169 h -0.292 l -0.332,0.399"
         id="path449"
         style="color-interpolation:linearRGB;fill:#000000" />
      <path
         class="write-chisel-pen"
         fill="#ffffff"
         stroke-width="4"
         __comx="1014.138"
         __comy="306.413"
         __timestamp="0x176389e3054"
         d="m 994.06437,311.98498 v -0.127 h -0.032 l -0.666,-0.69 v 1.907 h 0.477 l 0.221,-1.089 m -0.221,1.089 v -1.907 h -0.477 l -0.39,0.068 v 2.369 h 0.592 l 0.275,-0.53 m -0.275,-1.839 h -0.592 v 2.369 l 0.268,0.358 h 0.721 v -2.886 l -0.397,0.159 m 0.397,-0.159 h -0.721 v 2.886 l 12.50203,0.472 h 0.758 v -3.032 l -12.53903,-0.326 m 11.78103,0.326 v 3.032 h 0.758 l 19.837,-0.788 v -3.052 h -0.763 l -19.832,0.808 m 19.832,-0.808 v 3.052 h 0.763 l 10.416,-1.196 v -3.054 h -0.763 l -10.415,1.197 m 11.179,-1.197 h -0.763 v 3.054 l 4.921,0.216 h 0.672 v -2.689 l -4.83,-0.581 m 4.157,3.27 h 0.672 v -2.689 h -0.15 -0.373 v 1.492 l -0.15,1.197 m 0.15,-1.197 h 0.373 v -1.492 l -0.095,-0.117 h -0.182 v 0.729 l -0.095,0.88 m 0.095,-0.88 h 0.182 v -0.729 l -0.17,-0.461 h -0.064 v 0.256 l 0.052,0.935 m -0.052,-0.935 h 0.064 v -0.256 l -0.222,-0.598 h -0.064 v 0.256 l 0.222,0.598"
         id="path451"
         style="color-interpolation:linearRGB;fill:#000000" />
      <path
         class="write-chisel-pen"
         fill="#ffffff"
         stroke-width="4"
         __comx="973.78"
         __comy="152.228"
         __timestamp="0x176389e1bad"
         d="m 971.65037,160.77898 v 0.125 h 0.031 l 0.235,0.198 v -1.12 h -0.28 l 0.014,0.797 m -0.014,-0.797 v 1.12 h 0.28 l 0.194,-0.067 v -1.785 h -0.446 l -0.028,0.731 m 0.028,1.053 h 0.446 v -1.785 l 0.052,-0.508 h -0.551 v 2.203 l 0.052,0.09 m -0.052,-0.09 h 0.551 v -2.203 l 0.076,-0.602 h -0.702 v 2.808 l 0.076,-0.004 m 0.626,-2.804 h -0.702 v 2.808 l 0.206,0.461 h 0.733 v -2.933 l -0.237,-0.336 m 0.237,3.269 v -2.933 h -0.733 l -2.882,14.357 v 2.939 h 0.735 l 2.88,-14.363 m -3.615,11.424 v 2.939 h 0.735 l 9.208,-4.742 v -3.028 h -0.757 l -9.185,4.832 m 9.185,-4.832 v 3.028 h 0.757 l 6.183,-1.584 v -2.851 h -0.713 l -6.227,1.407 m 6.227,1.444 h 0.713 v -2.851 l -0.847,0.43 h -0.348 v 1.393 l 0.482,1.028 m -0.482,-1.028 h 0.348 v -1.393 l -0.443,-0.199 h -0.348 v 1.393 l 0.443,0.199"
         id="path453"
         style="color-interpolation:linearRGB;fill:#000000" />
      <path
         class="write-chisel-pen"
         fill="#ffffff"
         stroke-width="4"
         __comx="998.018"
         __comy="152.228"
         __timestamp="0x176389e171b"
         d="m 990.24237,193.00498 h 0.076 v -0.306 l 0.019,-1.263 h -0.558 v 2.234 l 0.463,-0.665 m -0.463,-1.569 v 2.234 h 0.558 l 3.839,0.086 v -2.805 h -0.701 l -3.696,0.485 m 3.696,-0.485 v 2.805 h 0.701 l 6.42903,-1.986 v -2.823 h -0.70603 l -6.424,2.003 m 6.424,-2.003 v 2.823 h 0.70603 l 8.312,-5.081 v -2.833 h -0.708 l -8.30903,5.091 m 8.30903,-5.091 v 2.833 h 0.708 l 8.09,-6.575 v -2.847 h -0.712 l -8.087,6.588 m 8.087,-6.588 v 2.847 h 0.712 l 3.548,-4.078 v -2.867 h -0.717 l -3.543,4.099 m 3.543,-4.099 v 2.867 h 0.717 l 7.876,-12.431 v -2.936 h -0.734 l -7.858,12.5 m 7.858,-12.5 v 2.936 h 0.734 l 2.778,-8.543 v -3.003 h -0.751 l -2.762,8.609 m 2.762,-5.607 h 0.751 v -3.003 -5.603 h -0.76 v 3.04 l 0.01,5.566 m -0.01,-5.566 h 0.76 v -3.04 l -0.997,-3.69 h -0.76 v 3.042 l 0.997,3.689 m -0.997,-3.689 h 0.76 v -3.042 l -2.438,-3.589 h -0.76 v 3.039 l 2.437,3.591 m -2.437,-3.591 h 0.76 v -3.039 l -6.1,-6.16 h -0.748 v 2.993 l 6.088,6.206 m -6.088,-6.206 h 0.748 v -2.993 l -5.323,-4.07 h -0.739 v 2.956 l 5.314,4.107 m -5.314,-4.107 h 0.739 v -2.956 l -3.661,-1.377 h -0.729 v 2.917 l 3.652,1.415 m -3.652,-1.415 h 0.729 v -2.917 l -5.214,-0.375 h -0.717 v 2.87 l 5.202,0.423 m -4.484,-0.423 v -2.87 h -0.717 l -3.433,0.804 v 2.857 h 0.714 l 3.437,-0.791 m -3.437,0.791 v -2.857 h -0.714 l -7.30703,4.113 v 2.808 h 0.702 l 7.31903,-4.064 m -7.31903,4.064 v -2.808 h -0.702 l -6.646,5.593 v 2.792 h 0.698 l 6.65,-5.576 m -6.65,5.576 v -2.792 h -0.698 l -7.759,10.46 v 2.813 h 0.703 l 7.754,-10.481 m -7.754,10.481 v -2.813 h -0.703 l -3.546,6.383 v 2.811 h 0.703 l 3.546,-6.382 m -3.546,6.382 v -2.811 h -0.703 l -3.549,10.955 v 2.841 h 0.71 l 3.542,-10.984 m -3.542,10.984 v -2.841 h -0.71 l -3.417,7.554 v 2.692 h 0.673 l 3.454,-7.405 m -4.127,7.405 h 0.673 v -2.692 l -0.069,-1.42 h -0.535 v 2.141 l -0.069,1.97 m 0.069,-4.112 v 2.141 h 0.535 l 0.016,-1.576 v -1.383 h -0.346 l -0.206,0.817 m 0.206,-0.817 v 1.383 h 0.346 l 0.09,-1.725 v -0.327 h -0.082 l -0.354,0.668 m 0.354,-0.668 v 0.327 h 0.082 l 0.222,-0.997 v -0.327 h -0.082 l -0.222,0.997"
         id="path455"
         style="color-interpolation:linearRGB;fill:#000000" />
      <path
         class="write-chisel-pen"
         fill="#ffffff"
         stroke-width="4"
         __comx="958.738"
         __comy="189.743"
         __timestamp="0x176389e0ede"
         d="m 942.50537,192.17698 v 0.154 h 0.039 l 0.563,-0.463 v -0.226 h -0.057 l -0.545,0.535 m 0.545,-0.535 v 0.226 h 0.057 l 0.586,0.814 v -2.253 h -0.563 l -0.079,1.213 m 0.643,1.041 v -2.253 h -0.563 l -5.698,5.297 v 2.629 h 0.657 l 5.604,-5.672 m -5.604,5.672 v -2.629 h -0.657 l -4.543,7.08 v 2.629 h 0.657 l 4.543,-7.08 m -4.543,7.08 v -2.629 h -0.657 l -2.439,6.976 v 2.638 h 0.66 l 2.436,-6.985 m -2.436,6.985 v -2.638 h -0.66 l -1.555,7.664 v 2.667 h 0.667 l 1.548,-7.693 m -1.548,7.693 v -2.667 h -0.667 l -0.337,8.557 v 2.706 h 0.676 l 0.327,-8.596 m -0.327,5.89 h -0.676 v 2.706 l 2.429,10.008 h 0.694 v -2.777 l -2.447,-9.937 m 2.447,9.937 h -0.694 v 2.777 l 4.317,7.197 h 0.703 v -2.811 l -4.326,-7.163 m 4.326,7.163 h -0.703 v 2.811 l 3.878,4.389 h 0.704 v -2.814 l -3.878,-4.386 m 3.878,4.386 h -0.704 v 2.814 l 4.1,2.692 h 0.703 v -2.813 l -4.1,-2.693 m 4.1,2.693 h -0.703 v 2.813 l 6.094,2.596 h 0.705 v -2.818 l -6.095,-2.59 m 6.095,2.59 h -0.705 v 2.818 l 8.975,1.596 h 0.705 v -2.82 l -8.975,-1.595 m 8.975,1.595 h -0.705 v 2.82 l 9.534,0.181 h 0.696 v -2.783 l -9.524,-0.218 m 8.829,0.218 v 2.783 h 0.696 l 7.645,-2.195 v -2.781 h -0.695 l -7.646,2.193 m 7.646,-2.193 v 2.781 h 0.695 l 3.766,-2.001 v -2.767 h -0.692 l -3.769,1.988 m 3.769,-1.988 v 2.767 h 0.692 l 8.312,-7.272 v -2.783 h -0.696 l -8.308,7.287 m 8.308,-7.287 v 2.783 h 0.696 l 1.776,-3.077 v -2.811 h -0.703 l -1.769,3.106 m 1.769,-3.106 v 2.811 h 0.703 l 4.004,-12.105 v -2.933 h -0.733 l -3.974,12.227 m 3.974,-12.227 v 2.933 h 0.733 l 1.122,-14.802 v -3.046 h -0.761 l -1.094,14.915 m 1.094,-11.869 h 0.761 v -3.046 l -0.329,-5.897 h -0.768 v 3.072 l 0.336,5.87 m -0.336,-5.87 h 0.768 v -3.072 l -2.102,-6.296 h -0.775 v 3.1 l 2.109,6.269 m -2.109,-6.269 h 0.775 v -3.1 l -4.102,-8.067 h -0.77 v 3.079 l 4.097,8.088 m -4.097,-8.088 h 0.77 v -3.079 l -5.877,-6.264 h -0.76 v 3.042 l 5.868,6.301 m -5.868,-6.301 h 0.76 v -3.042 l -5.763,-4.581 h -0.757 v 3.03 l 5.76,4.593 m -5.76,-4.593 h 0.757 v -3.03 l -5.1,-2.781 h -0.752 v 3.008 l 5.094,2.803 m -5.094,-2.803 h 0.752 v -3.008 l -5.653,-1.486 h -0.747 v 2.989 l 5.649,1.505 m -5.649,-1.505 h 0.747 v -2.989 l -5.877,-0.183 h -0.739 v 2.956 l 5.868,0.216 m -5.129,-0.216 v -2.956 h -0.739 l -6.647,1.2 v 2.949 h 0.737 l 6.649,-1.193 m -6.649,1.193 v -2.949 h -0.737 l -6.311,2.214 v 2.907 h 0.727 l 6.321,-2.173 m -6.321,2.173 v -2.907 h -0.727 l -8.972,5.199 v 2.882 h 0.72 l 8.978,-5.173 m -8.978,5.173 v -2.882 h -0.72 l -4.645,4.224 v 2.811 h 0.703 l 4.663,-4.153 m -4.663,4.153 v -2.811 h -0.703 l -2.498,4.989 v 2.405 h 0.601 l 2.599,-4.584 m -2.599,4.584 v -2.405 h -0.601 l -0.404,1.353 v 2.093 h 0.523 l 0.482,-1.04 m -0.482,1.04 v -2.093 h -0.523 l -0.377,1.364 v 1.559 h 0.39 l 0.51,-0.83 m -0.51,0.83 v -1.559 h -0.39 l 0.136,1.243 v 0.47 h 0.117 l 0.136,-0.153 m -0.136,0.153 v -0.47 h -0.117 v 0.399 0.47 h 0.117 v -0.399"
         id="path457"
         style="color-interpolation:linearRGB;fill:#000000" />
      <path
         class="write-chisel-pen"
         fill="#ffffff"
         stroke-width="4"
         __comx="919.931"
         __comy="298.264"
         __timestamp="0x176389dcb44"
         d="m 921.66437,299.67198 h 0.058 v -0.232 l -0.176,-0.726 h -0.371 v 1.484 l 0.489,-0.526 m -0.489,-0.958 v 1.484 h 0.371 l 0.152,-1.531 v -1.813 h -0.453 l -0.07,1.86 m 0.523,-0.047 v -1.813 h -0.453 l -0.213,-0.011 v 2.633 h 0.658 l 0.008,-0.809 m -0.008,-1.824 h -0.658 v 2.633 l 9.939,13.099 h 0.726 v -2.903 l -10.006,-12.829 m 10.006,15.732 v -2.903 h -0.726 l -2.659,3.889 v 2.903 h 0.726 l 2.659,-3.889 m -2.659,3.889 v -2.903 h -0.726 l -2.991,2.099 v 2.893 h 0.723 l 2.993,-2.089 m -2.993,2.089 v -2.893 h -0.723 l -3.879,1.194 v 2.899 h 0.725 l 3.877,-1.2 m -3.877,1.2 v -2.899 h -0.725 l -6.989,0.764 v 2.967 h 0.742 l 6.972,-0.832 m -6.972,-2.135 h -0.742 v 2.967 l 0.577,-0.235 h 0.474 v -1.897 l -0.309,-0.834 m 0.309,0.834 h -0.474 v 1.897 l 0.429,-0.188 h 0.281 v -1.122 l -0.235,-0.587 m 0.235,0.587 h -0.281 v 1.122 l 0.222,0.299 h 0.281 v -1.122 l -0.222,-0.299"
         id="path459"
         style="color-interpolation:linearRGB;fill:#000000" />
      <path
         class="write-chisel-pen"
         fill="#ffffff"
         stroke-width="4"
         __comx="891.381"
         __comy="273.904"
         __timestamp="0x176389dbae1"
         d="m 861.61337,283.00198 h 0.05 v -0.2 l -0.258,-0.939 h -0.42 v 1.679 l 0.628,-0.54 m -0.208,0.54 v -1.679 h -0.42 l -1.183,-0.3 v 2.279 h 0.57 l 1.033,-0.3 m -1.033,-1.979 h -0.57 v 2.279 l 0.473,0.322 h 0.731 v -2.923 l -0.635,0.322 m 0.635,-0.322 h -0.731 v 2.923 l 14.616,8.216 h 0.75 v -3.001 l -14.636,-8.138 m 14.636,8.138 h -0.75 v 3.001 l 31.022,12.378 h 0.756 v -3.026 l -31.028,-12.353 m 31.028,12.353 h -0.756 v 3.026 l 13.851,3.487 h 0.755 v -3.019 l -13.85,-3.494 m 13.85,3.494 h -0.755 v 3.019 l 6.515,3.679 h 0.799 v -3.197 l -6.559,-3.501 m 6.559,3.501 h -0.799 v 3.197 l 2.264,0.106 h 0.703 v -2.811 l -2.168,-0.492 m 1.465,3.303 h 0.703 v -2.811 l -0.363,-0.076 h -0.641 v 2.564 l 0.301,0.323 m -0.301,-0.323 h 0.641 v -2.564 l -0.599,-0.217 h -0.55 v 2.201 l 0.509,0.58 m -0.509,-0.58 h 0.55 v -2.201 l -0.978,0.068 h -0.367 v 1.466 l 0.795,0.666 m -0.795,-0.666 h 0.367 v -1.466 l -1.108,-0.299 h -0.367 v 1.466 l 1.108,0.299"
         id="path461"
         style="color-interpolation:linearRGB;fill:#000000" />
      <path
         class="write-chisel-pen"
         fill="#ffffff"
         stroke-width="4"
         __comx="917.732"
         __comy="273.904"
         __timestamp="0x176389db297"
         d="m 915.12637,223.42998 h 0.281 v -1.122 l -0.453,-0.504 h -0.483 v 1.931 l 0.655,-0.304 m -0.655,0.304 h 0.483 v -1.931 l -1.034,-0.394 h -0.63 v 2.519 l 1.182,-0.194 m -0.552,0.194 v -2.519 h -0.63 l -0.353,0.016 v 2.687 h 0.672 l 0.311,-0.184 m -0.311,-2.503 h -0.672 v 2.687 l 11.051,4.405 h 0.73 v -2.922 l -11.11,-4.171 m 11.11,4.171 h -0.73 v 2.922 l 3.329,2.175 h 0.721 v -2.884 l -3.32,-2.213 m 3.32,2.213 h -0.721 v 2.884 l 0.775,2.197 h 0.723 v -2.892 l -0.777,-2.19 m 0.777,5.082 v -2.892 h -0.723 l -1.224,4.068 v 2.933 h 0.733 l 1.214,-4.109 m -1.214,4.109 v -2.933 h -0.733 l -4.942,6.957 v 2.582 h 0.645 l 5.03,-6.605 m -5.675,4.024 v 2.582 h 0.645 l 0.031,-0.618 v -1.944 h -0.486 l -0.19,-0.02"
         id="path463"
         style="color-interpolation:linearRGB;fill:#000000" />
      <path
         class="write-chisel-pen"
         fill="#ffffff"
         stroke-width="4"
         __comx="888.321"
         __comy="273.904"
         __timestamp="0x176389db089"
         d="m 861.43537,258.04698 v -0.152 h -0.038 l -0.355,0.108 v 0.335 h 0.084 l 0.31,-0.291 m -0.31,0.291 v -0.335 h -0.084 l -0.366,-0.278 v 1.488 h 0.372 l 0.077,-0.876 m -0.077,0.876 v -1.488 h -0.372 l -0.741,-0.304 v 2.096 h 0.524 l 0.589,-0.304 m -1.113,0.304 h 0.524 v -2.096 l -0.412,-0.225 h -0.587 v 2.346 l 0.475,-0.025 m 0.112,0.025 v -2.346 h -0.587 l -0.355,-0.09 v 2.526 h 0.631 l 0.31,-0.09 m -0.941,-2.436 v 2.526 h 0.631 l 0.39,0.13 v -2.985 h -0.746 l -0.275,0.329 m 0.275,-0.329 v 2.985 h 0.746 l 21.717,-10.274 v -2.979 h -0.745 l -21.718,10.269 m 21.718,-10.269 v 2.979 h 0.745 l 10.517,-3.626 v -2.907 h -0.727 l -10.535,3.554 m 10.535,-3.554 v 2.907 h 0.727 l 19.377,-8.533 v -2.795 h -0.699 l -19.405,8.42 m 19.405,-8.42 v 2.795 h 0.699 l 6.651,-3.78 v -2.814 h -0.704 l -6.646,3.799 m 6.646,-3.799 v 2.814 h 0.704 l 5.433,-1.878 v -2.847 h -0.712 l -5.425,1.911 m 5.425,0.936 h 0.712 v -2.847 l -0.416,0.236 h -0.544 v 2.175 l 0.248,0.436 m -0.248,-0.436 h 0.544 v -2.175 l -0.557,0.355 h -0.317 v 1.266 l 0.33,0.554 m -0.33,-0.554 h 0.317 v -1.266 l -0.554,-0.299 h -0.317 v 1.266 l 0.554,0.299"
         id="path465"
         style="color-interpolation:linearRGB;fill:#000000" />
      <path
         class="write-chisel-pen"
         fill="#ffffff"
         stroke-width="4"
         __comx="958.435"
         __comy="288.602"
         __timestamp="0x176389d9c27"
         d="m 965.19837,286.45698 h 0.082 v -0.329 l -0.427,-0.608 h -0.336 v 1.345 l 0.681,-0.408 m -0.345,0.408 v -1.345 h -0.336 l -1.739,-0.306 v 1.958 h 0.49 l 1.585,-0.306 m -1.585,0.306 v -1.958 h -0.49 l -1.248,-0.115 v 2.188 h 0.547 l 1.19,-0.115 m -1.19,0.115 v -2.188 h -0.547 l -4.359,1.346 v 2.487 h 0.622 l 4.284,-1.646 m -4.284,1.646 v -2.487 h -0.622 l -7.999,5.701 v 2.654 h 0.664 l 7.957,-5.867 m -7.957,5.867 v -2.654 h -0.664 l -7.435,7.336 v 2.741 h 0.685 l 7.413,-7.423 m -7.413,7.423 v -2.741 h -0.685 l -4.878,6.471 v 2.764 h 0.691 l 4.873,-6.493 m -4.873,6.493 v -2.764 h -0.691 l -3.324,6.482 v 2.764 h 0.691 l 3.324,-6.482 m -3.324,6.482 v -2.764 h -0.691 l -0.885,5.888 v 2.755 h 0.689 l 0.887,-5.879 m -0.887,3.124 h -0.689 v 2.755 l 1.885,5.378 h 0.685 v -2.741 l -1.882,-5.392 m 1.882,5.392 h -0.685 v 2.741 l 3.771,4.973 h 0.679 v -2.715 l -3.764,-4.999 m 3.764,4.999 h -0.679 v 2.715 l 5.322,4.273 h 0.671 v -2.684 l -5.315,-4.304 m 5.315,4.304 h -0.671 v 2.684 l 6.983,3.181 h 0.666 v -2.664 l -6.978,-3.201 m 6.978,3.201 h -0.666 v 2.664 l 7.991,1.641 h 0.639 v -2.556 l -7.964,-1.749 m 7.964,1.749 h -0.639 v 2.556 l 11.638,0.284 h 0.631 v -2.526 l -11.631,-0.314 m 10.999,0.314 v 2.526 h 0.631 l 6.094,-1.097 v -2.526 h -0.631 l -6.094,1.097 m 6.094,-1.097 v 2.526 h 0.631 l 4.544,-1.99 v -2.534 h -0.634 l -4.542,1.999 m 4.542,-1.999 v 2.534 h 0.634 l 3.436,-2.788 v -2.542 h -0.636 l -3.434,2.796 m 3.434,-2.796 v 2.542 h 0.636 l 2.662,-3.78 v -2.562 h -0.641 l -2.657,3.799 m 2.657,-3.799 v 2.562 h 0.641 l 1.668,-4.366 v -2.606 h -0.652 l -1.657,4.41 m 1.657,-4.41 v 2.606 h 0.652 l 1.228,-10.631 v -2.684 h -0.671 l -1.209,10.709 m 1.209,-8.025 h 0.671 v -2.684 l -0.878,-8.508 h -0.687 v 2.748 l 0.894,8.445 m -0.894,-8.445 h 0.687 v -2.748 l -3.966,-11.758 h -0.732 v 2.927 l 4.011,11.578 m -4.011,-11.578 h 0.732 v -2.927 l -2.88,-4.89 h -0.734 v 2.934 l 2.882,4.883 m -2.882,-4.883 h 0.734 v -2.934 l -3.545,-3.494 h -0.735 v 2.942 l 3.546,3.487 m -3.546,-3.487 h 0.735 v -2.942 l -5.431,-1.789 h -0.733 v 2.93 l 5.428,1.801 m -4.696,-1.801 v -2.93 h -0.733 l -8.414,1.024 v 2.877 h 0.719 l 8.428,-0.971 m -8.428,0.971 v -2.877 h -0.719 l -4.534,2.029 v 2.808 h 0.702 l 4.552,-1.96 m -4.552,1.96 v -2.808 h -0.702 l -7.719,7.23 v 2.509 h 0.627 l 7.794,-6.931 m -7.794,6.931 v -2.509 h -0.627 l -2.954,4.838 v 2.208 h 0.552 l 3.029,-4.536 m -3.029,4.536 v -2.208 h -0.552 l -2.213,5.54 v 1.301 h 0.325 l 2.44,-4.632 m -2.44,4.632 v -1.301 h -0.325 l -1.773,5.385 v 1.301 h 0.325 l 1.773,-5.385"
         id="path467"
         style="color-interpolation:linearRGB;fill:#000000" />
      <path
         class="write-chisel-pen"
         fill="#ffffff"
         stroke-width="4"
         __comx="963.133"
         __comy="297.397"
         __timestamp="0x176389d9907"
         d="m 968.53137,298.88598 h 0.064 v -0.256 l -0.076,-0.539 h -0.134 v 0.536 l 0.146,0.259 m -0.146,-0.259 h 0.134 v -0.536 l -0.062,-1.138 h -0.454 v 1.815 l 0.381,-0.141 m -0.381,0.141 h 0.454 v -1.815 l -3.129,-1.433 h -0.622 v 2.487 l 3.297,0.761 m -2.675,-0.761 v -2.487 h -0.622 l -1.222,0.286 v 2.514 h 0.629 l 1.215,-0.313 m -1.215,0.313 v -2.514 h -0.629 l -2.441,1.882 v 2.539 h 0.635 l 2.434,-1.907 m -2.434,1.907 v -2.539 h -0.635 l -4.212,6.278 v 2.547 h 0.637 l 4.21,-6.287 m -4.21,6.287 v -2.547 h -0.637 l -1.663,4.783 v 2.554 h 0.638 l 1.661,-4.79 m -1.661,4.79 v -2.554 h -0.638 l -0.553,4.591 v 2.546 h 0.636 l 0.555,-4.583 m -0.555,2.038 h -0.636 v 2.546 l 1.219,3.889 h 0.636 v -2.546 l -1.219,-3.889 m 1.219,3.889 h -0.636 v 2.546 l 2.992,3.091 h 0.636 v -2.546 l -2.992,-3.091 m 2.992,3.091 h -0.636 v 2.546 l 2.105,1 h 0.638 v -2.551 l -2.106,-0.995 m 2.106,0.995 h -0.638 v 2.551 l 4.87,0.621 h 0.649 v -2.596 l -4.881,-0.575 m 4.232,0.575 v 2.596 h 0.649 l 11.485,-3.943 v -2.289 h -0.572 l -11.562,3.636 m 12.134,-1.347 v -2.289 h -0.572 l -0.59,0.5 v 1.688 h 0.422 l 0.74,0.101 m -0.74,-0.101 v -1.688 h -0.422 l -0.95,0.833 v 0.421 h 0.105 l 1.266,0.434 m -1.266,-0.434 v -0.421 h -0.105 l -1.33,0.1 v 0.421 h 0.105 l 1.33,-0.1"
         id="path469"
         style="color-interpolation:linearRGB;fill:#000000" />
      <path
         class="write-chisel-pen"
         fill="#ffffff"
         stroke-width="4"
         __comx="958.383"
         __comy="196.364"
         __timestamp="0x176389d950f"
         d="m 954.58337,203.54498 v 0.154 h 0.039 l 0.169,-2.558 v -0.622 h -0.156 l -0.052,3.026 m 0.052,-2.404 h 0.156 v -0.622 l -0.215,-1.267 h -0.39 v 1.561 l 0.45,0.328 m -0.45,-0.328 h 0.39 v -1.561 l -1.262,-1.867 h -0.526 v 2.104 l 1.398,1.324 m -1.398,-1.324 h 0.526 v -2.104 l -0.968,-0.715 h -0.584 v 2.337 l 1.026,0.482 m -1.026,-0.482 h 0.584 v -2.337 l -2.956,-0.941 h -0.656 v 2.624 l 3.028,0.655 m -2.372,-0.655 v -2.624 h -0.656 l -2.663,1.682 v 2.651 h 0.663 l 2.656,-1.709 m -2.656,1.709 v -2.651 h -0.663 l -3.439,4.47 v 2.686 h 0.671 l 3.431,-4.505 m -3.431,4.505 v -2.686 h -0.671 l -3.547,6.976 v 2.695 h 0.674 l 3.544,-6.985 m -3.544,6.985 v -2.695 h -0.674 l -2.548,8.18 v 2.689 h 0.672 l 2.549,-8.174 m -2.549,8.174 v -2.689 h -0.672 l -0.997,7.78 v 2.686 h 0.671 l 0.998,-7.777 m -0.998,5.091 h -0.671 v 2.686 l 0.665,6.879 h 0.671 v -2.682 l -0.665,-6.882 m 0.665,6.882 h -0.671 v 2.682 l 2.331,6.067 h 0.662 v -2.649 l -2.323,-6.1 m 2.323,6.1 h -0.662 v 2.649 l 4.103,5.171 h 0.655 v -2.621 l -4.096,-5.2 m 4.096,5.2 h -0.655 v 2.621 l 5.874,3.883 h 0.652 v -2.608 l -5.871,-3.896 m 5.871,3.896 h -0.652 v 2.608 l 3.657,1.295 h 0.651 v -2.604 l -3.656,-1.298 m 3.656,1.298 h -0.651 v 2.604 l 7.868,1.092 h 0.649 v -2.595 l -7.866,-1.102 m 7.217,1.102 v 2.595 h 0.649 l 11.189,-0.808 v -2.575 h -0.644 l -11.194,0.788 m 11.194,-0.788 v 2.575 h 0.644 l 5.65,-1.9 v -2.564 h -0.641 l -5.652,1.889 m 5.652,-1.889 v 2.564 h 0.641 l 4.098,-2.901 v -2.546 h -0.636 l -4.102,2.883 m 4.102,-2.883 v 2.546 h 0.636 l 2.991,-4.488 v -2.544 h -0.636 l -2.992,4.487 m 2.992,-4.487 v 2.544 h 0.636 l 2.109,-5.968 v -2.575 h -0.644 l -2.101,5.999 m 2.101,-5.999 v 2.575 h 0.644 l 0.786,-7.038 v -2.66 h -0.665 l -0.765,7.123 m 0.765,-4.463 h 0.665 v -2.66 l -0.216,-8.297 h -0.675 v 2.701 l 0.227,8.257 m -0.227,-8.257 h 0.675 v -2.701 l -1.541,-8.918 h -0.697 v 2.787 l 1.562,8.832 m -1.562,-8.832 h 0.697 v -2.787 l -3.43,-7.996 h -0.706 v 2.823 l 3.439,7.96 m -3.439,-7.96 h 0.706 v -2.823 l -2.549,-3.69 h -0.706 v 2.823 l 2.549,3.69 m -2.549,-3.69 h 0.706 v -2.823 l -6.649,-6.577 h -0.703 v 2.813 l 6.647,6.587 m -6.647,-6.587 h 0.703 v -2.813 l -7.096,-5.265 h -0.693 v 2.772 l 7.086,5.306 m -7.086,-5.306 h 0.693 v -2.772 l -6.102,-2.461 h -0.677 v 2.707 l 6.086,2.525 m -5.409,-2.525 v -2.707 h -0.677 l -5.066,1.022 v 2.459 h 0.615 l 5.128,-0.773 m -5.128,0.773 v -2.459 h -0.615 l -5.137,5.568 v 1.893 h 0.473 l 5.278,-5.003 m -5.278,5.003 v -1.893 h -0.473 l -2.447,4.594 v 1.083 h 0.271 l 2.65,-3.783 m -2.65,3.783 v -1.083 h -0.271 l -2.539,5.368 v 0.119 h 0.03 l 2.78,-4.405 m -2.78,4.405 v -0.119 h -0.03 l -2.438,5.385 v 0.119 h 0.03 l 2.438,-5.385"
         id="path471"
         style="color-interpolation:linearRGB;fill:#000000" />
      <path
         class="write-chisel-pen"
         fill="#ffffff"
         stroke-width="4"
         __comx="956.386"
         __comy="207.907"
         __timestamp="0x176389d9221"
         d="m 949.91937,208.09198 v 0.234 h 0.059 l 0.136,-0.201 v -0.431 h -0.108 l -0.086,0.397 m 0.086,-0.397 v 0.431 h 0.108 l 0.404,0.433 v -1.895 h -0.474 l -0.038,1.031 m 0.038,-1.031 v 1.895 h 0.474 l 0.854,-0.485 v -2.521 h -0.63 l -0.697,1.111 m 0.697,-1.111 v 2.521 h 0.63 l 5.429,-0.701 v -2.516 h -0.629 l -5.43,0.696 m 6.059,-0.696 h -0.629 v 2.516 l 3.992,1.085 h 0.623 v -2.492 l -3.986,-1.109 m 3.986,1.109 h -0.623 v 2.492 l 3.326,2.784 h 0.619 v -2.476 l -3.322,-2.801 m 3.322,2.801 h -0.619 v 2.476 l 1.995,3.889 h 0.619 v -2.476 l -1.995,-3.889 m 1.995,3.889 h -0.619 v 2.476 l 0.55,3.904 h 0.626 v -2.506 l -0.558,-3.874 m 0.558,6.38 v -2.506 h -0.626 l -1.013,3.028 v 2.633 h 0.658 l 0.981,-3.155 m -0.981,3.155 v -2.633 h -0.658 l -2.56,2.049 v 2.725 h 0.681 l 2.537,-2.14 m -2.537,2.14 v -2.725 h -0.681 l -3.555,0.862 v 2.796 h 0.699 l 3.537,-0.933 m -4.236,0.933 h 0.699 v -2.796 l -2.99,-0.307 h -0.703 v 2.811 l 2.994,0.292 m -2.994,-0.292 h 0.703 v -2.811 l -2.334,-1.167 h -0.688 v 2.752 l 2.319,1.226 m -2.319,-3.978 v 2.752 h 0.688 l 2.075,-0.522 v -2.506 h -0.626 l -2.136,0.276 m 2.763,-0.276 h -0.626 v 2.506 l 4.876,1.894 h 0.626 v -2.504 l -4.875,-1.896 m 4.875,1.896 h -0.626 v 2.504 l 4.655,3.986 h 0.624 v -2.497 l -4.653,-3.992 m 4.653,3.992 h -0.624 v 2.497 l 2.76,4.629 h 0.645 v -2.58 l -2.78,-4.546 m 2.78,4.546 h -0.645 v 2.58 l 0.412,3.715 h 0.708 v -2.83 l -0.474,-3.465 m 0.474,6.295 v -2.83 h -0.708 l -1.46,2.016 v 2.986 h 0.747 l 1.421,-2.172 m -1.421,2.172 v -2.986 h -0.747 l -3.56,1.837 v 3.101 h 0.775 l 3.531,-1.952 m -3.531,1.952 v -3.101 h -0.775 l -4.436,0.582 v 3.134 h 0.784 l 4.428,-0.615 m -5.211,0.615 h 0.784 v -3.134 l -2.105,-0.598 h -0.784 v 3.134 l 2.105,0.598 m -2.105,-0.598 h 0.784 v -3.134 l -3.561,-2.531 h -0.753 v 3.011 l 3.53,2.655 m -3.53,-2.655 h 0.753 v -3.011 l -2.064,-5.108 h -0.614 v 2.457 l 1.925,5.662 m -1.925,-8.119 v 2.457 h 0.614 l 0.269,-1.352 v -1.946 h -0.487 l -0.396,0.842 m 0.396,-0.842 v 1.946 h 0.487 l 0.411,-1.27 v -0.803 h -0.201 l -0.697,0.126 m 0.697,-0.126 v 0.803 h 0.201 l 0.776,-0.199 v -0.803 h -0.201 l -0.776,0.199"
         id="path473"
         style="color-interpolation:linearRGB;fill:#000000" />
      <path
         class="write-chisel-pen"
         fill="#ffffff"
         stroke-width="4"
         __comx="955.323"
         __comy="211.391"
         __timestamp="0x176389d8f97"
         d="m 958.74837,211.83998 v 0.518 h 0.13 l 0.272,0.244 v -1.805 h -0.451 l 0.05,1.042 m 0.401,-1.042 h -0.451 v 1.805 l 0.044,14.228 h 0.585 v -2.339 l -0.178,-13.694 m 0.178,16.033 v -2.339 h -0.585 l -0.948,4.385 v 1.946 h 0.487 l 1.046,-3.992 m -1.046,3.992 v -1.946 h -0.487 l -0.047,0.553 v 1.438 h 0.36 l 0.174,-0.045 m -0.534,0.045 h 0.36 v -1.438 l -0.19,0.02 h -0.2 v 0.8 l 0.031,0.618 m -0.031,-0.618 h 0.2 v -0.8 l -0.111,-0.698 h -0.2 v 0.8 l 0.111,0.698"
         id="path475"
         style="color-interpolation:linearRGB;fill:#000000" />
      <path
         class="write-chisel-pen"
         fill="#ffffff"
         stroke-width="4"
         __comx="836.903"
         __comy="258.88"
         __timestamp="0x176389d4401"
         d="m 845.71537,246.46098 h 0.378 v -1.512 l -3.346,-0.457 h -0.557 v 2.226 l 3.524,-0.257 m -2.968,0.257 v -2.226 h -0.557 l -1.005,0.268 v 2.289 h 0.572 l 0.989,-0.331 m -0.989,0.331 v -2.289 h -0.572 l -6.464,2.642 v 2.59 h 0.647 l 6.389,-2.942 m -6.389,2.942 v -2.59 h -0.647 l -8.986,5.34 v 2.679 h 0.67 l 8.964,-5.43 m -8.964,5.43 v -2.679 h -0.67 l -4.1,4.287 v 2.682 h 0.671 l 4.099,-4.29 m -4.099,4.29 v -2.682 h -0.671 l -1.882,3.296 v 2.673 h 0.668 l 1.885,-3.286 m -1.885,3.286 v -2.673 h -0.668 l -0.775,4.987 v 2.671 h 0.668 l 0.776,-4.985 m -0.776,2.314 h -0.668 v 2.671 l 0.334,3.286 h 0.665 v -2.662 l -0.331,-3.296 m 0.331,3.296 h -0.665 v 2.662 l 1.552,3.39 h 0.665 v -2.66 l -1.551,-3.391 m 1.551,3.391 h -0.665 v 2.66 l 4.1,4.884 h 0.664 v -2.656 l -4.099,-4.889 m 4.099,4.889 h -0.664 v 2.656 l 6.762,5.474 h 0.659 v -2.635 l -6.756,-5.495 m 6.756,5.495 h -0.659 v 2.635 l 4.99,2.277 h 0.65 v -2.601 l -4.982,-2.311 m 4.982,2.311 h -0.65 v 2.601 l 4.767,0.79 h 0.646 v -2.585 l -4.763,-0.806 m 4.116,0.806 v 2.585 h 0.646 l 3.215,-0.393 v -2.596 h -0.649 l -3.212,0.405 m 3.212,-0.405 v 2.596 h 0.649 l 3.33,-1.672 v -2.643 h -0.661 l -3.318,1.719 m 3.318,-1.719 v 2.643 h 0.661 l 8.652,-6.743 v -2.72 h -0.68 l -8.633,6.82 m 8.633,-6.82 v 2.72 h 0.68 l 2.337,-3.05 v -2.804 h -0.701 l -2.316,3.133 m 2.316,-3.133 v 2.804 h 0.701 l 1.454,-4.534 v -2.91 h -0.728 l -1.427,4.641 m 1.427,-1.73 h 0.728 v -2.91 l -0.104,-5.611 h -0.741 v 2.963 l 0.117,5.558 m -0.117,-5.558 h 0.741 v -2.963 l -2.323,-6.797 h -0.749 v 2.994 l 2.331,6.765 m -2.331,-6.765 h 0.749 v -2.994 l -4.652,-6.688 h -0.752 v 3.007 l 4.655,6.675 m -4.655,-6.675 h 0.752 v -3.007 l -3.768,-3.289 h -0.751 v 3.003 l 3.767,3.293 m -3.767,-3.293 h 0.751 v -3.003 l -3.994,-1.875 h -0.741 v 2.963 l 3.984,1.915 m -3.243,-1.915 v -2.963 h -0.741 l -4.747,0.172 v 2.818 h 0.705 l 4.783,-0.028 m -4.783,0.028 v -2.818 h -0.705 l -6.281,3.727 v 2.544 h 0.636 l 6.35,-3.453 m -6.35,3.453 v -2.544 h -0.636 l -3.292,3.22 v 2.286 h 0.571 l 3.356,-2.962 m -3.356,2.962 v -2.286 h -0.571 l -2.926,3.656 v 1.756 h 0.439 l 3.058,-3.126 m -3.058,3.126 v -1.756 h -0.439 l -2.126,4.194 v 0.149 h 0.037 l 2.528,-2.587 m -2.528,2.587 v -0.149 h -0.037 l -1.773,3.391 v 0.149 h 0.037 l 1.773,-3.391"
         id="path477"
         style="color-interpolation:linearRGB;fill:#000000" />
      <path
         class="write-chisel-pen"
         fill="#ffffff"
         stroke-width="4"
         __comx="837.499"
         __comy="258.88"
         __timestamp="0x176389d40bf"
         d="m 835.50137,269.37498 h 0.417 v -1.667 l -0.367,-0.504 h -0.569 v 2.277 l 0.519,-0.105 m -0.519,0.105 h 0.569 v -2.277 l -0.401,-0.37 h -0.654 v 2.617 l 0.486,0.029 m -0.486,-2.647 v 2.617 h 0.654 l 1.915,-0.572 v -2.869 h -0.717 l -1.852,0.824 m 1.852,-0.824 v 2.869 h 0.717 l 7.36,-0.456 v -2.355 h -0.589 l -7.488,-0.057 m 7.488,0.057 v 2.355 h 0.589 l 1.166,-0.312 v -1.931 h -0.483 l -1.272,-0.112 m 1.272,0.112 v 1.931 h 0.483 l 0.754,-0.829 v -0.871 h -0.218 l -1.019,-0.231 m 1.019,0.231 v 0.871 h 0.218 l 0.443,-0.299 v -0.871 h -0.218 l -0.443,0.299"
         id="path479"
         style="color-interpolation:linearRGB;fill:#000000" />
      <path
         class="write-chisel-pen"
         fill="#ffffff"
         stroke-width="4"
         __comx="839.549"
         __comy="258.88"
         __timestamp="0x176389d3fe7"
         d="m 836.28237,274.84098 h 0.407 v -1.629 l -0.159,-0.55 h -0.533 v 2.13 l 0.284,0.049 m -0.284,-0.049 h 0.533 v -2.13 l -0.074,-0.547 h -0.607 v 2.426 l 0.148,0.251 m -0.148,-0.251 h 0.607 v -2.426 l 0.021,-4.073 h -0.649 v 2.595 l 0.021,3.905 m -0.021,-6.499 v 2.595 h 0.649 l 4.33,-14.426 v -2.662 h -0.665 l -4.313,14.493 m 4.313,-14.493 v 2.662 h 0.665 l 1.545,-2.617 v -2.614 h -0.654 l -1.557,2.569 m 2.211,-2.569 h -0.654 v 2.614 l 1.999,4.768 h 0.644 v -2.577 l -1.99,-4.805 m 1.99,4.805 h -0.644 v 2.577 l 1.658,8.194 h 0.653 v -2.611 l -1.666,-8.16 m 1.666,8.16 h -0.653 v 2.611 l 3.545,7.384 h 0.655 v -2.621 l -3.547,-7.375 m 2.892,9.995 h 0.655 v -2.621 l -0.147,-0.454 h -0.583 v 2.332 l 0.075,0.743 m -0.075,-0.743 h 0.583 v -2.332 l -0.712,-0.511 h -0.49 v 1.958 l 0.618,0.885 m -0.618,-0.885 h 0.49 v -1.958 l -1.095,-0.304 h -0.293 v 1.171 l 0.899,1.092 m -0.899,-1.092 h 0.293 v -1.171 l -1.44,-0.798 h -0.293 v 1.171 l 1.44,0.798"
         id="path481"
         style="color-interpolation:linearRGB;fill:#000000" />
      <path
         class="write-chisel-pen"
         fill="#ffffff"
         stroke-width="4"
         __comx="806.314"
         __comy="258.88"
         __timestamp="0x176389d3be8"
         d="m 802.47637,245.57998 v -0.946 h -0.236 l -0.392,-0.24 v 1.425 h 0.356 l 0.272,-0.24 m -0.272,0.24 v -1.425 h -0.356 l -0.597,-0.172 v 1.768 h 0.442 l 0.511,-0.172 m -0.511,0.172 v -1.768 h -0.442 l -0.828,-0.011 v 2.19 h 0.547 l 0.723,-0.41 m -0.723,0.41 v -2.19 h -0.547 l -0.278,0.072 v 2.645 h 0.661 l 0.165,-0.527 m -0.165,-2.118 h -0.661 v 2.645 l 17.935,14.223 h 0.692 v -2.769 l -17.966,-14.098 m 17.966,16.867 v -2.769 h -0.692 l -13.706,12.5 v 2.501 h 0.625 l 13.773,-12.232 m -14.398,9.731 v 2.501 h 0.625 l 0.322,-0.686 v -1.529 h -0.382 l -0.565,-0.287 m 0.565,0.287 v 1.529 h 0.382 l 0.332,-0.1 v -1.529 h -0.382 l -0.332,0.1"
         id="path483"
         style="color-interpolation:linearRGB;fill:#000000" />
      <path
         class="write-chisel-pen"
         fill="#ffffff"
         stroke-width="4"
         __comx="797.034"
         __comy="258.88"
         __timestamp="0x176389d3908"
         d="m 791.46937,260.38798 h 0.061 v -0.245 l -0.152,-0.821 h -0.422 v 1.688 l 0.513,-0.622 m -0.513,0.622 h 0.422 v -1.688 l -1.026,-0.428 h -0.586 v 2.344 l 1.19,-0.229 m -0.604,-2.116 h -0.586 v 2.344 l 0.268,0.255 h 0.714 v -2.855 l -0.396,0.255 m 0.396,-0.255 h -0.714 v 2.855 l 19.829,0.319 h 0.724 v -2.896 l -19.839,-0.279 m 19.839,3.175 v -2.896 h -0.724 l -0.491,0.893 v 1.508 h 0.377 l 0.838,0.495 m -0.838,-0.495 v -1.508 h -0.377 -0.665 v 1.508 h 0.377 0.665"
         id="path485"
         style="color-interpolation:linearRGB;fill:#000000" />
      <path
         class="write-chisel-pen"
         fill="#ffffff"
         stroke-width="4"
         __comx="890.409"
         __comy="317.342"
         __timestamp="0x176389fa465"
         d="m 897.65037,320.87098 h 0.351 v -1.403 l -0.272,-0.344 h -0.473 v 1.891 l 0.394,-0.144 m 0.079,0.144 v -1.891 h -0.473 l -0.59,-0.146 v 2.182 h 0.546 l 0.517,-0.146 m -0.517,0.146 v -2.182 h -0.546 l -2.797,-0.106 v 2.395 h 0.599 l 2.744,-0.106 m -2.744,0.106 v -2.395 h -0.599 l -2.997,1.375 v 2.438 h 0.61 l 2.986,-1.418 m -2.986,1.418 v -2.438 h -0.61 l -1.663,1.993 v 2.442 h 0.61 l 1.662,-1.996 m -1.662,1.996 v -2.442 h -0.61 l -0.108,1.807 v 2.418 h 0.604 l 0.114,-1.783 m -0.114,-0.635 h -0.604 v 2.418 l 2.219,0.885 h 0.598 v -2.393 l -2.213,-0.91 m 1.615,0.91 v 2.393 h 0.598 l 2.776,-0.276 v -2.44 h -0.61 l -2.764,0.322 m 2.764,-0.322 v 2.44 h 0.61 l 1.338,-1.562 v -2.507 h -0.627 l -1.321,1.629 m 1.321,-1.629 v 2.507 h 0.627 l 0.666,-3.583 v -2.521 h -0.63 l -0.663,3.597 m 1.293,-1.076 v -2.521 h -0.63 l -0.378,10.19 v 2.883 h 0.721 l 0.287,-10.552 m -0.287,10.552 v -2.883 h -0.721 l -3.882,2.974 v 2.919 h 0.73 l 3.873,-3.01 m -4.603,3.01 h 0.73 v -2.919 l -1.879,-0.219 h -0.74 v 2.958 l 1.889,0.18 m -1.889,-0.18 h 0.74 v -2.958 -0.399 h -0.74 v 2.958 0.399"
         id="path571"
         style="color-interpolation:linearRGB;fill:#000000" />
      <path
         class="write-chisel-pen"
         fill="#ffffff"
         stroke-width="4"
         __comx="879.251"
         __comy="321.917"
         __timestamp="0x176389fa03c"
         d="m 878.03437,326.12998 v 1.44 h 0.36 l 0.697,0.374 v -2.587 h -0.647 l -0.411,0.773 m 1.057,-0.773 h -0.647 v 2.587 l 7.148,0.869 h 0.533 v -2.13 l -7.034,-1.325 m 7.034,1.325 h -0.533 v 2.13 l 0.383,-0.202 h 0.432 v -1.727 l -0.282,-0.202 m -0.15,0.202 v 1.727 h 0.432 l 0.235,-0.587 v -0.952 h -0.238 l -0.429,-0.188 m 0.429,0.188 v 0.952 h 0.238 l 0.111,-0.299 v -0.952 h -0.238 l -0.111,0.299"
         id="path573"
         style="color-interpolation:linearRGB;fill:#000000" />
      <path
         class="write-chisel-pen"
         fill="#ffffff"
         stroke-width="4"
         __comx="863.521"
         __comy="315.408"
         __timestamp="0x176389f9e37"
         d="m 863.34637,318.63898 v -0.729 h -0.182 l -0.865,0.141 v 1.445 h 0.361 l 0.686,-0.856 m -0.686,0.856 v -1.445 h -0.361 l -0.57,0.535 v 1.572 h 0.393 l 0.538,-0.662 m -0.538,0.662 v -1.572 h -0.393 l -1.358,2.38 v 1.799 h 0.45 l 1.301,-2.606 m -1.301,2.606 v -1.799 h -0.45 l -0.248,2.586 v 2.013 h 0.503 l 0.195,-2.799 m -0.195,0.787 h -0.503 v 2.013 l 1.851,3.72 h 0.568 v -2.273 l -1.916,-3.46 m 1.916,3.46 h -0.568 v 2.273 l 1.55,1.102 h 0.571 v -2.284 l -1.552,-1.092 m 1.552,1.092 h -0.571 v 2.284 l 4.538,0.418 h 0.58 v -2.322 l -4.548,-0.38 m 3.967,0.38 v 2.322 h 0.58 l 2.779,-0.562 v -2.393 h -0.598 l -2.761,0.634 m 2.761,-0.634 v 2.393 h 0.598 l 1.34,-1.654 v -2.476 h -0.619 l -1.319,1.736 m 1.319,-1.736 v 2.476 h 0.619 l 0.444,-2.688 v -2.484 h -0.621 l -0.442,2.697 m 0.442,-0.213 h 0.621 v -2.484 l -0.998,-2.789 h -0.619 v 2.477 l 0.997,2.796 m -0.997,-2.796 h 0.619 v -2.477 l -2.328,-2.091 h -0.618 v 2.47 l 2.326,2.098 m -2.326,-2.098 h 0.618 v -2.47 l -2.665,-1.073 h -0.606 v 2.423 l 2.653,1.121 m -2.048,-1.121 v -2.423 h -0.606 l -2.852,0.316 v 2.19 h 0.547 l 2.91,-0.083 m -2.91,0.083 v -2.19 h -0.547 l -1.052,1.423 v 1.738 h 0.434 l 1.165,-0.971 m -1.165,0.971 v -1.738 h -0.434 l -0.602,1.05 v 1.233 h 0.308 l 0.728,-0.545 m -0.728,0.545 v -1.233 h -0.308 l -0.436,1.372 v 0.285 h 0.071 l 0.673,-0.423 m -0.673,0.423 v -0.285 h -0.071 l -0.443,0.798 v 0.285 h 0.071 l 0.443,-0.798"
         id="path575"
         style="color-interpolation:linearRGB;fill:#000000" />
      <path
         class="write-chisel-pen"
         fill="#ffffff"
         stroke-width="4"
         __comx="1156.448"
         __comy="334.794"
         __timestamp="0x176389fa465"
         d="m 1163.6894,338.32298 h 0.351 v -1.403 l -0.272,-0.344 h -0.473 v 1.891 l 0.394,-0.144 m 0.079,0.144 v -1.891 h -0.473 l -0.59,-0.146 v 2.182 h 0.546 l 0.517,-0.146 m -0.517,0.146 v -2.182 h -0.546 l -2.797,-0.106 v 2.395 h 0.599 l 2.744,-0.106 m -2.744,0.106 v -2.395 h -0.599 l -2.997,1.375 v 2.438 h 0.61 l 2.986,-1.418 m -2.986,1.418 v -2.438 h -0.61 l -1.663,1.993 v 2.442 h 0.61 l 1.662,-1.996 m -1.662,1.996 v -2.442 h -0.61 l -0.108,1.807 v 2.418 h 0.604 l 0.114,-1.783 m -0.114,-0.635 h -0.604 v 2.418 l 2.219,0.885 h 0.598 v -2.393 l -2.213,-0.91 m 1.615,0.91 v 2.393 h 0.598 l 2.776,-0.276 v -2.44 h -0.61 l -2.764,0.322 m 2.764,-0.322 v 2.44 h 0.61 l 1.338,-1.562 v -2.507 h -0.627 l -1.321,1.629 m 1.321,-1.629 v 2.507 h 0.627 l 0.666,-3.583 v -2.521 h -0.63 l -0.663,3.597 m 1.293,-1.076 v -2.521 h -0.63 l -0.378,10.19 v 2.883 h 0.721 l 0.287,-10.552 m -0.287,10.552 v -2.883 h -0.721 l -3.882,2.974 v 2.919 h 0.73 l 3.873,-3.01 m -4.603,3.01 h 0.73 v -2.919 l -1.879,-0.219 h -0.74 v 2.958 l 1.889,0.18 m -1.889,-0.18 h 0.74 v -2.958 -0.399 h -0.74 v 2.958 0.399"
         id="path577"
         style="color-interpolation:linearRGB;fill:#000000" />
      <path
         class="write-chisel-pen"
         fill="#ffffff"
         stroke-width="4"
         __comx="1145.289"
         __comy="339.368"
         __timestamp="0x176389fa03c"
         d="m 1144.0734,343.58198 v 1.44 h 0.36 l 0.697,0.374 v -2.587 h -0.647 l -0.411,0.773 m 1.057,-0.773 h -0.647 v 2.587 l 7.148,0.869 h 0.533 v -2.13 l -7.034,-1.325 m 7.034,1.325 h -0.533 v 2.13 l 0.383,-0.202 h 0.432 v -1.727 l -0.282,-0.202 m -0.15,0.202 v 1.727 h 0.432 l 0.235,-0.587 v -0.952 h -0.238 l -0.429,-0.188 m 0.429,0.188 v 0.952 h 0.238 l 0.111,-0.299 v -0.952 h -0.238 l -0.111,0.299"
         id="path579"
         style="color-interpolation:linearRGB;fill:#000000" />
      <path
         class="write-chisel-pen"
         fill="#ffffff"
         stroke-width="4"
         __comx="1129.56"
         __comy="332.86"
         __timestamp="0x176389f9e37"
         d="m 1129.3854,336.09098 v -0.729 h -0.182 l -0.865,0.141 v 1.445 h 0.361 l 0.686,-0.856 m -0.686,0.856 v -1.445 h -0.361 l -0.57,0.535 v 1.572 h 0.393 l 0.538,-0.662 m -0.538,0.662 v -1.572 h -0.393 l -1.358,2.38 v 1.799 h 0.45 l 1.301,-2.606 m -1.301,2.606 v -1.799 h -0.45 l -0.248,2.586 v 2.013 h 0.503 l 0.195,-2.799 m -0.195,0.787 h -0.503 v 2.013 l 1.851,3.72 h 0.568 v -2.273 l -1.916,-3.46 m 1.916,3.46 h -0.568 v 2.273 l 1.55,1.102 h 0.571 v -2.284 l -1.552,-1.092 m 1.552,1.092 h -0.571 v 2.284 l 4.538,0.418 h 0.58 v -2.322 l -4.548,-0.38 m 3.967,0.38 v 2.322 h 0.58 l 2.779,-0.562 v -2.393 h -0.598 l -2.761,0.634 m 2.761,-0.634 v 2.393 h 0.598 l 1.34,-1.654 v -2.476 h -0.619 l -1.319,1.736 m 1.319,-1.736 v 2.476 h 0.619 l 0.444,-2.688 v -2.484 h -0.621 l -0.442,2.697 m 0.442,-0.213 h 0.621 v -2.484 l -0.998,-2.789 h -0.619 v 2.477 l 0.997,2.796 m -0.997,-2.796 h 0.619 v -2.477 l -2.328,-2.091 h -0.618 v 2.47 l 2.326,2.098 m -2.326,-2.098 h 0.618 v -2.47 l -2.665,-1.073 h -0.606 v 2.423 l 2.653,1.121 m -2.048,-1.121 v -2.423 h -0.606 l -2.852,0.316 v 2.19 h 0.547 l 2.91,-0.083 m -2.91,0.083 v -2.19 h -0.547 l -1.052,1.423 v 1.738 h 0.434 l 1.165,-0.971 m -1.165,0.971 v -1.738 h -0.434 l -0.602,1.05 v 1.233 h 0.308 l 0.728,-0.545 m -0.728,0.545 v -1.233 h -0.308 l -0.436,1.372 v 0.285 h 0.071 l 0.673,-0.423 m -0.673,0.423 v -0.285 h -0.071 l -0.443,0.798 v 0.285 h 0.071 l 0.443,-0.798"
         id="path581"
         style="color-interpolation:linearRGB;fill:#000000" />
      <path
         class="write-chisel-pen"
         fill="#ffffff"
         stroke-width="4"
         __comx="888.968"
         __comy="215.924"
         __timestamp="0x176389fa465"
         d="m 896.20937,219.45298 h 0.351 v -1.403 l -0.272,-0.344 h -0.473 v 1.891 l 0.394,-0.144 m 0.079,0.144 v -1.891 h -0.473 l -0.59,-0.146 v 2.182 h 0.546 l 0.517,-0.146 m -0.517,0.146 v -2.182 h -0.546 l -2.797,-0.106 v 2.395 h 0.599 l 2.744,-0.106 m -2.744,0.106 v -2.395 h -0.599 l -2.997,1.375 v 2.438 h 0.61 l 2.986,-1.418 m -2.986,1.418 v -2.438 h -0.61 l -1.663,1.993 v 2.442 h 0.61 l 1.662,-1.996 m -1.662,1.996 v -2.442 h -0.61 l -0.108,1.807 v 2.418 h 0.604 l 0.114,-1.783 m -0.114,-0.635 h -0.604 v 2.418 l 2.219,0.885 h 0.598 v -2.393 l -2.213,-0.91 m 1.615,0.91 v 2.393 h 0.598 l 2.776,-0.276 v -2.44 h -0.61 l -2.764,0.322 m 2.764,-0.322 v 2.44 h 0.61 l 1.338,-1.562 v -2.507 h -0.627 l -1.321,1.629 m 1.321,-1.629 v 2.507 h 0.627 l 0.666,-3.583 v -2.521 h -0.63 l -0.663,3.597 m 1.293,-1.076 v -2.521 h -0.63 l -0.378,10.19 v 2.883 h 0.721 l 0.287,-10.552 m -0.287,10.552 v -2.883 h -0.721 l -3.882,2.974 v 2.919 h 0.73 l 3.873,-3.01 m -4.603,3.01 h 0.73 v -2.919 l -1.879,-0.219 h -0.74 v 2.958 l 1.889,0.18 m -1.889,-0.18 h 0.74 v -2.958 -0.399 h -0.74 v 2.958 0.399"
         id="path583"
         style="color-interpolation:linearRGB;fill:#000000" />
      <path
         class="write-chisel-pen"
         fill="#ffffff"
         stroke-width="4"
         __comx="877.81"
         __comy="220.498"
         __timestamp="0x176389fa03c"
         d="m 876.59337,224.71198 v 1.44 h 0.36 l 0.697,0.374 v -2.587 h -0.647 l -0.411,0.773 m 1.057,-0.773 h -0.647 v 2.587 l 7.148,0.869 h 0.533 v -2.13 l -7.034,-1.325 m 7.034,1.325 h -0.533 v 2.13 l 0.383,-0.202 h 0.432 v -1.727 l -0.282,-0.202 m -0.15,0.202 v 1.727 h 0.432 l 0.235,-0.587 v -0.952 h -0.238 l -0.429,-0.188 m 0.429,0.188 v 0.952 h 0.238 l 0.111,-0.299 v -0.952 h -0.238 l -0.111,0.299"
         id="path585"
         style="color-interpolation:linearRGB;fill:#000000" />
      <path
         class="write-chisel-pen"
         fill="#ffffff"
         stroke-width="4"
         __comx="862.081"
         __comy="213.99"
         __timestamp="0x176389f9e37"
         d="m 861.90537,217.22098 v -0.729 h -0.182 l -0.865,0.141 v 1.445 h 0.361 l 0.686,-0.856 m -0.686,0.856 v -1.445 h -0.361 l -0.57,0.535 v 1.572 h 0.393 l 0.538,-0.662 m -0.538,0.662 v -1.572 h -0.393 l -1.358,2.38 v 1.799 h 0.45 l 1.301,-2.606 m -1.301,2.606 v -1.799 h -0.45 l -0.248,2.586 v 2.013 h 0.503 l 0.195,-2.799 m -0.195,0.787 h -0.503 v 2.013 l 1.851,3.72 h 0.568 v -2.273 l -1.916,-3.46 m 1.916,3.46 h -0.568 v 2.273 l 1.55,1.102 h 0.571 v -2.284 l -1.552,-1.092 m 1.552,1.092 h -0.571 v 2.284 l 4.538,0.418 h 0.58 v -2.322 l -4.548,-0.38 m 3.967,0.38 v 2.322 h 0.58 l 2.779,-0.562 v -2.393 h -0.598 l -2.761,0.634 m 2.761,-0.634 v 2.393 h 0.598 l 1.34,-1.654 v -2.476 h -0.619 l -1.319,1.736 m 1.319,-1.736 v 2.476 h 0.619 l 0.444,-2.688 v -2.484 h -0.621 l -0.442,2.697 m 0.442,-0.213 h 0.621 v -2.484 l -0.998,-2.789 h -0.619 v 2.477 l 0.997,2.796 m -0.997,-2.796 h 0.619 v -2.477 l -2.328,-2.091 h -0.618 v 2.47 l 2.326,2.098 m -2.326,-2.098 h 0.618 v -2.47 l -2.665,-1.073 h -0.606 v 2.423 l 2.653,1.121 m -2.048,-1.121 v -2.423 h -0.606 l -2.852,0.316 v 2.19 h 0.547 l 2.91,-0.083 m -2.91,0.083 v -2.19 h -0.547 l -1.052,1.423 v 1.738 h 0.434 l 1.165,-0.971 m -1.165,0.971 v -1.738 h -0.434 l -0.602,1.05 v 1.233 h 0.308 l 0.728,-0.545 m -0.728,0.545 v -1.233 h -0.308 l -0.436,1.372 v 0.285 h 0.071 l 0.673,-0.423 m -0.673,0.423 v -0.285 h -0.071 l -0.443,0.798 v 0.285 h 0.071 l 0.443,-0.798"
         id="path587"
         style="color-interpolation:linearRGB;fill:#000000" />
      <path
         class="write-chisel-pen"
         fill="#ffffff"
         stroke-width="4"
         __comx="1053.068"
         __comy="116.899"
         __timestamp="0x176389fa465"
         d="m 1060.3094,120.42798 h 0.351 v -1.403 l -0.272,-0.344 h -0.473 v 1.891 l 0.394,-0.144 m 0.079,0.144 v -1.891 h -0.473 l -0.59,-0.146 v 2.182 h 0.546 l 0.517,-0.146 m -0.517,0.146 v -2.182 h -0.546 l -2.797,-0.106 v 2.395 h 0.599 l 2.744,-0.106 m -2.744,0.106 v -2.395 h -0.599 l -2.997,1.375 v 2.438 h 0.61 l 2.986,-1.418 m -2.986,1.418 v -2.438 h -0.61 l -1.663,1.993 v 2.442 h 0.61 l 1.662,-1.996 m -1.662,1.996 v -2.442 h -0.61 l -0.108,1.807 v 2.418 h 0.604 l 0.114,-1.783 m -0.114,-0.635 h -0.604 v 2.418 l 2.219,0.885 h 0.598 v -2.393 l -2.213,-0.91 m 1.615,0.91 v 2.393 h 0.598 l 2.776,-0.276 v -2.44 h -0.61 l -2.764,0.322 m 2.764,-0.322 v 2.44 h 0.61 l 1.338,-1.562 v -2.507 h -0.627 l -1.321,1.629 m 1.321,-1.629 v 2.507 h 0.627 l 0.666,-3.583 v -2.521 h -0.63 l -0.663,3.597 m 1.293,-1.076 v -2.521 h -0.63 l -0.378,10.19 v 2.883 h 0.721 l 0.287,-10.552 m -0.287,10.552 v -2.883 h -0.721 l -3.882,2.974 v 2.919 h 0.73 l 3.873,-3.01 m -4.603,3.01 h 0.73 v -2.919 l -1.879,-0.219 h -0.74 v 2.958 l 1.889,0.18 m -1.889,-0.18 h 0.74 v -2.958 -0.399 h -0.74 v 2.958 0.399"
         id="path589"
         style="color-interpolation:linearRGB;fill:#000000" />
      <path
         class="write-chisel-pen"
         fill="#ffffff"
         stroke-width="4"
         __comx="1041.91"
         __comy="121.474"
         __timestamp="0x176389fa03c"
         d="m 1040.6934,125.68698 v 1.44 h 0.36 l 0.697,0.374 v -2.587 h -0.647 l -0.411,0.773 m 1.057,-0.773 h -0.647 v 2.587 l 7.148,0.869 h 0.533 v -2.13 l -7.034,-1.325 m 7.034,1.325 h -0.533 v 2.13 l 0.383,-0.202 h 0.432 v -1.727 l -0.282,-0.202 m -0.15,0.202 v 1.727 h 0.432 l 0.235,-0.587 v -0.952 h -0.238 l -0.429,-0.188 m 0.429,0.188 v 0.952 h 0.238 l 0.111,-0.299 v -0.952 h -0.238 l -0.111,0.299"
         id="path591"
         style="color-interpolation:linearRGB;fill:#000000" />
      <path
         class="write-chisel-pen"
         fill="#ffffff"
         stroke-width="4"
         __comx="1026.18"
         __comy="114.965"
         __timestamp="0x176389f9e37"
         d="m 1026.0054,118.19598 v -0.729 h -0.182 l -0.865,0.141 v 1.445 h 0.361 l 0.686,-0.856 m -0.686,0.856 v -1.445 h -0.361 l -0.57,0.535 v 1.572 h 0.393 l 0.538,-0.662 m -0.538,0.662 v -1.572 h -0.393 l -1.358,2.38 v 1.799 h 0.45 l 1.301,-2.606 m -1.301,2.606 v -1.799 h -0.45 l -0.248,2.586 v 2.013 h 0.503 l 0.195,-2.799 m -0.195,0.787 h -0.503 v 2.013 l 1.851,3.72 h 0.568 v -2.273 l -1.916,-3.46 m 1.916,3.46 h -0.568 v 2.273 l 1.55,1.102 h 0.571 v -2.284 l -1.552,-1.092 m 1.552,1.092 h -0.571 v 2.284 l 4.538,0.418 h 0.58 v -2.322 l -4.548,-0.38 m 3.967,0.38 v 2.322 h 0.58 l 2.779,-0.562 v -2.393 h -0.598 l -2.761,0.634 m 2.761,-0.634 v 2.393 h 0.598 l 1.34,-1.654 v -2.476 h -0.619 l -1.319,1.736 m 1.319,-1.736 v 2.476 h 0.619 l 0.444,-2.688 v -2.484 h -0.621 l -0.442,2.697 m 0.442,-0.213 h 0.621 v -2.484 l -0.998,-2.789 h -0.619 v 2.477 l 0.997,2.796 m -0.997,-2.796 h 0.619 v -2.477 l -2.328,-2.091 h -0.618 v 2.47 l 2.326,2.098 m -2.326,-2.098 h 0.618 v -2.47 l -2.665,-1.073 h -0.606 v 2.423 l 2.653,1.121 m -2.048,-1.121 v -2.423 h -0.606 l -2.852,0.316 v 2.19 h 0.547 l 2.91,-0.083 m -2.91,0.083 v -2.19 h -0.547 l -1.052,1.423 v 1.738 h 0.434 l 1.165,-0.971 m -1.165,0.971 v -1.738 h -0.434 l -0.602,1.05 v 1.233 h 0.308 l 0.728,-0.545 m -0.728,0.545 v -1.233 h -0.308 l -0.436,1.372 v 0.285 h 0.071 l 0.673,-0.423 m -0.673,0.423 v -0.285 h -0.071 l -0.443,0.798 v 0.285 h 0.071 l 0.443,-0.798"
         id="path593"
         style="color-interpolation:linearRGB;fill:#000000" />
    </g>
  </g>
</svg>
