<?xml version="1.0" encoding="UTF-8" standalone="no"?>
<svg
   xmlns:dc="http://purl.org/dc/elements/1.1/"
   xmlns:cc="http://creativecommons.org/ns#"
   xmlns:rdf="http://www.w3.org/1999/02/22-rdf-syntax-ns#"
   xmlns:svg="http://www.w3.org/2000/svg"
   xmlns="http://www.w3.org/2000/svg"
   xmlns:sodipodi="http://sodipodi.sourceforge.net/DTD/sodipodi-0.dtd"
   xmlns:inkscape="http://www.inkscape.org/namespaces/inkscape"
   width="165.79744mm"
   height="74.392365mm"
   viewBox="0 0 165.79743 74.392364"
   version="1.1"
   id="svg3372"
   inkscape:version="1.0.1 (3bc2e813f5, 2020-09-07)"
   sodipodi:docname="nfa-epsilon-q1.svg">
  <defs
     id="defs3366" />
  <sodipodi:namedview
     id="base"
     pagecolor="#ffffff"
     bordercolor="#666666"
     borderopacity="1.0"
     inkscape:pageopacity="0.0"
     inkscape:pageshadow="2"
     inkscape:zoom="1.0817248"
     inkscape:cx="532.25992"
     inkscape:cy="172.77886"
     inkscape:document-units="mm"
     inkscape:current-layer="layer1"
     inkscape:document-rotation="0"
     showgrid="false"
     inkscape:window-width="1440"
     inkscape:window-height="773"
     inkscape:window-x="0"
     inkscape:window-y="635"
     inkscape:window-maximized="1" />
  <metadata
     id="metadata3369">
    <rdf:RDF>
      <cc:Work
         rdf:about="">
        <dc:format>image/svg+xml</dc:format>
        <dc:type
           rdf:resource="http://purl.org/dc/dcmitype/StillImage" />
        <dc:title />
      </cc:Work>
    </rdf:RDF>
  </metadata>
  <g
     inkscape:label="Layer 1"
     inkscape:groupmode="layer"
     id="layer1"
     transform="translate(62.013849,-93.104922)">
    <g
       id="g1369"
       style="fill:#000000"
       transform="matrix(0.26458333,0,0,0.26458333,-274.77139,-13.932264)">
      <path
         class="write-chisel-pen"
         fill="#ffffff"
         stroke-width="4"
         __comx="1295.107"
         __comy="548.677"
         __timestamp="0x17638ace6ab"
         d="m 1309.652,553.462 v 1.379 h 0.345 l 0.34,0.173 v -2.323 h -0.581 l -0.103,0.772 m 0.684,1.552 v -2.323 h -0.581 l -5.241,1.663 v 2.588 h 0.647 l 5.175,-1.927 m -5.175,1.927 v -2.588 h -0.647 l -5.54,5.186 v 2.587 h 0.647 l 5.54,-5.185 m -5.54,5.185 v -2.587 h -0.647 l -1.216,3.301 v 2.565 h 0.641 l 1.221,-3.28 m -1.221,0.715 h -0.641 v 2.565 l 1.219,1.693 h 0.64 v -2.56 l -1.218,-1.698 m 1.218,1.698 h -0.64 v 2.56 l 8.418,1.009 h 0.646 v -2.585 l -8.424,-0.985 m 8.424,3.57 v -2.585 h -0.646 l -3.106,0.885 v 2.609 h 0.652 l 3.1,-0.91 m -3.1,0.91 v -2.609 h -0.652 l -4.098,2.5 v 2.596 h 0.649 l 4.101,-2.487 m -4.101,2.487 v -2.596 h -0.649 l -1.885,2.688 v 2.606 h 0.652 l 1.882,-2.697 m -1.882,2.697 v -2.606 h -0.652 l -0.554,2.493 v 2.606 h 0.652 l 0.554,-2.493 m -0.554,-0.113 h -0.652 v 2.606 l 1.101,1.624 h 0.665 v -2.662 l -1.115,-1.568 m 1.115,1.568 h -0.665 v 2.662 l 3.972,2.163 h 0.7 v -2.799 l -4.006,-2.026 m 4.006,2.026 h -0.7 v 2.799 l 4.414,1.071 h 0.736 v -2.946 l -4.45,-0.924 m 3.714,0.924 v 2.946 h 0.736 l 3.329,-0.379 v -2.986 h -0.747 l -3.319,0.419 m 3.319,-0.419 v 2.986 h 0.747 l 1.154,-2.352 v -2.47 h -0.618 l -1.283,1.836 m 1.283,0.634 h 0.618 v -2.47 l -0.065,-0.141 h -0.489 v 1.954 l -0.065,0.657 m 0.065,-0.657 h 0.489 v -1.954 l -0.776,-0.399 h -0.489 v 1.954 l 0.776,0.399"
         id="path317"
         style="color-interpolation:linearRGB;fill:#000000" />
      <path
         class="write-chisel-pen"
         fill="#ffffff"
         stroke-width="4"
         __comx="1321.555"
         __comy="657.023"
         __timestamp="0x17638acabfc"
         d="m 1324.348,665.797 h 0.427 v -1.707 l -0.259,-0.492 h -0.573 v 2.291 l 0.405,-0.093 m -0.405,0.093 h 0.573 v -2.291 l 0.028,-0.509 h -0.628 v 2.512 l 0.028,0.288 m -0.028,-2.801 v 2.512 h 0.628 l 1.114,-0.677 v -2.556 h -0.639 l -1.103,0.72 m 1.742,-0.72 h -0.639 v 2.556 l 12.301,-0.007 h 0.635 v -2.541 l -12.297,-0.007 m 12.297,2.548 v -2.541 h -0.635 l -0.341,11.433 v 2.611 h 0.653 l 0.324,-11.503 m -0.324,8.892 h -0.653 v 2.611 l 1.538,8.43 h 0.679 v -2.717 l -1.564,-8.324 m 1.564,11.041 v -2.717 h -0.679 l -0.461,0.726 v 2.86 h 0.715 l 0.425,-0.869 m -1.14,0.869 h 0.715 v -2.86 l -13.492,-0.802 h -0.767 v 3.067 l 13.544,0.594 m -13.544,-0.594 h 0.767 v -3.067 l -0.221,-0.399 h -0.767 v 3.067 l 0.221,0.399"
         id="path319"
         style="color-interpolation:linearRGB;fill:#000000" />
      <path
         class="write-chisel-pen"
         fill="#ffffff"
         stroke-width="4"
         __comx="1386.651"
         __comy="626.854"
         __timestamp="0x17638ac9ff7"
         d="m 1390.469,637.184 v -0.724 h -0.181 l -0.407,-0.098 v 1.319 h 0.33 l 0.258,-0.497 m -0.258,-0.822 h -0.33 v 1.319 l 0.401,0.812 h 0.636 v -2.544 l -0.707,0.413 m 0.707,-0.413 h -0.636 v 2.544 l 12.539,0.526 h 0.6 v -2.4 l -12.503,-0.67 m 12.503,3.07 v -2.4 h -0.6 l -0.582,0.776 v 0.849 h 0.212 l 0.97,0.776 m -0.97,-0.776 v -0.849 h -0.212 -1.108 v 0.849 h 0.212 1.108"
         id="path321"
         style="color-interpolation:linearRGB;fill:#000000" />
      <path
         class="write-chisel-pen"
         fill="#ffffff"
         stroke-width="4"
         __comx="1386.552"
         __comy="616.562"
         __timestamp="0x17638ac9e1e"
         d="m 1390.876,628.318 h 0.335 v -1.341 l -0.136,-0.741 h -0.506 v 2.026 l 0.307,0.056 m -0.307,-2.082 v 2.026 h 0.506 l 0.346,-0.144 v -2.138 h -0.534 l -0.318,0.255 m 0.318,-0.255 v 2.138 h 0.534 l 3.469,-1.161 v -2.409 h -0.602 l -3.401,1.432 m 4.003,-1.432 h -0.602 v 2.409 l 7.451,1.388 h 0.548 v -2.193 l -7.397,-1.604 m 7.397,1.604 h -0.548 v 2.193 l 0.415,-0.332 h 0.382 v -1.529 l -0.249,-0.332"
         id="path323"
         style="color-interpolation:linearRGB;fill:#000000" />
      <path
         class="write-chisel-pen"
         fill="#ffffff"
         stroke-width="4"
         __comx="1382.087"
         __comy="622.906"
         __timestamp="0x17638ac9c52"
         d="m 1390.341,631.63 h 0.296 v -1.185 l 0.068,-0.57 h -0.432 v 1.727 l 0.068,0.028 m -0.068,-0.028 h 0.432 v -1.727 l 0.043,-0.47 h -0.517 v 2.068 l 0.043,0.129 m -0.043,-0.129 h 0.517 v -2.068 l 0.045,-0.777 h -0.606 v 2.424 l 0.045,0.42 m 0.562,-2.845 h -0.606 v 2.424 l 0.975,10.162 h 0.651 v -2.604 l -1.02,-9.982 m 1.02,9.982 h -0.651 v 2.604 l 2.257,9.51 h 0.57 v -2.279 l -2.175,-9.836 m 2.175,12.115 v -2.279 h -0.57 l -0.249,0.332 v 1.614 h 0.404 l 0.415,0.332 m -0.415,-0.332 v -1.614 h -0.404 -0.333 v 1.614 h 0.404 0.333"
         id="path325"
         style="color-interpolation:linearRGB;fill:#000000" />
      <path
         class="write-chisel-pen"
         fill="#ffffff"
         stroke-width="4"
         __comx="1386.639"
         __comy="610.195"
         __timestamp="0x17638ac52f3"
         d="m 1402.129,617.199 h 0.211 v -0.842 l -0.35,-1.172 h -0.398 v 1.591 l 0.537,0.423 m -0.537,-0.423 h 0.398 v -1.591 l -0.088,-0.491 h -0.444 v 1.776 l 0.134,0.306 m -0.134,-0.306 h 0.444 v -1.776 l -2.371,-1.762 h -0.577 v 2.309 l 2.504,1.23 m -1.927,-1.23 v -2.309 h -0.577 l -2.33,-0.011 v 2.33 h 0.583 l 2.324,-0.011 m -2.324,0.011 v -2.33 h -0.583 l -3.773,1.374 v 2.374 h 0.594 l 3.762,-1.418 m -3.762,1.418 v -2.374 h -0.594 l -7.1,4.451 v 2.447 h 0.612 l 7.082,-4.524 m -7.082,4.524 v -2.447 h -0.612 l -7.982,6.565 v 2.481 h 0.62 l 7.974,-6.599 m -7.974,6.599 v -2.481 h -0.62 l -4.323,5.177 v 2.497 h 0.624 l 4.319,-5.194 m -4.319,5.194 v -2.497 h -0.624 l -2.661,5.678 v 2.511 h 0.628 l 2.658,-5.691 m -2.658,5.691 v -2.511 h -0.628 l -1.108,5.584 v 2.511 h 0.628 l 1.108,-5.584 m -1.108,3.074 h -0.628 v 2.511 l 1.33,5.085 h 0.627 v -2.509 l -1.329,-5.087 m 1.329,5.087 h -0.627 v 2.509 l 3.656,4.588 h 0.628 v -2.511 l -3.657,-4.586 m 3.657,4.586 h -0.628 v 2.511 l 5.429,3.789 h 0.628 v -2.511 l -5.429,-3.789 m 5.429,3.789 h -0.628 v 2.511 l 6.759,2.294 h 0.628 v -2.511 l -6.759,-2.294 m 6.759,2.294 h -0.628 v 2.511 l 7.202,0.997 h 0.628 v -2.511 l -7.202,-0.997 m 6.575,0.997 v 2.511 h 0.628 l 9.64,-0.397 v -2.514 h -0.629 l -9.639,0.401 m 9.639,-0.401 v 2.514 h 0.629 l 5.54,-1.695 v -2.514 h -0.629 l -5.54,1.695 m 5.54,-1.695 v 2.514 h 0.629 l 4.986,-2.592 v -2.516 h -0.629 l -4.986,2.594 m 4.986,-2.594 v 2.516 h 0.629 l 4.21,-3.294 v -2.509 h -0.627 l -4.211,3.288 m 4.211,-3.288 v 2.509 h 0.627 l 3.214,-3.887 v -2.512 h -0.628 l -3.213,3.891 m 3.213,-3.891 v 2.512 h 0.628 l 1.33,-4.288 v -2.512 h -0.628 l -1.33,4.288 m 1.33,-1.776 h 0.628 v -2.512 l -0.776,-5.086 h -0.628 v 2.512 l 0.776,5.086 m -0.776,-5.086 h 0.628 v -2.512 l -2.326,-6.284 h -0.629 v 2.516 l 2.327,6.281 m -2.327,-6.281 h 0.629 v -2.516 l -4.21,-7.081 h -0.629 v 2.517 l 4.211,7.079 m -4.211,-7.079 h 0.629 v -2.517 l -5.663,-6.932 h -0.605 v 2.421 l 5.639,7.029 m -5.639,-7.029 h 0.605 v -2.421 l -5.768,-4.962 h -0.593 v 2.373 l 5.756,5.01 m -5.756,-5.01 h 0.593 v -2.373 l -5.324,-1.774 h -0.583 v 2.33 l 5.313,1.816 m -4.731,-1.816 v -2.33 h -0.583 l -2.758,0.445 v 2.237 h 0.559 l 2.782,-0.352 m -2.782,0.352 v -2.237 h -0.559 l -5.701,3.631 v 1.756 h 0.439 l 5.822,-3.15 m -5.822,3.15 v -1.756 h -0.439 l -2.777,3.11 v 0.922 h 0.23 l 2.985,-2.275 m -2.985,2.275 v -0.922 h -0.23 l -2.659,2.892 v 0.922 h 0.23 l 2.659,-2.892"
         id="path327"
         style="color-interpolation:linearRGB;fill:#000000" />
      <path
         class="write-chisel-pen"
         fill="#ffffff"
         stroke-width="4"
         __comx="1331.523"
         __comy="627.117"
         __timestamp="0x17638ac4dbd"
         d="m 1336.376,634.108 h -0.36 v 1.438 l 0.32,0.495 h 0.607 v -2.428 l -0.567,0.495 m 0.567,-0.495 h -0.607 v 2.428 l 2.986,0.522 h 0.619 v -2.476 l -2.998,-0.475 m 2.998,0.475 h -0.619 v 2.476 l 4.655,2.389 h 0.617 v -2.467 l -4.653,-2.398 m 4.653,2.398 h -0.617 v 2.467 l 1.665,1.884 h 0.611 v -2.445 l -1.659,-1.906 m 1.659,1.906 h -0.611 v 2.445 l 0.774,3.199 h 0.615 v -2.46 l -0.777,-3.184 m 0.777,5.644 v -2.46 h -0.615 l -0.899,2.642 v 2.56 h 0.64 l 0.874,-2.743 m -0.874,2.743 v -2.56 h -0.64 l -2.567,2.72 v 2.706 h 0.676 l 2.53,-2.865 m -2.53,2.865 v -2.706 h -0.676 l -4.226,2.531 v 2.83 h 0.708 l 4.195,-2.655 m -4.903,-0.175 v 2.83 h 0.708 l 2.486,-1.448 v -2.327 h -0.582 l -2.611,0.945 m 2.611,-0.945 v 2.327 h 0.582 l 1.506,-0.479 v -1.968 h -0.492 l -1.596,0.12 m 1.596,-0.12 v 1.968 h 0.492 l 1.251,-0.513 v -1.341 h -0.335 l -1.408,-0.114 m 1.743,0.114 h -0.335 v 1.341 h 0.886 0.335 v -1.341 h -0.886"
         id="path329"
         style="color-interpolation:linearRGB;fill:#000000" />
      <path
         class="write-chisel-pen"
         fill="#ffffff"
         stroke-width="4"
         __comx="1318.089"
         __comy="631.102"
         __timestamp="0x17638ac4bad"
         d="m 1314.769,641.796 v 1.221 h 0.305 l 0.204,-0.327 v -1.964 h -0.491 l -0.018,1.069 m 0.018,-1.069 v 1.964 h 0.491 l 0.368,-0.056 v -2.252 h -0.563 l -0.296,0.343 m 0.296,-0.343 v 2.252 h 0.563 l 0.456,-0.047 v -2.357 h -0.589 l -0.43,0.152 m 1.019,-0.152 h -0.589 v 2.357 l 0.547,0.029 h 0.604 v -2.414 l -0.561,0.029 m 0.561,-0.029 h -0.604 v 2.414 l 0.325,0.03 h 0.618 v -2.474 l -0.34,0.03 m 0.34,-0.03 h -0.618 v 2.474 l 0.658,0.028 h 0.633 v -2.531 l -0.672,0.028 m 0.672,-0.028 h -0.633 v 2.531 l 0.44,0.014 h 0.64 v -2.559 l -0.447,0.014 m 0.447,-0.014 h -0.64 v 2.559 l 0.662,0.011 h 0.645 v -2.58 l -0.667,0.011 m 0.667,-0.011 h -0.645 v 2.58 l 0.664,0.005 h 0.647 v -2.59 l -0.666,0.005 m 0.666,-0.005 h -0.647 v 2.59 l 0.886,0.003 h 0.649 v -2.596 l -0.887,0.003 m 0.887,-0.003 h -0.649 v 2.596 l 1.106,0.009 h 0.654 v -2.614 l -1.11,0.009 m 1.11,-0.009 h -0.654 v 2.614 l 1.218,0.004 h 0.656 v -2.622 l -1.22,0.004 m 1.22,-0.004 h -0.656 v 2.622 l 1.659,0.013 h 0.662 v -2.648 l -1.665,0.013 m 1.665,-0.013 h -0.662 v 2.648 l 1.769,0.116 h 0.67 v -2.679 l -1.777,-0.084 m 1.777,0.084 h -0.67 v 2.679 l 1.884,0.101 h 0.67 v -2.681 l -1.884,-0.099 m 1.884,0.099 h -0.67 v 2.681 l 1.994,0.102 h 0.671 v -2.686 l -1.995,-0.097 m 1.995,0.097 h -0.671 v 2.686 l 1.994,10e-4 h 0.672 v -2.687 l -1.995,10e-4 m 1.995,-10e-4 h -0.672 v 2.687 l 1.994,0.101 h 0.673 v -2.69 l -1.995,-0.098 m 1.995,0.098 h -0.673 v 2.69 l 1.883,0.003 h 0.674 v -2.697 l -1.884,0.003 m 1.884,-0.003 h -0.674 v 2.697 l 1.773,10e-4 h 0.675 v -2.698 l -1.773,10e-4 m 1.773,-10e-4 h -0.675 v 2.698 l 1.44,-10e-4 h 0.674 v -2.697 l -1.44,-0.001 m 1.44,0.001 h -0.674 v 2.697 l 1.108,10e-4 h 0.675 v -2.698 l -1.108,10e-4 m 1.108,-10e-4 h -0.675 v 2.698 l 0.665,-10e-4 h 0.674 v -2.697 l -0.665,-0.001 m 0.665,0.001 h -0.674 v 2.697 l 0.332,0.002 h 0.675 v -2.7 l -0.333,0.002 m 0.333,-0.002 h -0.675 v 2.7 l 0.222,0.298 h 0.675 v -2.698 l -0.221,-0.3"
         id="path331"
         style="color-interpolation:linearRGB;fill:#000000" />
      <path
         class="write-chisel-pen"
         fill="#ffffff"
         stroke-width="4"
         __comx="1275.323"
         __comy="644.654"
         __timestamp="0x17638ac1195"
         d="m 1278.058,656.62 h 0.375 v -1.501 l -0.278,-0.516 h -0.484 v 1.935 l 0.387,0.083 m -0.387,-0.083 h 0.484 v -1.935 l -0.273,-0.338 h -0.603 v 2.412 l 0.392,-0.139 m -0.392,-2.273 v 2.412 h 0.603 l 15.484,-1.808 v -2.188 h -0.547 l -15.541,1.583 m 15.541,0.605 h 0.547 v -2.188 -0.299 h -0.547 v 2.188 0.299"
         id="path333"
         style="color-interpolation:linearRGB;fill:#000000" />
      <path
         class="write-chisel-pen"
         fill="#ffffff"
         stroke-width="4"
         __comx="1268.271"
         __comy="608.855"
         __timestamp="0x17638ac0d39"
         d="m 1274.419,615.563 h 0.34 v -1.361 l -2.37,-0.772 h -0.477 v 1.907 l 2.506,0.225 m -2.029,-0.225 v -1.907 h -0.477 l -4.012,1.405 v 2.089 h 0.522 l 3.966,-1.587 m -3.966,1.587 v -2.089 h -0.522 l -8.671,8.364 v 2.314 h 0.579 l 8.614,-8.589 m -8.614,8.589 v -2.314 h -0.579 l -3.991,5.178 v 2.33 h 0.583 l 3.987,-5.194 m -3.987,5.194 v -2.33 h -0.583 l -1.777,4.871 v 2.36 h 0.59 l 1.769,-4.901 m -1.769,4.901 v -2.36 h -0.59 l -0.776,5.183 v 2.366 h 0.591 l 0.775,-5.188 m -0.775,2.823 h -0.591 v 2.366 l 1.217,9.878 h 0.594 V 648.3 l -1.22,-9.867 m 1.22,9.867 h -0.594 v 2.376 l 1.442,4.285 h 0.592 v -2.369 l -1.44,-4.292 m 1.44,4.292 h -0.592 v 2.369 l 3.544,5.689 h 0.594 v -2.378 l -3.547,-5.68 m 3.547,5.68 h -0.594 v 2.378 l 5.097,4.886 h 0.594 v -2.376 l -5.097,-4.887 m 5.097,4.887 h -0.594 v 2.376 l 4.653,3.093 h 0.595 v -2.379 l -4.654,-3.09 m 4.654,3.09 h -0.595 v 2.379 l 4.543,1.796 h 0.595 v -2.381 l -4.543,-1.794 m 4.543,1.794 h -0.595 v 2.381 l 4.543,0.498 h 0.595 v -2.379 l -4.543,-0.499 m 3.948,0.499 v 2.379 h 0.595 l 6.317,-0.893 v -2.388 h -0.597 l -6.315,0.902 m 6.315,-0.902 v 2.388 h 0.597 l 4.211,-1.694 v -2.39 h -0.597 l -4.21,1.696 m 4.21,-1.696 v 2.39 h 0.597 l 11.083,-8.267 v -2.411 h -0.603 l -11.078,8.287 m 11.078,-8.287 v 2.411 h 0.603 l 4.111,-4.044 v -2.501 h -0.625 l -4.089,4.134 m 4.089,-4.134 v 2.501 h 0.625 l 2.783,-4.136 v -2.606 h -0.652 l -2.757,4.241 m 2.757,-4.241 v 2.606 h 0.652 l 1.347,-4.417 v -2.748 h -0.687 l -1.312,4.558 m 1.312,-4.558 v 2.748 h 0.687 l 0.113,-5.577 v -2.763 h -0.691 l -0.109,5.592 m 0.109,-2.829 h 0.691 v -2.763 l -1.994,-6.286 h -0.693 v 2.77 l 1.995,6.279 m -1.995,-6.279 h 0.693 v -2.77 l -6.65,-11.062 h -0.689 v 2.757 l 6.647,11.076 m -6.647,-11.076 h 0.689 v -2.757 l -6.538,-8.173 h -0.687 v 2.748 l 6.536,8.182 m -6.536,-8.182 h 0.687 v -2.748 l -6.432,-4.665 h -0.676 v 2.703 l 6.421,4.709 m -6.421,-4.709 h 0.676 v -2.703 l -8.548,-3.725 h -0.643 v 2.574 l 8.516,3.854 m -8.516,-3.854 h 0.643 v -2.574 l -5.881,-1.064 h -0.627 v 2.507 l 5.864,1.13 m -5.237,-1.13 v -2.507 h -0.627 l -5.855,1.168 v 2.366 h 0.591 l 5.89,-1.026 m -5.89,1.026 v -2.366 h -0.591 l -9.245,6.033 v 1.867 h 0.467 l 9.37,-5.535 m -9.37,5.535 v -1.867 h -0.467 l -3.059,2.964 v 1.523 h 0.381 l 3.146,-2.62 m -3.146,2.62 v -1.523 h -0.381 l -2.764,3.258 v 0.592 h 0.148 l 2.997,-2.327 m -2.997,2.327 v -0.592 h -0.148 l -2.438,2.693 v 0.592 h 0.148 l 2.438,-2.693"
         id="path335"
         style="color-interpolation:linearRGB;fill:#000000" />
      <path
         class="write-chisel-pen"
         fill="#ffffff"
         stroke-width="4"
         __comx="1270.195"
         __comy="630.286"
         __timestamp="0x17638ac009f"
         d="m 1277.394,640.419 h 0.153 v -0.612 l -0.198,-0.737 h -0.422 v 1.688 l 0.467,-0.338 m -0.045,0.338 v -1.688 h -0.422 l -3.3,2.048 v 2.379 h 0.595 l 3.127,-2.739 m -3.127,0.36 h -0.595 v 2.379 l 0.329,0.016 h 0.603 v -2.411 l -0.336,0.016 m -0.266,-0.016 v 2.411 h 0.603 l 7.662,-0.234 v -2.541 h -0.635 l -7.629,0.364 m 7.629,-0.364 v 2.541 h 0.635 l 4.543,-0.996 v -2.542 h -0.636 l -4.543,0.998 m 5.178,1.544 v -2.542 h -0.636 l -0.108,0.855 v 1.63 h 0.407 l 0.336,0.057 m -0.336,-0.057 v -1.63 h -0.407 l -0.443,0.299 v 1.63 h 0.407 l 0.443,-0.299"
         id="path337"
         style="color-interpolation:linearRGB;fill:#000000" />
      <path
         class="write-chisel-pen"
         fill="#ffffff"
         stroke-width="4"
         __comx="1271.803"
         __comy="617.177"
         __timestamp="0x17638abf769"
         d="m 1272.087,628.147 h 0.35 v -1.399 l 0.042,-0.468 h -0.434 v 1.735 l 0.042,0.131 m 0.392,-1.866 h -0.434 v 1.735 l 0.497,0.227 h 0.547 v -2.19 l -0.611,0.227 m 0.063,-0.227 v 2.19 h 0.547 l 16.767,-0.255 v -2.477 h -0.619 l -16.695,0.543 m 17.315,-0.543 h -0.619 v 2.477 l 1.842,0.921 h 0.482 v -1.927 l -1.704,-1.472 m 1.704,3.399 v -1.927 h -0.482 l 0.036,0.644 v 1.636 h 0.409 l 0.036,-0.353 m -0.036,0.353 v -1.636 h -0.409 l -0.23,1.207 v 0.818 h 0.204 l 0.435,-0.389 m -0.435,0.389 v -0.818 h -0.204 l -0.665,0.897 v 0.818 h 0.204 l 0.665,-0.897"
         id="path339"
         style="color-interpolation:linearRGB;fill:#000000" />
      <path
         class="write-chisel-pen"
         fill="#ffffff"
         stroke-width="4"
         __comx="1265.356"
         __comy="622.963"
         __timestamp="0x17638abf5d0"
         d="m 1274.569,628.571 h 0.263 v -1.05 l -0.241,-0.563 h -0.444 v 1.776 l 0.423,-0.164 m -0.423,0.164 h 0.444 v -1.776 l -0.27,-0.35 h -0.569 v 2.277 l 0.395,-0.151 m 0.174,0.151 v -2.277 h -0.569 l -0.032,8.151 v 2.529 h 0.632 l -0.032,-8.403 m 0.032,5.874 h -0.632 v 2.529 l 2.209,19.472 h 0.645 v -2.58 l -2.222,-19.421 m 1.577,19.421 v 2.58 h 0.645 l 0.359,-0.834 v -1.909 h -0.477 l -0.527,0.163 m 0.527,-0.163 v 1.909 h 0.477 l 0.06,-0.501 v -1.506 h -0.376 l -0.161,0.097 m 0.161,1.408 h 0.376 v -1.506 l -0.125,-0.1 h -0.127 v 0.508 l -0.125,1.097 m 0.125,-1.097 h 0.127 v -0.508 -0.997 h -0.127 v 0.508 0.997"
         id="path341"
         style="color-interpolation:linearRGB;fill:#000000" />
      <path
         class="write-chisel-pen"
         fill="#ffffff"
         stroke-width="4"
         __comx="1111.142"
         __comy="610.625"
         __timestamp="0x17638ab524c"
         d="m 1119.009,618.321 v 0.103 h 0.026 l 0.31,-0.343 v -0.813 h -0.203 l -0.133,1.053 m 0.133,-1.053 v 0.813 h 0.203 l 0.306,-0.062 v -1.486 h -0.372 l -0.138,0.736 m 0.138,-0.736 v 1.486 h 0.372 l 0.243,-0.215 v -1.654 h -0.414 l -0.201,0.383 m 0.201,-0.383 v 1.654 h 0.414 l 0.306,0.037 v -2.327 h -0.582 l -0.138,0.635 m 0.719,1.691 v -2.327 h -0.582 l -3.058,1.729 v 2.857 h 0.714 l 2.925,-2.259 m -2.925,2.259 v -2.857 h -0.714 l -2.437,3.294 v 2.851 h 0.713 l 2.439,-3.288 m -2.439,3.288 v -2.851 h -0.713 l -1.658,4.205 v 2.817 h 0.704 l 1.666,-4.171 m -1.666,1.354 h -0.704 v 2.817 l 0.783,1.169 h 0.69 v -2.761 l -0.769,-1.224 m 0.769,1.224 h -0.69 v 2.761 l 1.885,0.692 h 0.687 v -2.749 l -1.882,-0.704 m 1.882,0.704 h -0.687 v 2.749 l 5.429,0.002 h 0.688 v -2.752 l -5.43,0.002 m 5.43,2.751 v -2.752 h -0.688 l -3.435,2.992 v 2.752 h 0.688 l 3.435,-2.992 m -3.435,2.992 v -2.752 h -0.688 l -1.881,3.3 v 2.734 h 0.683 l 1.886,-3.282 m -1.886,0.548 h -0.683 v 2.734 l 0.112,2.387 h 0.68 v -2.721 l -0.109,-2.399 m 0.109,2.399 h -0.68 v 2.721 l 2.765,2.214 h 0.69 v -2.761 l -2.775,-2.174 m 2.775,2.174 h -0.69 v 2.761 l 5.079,1.169 h 0.726 v -2.905 l -5.115,-1.025 m 4.389,1.025 v 2.905 h 0.726 l 5.892,-0.918 v -3.063 h -0.766 l -5.853,1.076 m 6.619,1.987 v -3.063 h -0.766 l -0.663,0.992 v 1.279 h 0.32 l 1.109,0.792 m -1.109,-0.792 v -1.279 h -0.32 l -1.33,0.299 v 1.279 h 0.32 l 1.33,-0.299"
         id="path343"
         style="color-interpolation:linearRGB;fill:#000000" />
      <path
         class="write-chisel-pen"
         fill="#ffffff"
         stroke-width="4"
         __comx="1228.798"
         __comy="625.236"
         __timestamp="0x17638ab4d3b"
         d="m 1233.741,632.867 h 0.366 v -1.464 l -0.609,-0.322 h -0.477 v 1.909 l 0.72,-0.123 m -0.243,-1.786 h -0.477 v 1.909 l 0.349,0.675 h 0.665 v -2.66 l -0.537,0.077 m 0.537,-0.077 h -0.665 v 2.66 l 8.296,5.64 h 0.693 v -2.772 l -8.324,-5.529 m 8.324,5.529 h -0.693 v 2.772 l 2.217,2.391 h 0.692 v -2.767 l -2.215,-2.396 m 2.215,5.163 v -2.767 h -0.692 l -1.9,2.628 v 2.896 h 0.724 l 1.867,-2.757 m -1.867,2.757 v -2.896 h -0.724 l -6.434,5.753 v 2.957 h 0.739 l 6.419,-5.814 m -7.158,2.857 v 2.957 h 0.739 l 0.718,-1.229 v -2.494 h -0.624 l -0.833,0.766 m 0.833,-0.766 v 2.494 h 0.624 l 0.193,-0.614 v -2.264 h -0.566 l -0.25,0.384 m 0.25,-0.384 v 2.264 h 0.566 l 0.162,-0.735 v -1.791 h -0.448 l -0.281,0.262 m 0.281,-0.262 v 1.791 h 0.448 l -0.017,-1.009 v -0.769 h -0.192 l -0.238,-0.012 m 0.238,0.781 h 0.192 v -0.769 l -0.222,-0.299 h -0.192 v 0.769 l 0.222,0.299"
         id="path345"
         style="color-interpolation:linearRGB;fill:#000000" />
      <path
         class="write-chisel-pen"
         fill="#ffffff"
         stroke-width="4"
         __comx="1125.875"
         __comy="536.307"
         __timestamp="0x17638ab4a20"
         d="m 1036.558,524.83 v 0.205 h 0.051 l 0.31,-0.444 v -0.912 h -0.228 l -0.134,1.151 m 0.134,-1.151 v 0.912 h 0.228 l 0.281,-0.062 v -1.387 h -0.347 l -0.162,0.537 m 0.509,-0.537 h -0.347 v 1.387 l 0.261,0.284 h 0.489 v -1.956 l -0.403,0.284 m -0.086,-0.284 v 1.956 h 0.489 l 0.387,0.119 v -2.393 h -0.598 l -0.278,0.318 m 0.876,-0.318 h -0.598 v 2.393 l 17.793,21.425 h 0.69 v -2.761 l -17.885,-21.057 m 17.885,21.057 h -0.69 v 2.761 l 25.923,28.939 h 0.7 v -2.801 l -25.933,-28.9 m 25.933,28.9 h -0.7 v 2.801 l 6.98,6.784 h 0.702 v -2.807 l -6.981,-6.778 m 6.981,6.778 h -0.702 v 2.807 l 11.412,8.78 h 0.704 v -2.816 l -11.414,-8.771 m 11.414,8.771 h -0.704 v 2.816 l 18.171,11.47 h 0.705 v -2.818 l -18.172,-11.467 m 18.172,11.467 h -0.705 v 2.818 l 23.156,10.378 h 0.708 v -2.832 l -23.16,-10.364 m 23.16,10.364 h -0.708 v 2.832 l 16.73,10.177 h 0.711 v -2.842 l -16.733,-10.167 m 16.733,10.167 h -0.711 v 2.842 l 13.296,6.383 h 0.711 v -2.844 l -13.297,-6.382 m 13.297,6.382 h -0.711 v 2.844 l 10.415,3.293 h 0.712 v -2.848 l -10.416,-3.289 m 10.416,3.289 h -0.712 v 2.848 l 10.638,2.191 h 0.711 v -2.842 l -10.636,-2.197 m 10.636,2.197 h -0.711 v 2.842 l 8.864,3.789 h 0.711 v -2.842 l -8.864,-3.789 m 8.864,3.789 h -0.711 v 2.842 l 8.196,1.509 h 0.717 v -2.869 l -8.203,-1.483 m 8.203,1.483 h -0.717 v 2.869 l 25.462,2.186 h 0.763 v -3.052 l -25.508,-2.002 m 24.745,5.055 h 0.763 v -3.052 l -0.419,0.247 h -0.59 v 2.359 l 0.246,0.447 m -0.246,-0.447 h 0.59 v -2.359 l -0.111,-0.299 h -0.59 v 2.359 l 0.111,0.299"
         id="path347"
         style="color-interpolation:linearRGB;fill:#000000" />
      <path
         class="write-chisel-pen"
         fill="#ffffff"
         stroke-width="4"
         __comx="1204.901"
         __comy="567.868"
         __timestamp="0x17638aa4f1d"
         d="m 1219.507,576.04 v 0.101 h 0.025 l 0.127,-0.232 v -0.234 h -0.059 l -0.094,0.366 m 0.094,-0.366 v 0.234 h 0.059 l 0.213,0.11 v -1.052 h -0.263 l -0.01,0.708 m 0.01,0.344 h 0.263 v -1.052 l 0.064,-0.555 h -0.391 v 1.564 l 0.064,0.044 m -0.064,-0.044 h 0.391 v -1.564 l 0.052,-0.509 h -0.496 v 1.984 l 0.052,0.089 m 0.443,-0.089 v -1.984 h -0.496 l -0.199,-0.052 v 2.686 h 0.671 l 0.023,-0.65 m -0.023,0.65 v -2.686 h -0.671 l -0.121,5.645 v 2.764 h 0.691 l 0.101,-5.724 m -0.101,5.724 v -2.764 h -0.691 l -1.001,4.473 v 2.793 h 0.698 l 0.993,-4.502 m -0.993,4.502 v -2.793 h -0.698 l -1.778,2.672 v 2.833 h 0.708 l 1.768,-2.713 m -1.768,2.713 v -2.833 h -0.708 l -3.109,2.166 v 2.889 h 0.722 l 3.096,-2.222 m -3.096,2.222 v -2.889 h -0.722 l -2.549,0.396 v 2.895 h 0.724 l 2.548,-0.402 m -3.271,0.402 h 0.724 v -2.895 l -1.069,-0.609 h -0.579 v 2.318 l 0.925,1.186 m -0.925,-3.504 v 2.318 h 0.579 l 0.428,-0.158 v -2.201 h -0.55 l -0.458,0.041 m 0.458,-0.041 v 2.201 h 0.55 l 1.243,-0.944 v -1.51 h -0.377 l -1.416,0.253 m 1.416,-0.253 v 1.51 h 0.377 l 0.659,-0.863 v -0.582 h -0.145 l -0.891,-0.065 m 0.891,0.065 v 0.582 h 0.145 l 0.495,-0.635 v -0.109 h -0.027 l -0.613,0.162 m 0.613,-0.162 v 0.109 h 0.027 l 0.554,-0.399 v -0.109 h -0.027 l -0.554,0.399"
         id="path349"
         style="color-interpolation:linearRGB;fill:#000000" />
      <path
         class="write-chisel-pen"
         fill="#ffffff"
         stroke-width="4"
         __comx="1158.923"
         __comy="523.565"
         __timestamp="0x17638a92ae7"
         d="m 1164.08,540.743 h 0.077 v -0.308 l 0.334,-1.635 h -0.745 v 2.981 l 0.334,-1.037 m -0.334,1.037 h 0.745 V 538.8 l -0.997,-8.278 h -0.746 v 2.983 l 0.998,8.276 m -0.998,-11.259 v 2.983 h 0.746 l 0.333,-3.986 v -2.989 h -0.747 l -0.332,3.992 m 1.079,-3.992 h -0.747 v 2.989 l 3.324,0.697 h 0.747 v -2.987 l -3.324,-0.699 m 3.324,0.699 h -0.747 v 2.987 l 6.998,3.521 h 0.712 v -2.85 l -6.963,-3.659 m 6.963,3.659 h -0.712 v 2.85 l 0.722,0.27 h 0.598 v -2.392 l -0.607,-0.728 m 0.607,0.728 h -0.598 v 2.392 l 0.51,0.631 h 0.465 v -1.859 l -0.377,-1.164 m 0.377,3.023 v -1.859 h -0.465 l 0.046,1.924 v 0.604 h 0.151 l 0.268,-0.669 m -0.268,0.669 v -0.604 h -0.151 l -0.776,1.596 v 0.604 h 0.151 l 0.776,-1.596"
         id="path351"
         style="color-interpolation:linearRGB;fill:#000000" />
      <path
         class="write-chisel-pen"
         fill="#ffffff"
         stroke-width="4"
         __comx="1204.753"
         __comy="523.868"
         __timestamp="0x17638a925f8"
         d="m 1263.507,529.273 h 0.226 v -0.903 l -0.012,-0.696 h -0.424 v 1.696 l 0.21,-0.098 m -0.21,0.098 h 0.424 v -1.696 l -0.273,-0.338 h -0.543 v 2.173 l 0.392,-0.139 m 0.151,0.139 v -2.173 h -0.543 l -0.315,-0.076 v 2.923 h 0.731 l 0.128,-0.674 m -0.128,0.674 v -2.923 h -0.731 l -10.754,12.144 v 2.968 h 0.742 l 10.742,-12.189 m -10.742,12.189 v -2.968 h -0.742 l -5.54,5.086 v 2.968 h 0.742 l 5.54,-5.086 m -5.54,5.086 v -2.968 h -0.742 l -7.756,5.285 v 2.968 h 0.742 l 7.756,-5.285 m -7.756,5.285 v -2.968 h -0.742 l -13.742,7.571 v 2.985 h 0.746 l 13.738,-7.587 m -13.738,7.587 v -2.985 h -0.746 l -3.773,1.076 v 3.027 h 0.757 l 3.762,-1.118 m -3.762,1.118 v -3.027 h -0.757 l -11.302,0.895 v 3.032 h 0.758 l 11.301,-0.9 m -12.059,0.9 h 0.758 v -3.032 l -7.422,-0.407 h -0.762 v 3.048 l 7.426,0.391 m -7.426,-0.391 h 0.762 v -3.048 l -13.403,-3.109 h -0.771 v 3.084 l 13.412,3.074 m -13.412,-3.074 h 0.771 v -3.084 l -5.094,-2.008 h -0.778 v 3.11 l 5.1,1.981 m -5.1,-1.981 h 0.778 v -3.11 l -4.985,-3.095 h -0.779 v 3.117 l 4.987,3.088 m -4.987,-3.088 h 0.779 v -3.117 l -9.197,-10.469 h -0.778 v 3.113 l 9.196,10.473 m -9.196,-10.473 h 0.778 v -3.113 l -3.551,-6.858 h -0.767 v 3.067 l 3.54,6.904 m -2.773,-6.904 v -3.067 h -0.767 l 0.075,0.598 v 2.469 h 0.617 0.075 m -0.075,0 v -2.469 h -0.617 l -0.031,0.618 v 1.831 h 0.458 l 0.191,0.02 m -0.191,-0.02 v -1.831 h -0.458 l -0.332,0.199 v 1.831 h 0.458 l 0.332,-0.199"
         id="path353"
         style="color-interpolation:linearRGB;fill:#000000" />
      <path
         class="write-chisel-pen"
         fill="#ffffff"
         stroke-width="4"
         __comx="1269.726"
         __comy="585.533"
         __timestamp="0x17638a89f7e"
         d="m 1268.04,597.083 v 0.098 h 0.024 l 0.612,-0.666 v -0.561 h -0.14 l -0.496,1.129 m 0.636,-0.568 v -0.561 h -0.14 l -0.265,-0.662 v 2.682 h 0.671 l -0.265,-1.459 m 0.265,-1.223 h -0.671 v 2.682 l 2.419,4.76 h 0.707 v -2.829 l -2.456,-4.614 m 2.456,4.614 h -0.707 v 2.829 l 5.427,6.89 h 0.712 v -2.847 l -5.432,-6.872 m 5.432,6.872 h -0.712 v 2.847 l 2.989,2.504 h 0.717 v -2.869 l -2.994,-2.482 m 2.277,2.482 v 2.869 h 0.717 l 0.679,-4.43 v -2.983 h -0.746 l -0.651,4.545 m 0.651,-4.545 v 2.983 h 0.746 l 10.91,-14.399 v -2.507 h -0.627 l -11.029,13.923 m 11.656,-11.415 v -2.507 h -0.627 l -0.307,0.499 v 2.307 h 0.577 l 0.357,-0.299 m -0.357,0.299 v -2.307 h -0.577 l -0.488,0.863 v 1.778 h 0.445 l 0.62,-0.334 m -0.62,0.334 v -1.778 h -0.445 l -0.404,1.296 v 0.582 h 0.145 l 0.704,-0.1 m -0.704,0.1 v -0.582 h -0.145 l -0.997,0.399 v 0.582 h 0.145 l 0.997,-0.399"
         id="path355"
         style="color-interpolation:linearRGB;fill:#000000" />
      <path
         class="write-chisel-pen"
         fill="#ffffff"
         stroke-width="4"
         __comx="1268.728"
         __comy="544.18"
         __timestamp="0x17638a89c17"
         d="m 1277.673,542.659 h 0.038 v -0.152 l 0.156,-1.367 h -0.572 v 2.288 l 0.378,-0.769 m 0.194,-1.519 h -0.572 v 2.288 l 0.037,4.882 h 0.719 v -2.877 l -0.184,-4.292 m 0.184,4.292 h -0.719 v 2.877 l 0.11,2.198 h 0.721 v -2.886 l -0.112,-2.19 m 0.112,5.075 v -2.886 h -0.721 l -0.45,33.377 v 2.946 h 0.736 l 0.436,-33.437 m -0.436,30.491 h -0.736 v 2.946 l 0.554,7.578 h 0.736 v -2.944 l -0.554,-7.58 m 0.554,7.58 h -0.736 v 2.944 l 2.102,9.187 h 0.742 v -2.969 l -2.108,-9.162 m 1.366,9.162 v 2.969 h 0.742 l 0.075,-0.642 v -2.682 h -0.671 l -0.147,0.355 m 0.147,2.327 h 0.671 v -2.682 l -0.148,-0.449 h -0.596 v 2.385 l 0.074,0.747 m -0.074,-0.747 h 0.596 v -2.385 l -0.288,-0.532 h -0.463 v 1.853 l 0.155,1.064 m -0.155,-1.064 h 0.463 v -1.853 l -0.697,-0.126 h -0.177 v 0.709 l 0.411,1.27 m -0.411,-1.27 h 0.177 v -0.709 l -0.775,-0.499 h -0.177 v 0.709 l 0.775,0.499"
         id="path357"
         style="color-interpolation:linearRGB;fill:#000000" />
      <path
         class="write-chisel-pen"
         fill="#ffffff"
         stroke-width="4"
         __comx="1259.76"
         __comy="424.632"
         __timestamp="0x17638a80430"
         d="m 1276.457,406.726 h 0.033 v -0.13 l 0.054,-0.956 h -0.361 v 1.445 l 0.275,-0.358 m -0.275,0.358 h 0.361 v -1.445 l -0.022,-0.656 h -0.54 v 2.158 l 0.2,-0.058 m -0.2,0.058 h 0.54 v -2.158 l -0.077,-0.434 h -0.607 v 2.428 l 0.144,0.164 m 0.463,-0.164 v -2.428 h -0.607 l -4.133,0.164 v 2.698 h 0.675 l 4.066,-0.434 m -4.066,0.434 v -2.698 h -0.675 l -3.101,1.402 v 2.687 h 0.672 l 3.104,-1.391 m -3.104,1.391 v -2.687 h -0.672 l -4.649,4.206 v 2.652 h 0.663 l 4.658,-4.171 m -4.658,4.171 v -2.652 h -0.663 l -0.544,2.532 v 2.575 h 0.644 l 0.564,-2.454 m -0.564,-0.121 h -0.644 v 2.575 l 1.886,1.385 h 0.638 v -2.554 l -1.881,-1.407 m 1.881,1.407 h -0.638 v 2.554 l 6.313,1.109 h 0.645 v -2.578 l -6.319,-1.085 m 5.674,3.663 h 0.645 v -2.578 l -1.996,-0.59 h -0.641 v 2.562 l 1.992,0.606 m -1.352,-0.606 v -2.562 h -0.641 l -4.093,0.627 v 2.504 h 0.626 l 4.107,-0.569 m -4.107,0.569 v -2.504 h -0.626 l -1.882,1.303 v 2.491 h 0.623 l 1.885,-1.29 m -1.885,1.29 v -2.491 h -0.623 l -0.664,2.098 v 2.484 h 0.621 l 0.666,-2.091 m -0.666,-0.393 h -0.621 v 2.484 l 0.55,1.613 h 0.63 v -2.519 l -0.558,-1.578 m 0.558,1.578 h -0.63 v 2.519 l 1.988,1.322 h 0.643 v -2.57 l -2.001,-1.271 m 2.001,1.271 h -0.643 v 2.57 l 9.063,1.39 h 0.689 v -2.757 l -9.109,-1.203 m 9.109,3.96 v -2.757 h -0.689 l -0.517,0.591 V 425 h 0.394 l 0.812,0.591 M 1274.062,425 h 0.394 v -1.574 l -1.067,0.324 h -0.032 v 0.127 l 0.706,1.122 m -0.706,-1.122 h 0.032 v -0.127 l -1.44,-0.499 h -0.032 v 0.127 l 1.44,0.499"
         id="path359"
         style="color-interpolation:linearRGB;fill:#000000" />
      <path
         class="write-chisel-pen"
         fill="#ffffff"
         stroke-width="4"
         __comx="1161.867"
         __comy="424.632"
         __timestamp="0x17638a7ffa1"
         d="m 1159.951,438.342 h 0.134 v -0.536 l 0.11,-0.739 h -0.354 v 1.416 l 0.11,-0.141 m -0.11,0.141 h 0.354 v -1.416 l 0.08,-1.018 h -0.514 v 2.057 l 0.08,0.378 m 0.434,-0.378 v -2.057 h -0.514 l -0.068,0.029 v 2.598 h 0.649 l -0.068,-0.57 m 0.068,-2.028 h -0.649 v 2.598 l 1.308,20.631 h 0.694 v -2.775 l -1.352,-20.454 m 1.352,20.454 h -0.694 v 2.775 l 0.221,1.597 h 0.695 v -2.778 l -0.222,-1.594 m -0.472,1.594 v 2.778 h 0.695 l 3.558,-0.451 v -2.873 h -0.718 l -3.534,0.546 m 3.534,-0.546 v 2.873 h 0.718 l 18.175,-7.366 v -2.9 h -0.725 l -18.168,7.393 m 18.168,-7.393 v 2.9 h 0.725 l 0.391,-1.007 v -2.482 h -0.621 l -0.496,0.589 m 0.496,1.893 h 0.621 v -2.482 l -0.516,-0.208 h -0.475 v 1.901 l 0.371,0.789 m -0.371,-0.789 h 0.475 v -1.901 l -0.634,-0.035 h -0.094 v 0.376 l 0.253,1.56 m -0.253,-1.56 h 0.094 v -0.376 l -0.776,-0.997 h -0.094 v 0.376 l 0.776,0.997"
         id="path361"
         style="color-interpolation:linearRGB;fill:#000000" />
      <path
         class="write-chisel-pen"
         fill="#ffffff"
         stroke-width="4"
         __comx="1154.937"
         __comy="424.632"
         __timestamp="0x17638a7fb92"
         d="m 1165.315,438.861 h 0.045 v -0.179 l 0.024,-0.838 h -0.314 v 1.255 l 0.245,-0.239 m -0.245,0.239 h 0.314 v -1.255 l 0.064,-0.554 h -0.441 v 1.764 l 0.064,0.045 m -0.064,-0.045 h 0.441 v -1.764 l -0.07,-0.463 h -0.523 v 2.091 l 0.152,0.136 m -0.152,-0.136 h 0.523 v -2.091 l 0.064,-0.853 h -0.65 v 2.6 l 0.064,0.344 m 0.586,-0.344 v -2.6 h -0.65 l -0.031,0.618 v 1.962 h 0.49 l 0.19,0.02 m -0.19,-0.02 v -1.962 h -0.49 l -0.333,0.299 v 1.962 h 0.49 l 0.333,-0.299"
         id="path363"
         style="color-interpolation:linearRGB;fill:#000000" />
      <path
         class="write-chisel-pen"
         fill="#ffffff"
         stroke-width="4"
         __comx="1207.391"
         __comy="424.632"
         __timestamp="0x17638a7f893"
         d="m 1273.172,465.248 h 0.174 v -0.697 l 0.021,-0.827 h -0.438 v 1.752 l 0.243,-0.228 m -0.243,0.228 h 0.438 v -1.752 l -0.266,-0.364 h -0.57 v 2.28 l 0.398,-0.165 m -0.398,0.165 h 0.57 v -2.28 l -0.026,-0.638 h -0.74 v 2.958 l 0.195,-0.04 m -0.195,0.04 h 0.74 v -2.958 l -4.42,-12.413 h -0.763 v 3.054 l 4.444,12.318 m -4.444,-12.318 h 0.763 v -3.054 l -3.432,-6.093 h -0.768 v 3.074 l 3.437,6.073 m -3.437,-6.073 h 0.768 v -3.074 l -10.747,-15.16 h -0.77 v 3.079 l 10.748,15.155 m -10.748,-15.155 h 0.77 v -3.079 l -6.096,-6.677 h -0.767 v 3.07 l 6.093,6.686 m -6.093,-6.686 h 0.767 v -3.07 l -7.32,-5.956 h -0.754 v 3.015 l 7.306,6.011 m -7.306,-6.011 h 0.754 v -3.015 l -5.769,-3.062 h -0.739 v 2.957 l 5.754,3.12 m -5.754,-3.12 h 0.739 v -2.957 l -10.749,-3.086 h -0.736 v 2.946 l 10.747,3.097 m -10.747,-3.097 h 0.736 v -2.946 l -7.431,-1.069 h -0.722 v 2.889 l 7.417,1.125 m -6.695,-1.125 v -2.889 h -0.722 l -6.197,0.33 v 2.827 h 0.707 l 6.213,-0.268 m -6.213,0.268 v -2.827 h -0.707 l -19.049,5.621 v 2.755 h 0.689 l 19.067,-5.548 m -19.067,5.548 v -2.755 h -0.689 l -5.205,2.404 v 2.734 h 0.683 l 5.21,-2.383 m -5.21,2.383 v -2.734 h -0.683 l -4.209,2.999 v 2.72 h 0.68 l 4.212,-2.985 m -4.212,2.985 v -2.72 h -0.68 l -3.656,4.89 v 2.712 h 0.678 l 3.658,-4.883 m -3.658,4.883 v -2.712 h -0.678 l -4.652,9.679 v 2.701 h 0.675 l 4.655,-9.668 m -4.655,9.668 v -2.701 h -0.675 l -6.539,9.07 v 2.711 h 0.678 l 6.536,-9.079 m -6.536,9.079 v -2.711 h -0.678 l -5.468,10.363 v 2.128 h 0.532 l 5.613,-9.781 m -6.145,7.653 v 2.128 h 0.532 l 0.106,-0.962 v -1.201 h -0.3 l -0.338,0.035 m 0.338,-0.035 v 1.201 h 0.3 l 0.072,-1.495 v -0.005 h -10e-4 l -0.371,0.3"
         id="path365"
         style="color-interpolation:linearRGB;fill:#000000" />
      <path
         class="write-chisel-pen"
         fill="#ffffff"
         stroke-width="4"
         __comx="1067.826"
         __comy="448.485"
         __timestamp="0x17638a7b43a"
         d="m 1080.09,455.629 h 0.301 v -1.205 l 0.043,-0.57 h -0.387 v 1.549 l 0.043,0.227 m -0.043,-0.227 h 0.387 v -1.549 l -0.202,-0.622 h -0.648 v 2.593 l 0.463,-0.423 m 0.185,0.423 v -2.593 h -0.648 l -3.543,2.603 v 2.574 h 0.643 l 3.548,-2.583 m -3.548,2.583 v -2.574 h -0.643 l -3.212,3.893 v 2.565 h 0.641 l 3.214,-3.885 m -3.214,3.885 v -2.565 h -0.641 l -0.993,2.811 v 2.527 h 0.632 l 1.002,-2.773 m -1.002,0.246 h -0.632 v 2.527 l 0.447,1.084 h 0.625 v -2.501 l -0.44,-1.11 m 0.44,1.11 h -0.625 v 2.501 l 2.993,0.691 h 0.622 v -2.487 l -2.99,-0.705 m 2.368,0.705 v 2.487 h 0.622 l 4.435,-0.487 v -2.511 h -0.628 l -4.429,0.51 m 5.057,2 v -2.511 h -0.628 l -4.54,2.807 v 2.482 h 0.621 l 4.547,-2.778 m -4.547,2.778 v -2.482 h -0.621 l -2.105,2.492 v 2.484 h 0.621 l 2.105,-2.494 m -2.105,2.494 v -2.484 h -0.621 l -0.777,2.289 v 2.492 h 0.623 l 0.775,-2.298 m -0.775,-0.195 h -0.623 v 2.492 l 0.662,1.906 h 0.629 v -2.514 l -0.668,-1.884 m 0.668,1.884 h -0.629 v 2.514 l 2.649,1.438 h 0.649 v -2.598 l -2.67,-1.354 m 2.67,1.354 h -0.649 v 2.598 l 7.496,0.552 h 0.726 v -2.905 l -7.573,-0.246 m 6.847,3.15 h 0.726 v -2.905 l -0.419,0.247 h -0.553 v 2.211 l 0.246,0.447 m 0.307,-0.447 v -2.211 h -0.553 -0.776 v 2.211 h 0.553 0.776"
         id="path367"
         style="color-interpolation:linearRGB;fill:#000000" />
      <path
         class="write-chisel-pen"
         fill="#ffffff"
         stroke-width="4"
         __comx="1261.334"
         __comy="483.862"
         __timestamp="0x17638a78c7d"
         d="m 1268.937,474.121 h 0.223 v -0.893 l -0.685,-1.657 h -0.404 v 1.614 l 0.866,0.936 m -0.866,-0.936 h 0.404 v -1.614 l -0.534,-0.379 h -0.444 v 1.774 l 0.574,0.219 m -0.574,-0.219 h 0.444 v -1.774 l -3.714,-0.71 h -0.549 v 2.197 l 3.82,0.287 m -3.271,-0.287 v -2.197 h -0.549 l -2.669,0.561 v 2.272 h 0.568 l 2.65,-0.636 m -2.65,0.636 v -2.272 h -0.568 l -4.781,2.725 v 2.405 h 0.601 l 4.748,-2.859 m -4.748,2.859 v -2.405 h -0.601 l -8.435,8.321 v 2.517 h 0.629 l 8.407,-8.433 m -8.407,8.433 v -2.517 h -0.629 l -5.875,7.669 v 2.537 h 0.634 l 5.87,-7.689 m -5.87,7.689 v -2.537 h -0.634 l -2.549,7.675 v 2.546 h 0.636 l 2.547,-7.683 m -2.547,7.683 v -2.546 h -0.636 l -0.554,5.984 v 2.544 h 0.636 l 0.554,-5.983 m -0.554,3.439 h -0.636 v 2.544 l 1.44,5.985 h 0.637 v -2.547 l -1.441,-5.982 m 1.441,5.982 h -0.637 v 2.547 l 4.1,5.885 h 0.637 v -2.549 l -4.1,-5.883 m 4.1,5.883 h -0.637 v 2.549 l 5.982,5.089 h 0.639 v -2.556 l -5.984,-5.083 m 5.984,5.083 h -0.639 v 2.556 l 6.87,3.988 h 0.638 v -2.554 l -6.87,-3.99 m 6.87,3.99 h -0.638 v 2.554 l 7.866,2.995 h 0.64 v -2.56 l -7.868,-2.988 m 7.868,2.988 h -0.64 v 2.56 l 10.859,2.294 h 0.64 v -2.56 l -10.859,-2.294 m 10.859,2.294 h -0.64 v 2.56 l 5.651,-10e-4 h 0.64 v -2.559 l -5.651,-10e-4 m 5.011,10e-4 v 2.559 h 0.64 l 5.097,-1.694 v -2.562 h -0.641 l -5.097,1.697 m 5.097,-1.697 v 2.562 h 0.641 l 7.203,-4.881 v -2.572 h -0.643 l -7.201,4.891 m 7.201,-4.891 v 2.572 h 0.643 l 3.991,-4.079 v -2.591 h -0.648 l -3.986,4.098 m 3.986,-4.098 v 2.591 h 0.648 l 2.558,-4.748 v -2.668 h -0.667 l -2.539,4.825 m 2.539,-4.825 v 2.668 h 0.667 l 1.668,-5.363 v -2.712 h -0.678 l -1.657,5.407 m 1.657,-5.407 v 2.712 h 0.678 l 1.113,-9.452 v -2.755 h -0.689 l -1.103,9.495 m 1.103,-6.74 h 0.689 v -2.755 l -0.665,-7.478 h -0.688 v 2.752 l 0.665,7.481 m -0.665,-7.481 h 0.688 v -2.752 l -2.55,-7.872 h -0.685 v 2.74 l 2.547,7.884 m -2.547,-7.884 h 0.685 v -2.74 l -4.322,-7.577 h -0.684 v 2.737 l 4.321,7.58 m -4.321,-7.58 h 0.684 v -2.737 l -4.876,-5.981 h -0.683 v 2.732 l 4.875,5.986 m -4.875,-5.986 h 0.683 v -2.732 l -2.549,-1.993 h -0.682 v 2.729 l 2.548,1.996 m -2.548,-1.996 h 0.682 v -2.729 l -5.877,-1.978 h -0.674 v 2.697 l 5.868,2.011 m -5.194,-2.011 v -2.697 h -0.674 l -7.289,1.792 v 2.502 h 0.626 l 7.337,-1.598 m -7.337,1.598 v -2.502 h -0.626 l -4.844,2.82 v 2.248 h 0.562 l 4.907,-2.565 m -4.907,2.565 v -2.248 h -0.562 l -5.264,4.207 v 1.813 h 0.453 l 5.373,-3.771 m -5.373,3.771 v -1.813 h -0.453 l -5.207,5.434 v 0.917 h 0.229 l 5.431,-4.538 m -5.431,4.538 v -0.917 h -0.229 l -4.654,5.485 V 487 h 0.229 l 4.654,-5.485"
         id="path369"
         style="color-interpolation:linearRGB;fill:#000000" />
      <path
         class="write-chisel-pen"
         fill="#ffffff"
         stroke-width="4"
         __comx="1263.757"
         __comy="483.862"
         __timestamp="0x17638a7892b"
         d="m 1264.721,488.471 h -0.43 v 1.721 l 1.016,0.37 h 0.615 v -2.46 l -1.201,0.37 m 1.201,-0.37 h -0.615 v 2.46 l 7.756,1.396 h 0.615 v -2.46 l -7.756,-1.396 m 7.756,1.396 h -0.615 v 2.46 l 4.659,2.271 h 0.604 v -2.416 l -4.648,-2.316 m 4.648,2.316 h -0.604 v 2.416 l 3.548,3.081 h 0.599 v -2.395 l -3.543,-3.102 m 3.543,3.102 h -0.599 v 2.395 l 1.883,3.391 h 0.599 v -2.397 l -1.884,-3.39 m 1.884,3.39 h -0.599 v 2.397 l 0.103,3.023 h 0.615 v -2.46 l -0.119,-2.96 m 0.119,5.42 v -2.46 h -0.615 l -1.68,2.322 v 2.603 h 0.651 l 1.644,-2.465 m -1.644,2.465 v -2.603 h -0.651 l -3.559,1.842 v 2.709 h 0.677 l 3.532,-1.948 m -3.532,1.948 v -2.709 h -0.677 l -4.887,1.15 v 2.802 h 0.701 l 4.864,-1.243 m -4.864,1.243 v -2.802 h -0.701 l -5.098,0.196 v 2.81 h 0.702 l 5.096,-0.203 m -5.798,0.203 h 0.702 v -2.81 l -3.446,-0.955 h -0.681 v 2.725 l 3.425,1.04 m -3.425,-1.04 h 0.681 v -2.725 l -1.028,-1.272 h -0.619 v 2.476 l 0.966,1.521 m -0.966,-3.996 v 2.476 h 0.619 l 1.149,-1.676 v -1.915 h -0.479 l -1.289,1.116 m 1.289,-1.116 v 1.915 h 0.479 l 1.172,-0.688 v -1.536 h -0.384 l -1.266,0.309 m 1.266,-0.309 v 1.536 h 0.384 l 1.339,-0.704 v -0.727 h -0.182 l -1.541,-0.105 m 1.723,0.105 h -0.182 v 0.727 h 1.44 0.182 v -0.727 h -1.44"
         id="path371"
         style="color-interpolation:linearRGB;fill:#000000" />
      <path
         class="write-chisel-pen"
         fill="#ffffff"
         stroke-width="4"
         __comx="1258.276"
         __comy="483.862"
         __timestamp="0x17638a787ee"
         d="m 1267.479,487.749 v -1.621 h -0.405 l -0.629,0.596 v 2.224 h 0.556 l 0.478,-1.199 m -0.478,-1.025 h -0.556 v 2.224 l 2.208,14.791 h 0.572 v -2.288 l -2.224,-14.727 m 2.224,14.727 h -0.572 v 2.288 l 0.696,1.87 h 0.51 v -2.039 l -0.634,-2.119 m 0.124,2.119 v 2.039 h 0.51 l 0.249,-1.83 v -1.372 h -0.343 l -0.416,1.162 m 0.416,0.21 h 0.343 v -1.372 l -0.077,-1.09 h -0.19 v 0.759 l -0.077,1.703 m 0.077,-1.703 h 0.19 v -0.759 l -0.198,-1.645 h -0.015 v 0.06 l 0.024,2.344 m -0.024,-2.344 h 0.015 v -0.06 l -0.554,-1.895 h -0.015 v 0.06 l 0.554,1.895"
         id="path373"
         style="color-interpolation:linearRGB;fill:#000000" />
      <path
         class="write-chisel-pen"
         fill="#ffffff"
         stroke-width="4"
         __comx="1195.378"
         __comy="483.862"
         __timestamp="0x17638a784fa"
         d="m 1207.134,470.278 h 0.396 v -1.583 l -1.686,-1.344 h -0.569 v 2.277 l 1.86,0.65 m -1.86,-0.65 h 0.569 v -2.277 l -0.544,-0.241 h -0.59 v 2.36 l 0.565,0.158 m -0.565,-0.158 h 0.59 v -2.36 l -3.528,-0.569 h -0.625 v 2.501 l 3.563,0.428 m -2.938,-0.428 v -2.501 h -0.625 l -1.774,0.894 v 2.507 H 1200 l 1.772,-0.901 m -1.772,0.901 v -2.507 h -0.627 l -2.326,3.495 v 2.499 h 0.625 l 2.328,-3.486 m -2.328,3.486 v -2.499 h -0.625 l -0.322,3.333 v 2.414 h 0.604 l 0.343,-3.248 m -0.343,0.834 h -0.604 v 2.414 l 1.554,1.285 h 0.598 v -2.392 l -1.549,-1.308 m 1.549,1.308 h -0.598 v 2.392 l 2.435,0.208 h 0.602 v -2.409 l -2.44,-0.191 m 1.838,0.191 v 2.409 h 0.602 l 3.111,-1.364 v -2.474 h -0.618 l -3.095,1.429 m 3.095,-1.429 v 2.474 h 0.618 l 5.327,-4.454 v -2.541 h -0.635 l -5.31,4.521 m 5.31,-4.521 v 2.541 h 0.635 l 0.89,-1.88 v -2.57 h -0.643 l -0.883,1.91 m 1.525,0.661 v -2.57 H 1210 l -10e-4,3.186 v 2.58 h 0.645 l -10e-4,-3.196 m 10e-4,0.616 h -0.645 v 2.58 l 3.201,2.443 h 0.67 v -2.679 l -3.226,-2.344 m 2.556,2.344 v 2.679 h 0.67 l 0.129,-0.671 v -1.935 h -0.484 l -0.315,-0.073 m 0.315,0.073 v 1.935 h 0.484 l 0.031,-0.618 v -1.297 h -0.324 l -0.19,-0.02"
         id="path375"
         style="color-interpolation:linearRGB;fill:#000000" />
      <path
         class="write-chisel-pen"
         fill="#ffffff"
         stroke-width="4"
         __comx="1219.242"
         __comy="483.862"
         __timestamp="0x17638a77de7"
         d="m 1222.116,488.453 h -0.539 v 2.156 l 6.706,2.905 h 0.645 v -2.582 l -6.812,-2.48 m 6.812,2.48 h -0.645 v 2.582 l 4.989,2.98 h 0.64 v -2.559 l -4.983,-3.003 m 4.983,3.003 h -0.64 v 2.559 l 2.66,3.089 h 0.638 v -2.554 l -2.659,-3.094 m 2.659,3.094 h -0.638 v 2.554 l 0.329,2.008 h 0.645 v -2.58 l -0.336,-1.981 m 0.336,4.561 v -2.58 h -0.645 l -0.783,2.362 v 2.643 h 0.661 l 0.768,-2.425 m -0.768,2.425 v -2.643 h -0.661 l -5.1,4.378 v 2.664 h 0.666 l 5.094,-4.398 m -5.76,4.398 h 0.666 v -2.664 l -0.093,-0.225 h -0.479 v 1.917 l -0.093,0.972 m 0.093,-2.889 v 1.917 h 0.479 l 0.102,-1.078 v -0.958 h -0.239 l -0.342,0.119 m 0.342,-0.119 v 0.958 h 0.239 l 0.222,-0.897 v -0.958 h -0.239 l -0.222,0.897"
         id="path377"
         style="color-interpolation:linearRGB;fill:#000000" />
      <path
         class="write-chisel-pen"
         fill="#ffffff"
         stroke-width="4"
         __comx="1194.122"
         __comy="483.862"
         __timestamp="0x17638a77c83"
         d="m 1179.468,498.886 v -1.359 h -0.34 l -0.387,-0.219 v 1.797 h 0.449 l 0.278,-0.219 m -0.727,-1.578 v 1.797 h 0.449 l 0.434,0.305 v -2.606 h -0.652 l -0.231,0.504 m 0.883,-0.504 h -0.652 v 2.606 l 42.422,0.361 h 0.683 v -2.731 l -42.453,-0.237 m 41.771,0.237 v 2.731 h 0.683 l 7.425,-0.791 v -2.745 h -0.686 l -7.422,0.805 m 7.422,1.94 h 0.686 v -2.745 l -0.557,0.355 h -0.459 v 1.836 l 0.33,0.554 m -0.33,-0.554 h 0.459 v -1.836 l -0.701,0.389 h -0.165 v 0.658 l 0.407,0.788 m -0.407,-0.788 h 0.165 v -0.658 l -0.665,-0.199 h -0.165 v 0.658 l 0.665,0.199"
         id="path379"
         style="color-interpolation:linearRGB;fill:#000000" />
      <path
         class="write-chisel-pen"
         fill="#ffffff"
         stroke-width="4"
         __comx="1138.561"
         __comy="483.862"
         __timestamp="0x17638a777b8"
         d="m 1142.263,470.592 h 0.054 v -0.216 l -0.079,-0.87 h -0.339 v 1.356 l 0.364,-0.271 m -0.364,0.271 h 0.339 v -1.356 l -1.901,-0.872 h -0.526 v 2.104 l 2.088,0.125 m -1.562,-0.125 v -2.104 h -0.526 l -0.782,0.072 v 2.16 h 0.54 l 0.768,-0.128 m -0.768,0.128 v -2.16 h -0.54 l -5.786,3.196 v 2.35 h 0.587 l 5.738,-3.386 m -5.738,3.386 v -2.35 h -0.587 l -3.999,3.75 v 2.43 h 0.607 l 3.979,-3.829 m -3.979,3.829 v -2.43 h -0.607 l -4.995,6.845 v 2.501 h 0.625 l 4.977,-6.916 m -4.977,6.916 v -2.501 h -0.625 l -2.552,5.073 v 2.527 h 0.632 l 2.545,-5.099 m -2.545,5.099 v -2.527 h -0.632 l -1.441,5.383 v 2.532 h 0.633 l 1.44,-5.388 m -1.44,5.388 v -2.532 h -0.633 l -0.334,5.679 v 2.542 h 0.636 l 0.331,-5.689 m -0.331,3.147 h -0.636 v 2.542 l 1.329,5.286 h 0.636 v -2.544 l -1.33,-5.285 m 1.33,5.285 h -0.636 v 2.544 l 2.991,5.088 h 0.637 v -2.547 l -2.992,-5.084 m 2.992,5.084 h -0.637 v 2.547 l 4.432,4.389 h 0.638 v -2.551 L 1124.879,509 m 4.433,4.386 h -0.638 v 2.551 l 7.201,4.792 h 0.641 v -2.562 l -7.204,-4.781 m 7.204,4.781 h -0.641 v 2.562 l 7.645,3.491 h 0.641 v -2.564 l -7.646,-3.49 m 7.646,3.49 h -0.641 v 2.564 l 5.208,1.394 h 0.64 v -2.56 l -5.207,-1.398 m 5.207,1.398 h -0.64 v 2.56 l 5.985,0.391 h 0.636 v -2.544 l -5.981,-0.407 m 5.345,0.407 v 2.544 h 0.636 l 5.097,-1.694 v -2.547 h -0.637 l -5.097,1.697 m 5.097,-1.697 v 2.547 h 0.637 l 4.875,-3.291 v -2.547 h -0.637 l -4.875,3.291 m 4.875,-3.291 v 2.547 h 0.637 l 7.537,-8.168 v -2.565 h -0.641 l -7.532,8.186 m 7.532,-8.186 v 2.565 h 0.641 l 2.439,-4.081 v -2.58 h -0.645 l -2.436,4.096 m 2.436,-4.096 v 2.58 h 0.645 l 1.785,-6.432 v -2.679 h -0.67 l -1.76,6.532 m 1.76,-6.532 v 2.679 h 0.67 l 0.115,-4.373 v -2.709 h -0.677 l -0.107,4.403 m 0.107,-1.694 h 0.677 v -2.709 l -0.989,-4.721 h -0.695 v 2.778 l 1.006,4.652 m -1.006,-4.652 h 0.695 v -2.778 l -4.539,-7.794 h -0.702 v 2.81 l 4.547,7.763 m -4.547,-7.763 h 0.702 v -2.81 l -6.873,-8.961 h -0.695 v 2.781 l 6.866,8.989 m -6.866,-8.989 h 0.695 v -2.781 l -8.101,-8.427 h -0.671 v 2.682 l 8.076,8.526 m -8.076,-8.526 h 0.671 v -2.682 l -5.659,-4.257 h -0.655 v 2.621 l 5.643,4.319 m -5.643,-4.319 h 0.655 v -2.621 l -5.667,-1.732 h -0.624 v 2.494 l 5.635,1.858 m -5.011,-1.858 v -2.494 h -0.624 l -6.713,2.479 v 2.123 h 0.531 l 6.805,-2.108 m -6.805,2.108 v -2.123 h -0.531 l -3.82,3.026 v 1.654 h 0.414 l 3.937,-2.558 m -3.937,2.558 v -1.654 h -0.414 l -3.908,4.013 v 1.008 h 0.252 l 4.07,-3.366 m -4.07,3.366 v -1.008 h -0.252 l -3.757,4.474 v 0.038 h 0.01 l 3.999,-3.504 m -3.999,3.504 v -0.038 h -0.01 l -3.435,4.288 v 0.038 h 0.01 l 3.435,-4.288"
         id="path381"
         style="color-interpolation:linearRGB;fill:#000000" />
      <path
         class="write-chisel-pen"
         fill="#ffffff"
         stroke-width="4"
         __comx="1139.383"
         __comy="483.862"
         __timestamp="0x17638a773cd"
         d="m 1150.116,486.474 v 0.329 h 0.082 l 0.416,0.478 v -1.883 h -0.471 l -0.027,1.076 m 0.027,0.807 h 0.471 v -1.883 l -0.142,-0.917 h -0.63 v 2.521 l 0.301,0.28 m -0.301,-0.28 h 0.63 v -2.521 l -0.318,-0.156 h -0.658 v 2.633 l 0.346,0.043 m 0.312,-0.043 v -2.633 h -0.658 l -3.774,1.867 v 2.689 h 0.672 l 3.761,-1.922 m -3.761,1.922 v -2.689 h -0.672 l -4.765,5.281 v 2.697 h 0.674 l 4.763,-5.289 m -4.763,5.289 v -2.697 h -0.674 l -2.217,3.885 v 2.704 h 0.676 l 2.215,-3.893 m -2.215,3.893 v -2.704 h -0.676 l -0.553,2.795 v 2.7 h 0.675 l 0.555,-2.79 m -0.555,0.09 h -0.675 v 2.7 l 1.33,1.794 h 0.675 v -2.698 l -1.33,-1.796 m 1.33,1.796 h -0.675 v 2.698 l 3.434,1.202 h 0.677 v -2.709 l -3.436,-1.191 m 3.436,1.191 h -0.677 v 2.709 l 11.52,1.212 h 0.685 v -2.74 l -11.527,-1.181 m 11.527,1.181 h -0.685 v 2.74 l 5.432,1.485 h 0.68 v -2.718 l -5.427,-1.507 m 5.427,4.225 v -2.718 h -0.68 l -0.249,0.333 v 2.053 h 0.513 l 0.416,0.333 m -0.416,-0.333 v -2.053 h -0.513 l -0.332,0.443 v 1.167 h 0.292 l 0.554,0.443 m -0.846,-0.443 h 0.292 v -1.167 l -0.665,-0.1 h -0.292 v 1.167 l 0.665,0.1"
         id="path383"
         style="color-interpolation:linearRGB;fill:#000000" />
      <path
         class="write-chisel-pen"
         fill="#ffffff"
         stroke-width="4"
         __comx="1095.213"
         __comy="483.155"
         __timestamp="0x17638a44646"
         d="m 1099.575,490.052 h 0.111 v -0.444 l -0.403,-0.804 h -0.413 v 1.652 l 0.705,-0.405 m -0.705,0.405 h 0.413 v -1.652 l -0.816,-0.48 h -0.553 v 2.214 l 0.956,-0.081 m -0.403,-2.132 h -0.553 v 2.214 l 0.266,0.366 h 0.687 v -2.746 l -0.399,0.167 m 0.399,-0.167 h -0.687 v 2.746 l 6.52,4.156 h 0.72 v -2.882 l -6.554,-4.021 m 6.554,4.021 h -0.72 v 2.882 l 6.097,5.376 h 0.716 v -2.864 l -6.092,-5.394 m 6.092,5.394 h -0.716 v 2.864 l 0.994,1.908 h 0.723 v -2.89 l -1,-1.882 m 1,4.772 v -2.89 h -0.723 l -2.125,2.814 v 3.046 h 0.761 l 2.086,-2.97 m -2.086,2.97 v -3.046 h -0.761 l -4.856,2.671 v 2.889 h 0.722 l 4.895,-2.514 m -4.895,-0.374 h -0.722 v 2.889 l 0.722,-0.228 h 0.608 v -2.433 l -0.608,-0.228 m 0.608,0.228 h -0.608 v 2.433 l 0.498,-0.218 h 0.499 v -1.997 l -0.389,-0.218 m 0.389,0.218 h -0.499 v 1.997 l 0.554,-0.443 h 0.278 v -1.111 l -0.332,-0.443 m 0.332,0.443 h -0.278 v 1.111 l 0.554,0.1 h 0.278 v -1.111 l -0.554,-0.1"
         id="path385"
         style="color-interpolation:linearRGB;fill:#000000" />
      <path
         class="write-chisel-pen"
         fill="#ffffff"
         stroke-width="4"
         __comx="1068.547"
         __comy="483.155"
         __timestamp="0x17638a44480"
         d="m 1051.451,497.687 v -0.157 h -0.039 l -0.352,0.021 v 0.314 h 0.078 l 0.313,-0.178 m -0.391,0.178 h 0.078 v -0.314 l -0.341,-0.508 h -0.282 v 1.129 l 0.545,-0.308 m -0.545,0.308 h 0.282 v -1.129 l -1.243,-0.845 h -0.456 v 1.823 l 1.416,0.152 m -0.961,-1.975 h -0.456 v 1.823 l 0.183,0.597 h 0.754 V 495.6 l -0.482,0.597 m 0.482,-0.597 h -0.754 v 3.018 l 42.537,0.346 h 0.778 v -3.111 l -42.56,-0.252 m 41.782,0.252 v 3.111 h 0.778 l 15.4,-2.797 v -3.101 h -0.775 l -15.403,2.787 m 15.403,0.314 h 0.775 v -3.101 l -0.314,0.073 h -0.589 v 2.357 l 0.128,0.671 m -0.128,-0.671 h 0.589 v -2.357 l -0.419,0.247 h -0.416 v 1.662 l 0.246,0.447 m -0.246,-0.447 h 0.416 v -1.662 l -0.443,-0.199 h -0.416 v 1.662 l 0.443,0.199"
         id="path387"
         style="color-interpolation:linearRGB;fill:#000000" />
      <path
         class="write-chisel-pen"
         fill="#ffffff"
         stroke-width="4"
         __comx="1004.498"
         __comy="481.742"
         __timestamp="0x17638a3964c"
         d="m 1004.744,475.825 h 0.078 v -0.311 l -0.524,-0.321 h -0.138 v 0.554 l 0.584,0.078 m -0.584,-0.078 h 0.138 v -0.554 l -0.656,-0.577 h -0.377 v 1.508 l 0.895,-0.377 m -0.895,0.377 h 0.377 v -1.508 l -4.017,-0.83 h -0.543 v 2.171 l 4.183,0.167 m -3.64,-0.167 v -2.171 h -0.543 l -1.01,0.048 v 2.275 h 0.569 l 0.984,-0.152 m -0.984,0.152 v -2.275 h -0.569 l -2.009,0.642 v 2.388 h 0.597 l 1.98,-0.755 m -1.98,0.755 v -2.388 h -0.597 l -4.22,4.547 v 2.469 h 0.617 l 4.2,-4.628 m -4.2,4.628 v -2.469 h -0.617 l -3.445,5.547 v 2.544 h 0.636 l 3.426,-5.622 m -3.426,5.622 v -2.544 h -0.636 l -3.883,9.951 v 2.587 h 0.647 l 3.873,-9.994 m -3.873,9.994 v -2.587 h -0.647 l -1.22,6.177 v 2.598 h 0.649 l 1.218,-6.189 m -1.218,6.189 v -2.598 h -0.649 l -0.111,8.576 v 2.598 h 0.649 l 0.111,-8.576 m -0.111,5.978 h -0.649 v 2.598 l 1.774,5.382 h 0.648 v -2.591 l -1.772,-5.388 m 1.772,5.388 h -0.648 v 2.591 l 3.878,4.387 h 0.647 v -2.59 l -3.878,-4.389 m 3.878,4.389 h -0.647 v 2.59 l 6.094,3.291 h 0.647 v -2.59 l -6.094,-3.291 m 6.094,3.291 h -0.647 v 2.59 l 8.199,1.997 h 0.649 v -2.595 l -8.2,-1.992 m 8.2,1.992 h -0.649 v 2.595 l 11.521,1.306 h 0.654 v -2.614 l -11.526,-1.287 m 10.872,1.287 v 2.614 h 0.654 l 8.201,-0.495 v -2.622 h -0.656 l -8.199,0.503 m 8.199,-0.503 v 2.622 h 0.656 l 4.212,-1.488 v -2.638 h -0.66 l -4.208,1.504 m 4.208,-1.504 v 2.638 h 0.66 l 4.544,-2.987 v -2.648 h -0.662 l -4.542,2.996 m 4.542,-2.996 v 2.648 h 0.662 l 5.879,-5.759 v -2.697 h -0.674 l -5.866,5.808 m 5.866,-5.808 v 2.697 h 0.674 l 5.332,-7.725 v -2.804 h -0.701 l -5.305,7.832 m 5.305,-7.832 v 2.804 h 0.701 l 2.34,-9.022 v -2.909 h -0.727 l -2.314,9.127 m 2.314,-6.219 h 0.727 v -2.909 l -0.104,-4.516 h -0.741 v 2.965 l 0.118,4.459 m -0.118,-4.459 h 0.741 v -2.965 l -1.767,-5.508 h -0.753 v 3.011 l 1.779,5.462 m -1.779,-5.462 h 0.753 v -3.011 l -3.54,-5.606 h -0.763 v 3.054 l 3.551,5.563 m -3.551,-5.563 h 0.763 v -3.054 l -7.2,-7.486 h -0.767 v 3.067 l 7.204,7.473 m -7.204,-7.473 h 0.767 v -3.067 l -6.65,-4.48 h -0.763 v 3.052 l 6.646,4.495 m -6.646,-4.495 h 0.763 v -3.052 l -8.759,-2.871 h -0.753 v 3.011 l 8.748,2.913 m -7.996,-2.913 v -3.011 h -0.753 l -10.174,0.876 v 2.854 h 0.713 l 10.214,-0.719 m -10.214,0.719 v -2.854 h -0.713 l -4.963,2.186 v 2.67 h 0.667 l 5.009,-2.002 m -5.009,2.002 v -2.67 h -0.667 l -4.63,3.487 v 2.477 h 0.619 l 4.678,-3.294 m -4.678,3.294 v -2.477 h -0.619 l -3.804,4.585 v 1.883 h 0.471 l 3.952,-3.991 m -3.952,3.991 v -1.883 h -0.471 l -3.071,5.554 v 0.747 h 0.187 l 3.355,-4.418 m -3.355,4.418 v -0.747 h -0.187 l -2.364,5.482 v 0.154 h 0.039 l 2.512,-4.89 m -2.512,4.89 v -0.154 h -0.039 l -1.884,5.086 v 0.154 h 0.039 l 1.884,-5.086"
         id="path389"
         style="color-interpolation:linearRGB;fill:#000000" />
      <path
         class="write-chisel-pen"
         fill="#ffffff"
         stroke-width="4"
         __comx="1001.328"
         __comy="481.742"
         __timestamp="0x17638a392b7"
         d="m 1003.202,489.749 h 0.059 v -0.237 l -0.347,-0.582 h -0.251 v 1.003 l 0.539,-0.183 m -0.539,0.183 h 0.251 v -1.003 l -0.343,-0.6 h -0.451 v 1.805 l 0.544,-0.202 m -0.544,0.202 h 0.451 v -1.805 l -1.048,-0.738 h -0.571 v 2.284 l 1.168,0.259 m -1.168,-0.259 h 0.571 v -2.284 l -0.409,-0.436 h -0.639 v 2.557 l 0.477,0.163 m -0.477,-2.72 v 2.557 h 0.639 l 0.146,-0.558 v -2.836 h -0.709 l -0.076,0.838 m 0.076,-0.838 v 2.836 h 0.709 l 4.875,-2.695 v -2.83 h -0.708 l -4.876,2.69 m 4.876,-2.69 v 2.83 h 0.708 l 3.206,-0.727 v -2.773 h -0.693 l -3.22,0.67 m 3.913,-0.67 h -0.693 v 2.773 l 3.552,0.375 h 0.682 v -2.726 l -3.54,-0.423 m 3.54,0.423 h -0.682 v 2.726 l 3.329,1.776 h 0.672 v -2.687 l -3.319,-1.814 m 3.319,1.814 h -0.672 v 2.687 l 2.105,2.592 h 0.671 v -2.686 l -2.105,-2.594 m 2.105,2.594 h -0.671 v 2.686 l 0.553,2.598 h 0.674 v -2.695 l -0.555,-2.588 m 0.555,5.283 v -2.695 h -0.674 l -0.677,1.744 v 2.796 h 0.699 l 0.652,-1.845 m -0.652,1.845 v -2.796 h -0.699 l -2.005,1.153 v 2.883 h 0.721 l 1.984,-1.24 m -1.984,1.24 v -2.883 h -0.721 l -3.771,0.583 v 2.915 h 0.729 l 3.763,-0.614 m -4.492,0.614 h 0.729 v -2.915 l -3.109,-0.673 h -0.716 v 2.864 l 3.096,0.723 m -2.38,-3.587 h -0.716 v 2.864 l 3.123,0.416 h 0.675 v -2.698 l -3.082,-0.582 m 3.082,0.582 h -0.675 v 2.698 l 2.996,1.676 h 0.665 v -2.659 l -2.987,-1.715 m 2.987,1.715 h -0.665 v 2.659 l 4.544,4.183 h 0.662 v -2.648 l -4.542,-4.194 m 4.542,4.194 h -0.662 v 2.648 l 2.104,3.096 h 0.664 v -2.657 l -2.107,-3.087 m 2.107,3.087 h -0.664 v 2.657 l 1.09,3.959 h 0.699 v -2.798 l -1.126,-3.819 m 1.126,6.617 v -2.798 h -0.699 l -1.807,2.658 v 3.067 h 0.767 l 1.739,-2.927 m -1.739,2.927 v -3.067 h -0.767 l -4.999,1.245 v 3.17 h 0.792 l 4.973,-1.348 m -4.973,1.348 v -3.17 h -0.792 l -6.984,0.185 v 3.198 h 0.8 l 6.977,-0.214 m -7.777,0.214 h 0.8 v -3.198 l -5.984,-0.995 h -0.799 v 3.194 l 5.983,0.999 m -5.983,-0.999 h 0.799 v -3.194 l -3.009,-1.626 h -0.764 v 3.055 l 2.974,1.765 m -2.974,-1.765 h 0.764 v -3.055 l -0.379,-1.71 h -0.671 v 2.686 l 0.286,2.079 m -0.286,-4.765 v 2.686 h 0.671 l 0.743,-1.129 v -2.423 h -0.606 l -0.808,0.866 m 0.808,-0.866 v 2.423 h 0.606 l 1.275,-1.116 v -1.985 h -0.496 l -1.384,0.679 m 1.384,-0.679 v 1.985 h 0.496 l 1.654,-1.073 v -1.036 h -0.259 l -1.892,0.124 m 1.892,-0.124 v 1.036 h 0.259 l 1.579,-0.63 v -0.374 h -0.093 l -1.745,-0.032 m 1.745,0.032 v 0.374 h 0.093 l 1.219,-0.199 v -0.374 h -0.093 l -1.219,0.199"
         id="path391"
         style="color-interpolation:linearRGB;fill:#000000" />
      <path
         class="write-chisel-pen"
         fill="#ffffff"
         stroke-width="4"
         __comx="998.995"
         __comy="481.742"
         __timestamp="0x17638a3904f"
         d="m 1007.63,486.775 h 0.068 v -0.271 l -0.01,-1.151 h -0.494 v 1.976 l 0.435,-0.553 m 0.059,-1.423 h -0.494 v 1.976 l 1.375,10.933 h 0.625 v -2.501 l -1.506,-10.408 m 1.506,10.408 h -0.625 v 2.501 l 1.527,3.544 h 0.453 v -1.811 l -1.354,-4.234 m 1.354,4.234 h -0.453 v 1.811 l 0.419,-0.247 h 0.279 v -1.117 l -0.246,-0.447 m -0.034,0.447 v 1.117 h 0.279 v -0.941 -0.232 h -0.058 l -0.222,0.056 m 0.222,0.176 h 0.058 v -0.232 l -0.111,-0.898 h -0.058 v 0.232 l 0.111,0.898"
         id="path393"
         style="color-interpolation:linearRGB;fill:#000000" />
      <path
         class="write-chisel-pen"
         fill="#ffffff"
         stroke-width="4"
         __comx="918.901"
         __comy="481.742"
         __timestamp="0x17638a38bb3"
         d="m 934.385,452.385 h 0.075 v -0.3 l -0.027,-1.419 h -0.685 v 2.74 l 0.637,-1.02 m -0.637,1.02 h 0.685 v -2.74 l -3.638,-0.373 h -0.722 v 2.887 l 3.675,0.225 m -3.675,-0.225 h 0.722 v -2.887 l -6.758,-2.198 h -0.724 v 2.895 l 6.76,2.19 m -6.036,-5.085 h -0.724 v 2.895 l 1.456,1.933 h 0.693 v -2.772 l -1.425,-2.056 m 1.425,2.056 h -0.693 v 2.772 l 1.108,4.986 h 0.693 v -2.772 l -1.108,-4.986 m 1.108,4.986 h -0.693 v 2.772 l 0.553,9.776 h 0.695 v -2.778 l -0.555,-9.77 m 0.555,12.548 v -2.778 h -0.695 l -0.664,6.885 v 2.77 h 0.693 l 0.666,-6.877 m -0.666,4.107 h -0.693 v 2.77 l 0.775,3.892 h 0.694 v -2.775 l -0.776,-3.887 m 0.083,3.887 v 2.775 h 0.694 l 7.223,-1.113 v -2.942 h -0.735 l -7.181,1.28 m 7.917,-1.28 h -0.735 v 2.942 l 0.191,-0.02 h 0.576 v -2.303 l -0.031,-0.618 m 0.031,2.922 v -2.303 h -0.576 l -0.332,0.299 v 2.303 h 0.576 l 0.332,-0.299"
         id="path395"
         style="color-interpolation:linearRGB;fill:#000000" />
      <path
         class="write-chisel-pen"
         fill="#ffffff"
         stroke-width="4"
         __comx="948.356"
         __comy="481.742"
         __timestamp="0x17638a383df"
         d="m 951.899,488.459 h 0.063 v -0.25 l -0.203,-0.619 h -0.322 v 1.289 l 0.462,-0.42 m -0.14,0.42 v -1.289 h -0.322 l -1.637,-0.344 v 1.978 h 0.494 l 1.465,-0.344 m -1.465,0.344 v -1.978 H 949.8 l -0.331,-0.14 v 2.857 h 0.714 l 0.112,-0.739 m -0.112,-2.118 h -0.714 v 2.857 l 12.184,7.297 h 0.723 v -2.892 l -12.193,-7.262 m 12.193,7.262 h -0.723 v 2.892 l 4.882,3.864 h 0.71 v -2.841 l -4.869,-3.915 m 4.869,6.755 v -2.841 h -0.71 l -4.011,2.605 v 3.015 h 0.754 l 3.967,-2.78 m -3.967,2.78 v -3.015 h -0.754 l -12.535,4.832 v 3.123 h 0.781 l 12.507,-4.941 m -13.288,1.818 v 3.123 h 0.781 l 2.177,-0.655 v -2.811 h -0.703 l -2.255,0.343 m 2.255,-0.343 v 2.811 h 0.703 l 0.402,-0.363 v -2.484 h -0.621 l -0.484,0.036 m 1.105,-0.036 h -0.621 v 2.484 l 0.424,0.134 h 0.438 v -1.754 l -0.241,-0.864 m 0.241,2.618 v -1.754 h -0.438 l 0.15,1.197 v 0.557 h 0.139 0.15 m -0.15,0 v -0.557 h -0.139 l -0.443,0.499 v 0.557 h 0.139 l 0.443,-0.499"
         id="path397"
         style="color-interpolation:linearRGB;fill:#000000" />
      <path
         class="write-chisel-pen"
         fill="#ffffff"
         stroke-width="4"
         __comx="917.999"
         __comy="481.742"
         __timestamp="0x17638a3815d"
         d="m 899.827,500.103 h 0.051 V 499.9 l -0.245,-0.449 h -0.225 v 0.9 l 0.42,-0.249 m -0.194,0.249 v -0.9 h -0.225 l -0.37,-0.15 v 1.201 h 0.3 l 0.295,-0.15 m -0.595,-1.05 v 1.201 h 0.3 l 0.669,0.706 v -3.011 h -0.753 l -0.217,1.104 m 0.217,-1.104 v 3.011 h 0.753 l 14.295,-1.391 v -3.02 h -0.755 l -14.293,1.401 m 14.293,-1.401 v 3.02 h 0.755 l 9.861,-0.102 v -3.015 h -0.754 l -9.862,0.097 m 10.616,-0.097 h -0.754 v 3.015 l 32.797,2.397 h 0.755 v -3.022 l -32.799,-2.39 m 32.043,5.412 h 0.755 v -3.022 l -0.833,0.573 h -0.419 v 1.677 l 0.497,0.772 m -0.497,-0.772 h 0.419 v -1.677 l -0.833,0.572 h -0.083 v 0.332 l 0.497,0.772 m -0.497,-0.772 h 0.083 v -0.332 l -0.776,-0.399 h -0.083 v 0.332 l 0.776,0.399"
         id="path399"
         style="color-interpolation:linearRGB;fill:#000000" />
      <path
         class="write-chisel-pen"
         fill="#ffffff"
         stroke-width="4"
         __comx="862.621"
         __comy="484.461"
         __timestamp="0x17638a18e92"
         d="m 871.682,479.265 h 0.053 v -0.211 l -1.46,-0.465 h -0.235 v 0.941 l 1.643,-0.266 m -1.407,0.266 v -0.941 h -0.235 l -1.247,-0.114 v 1.169 h 0.292 l 1.19,-0.114 m -1.19,0.114 v -1.169 h -0.292 l -5.614,1.098 v 1.764 h 0.441 l 5.466,-1.694 m -5.466,1.694 v -1.764 h -0.441 l -6.24,4.249 v 2.041 h 0.51 l 6.17,-4.526 m -6.17,4.526 v -2.041 h -0.51 l -4.218,4.456 v 2.104 h 0.526 l 4.203,-4.519 m -4.203,4.519 v -2.104 h -0.526 l -2.664,5.565 v 2.143 h 0.536 l 2.654,-5.604 m -2.654,5.604 v -2.143 h -0.536 l -1.559,6.948 v 2.208 h 0.552 l 1.543,-7.013 m -1.543,7.013 v -2.208 h -0.552 l -0.112,7.573 v 2.219 h 0.555 l 0.11,-7.584 m -0.11,5.365 h -0.555 v 2.219 l 1.773,5.088 h 0.556 v -2.223 l -1.773,-5.084 m 1.773,5.084 h -0.556 v 2.223 l 3.544,4.595 h 0.559 v -2.237 l -3.547,-4.58 m 3.547,4.58 h -0.559 v 2.237 l 4.652,3.595 h 0.562 v -2.248 l -4.655,-3.585 m 4.655,3.585 h -0.562 v 2.248 l 5.429,2.096 h 0.563 v -2.252 l -5.43,-2.092 m 5.43,2.092 h -0.563 v 2.252 l 5.651,0.898 h 0.563 v -2.253 l -5.651,-0.897 m 5.088,0.897 v 2.253 h 0.563 l 7.76,-0.285 v -2.282 h -0.571 l -7.753,0.314 m 7.753,-0.314 v 2.282 h 0.571 l 4.777,-1.545 v -2.383 h -0.596 l -4.752,1.646 m 4.752,-1.646 v 2.383 h 0.596 l 4.887,-3.345 v -2.474 h -0.618 l -4.864,3.436 m 4.864,-3.436 v 2.474 h 0.618 l 4.439,-5.259 v -2.527 h -0.632 l -4.426,5.312 m 4.426,-5.312 v 2.527 h 0.632 l 3.438,-6.272 V 507.6 h -0.637 l -3.432,6.293 m 3.432,-6.293 v 2.549 h 0.637 l 1.56,-6.147 v -2.621 h -0.655 l -1.542,6.219 m 1.542,-3.598 h 0.655 v -2.621 l 0.002,-5.891 h -0.659 v 2.635 l 0.002,5.876 m -0.002,-5.876 h 0.659 v -2.635 l -1.885,-5.977 h -0.656 v 2.622 l 1.882,5.99 m -1.882,-5.99 h 0.656 v -2.622 l -4.327,-5.662 h -0.645 v 2.578 l 4.316,5.706 m -4.316,-5.706 h 0.645 v -2.578 l -6.554,-4.721 h -0.612 v 2.447 l 6.521,4.853 m -6.521,-4.853 h 0.612 v -2.447 l -7.68,-2.256 h -0.543 v 2.171 l 7.611,2.531 m -7.068,-2.531 v -2.171 h -0.543 l -3.717,0.4 v 1.77 h 0.443 l 3.817,0.001 m -3.817,-0.001 v -1.77 h -0.443 l -3.457,1.75 v 1.062 h 0.265 l 3.634,-1.042 m -3.634,1.042 v -1.062 h -0.265 l -3.231,2.668 v 0.314 h 0.078 l 3.418,-1.92 m -3.418,1.92 v -0.314 h -0.078 l -2.77,3.191 v 0.314 h 0.078 l 2.77,-3.191"
         id="path401"
         style="color-interpolation:linearRGB;fill:#000000" />
      <path
         class="write-chisel-pen"
         fill="#ffffff"
         stroke-width="4"
         __comx="858.667"
         __comy="484.461"
         __timestamp="0x17638a18bd6"
         d="m 863.914,503.743 h 0.076 v -0.303 l -0.051,-0.98 h -0.416 v 1.665 l 0.392,-0.382 m -0.392,0.382 h 0.416 v -1.665 l -0.257,-0.602 h -0.567 v 2.27 l 0.408,-0.003 m 0.159,-2.266 h -0.567 v 2.27 l 0.279,0.413 h 0.674 v -2.697 l -0.386,0.014 m 0.386,-0.014 h -0.674 v 2.697 l 8.526,1.122 h 0.687 v -2.746 l -8.538,-1.072 m 7.852,1.072 v 2.746 h 0.687 l 1.582,-0.919 v -2.104 h -0.526 l -1.742,0.277 m 1.742,-0.277 v 2.104 h 0.526 l 0.032,-0.813 v -1.475 h -0.369 l -0.19,0.184 m 0.19,1.291 h 0.369 v -1.475 l -0.356,-0.062 h -0.101 v 0.402 l 0.088,1.135 m -0.088,-1.135 h 0.101 v -0.402 l -0.443,-0.698 h -0.101 v 0.402 l 0.443,0.698"
         id="path403"
         style="color-interpolation:linearRGB;fill:#000000" />
      <path
         class="write-chisel-pen"
         fill="#ffffff"
         stroke-width="4"
         __comx="859.98"
         __comy="484.461"
         __timestamp="0x17638a18acb"
         d="m 861.432,511.683 v -0.226 h -0.057 l -0.188,-0.453 v 1.731 h 0.433 l -0.188,-1.052 m 0.188,-0.68 h -0.433 v 1.731 l 0.276,0.326 h 0.546 v -2.184 l -0.389,0.127 m -0.157,-0.127 v 2.184 h 0.546 l 0.37,-0.349 v -2.484 h -0.621 l -0.295,0.649 m 0.295,-0.649 v 2.484 h 0.621 l 5.329,-21.797 v -2.569 h -0.642 l -5.308,21.882 m 5.95,-21.882 h -0.642 v 2.569 l 4.992,10.448 h 0.631 v -2.522 l -4.98,-10.494 m 4.98,10.494 h -0.631 v 2.522 l 5.205,8.585 h 0.635 v -2.541 l -5.21,-8.567 m 5.21,8.567 h -0.635 v 2.541 l 0.897,0.155 h 0.613 v -2.452 l -0.875,-0.244 m 0.262,2.696 h 0.613 v -2.452 l -0.938,-1.19 h -0.51 v 2.039 l 0.835,1.602 m -0.835,-1.602 h 0.51 v -2.039 l -0.828,-0.789 h -0.406 v 1.623 l 0.724,1.205 m -0.724,-1.205 h 0.406 v -1.623 l -1.112,-0.44 h -0.177 v 0.707 l 0.883,1.355 m -0.883,-1.355 h 0.177 v -0.707 l -1.038,-0.634 h -0.095 v 0.379 l 0.956,0.962 m -0.956,-0.962 h 0.095 v -0.379 l -1.258,-0.44 h -0.016 v 0.063 l 1.179,0.757 m -1.179,-0.757 h 0.016 v -0.063 l -1.219,-0.399 h -0.016 v 0.063 l 1.219,0.399"
         id="path405"
         style="color-interpolation:linearRGB;fill:#000000" />
      <path
         class="write-chisel-pen"
         fill="#ffffff"
         stroke-width="4"
         __comx="818.014"
         __comy="484.461"
         __timestamp="0x17638a18393"
         d="m 820.761,488.522 v -0.176 h -0.044 l -0.987,0.194 v 0.984 h 0.246 l 0.785,-1.002 m -0.785,1.002 v -0.984 h -0.246 l -0.466,0.21 v 1.162 h 0.29 l 0.421,-0.388 m -0.421,0.388 v -1.162 h -0.29 l -0.801,0.098 v 1.365 h 0.341 l 0.75,-0.301 m -0.75,0.301 v -1.365 h -0.341 l -0.473,-0.364 v 2.492 h 0.623 l 0.191,-0.763 m -0.191,-1.729 h -0.623 v 2.492 l 14.588,5.34 h 0.7 v -2.801 l -14.665,-5.031 m 14.665,5.031 h -0.7 v 2.801 l 3.882,2.079 h 0.693 v -2.77 l -3.874,-2.109 m 3.874,2.109 h -0.693 v 2.77 l 0.885,2.199 h 0.695 v -2.781 l -0.888,-2.189 m 0.888,4.97 v -2.781 h -0.695 l -0.452,1.76 v 2.851 h 0.713 l 0.435,-1.83 m -0.435,1.83 v -2.851 h -0.713 l -2.554,2.969 v 2.896 h 0.724 l 2.543,-3.014 m -2.543,3.014 v -2.896 h -0.724 l -8.866,7.174 v 2.907 h 0.727 l 8.863,-7.186 m -9.59,4.278 v 2.907 h 0.727 l 0.275,-0.828 v -2.448 h -0.612 l -0.39,0.369 m 0.39,-0.369 v 2.448 h 0.612 l 0.421,-0.29 v -2.268 h -0.567 l -0.466,0.109 m 0.466,-0.109 v 2.268 h 0.567 l 0.389,-0.518 v -1.831 h -0.458 l -0.498,0.081 m 0.498,-0.081 v 1.831 h 0.458 l 0.513,-1.007 v -0.614 h -0.154 l -0.817,-0.209 m 0.817,0.209 v 0.614 h 0.154 l 0.554,-0.299 v -0.614 h -0.154 l -0.554,0.299"
         id="path407"
         style="color-interpolation:linearRGB;fill:#000000" />
      <path
         class="write-chisel-pen"
         fill="#ffffff"
         stroke-width="4"
         __comx="809.654"
         __comy="484.461"
         __timestamp="0x17638a180a1"
         d="m 807.82,500.779 v -0.358 h -0.09 l -0.705,-0.602 v 1.561 h 0.39 l 0.404,-0.602 m -0.794,0.602 h 0.39 v -1.561 l -1.694,-0.415 h -0.548 v 2.191 l 1.852,-0.215 m -1.304,0.215 v -2.191 h -0.548 l -0.348,-0.064 v 2.32 h 0.58 l 0.316,-0.064 m -0.316,0.064 v -2.32 h -0.58 l -0.702,-0.147 v 2.614 h 0.654 l 0.628,-0.147 m -0.628,-2.467 h -0.654 v 2.614 l 0.072,0.454 h 0.731 v -2.923 l -0.149,-0.145 m 0.149,0.145 h -0.731 v 2.923 l 8.419,0.406 h 0.734 v -2.937 l -8.423,-0.392 m 7.688,0.392 v 2.937 h 0.734 l 21.707,-2.337 v -2.851 h -0.713 l -21.728,2.25 m 21.728,-2.25 v 2.851 h 0.713 l 0.129,-0.672 v -2.106 h -0.527 l -0.315,-0.073 m 0.315,2.179 h 0.527 v -2.106 l -0.725,0.284 h -0.185 v 0.741 l 0.383,1.082 m -0.383,-1.082 h 0.185 v -0.741 l -0.554,-0.299 h -0.185 v 0.741 l 0.554,0.299"
         id="path409"
         style="color-interpolation:linearRGB;fill:#000000" />
      <path
         class="write-chisel-pen"
         fill="#ffffff"
         stroke-width="4"
         __comx="1386.991"
         __comy="605.064"
         __timestamp="0x17638ac52f3"
         d="m 1403.911,611.265 h 0.211 v -0.842 l -0.463,-1.36 h -0.398 v 1.591 l 0.65,0.611 m -0.65,-0.611 h 0.398 v -1.591 l -0.116,-0.585 h -0.444 v 1.776 l 0.162,0.4 m -0.162,-0.4 h 0.444 v -1.776 l -2.994,-2.113 h -0.577 v 2.309 l 3.127,1.581 m -2.549,-1.581 v -2.309 h -0.577 l -2.924,-0.011 v 2.33 h 0.583 l 2.918,-0.011 m -2.918,0.011 v -2.33 h -0.583 l -4.734,1.702 v 2.374 h 0.594 l 4.724,-1.746 m -4.724,1.746 v -2.374 h -0.594 l -8.911,5.505 v 2.447 h 0.612 l 8.893,-5.577 m -8.893,5.577 v -2.447 h -0.612 l -10.019,8.11 v 2.481 h 0.62 l 10.01,-8.144 m -10.01,8.144 v -2.481 h -0.62 l -5.427,6.395 v 2.497 h 0.624 l 5.422,-6.412 m -5.422,6.412 v -2.497 h -0.624 l -3.34,7.012 v 2.511 h 0.628 l 3.337,-7.025 m -3.337,7.025 v -2.511 h -0.628 l -1.391,6.896 v 2.511 h 0.628 l 1.391,-6.896 m -1.391,4.385 h -0.628 v 2.511 l 1.669,6.279 h 0.627 v -2.509 l -1.669,-6.281 m 1.669,6.281 h -0.627 v 2.509 l 4.59,5.665 h 0.628 v -2.511 l -4.59,-5.663 m 4.59,5.663 h -0.628 v 2.511 l 6.815,4.679 h 0.628 v -2.511 l -6.815,-4.679 m 6.815,4.679 h -0.628 v 2.511 l 8.485,2.832 h 0.628 v -2.511 l -8.485,-2.832 m 8.485,2.832 h -0.628 v 2.511 l 9.041,1.231 h 0.628 v -2.511 l -9.041,-1.231 m 8.414,1.231 v 2.511 h 0.628 l 12.101,-0.491 v -2.514 h -0.629 l -12.1,0.494 m 12.1,-0.494 v 2.514 h 0.629 l 6.955,-2.093 v -2.514 h -0.629 l -6.955,2.093 m 6.955,-2.093 v 2.514 h 0.629 l 6.259,-3.201 v -2.516 h -0.629 l -6.259,3.202 m 6.259,-3.202 v 2.516 h 0.629 l 5.285,-4.067 v -2.509 h -0.627 l -5.286,4.06 m 5.286,-4.06 v 2.509 h 0.627 l 4.034,-4.801 v -2.512 h -0.628 l -4.033,4.804 m 4.033,-4.804 v 2.512 h 0.628 l 1.669,-5.295 v -2.512 h -0.628 l -1.669,5.295 m 1.669,-2.782 h 0.628 v -2.512 l -0.974,-6.28 h -0.628 v 2.512 l 0.974,6.28 m -0.974,-6.28 h 0.628 v -2.512 l -2.92,-7.759 h -0.629 v 2.516 l 2.921,7.756 m -2.921,-7.756 h 0.629 v -2.516 l -5.285,-8.743 h -0.629 v 2.517 l 5.286,8.742 m -5.286,-8.742 h 0.629 v -2.517 l -7.105,-8.571 h -0.605 v 2.421 l 7.081,8.668 m -7.081,-8.668 h 0.605 v -2.421 l -7.239,-6.133 h -0.593 v 2.373 l 7.227,6.181 m -7.227,-6.181 h 0.593 v -2.373 l -6.682,-2.195 h -0.583 v 2.33 l 6.671,2.238 m -6.089,-2.238 v -2.33 h -0.583 l -3.466,0.539 v 2.237 h 0.559 l 3.489,-0.446 m -3.489,0.446 v -2.237 h -0.559 l -7.172,4.427 v 1.756 h 0.439 l 7.293,-3.946 m -7.293,3.946 v -1.756 h -0.439 l -3.512,3.742 v 0.922 h 0.23 l 3.721,-2.908 m -3.721,2.908 v -0.922 h -0.23 l -3.338,3.571 v 0.922 h 0.23 l 3.338,-3.571"
         id="path589"
         style="color-interpolation:linearRGB;fill:#000000" />
    </g>
  </g>
</svg>
