<?xml version="1.0" encoding="UTF-8" standalone="no"?>
<svg
   xmlns:dc="http://purl.org/dc/elements/1.1/"
   xmlns:cc="http://creativecommons.org/ns#"
   xmlns:rdf="http://www.w3.org/1999/02/22-rdf-syntax-ns#"
   xmlns:svg="http://www.w3.org/2000/svg"
   xmlns="http://www.w3.org/2000/svg"
   xmlns:sodipodi="http://sodipodi.sourceforge.net/DTD/sodipodi-0.dtd"
   xmlns:inkscape="http://www.inkscape.org/namespaces/inkscape"
   width="161.84933mm"
   height="86.132721mm"
   viewBox="0 0 161.84933 86.132721"
   version="1.1"
   id="svg1933"
   inkscape:version="1.0.1 (3bc2e813f5, 2020-09-07)"
   sodipodi:docname="nfa-epsilon-q2.svg">
  <defs
     id="defs1927" />
  <sodipodi:namedview
     id="base"
     pagecolor="#ffffff"
     bordercolor="#666666"
     borderopacity="1.0"
     inkscape:pageopacity="0.0"
     inkscape:pageshadow="2"
     inkscape:zoom="0.35"
     inkscape:cx="357.28557"
     inkscape:cy="334.19907"
     inkscape:document-units="mm"
     inkscape:current-layer="layer1"
     inkscape:document-rotation="0"
     showgrid="false"
     inkscape:window-width="1440"
     inkscape:window-height="773"
     inkscape:window-x="0"
     inkscape:window-y="635"
     inkscape:window-maximized="1" />
  <metadata
     id="metadata1930">
    <rdf:RDF>
      <cc:Work
         rdf:about="">
        <dc:format>image/svg+xml</dc:format>
        <dc:type
           rdf:resource="http://purl.org/dc/dcmitype/StillImage" />
        <dc:title></dc:title>
      </cc:Work>
    </rdf:RDF>
  </metadata>
  <g
     inkscape:label="Layer 1"
     inkscape:groupmode="layer"
     id="layer1"
     transform="translate(-11.301527,-59.743163)">
    <g
       id="g1850"
       style="fill:#000000"
       transform="matrix(0.26458333,0,0,0.26458333,-43.465899,-83.782975)">
      <path
         class="write-chisel-pen"
         fill="#ffffff"
         stroke-width="4"
         __comx="694.351"
         __comy="830.626"
         __timestamp="0x17638b0906e"
         d="m 706.912,839.46 h 0.064 v -0.256 l 0.038,-0.893 h -0.361 v 1.442 l 0.259,-0.294 m -0.259,0.294 h 0.361 v -1.442 l -0.595,-0.678 h -0.5 v 2.001 l 0.735,0.12 m -0.735,-0.12 h 0.5 v -2.001 l -0.751,-0.2 h -0.55 v 2.201 h 0.801 m -0.801,0 h 0.55 v -2.201 l -2.295,-0.328 h -0.615 v 2.459 l 2.359,0.07 m -1.744,-0.07 v -2.459 h -0.615 l -1.774,1.192 v 2.467 h 0.617 l 1.772,-1.201 m -1.772,1.201 v -2.467 h -0.617 l -2.88,5.088 v 2.464 h 0.616 l 2.881,-5.084 m -2.881,5.084 v -2.464 h -0.616 l -0.216,1.718 v 2.419 h 0.605 l 0.227,-1.673 m -0.227,-0.746 h -0.605 v 2.419 l 2.777,0.77 h 0.591 v -2.364 l -2.763,-0.826 m 2.172,0.826 v 2.364 h 0.591 l 2.217,-0.597 v -2.367 h -0.592 l -2.216,0.6 m 2.216,-0.6 v 2.367 h 0.592 l 1.44,-1.399 v -2.362 h -0.591 l -1.441,1.393 m 2.032,0.969 v -2.362 h -0.591 l -2.206,0.938 v 2.28 h 0.57 l 2.226,-0.857 m -2.226,0.857 v -2.28 h -0.57 l -2.322,3.012 v 2.239 h 0.56 l 2.332,-2.971 m -2.332,2.971 v -2.239 h -0.56 l -0.109,1.702 v 2.226 h 0.557 l 0.112,-1.689 m -0.112,-0.537 h -0.557 v 2.226 l 6.831,2.149 h 0.634 v -2.536 l -6.908,-1.84 m 6.274,1.84 v 2.536 h 0.634 l 1.347,-0.527 v -2.678 h -0.669 l -1.312,0.669 m 1.312,-0.669 v 2.678 h 0.669 l 2.317,-3.828 v -2.601 h -0.65 l -2.336,3.751 m 2.987,-1.15 v -2.601 h -0.65 l 0.1,0.798 v 1.803 h 0.451 0.1 m -0.1,0 v -1.803 h -0.451 l -0.776,1.296 v 1.803 h 0.451 l 0.776,-1.296"
         id="path249"
         style="color-interpolation:linearRGB;fill:#000000" />
      <path
         class="write-chisel-pen"
         fill="#ffffff"
         stroke-width="4"
         __comx="524.868"
         __comy="834.55"
         __timestamp="0x17638b08b86"
         d="m 535.431,841.815 v -0.977 h -0.244 l -0.837,-0.689 v 2.355 h 0.589 l 0.492,-0.689 m -0.492,0.689 v -2.355 h -0.589 l -4.116,2.228 v 2.486 h 0.621 l 4.084,-2.359 m -4.084,2.359 v -2.486 h -0.621 l -0.552,1.304 v 2.47 h 0.618 l 0.556,-1.289 M 530.3,843.68 h -0.618 v 2.47 l 0.561,0.67 h 0.604 v -2.414 L 530.3,843.68 m -0.057,0.726 v 2.414 h 0.604 l 3.322,-0.905 v -2.399 h -0.6 l -3.326,0.89 m 3.926,1.509 v -2.399 h -0.6 l -2.882,4.084 v 2.407 h 0.602 l 2.88,-4.093 m -2.88,4.093 V 847.6 h -0.602 l -1.663,4.186 v 2.412 h 0.603 l 1.661,-4.191 m -1.661,1.779 h -0.603 v 2.412 l 0.112,2.588 h 0.601 v -2.404 l -0.11,-2.597 m 0.11,2.597 h -0.601 v 2.404 l 0.995,1.205 h 0.605 v -2.421 l -0.999,-1.188 m 0.999,1.188 h -0.605 v 2.421 l 3.531,1.155 h 0.634 v -2.537 l -3.56,-1.039 m 3.56,1.039 h -0.634 v 2.537 l 3.635,0.084 h 0.676 v -2.706 l -3.678,0.084 m 3.001,-0.084 v 2.706 h 0.676 l 0.889,-0.09 v -2.726 h -0.682 l -0.884,0.11 m 0.884,-0.11 v 2.726 h 0.682 l 0.776,-0.196 v -2.732 h -0.683 l -0.775,0.203 m 0.775,-0.203 v 2.732 h 0.683 l 0.333,-0.199 v -2.734 h -0.683 l -0.332,0.2 m 0.332,-0.2 v 2.734 h 0.683 l 0.332,-0.199 v -2.734 h -0.683 l -0.332,0.199 m 0.332,-0.199 v 2.734 h 0.683 l 0.407,-0.247 v -2.44 h -0.61 l -0.48,-0.047"
         id="path251"
         style="color-interpolation:linearRGB;fill:#000000" />
      <path
         class="write-chisel-pen"
         fill="#ffffff"
         stroke-width="4"
         __comx="365.015"
         __comy="841.775"
         __timestamp="0x17638b0878d"
         d="m 376.5,850.017 h 0.057 v -0.229 l 0.096,-0.685 h -0.25 v 1.001 l 0.096,-0.086 m -0.096,0.086 h 0.25 v -1.001 l 0.08,-0.82 h -0.411 v 1.644 l 0.08,0.177 m -0.08,-0.177 h 0.411 v -1.644 l -0.06,-0.504 h -0.513 v 2.053 l 0.162,0.095 m -0.162,-0.095 h 0.513 v -2.053 l -0.262,-0.48 h -0.654 v 2.614 l 0.403,-0.081 m 0.251,0.081 v -2.614 h -0.654 l -3.114,0.752 v 2.706 h 0.676 l 3.091,-0.844 m -3.091,0.844 v -2.706 h -0.676 l -2.327,2.193 v 2.707 h 0.677 l 2.327,-2.195 m -2.327,2.195 v -2.707 h -0.677 l -2.31,4.256 v 2.572 h 0.643 l 2.344,-4.121 m -2.344,1.549 h -0.643 v 2.572 l 1.792,1.021 h 0.605 v -2.419 l -1.754,-1.173 m 1.754,1.173 h -0.605 v 2.419 l 2.219,-0.011 h 0.599 v -2.397 l -2.213,-0.011 m 1.614,0.011 v 2.397 h 0.599 l 0.894,-0.769 v -2.454 h -0.613 l -0.879,0.826 m 1.493,1.627 v -2.454 h -0.613 l -0.889,-0.008 v 2.47 h 0.618 l 0.884,-0.008 m -0.884,0.008 v -2.47 h -0.618 l -2.543,3.212 v 2.428 h 0.607 l 2.554,-3.17 m -2.554,3.17 v -2.428 h -0.607 l -1.217,4.096 v 2.412 h 0.603 l 1.221,-4.081 m -1.221,1.668 h -0.603 v 2.412 l 0.555,1.692 h 0.601 v -2.405 l -0.553,-1.699 m 0.553,1.699 h -0.601 v 2.405 l 2.101,1.313 h 0.61 v -2.438 l -2.109,-1.28 m 2.109,1.28 h -0.61 v 2.438 l 4.621,0.428 h 0.674 v -2.697 l -4.686,-0.17 m 4.012,0.17 v 2.697 h 0.674 l 4.226,-0.736 v -2.82 h -0.705 l -4.195,0.86 m 4.195,-0.86 v 2.82 h 0.705 l 0.443,-0.1 v -2.82 h -0.705 l -0.443,0.1 m 0.443,-0.1 v 2.82 h 0.705 l 0.332,-0.1 v -2.82 h -0.705 l -0.332,0.1 m 0.332,-0.1 v 2.82 h 0.705 l 0.538,-0.165 v -2.689 h -0.672 l -0.571,0.034 m 0.571,-0.034 v 2.689 h 0.672 l 0.284,-0.294 v -2.3 h -0.575 l -0.381,-0.095"
         id="path253"
         style="color-interpolation:linearRGB;fill:#000000" />
      <path
         class="write-chisel-pen"
         fill="#ffffff"
         stroke-width="4"
         __comx="694.063"
         __comy="735.242"
         __timestamp="0x17638b08280"
         d="m 705.566,743.537 h 0.318 v -1.273 l -0.34,-0.611 h -0.524 v 2.096 l 0.546,-0.212 m -0.022,0.212 v -2.096 h -0.524 l -4.067,0.287 v 2.718 h 0.68 l 3.911,-0.909 m -3.911,0.909 v -2.718 h -0.68 l -0.445,0.591 v 2.732 h 0.683 l 0.441,-0.605 m -0.441,0.605 v -2.732 h -0.683 l -3.767,4.985 v 2.734 h 0.683 l 3.767,-4.987 m -3.767,4.987 v -2.734 h -0.683 l -0.443,2.095 v 2.732 h 0.683 l 0.443,-2.093 m -0.443,-0.639 h -0.683 v 2.732 l 0.665,2.392 h 0.682 v -2.729 l -0.664,-2.395 m 0.664,2.395 h -0.682 v 2.729 l 1.884,1.695 h 0.682 v -2.729 l -1.884,-1.695 m 1.884,1.695 h -0.682 v 2.729 l 4.874,1.402 h 0.685 v -2.74 l -4.877,-1.391 m 4.192,1.391 v 2.74 h 0.685 l 7.423,-0.403 v -2.732 h -0.683 l -7.425,0.395 m 8.108,2.337 v -2.732 h -0.683 l -0.593,0.831 v 1.269 h 0.317 l 0.958,0.632 m -0.958,-0.632 v -1.269 h -0.317 l -1.108,0.598 v 1.269 h 0.317 l 1.108,-0.598"
         id="path255"
         style="color-interpolation:linearRGB;fill:#000000" />
      <path
         class="write-chisel-pen"
         fill="#ffffff"
         stroke-width="4"
         __comx="522.883"
         __comy="732.022"
         __timestamp="0x17638b07ea8"
         d="m 526.013,740.807 h 0.2 v -0.801 l -0.258,-0.697 h -0.349 v 1.396 l 0.407,0.101 m -0.407,-0.101 h 0.349 v -1.396 l -0.183,-0.456 h -0.428 v 1.711 l 0.261,0.142 m -0.261,-0.142 h 0.428 v -1.711 l -0.475,-3.108 h -0.586 v 2.343 l 0.633,2.476 m -0.047,-4.819 h -0.586 v 2.343 l 0.992,8.496 h 0.596 v -2.383 l -1.002,-8.456 m 1.002,8.456 h -0.596 v 2.383 l 1.55,5.29 h 0.598 v -2.392 l -1.552,-5.281 m 1.552,5.281 h -0.598 v 2.392 l 0.765,0.145 h 0.621 v -2.482 l -0.787,-0.054 m 0.167,2.537 h 0.621 v -2.482 l -0.006,-1.074 h -0.609 v 2.436 l -0.006,1.12 m 0.006,-3.556 v 2.436 h 0.609 l 1.439,-1.5 v -2.428 h -0.607 l -1.441,1.492 m 1.441,-1.492 v 2.428 h 0.607 l 2.761,-1.133 v -2.355 h -0.589 l -2.779,1.06 m 3.368,-1.06 h -0.589 v 2.355 l 1.996,0.094 h 0.586 v -2.344 l -1.993,-0.105 m 1.993,0.105 h -0.586 v 2.344 l 3.325,1.592 h 0.584 v -2.337 l -3.323,-1.599 m 3.323,1.599 h -0.584 v 2.337 l 2.21,2.319 h 0.597 v -2.388 l -2.222,-2.268 m 2.222,2.268 h -0.597 v 2.388 l 0.648,1.964 h 0.631 v -2.526 l -0.682,-1.826 m 0.682,4.352 v -2.526 h -0.631 l -2.236,2.414 v 2.684 h 0.671 l 2.196,-2.572 m -2.196,2.572 v -2.684 h -0.671 l -3.326,1.687 v 2.7 h 0.675 l 3.322,-1.703 m -3.322,1.703 v -2.7 h -0.675 l -6.149,1.022 v 2.252 h 0.563 l 6.261,-0.574 m -6.824,0.574 h 0.563 v -2.252 l -0.726,-0.052 h -0.44 v 1.758 l 0.603,0.546 m -0.603,-0.546 h 0.44 v -1.758 l -0.455,-0.11 H 527.9 v 0.781 l 0.21,1.087 m -0.21,-1.868 v 0.781 h 0.195 l 0.111,-0.598 v -0.781 h -0.195 l -0.111,0.598"
         id="path257"
         style="color-interpolation:linearRGB;fill:#000000" />
      <path
         class="write-chisel-pen"
         fill="#ffffff"
         stroke-width="4"
         __comx="359.553"
         __comy="744.867"
         __timestamp="0x17638b07962"
         d="m 370.691,753.756 v -1.169 h -0.292 l -0.467,-0.537 v 2.243 h 0.561 l 0.198,-0.537 m -0.759,0.537 h 0.561 v -2.243 l -3.961,-0.411 h -0.617 v 2.467 l 4.017,0.187 m -3.4,-0.187 v -2.467 h -0.617 l -2.547,1.104 v 2.454 h 0.613 l 2.55,-1.09 m -2.55,1.09 v -2.454 h -0.613 l -2.212,2.41 v 2.419 h 0.605 l 2.22,-2.376 m -2.22,2.376 v -2.419 h -0.605 l -1.213,4.013 v 2.371 h 0.593 l 1.225,-3.965 m -1.225,1.594 h -0.593 v 2.371 l 0.447,2.276 h 0.584 v -2.336 l -0.439,-2.311 m 0.439,2.311 h -0.584 v 2.336 l 1.555,1.581 h 0.577 v -2.307 l -1.548,-1.61 m 1.548,1.61 h -0.577 v 2.307 l 3.545,0.699 h 0.577 v -2.309 l -3.546,-0.697 m 2.969,0.697 v 2.309 h 0.577 l 2.224,-1.066 v -2.371 h -0.593 l -2.208,1.128 m 2.208,-1.128 v 2.371 h 0.593 l 1.777,-2.578 v -2.4 h -0.6 l -1.769,2.608 m 1.769,-2.608 v 2.4 h 0.6 l 1.215,-6.499 v -2.366 h -0.591 l -1.223,6.465 m 1.815,-6.465 h -0.591 v 2.366 l 1.857,4.892 h 0.644 v -2.577 l -1.91,-4.681 m 1.91,4.681 h -0.644 v 2.577 l 1.55,1.9 h 0.647 v -2.587 l -1.552,-1.89 m 1.552,1.89 H 374.1 v 2.587 l 4.113,0.943 h 0.619 v -2.477 l -4.086,-1.052 m 3.467,1.052 v 2.477 h 0.619 l 0.33,-0.554 v -1.569 h -0.392 l -0.557,-0.355"
         id="path259"
         style="color-interpolation:linearRGB;fill:#000000" />
      <path
         class="write-chisel-pen"
         fill="#ffffff"
         stroke-width="4"
         __comx="688.819"
         __comy="655.442"
         __timestamp="0x17638b07160"
         d="m 696.903,664.338 h 0.359 v -1.436 l -0.244,-3.046 h -0.536 v 2.143 l 0.421,2.339 m -0.421,-2.339 h 0.536 v -2.143 l 0.022,-0.388 h -0.58 v 2.322 l 0.022,0.21 m 0.558,-0.21 v -2.322 h -0.58 l -3.04,4.195 v 2.707 h 0.677 l 2.944,-4.581 m -2.944,4.581 v -2.707 h -0.677 l -2.324,5.796 v 2.684 h 0.671 l 2.33,-5.772 m -2.33,3.088 h -0.671 v 2.684 l 0.231,1.56 h 0.653 v -2.612 l -0.213,-1.631 m 0.213,1.631 h -0.653 v 2.612 l 2.112,0.97 h 0.639 v -2.557 l -2.098,-1.025 m 1.459,1.025 v 2.557 h 0.639 l 4.323,-0.691 v -2.572 h -0.643 l -4.319,0.705 m 4.962,1.866 v -2.572 h -0.643 l -1.774,3.186 v 2.582 h 0.645 l 1.771,-3.196 m -1.771,3.196 v -2.582 h -0.645 l -0.661,3.206 v 2.552 h 0.638 l 0.669,-3.176 m -0.669,0.624 h -0.638 v 2.552 l 6.406,1.676 h 0.678 v -2.714 L 695.96,677.8 m 5.768,1.515 v 2.714 h 0.678 l 4.135,-0.7 v -2.112 h -0.528 l -4.286,0.098 m 4.286,2.014 h 0.528 v -2.112 l -0.976,0.601 h -0.127 v 0.51 l 0.575,1 m -0.575,-1 h 0.127 v -0.51 l -1.33,-0.199 h -0.127 v 0.51 l 1.33,0.199"
         id="path261"
         style="color-interpolation:linearRGB;fill:#000000" />
      <path
         class="write-chisel-pen"
         fill="#ffffff"
         stroke-width="4"
         __comx="523.947"
         __comy="655.099"
         __timestamp="0x17638b06ca7"
         d="m 534.536,662.402 h 0.438 v -1.754 l -1.695,-0.51 h -0.594 v 2.374 l 1.85,-0.111 m -1.85,0.111 h 0.594 v -2.374 l -0.539,-0.161 h -0.624 v 2.497 l 0.569,0.038 m -0.569,-0.038 h 0.624 v -2.497 l -1.311,-0.175 h -0.662 v 2.648 l 1.348,0.025 m -0.686,-0.025 v -2.648 h -0.662 l -0.987,6.624 v 2.564 h 0.641 l 1.008,-6.54 m -1.008,3.976 h -0.641 v 2.564 l 0.784,1.961 h 0.624 v -2.497 l -0.767,-2.028 m 0.767,2.028 h -0.624 v 2.497 l 1.68,1.224 h 0.588 v -2.353 l -1.644,-1.368 m 1.644,1.368 h -0.588 v 2.353 l 2.555,0.371 h 0.575 v -2.298 l -2.542,-0.426 m 2.542,2.725 v -2.298 h -0.575 l -2.672,1.047 v 2.399 h 0.6 l 2.647,-1.147 m -2.647,1.147 v -2.399 h -0.6 l -2.325,2.2 v 2.386 h 0.597 l 2.328,-2.188 m -2.328,2.188 v -2.386 h -0.597 l -2.214,4.495 v 2.371 h 0.593 l 2.218,-4.48 m -2.218,2.109 h -0.593 v 2.371 l 0.442,1.402 h 0.596 v -2.383 l -0.445,-1.39 m 0.445,1.39 h -0.596 v 2.383 l 3.094,1.13 h 0.613 v -2.45 l -3.111,-1.063 m 3.111,1.063 h -0.613 v 2.45 l 7.174,0.91 h 0.669 v -2.675 l -7.23,-0.686 m 7.23,0.686 h -0.669 v 2.675 l 0.66,0.019 h 0.678 v -2.712 l -0.67,0.019 m 0.67,-0.019 h -0.678 v 2.712 l 0.33,0.009 h 0.682 v -2.729 l -0.334,0.009 m 0.334,-0.009 h -0.682 v 2.729 l 0.332,0.003 h 0.684 V 681.1 l -0.333,0.003"
         id="path263"
         style="color-interpolation:linearRGB;fill:#000000" />
      <path
         class="write-chisel-pen"
         fill="#ffffff"
         stroke-width="4"
         __comx="354.928"
         __comy="662.789"
         __timestamp="0x17638b067f7"
         d="m 366.925,671.04 h 0.369 v -1.477 l -0.69,-0.94 h -0.54 v 2.16 l 0.861,0.257 m -0.321,-0.257 v -2.16 h -0.54 l -0.458,-0.06 v 2.28 h 0.57 l 0.428,-0.06 m -0.428,0.06 v -2.28 h -0.57 l -1.78,0.471 v 2.336 h 0.584 l 1.766,-0.526 m -1.766,0.526 v -2.336 h -0.584 l -1.661,1.997 v 2.33 h 0.583 l 1.663,-1.992 m -1.663,1.992 v -2.33 h -0.583 l -0.775,2.994 v 2.325 h 0.581 l 0.776,-2.989 m -0.776,0.664 h -0.581 v 2.325 l 0.445,2.288 h 0.579 v -2.314 l -0.442,-2.299 m 0.442,2.299 h -0.579 v 2.314 l 1.775,0.787 h 0.573 v -2.293 l -1.77,-0.809 m 1.197,0.809 v 2.293 h 0.573 l 2.219,-0.389 v -2.313 h -0.578 l -2.214,0.409 m 2.792,1.904 v -2.313 h -0.578 l -2.014,0.222 v 2.467 h 0.617 l 1.975,-0.376 m -1.975,0.376 v -2.467 h -0.617 l -2.213,2.704 v 2.443 h 0.611 l 2.219,-2.681 m -2.219,2.681 v -2.443 h -0.611 l -1.55,3.995 v 2.431 h 0.608 l 1.553,-3.983 m -1.553,1.552 h -0.608 v 2.431 l 0.334,1.89 h 0.605 v -2.421 l -0.331,-1.9 m 0.331,1.9 h -0.605 v 2.421 l 2.104,1.001 h 0.607 v -2.428 l -2.106,-0.994 m 1.499,0.994 v 2.428 h 0.607 l 6.632,-0.664 v -2.297 h -0.574 l -6.665,0.533 m 6.665,-0.533 v 2.297 h 0.574 l 0.085,-1.044 v -1.205 h -0.301 l -0.358,-0.047 m 0.358,1.252 h 0.301 v -1.205 l -0.111,-0.399 h -0.301 v 1.205 l 0.111,0.399"
         id="path265"
         style="color-interpolation:linearRGB;fill:#000000" />
      <path
         class="write-chisel-pen"
         fill="#ffffff"
         stroke-width="4"
         __comx="684.697"
         __comy="546.941"
         __timestamp="0x17638b05fd7"
         d="m 697.303,554.177 v 0.891 h 0.223 l 0.494,0.445 v -2.18 h -0.545 l -0.171,0.844 m 0.716,1.336 v -2.18 h -0.545 l -0.541,-0.191 v 2.961 h 0.74 l 0.346,-0.59 m -0.346,0.59 v -2.961 h -0.74 l -2.438,0.895 v 2.965 h 0.741 l 2.437,-0.9 m -2.437,0.9 v -2.965 h -0.741 l -2.546,2.403 v 2.946 h 0.736 l 2.551,-2.384 m -2.551,2.384 v -2.946 h -0.736 l -2.101,3.908 v 2.909 h 0.727 l 2.11,-3.871 m -2.11,3.871 v -2.909 h -0.727 L 689.2,564.9 v 2.78 h 0.695 l 0.681,-4.423 m -0.681,1.643 H 689.2 v 2.78 l 1.335,2.371 h 0.684 v -2.735 l -1.324,-2.415 m 1.324,2.415 h -0.684 v 2.735 l 2.438,1.796 h 0.684 v -2.737 l -2.438,-1.794 m 2.438,1.794 h -0.684 v 2.737 l 3.207,0.523 h 0.696 v -2.786 l -3.219,-0.474 m 2.523,0.474 v 2.786 h 0.696 l 3.317,-1.026 v -2.728 h -0.682 l -3.331,0.968 m 3.331,1.759 h 0.682 v -2.728 l -0.565,0.287 h -0.439 v 1.755 l 0.322,0.685 m -0.322,-0.685 h 0.439 v -1.755 l -0.665,-0.1 h -0.439 v 1.755 l 0.665,0.1"
         id="path267"
         style="color-interpolation:linearRGB;fill:#000000" />
      <path
         class="write-chisel-pen"
         fill="#ffffff"
         stroke-width="4"
         __comx="521.04"
         __comy="540.474"
         __timestamp="0x17638b05ac9"
         d="m 520.763,544.222 h 0.285 v -1.139 l 0.08,-0.62 h -0.445 v 1.78 l 0.08,-0.022 m 0.365,-1.759 h -0.445 v 1.78 l 0.611,1.113 h 0.553 v -2.212 l -0.719,-0.682 m 0.719,0.682 h -0.553 v 2.212 l 1.97,5.88 h 0.601 v -2.404 l -2.018,-5.688 m 2.018,5.688 h -0.601 v 2.404 l 1.432,11.301 h 0.617 v -2.469 l -1.449,-11.236 m 1.449,11.236 h -0.617 v 2.469 l 1.771,6.49 h 0.621 v -2.486 l -1.775,-6.474 m 1.153,6.474 v 2.486 h 0.621 l 1.67,-5.253 v -2.551 h -0.638 l -1.654,5.318 m 1.654,-5.318 v 2.551 h 0.638 l 1.216,-1.606 v -2.529 h -0.632 l -1.222,1.585 m 1.222,-1.585 v 2.529 h 0.632 l 3.317,-1.623 v -2.474 h -0.618 l -3.331,1.568 m 3.949,-1.568 h -0.618 v 2.474 l 2.993,1.09 h 0.615 v -2.46 l -2.99,-1.104 m 2.99,1.104 h -0.615 v 2.46 l 2.438,2.19 h 0.613 v -2.454 l -2.437,-2.197 m 2.437,2.197 h -0.613 v 2.454 l 2.436,4.495 h 0.617 v -2.469 l -2.44,-4.48 m 2.44,4.48 h -0.617 v 2.469 l 0.203,2.966 h 0.654 v -2.617 l -0.24,-2.818 m 0.24,5.435 v -2.617 h -0.654 l -1.352,2.305 v 2.793 h 0.698 l 1.308,-2.481 m -1.308,2.481 v -2.793 h -0.698 l -3.675,2.12 v 2.94 h 0.735 l 3.638,-2.267 m -3.638,2.267 v -2.94 h -0.735 l -5.098,1.193 v 2.947 h 0.737 l 5.096,-1.2 m -5.833,1.2 h 0.737 v -2.947 l -4.545,-0.19 h -0.732 v 2.927 l 4.541,0.209 m -4.541,-0.209 h 0.732 v -2.927 l -2.925,-1.617 h -0.643 v 2.572 l 2.836,1.973 m -2.836,-1.973 h 0.643 v -2.572 l -0.032,-0.568 h -0.578 v 2.313 l -0.032,0.828 m 0.032,-3.14 v 2.313 h 0.578 l 0.287,-0.978 v -1.952 h -0.488 l -0.378,0.618 m 0.378,-0.618 v 1.952 h 0.488 l 0.719,-0.924 v -1.501 h -0.375 l -0.832,0.472 m 0.832,-0.472 v 1.501 h 0.375 l 0.836,-1.144 v -0.211 h -0.053 l -1.158,-0.147 m 1.211,0.147 h -0.053 v 0.211 h 0.997 0.053 v -0.211 h -0.997"
         id="path269"
         style="color-interpolation:linearRGB;fill:#000000" />
      <path
         class="write-chisel-pen"
         fill="#ffffff"
         stroke-width="4"
         __comx="356.544"
         __comy="559.254"
         __timestamp="0x17638b0558d"
         d="m 368.487,568.283 h 0.349 v -1.394 l -0.156,-0.904 h -0.701 v 2.804 l 0.509,-0.505 m -0.509,0.505 h 0.701 v -2.804 l -3.544,-0.108 h -0.705 v 2.82 l 3.548,0.092 m -2.843,-0.092 v -2.82 h -0.705 l -1.992,0.906 v 2.804 h 0.701 l 1.997,-0.889 m -1.997,0.889 v -2.804 h -0.701 l -2.098,2.621 v 2.748 h 0.687 l 2.112,-2.565 m -2.112,2.565 v -2.748 h -0.687 l -1.763,5.524 v 2.67 h 0.667 l 1.783,-5.446 m -1.783,2.776 h -0.667 v 2.67 l 0.336,2.18 h 0.661 v -2.643 l -0.329,-2.207 m 0.329,2.207 h -0.661 v 2.643 l 1.556,1.179 h 0.652 v -2.608 l -1.547,-1.214 m 1.547,1.214 h -0.652 v 2.608 l 2.44,0.189 h 0.647 v -2.587 l -2.435,-0.21 m 1.788,0.21 v 2.587 h 0.647 l 2.769,-1.698 v -2.582 h -0.645 l -2.771,1.693 m 2.771,-1.693 v 2.582 h 0.645 l 3.54,-4.811 v -2.534 h -0.634 l -3.552,4.763 m 3.552,-4.763 v 2.534 h 0.634 l 1.441,-3.889 v -2.534 h -0.634 l -1.441,3.889 m 2.074,-3.889 h -0.634 v 2.534 l 0.219,2.9 h 0.638 v -2.551 l -0.224,-2.884 m 0.224,2.884 h -0.638 v 2.551 l 1.322,3.123 h 0.654 v -2.614 l -1.338,-3.06 m 1.338,3.06 h -0.654 v 2.614 l 0.995,0.208 h 0.658 v -2.632 l -0.999,-0.191 m 0.341,0.191 v 2.632 h 0.658 l 0.332,-0.1 v -2.632 h -0.658 l -0.332,0.1 m 0.332,-0.1 v 2.632 h 0.658 l 0.314,-0.273 v -2.484 h -0.621 l -0.351,0.126"
         id="path271"
         style="color-interpolation:linearRGB;fill:#000000" />
      <path
         class="write-chisel-pen"
         fill="#ffffff"
         stroke-width="4"
         __comx="323.28"
         __comy="788.287"
         __timestamp="0x17638afe5e0"
         d="m 325.239,816.249 v -0.106 h -0.026 l -0.527,-0.922 v 2.549 h 0.637 l -0.084,-1.521 m 0.084,-1.028 h -0.637 v 2.549 l 4.646,7.609 h 0.652 v -2.609 l -4.661,-7.549 m 4.661,7.549 h -0.652 v 2.609 l 2.766,2.608 h 0.66 v -2.64 l -2.774,-2.578 m 2.114,5.217 h 0.66 v -2.64 l -6.298,-10.943 h -0.696 v 2.786 l 6.334,10.797 m -6.334,-13.582 v 2.786 h 0.696 l 0.233,-1.252 v -2.874 h -0.719 l -0.211,1.341 m 0.211,1.534 h 0.719 v -2.874 l -1.219,-2.192 h -0.717 v 2.87 l 1.218,2.196 m -1.218,-5.066 v 2.87 h 0.717 l 16.399,-3.091 v -2.871 h -0.718 l -16.399,3.092 m 17.117,-0.221 v -2.871 h -0.718 l -0.221,0.747 v 1.977 h 0.494 l 0.444,0.148 m -0.444,-0.148 v -1.977 h -0.494 l -0.161,1.283 v 0.608 h 0.152 l 0.503,0.086 m -0.503,-0.086 v -0.608 h -0.152 l -0.776,0.598 v 0.608 h 0.152 l 0.776,-0.598"
         id="path273"
         style="color-interpolation:linearRGB;fill:#000000" />
      <path
         class="write-chisel-pen"
         fill="#ffffff"
         stroke-width="4"
         __comx="361.497"
         __comy="788.287"
         __timestamp="0x17638afdd93"
         d="m 324.008,814.243 h 0.22 v -0.881 l 0.083,-0.633 h -0.387 v 1.549 l 0.083,-0.035 m 0.304,-1.514 h -0.387 v 1.549 l 0.234,0.695 h 0.585 v -2.339 l -0.431,0.096 m 0.431,-0.096 h -0.585 v 2.339 l 4.843,3.721 h 0.65 v -2.601 l -4.908,-3.459 m 4.908,3.459 h -0.65 v 2.601 l 9.082,4.702 h 0.658 v -2.632 l -9.09,-4.672 m 9.09,4.672 h -0.658 v 2.632 l 10.745,4.199 h 0.663 v -2.652 l -10.751,-4.178 m 10.751,4.178 h -0.663 v 2.652 l 10.526,1.496 h 0.663 v -2.652 l -10.526,-1.496 m 10.526,1.496 h -0.663 v 2.652 l 17.84,0.395 h 0.661 v -2.645 l -17.838,-0.403 m 17.177,0.403 v 2.645 h 0.661 l 14.513,-3.001 v -2.625 h -0.656 l -14.518,2.982 m 14.518,-2.982 v 2.625 h 0.656 l 7.642,-0.713 v -2.595 h -0.649 l -7.649,0.683 m 7.649,-0.683 v 2.595 h 0.649 l 7.091,-2.295 v -2.591 h -0.648 l -7.092,2.292 m 7.092,-2.292 v 2.591 h 0.648 l 3.989,-2.192 v -2.595 h -0.649 l -3.989,2.196 m 3.989,-2.196 v 2.595 h 0.649 l 7.979,-6.476 v -2.606 h -0.652 l -7.976,6.488 m 8.628,-3.882 v -2.606 h -0.652 l -0.58,0.882 v 1.042 h 0.261 l 0.971,0.682 m -0.971,-0.682 v -1.042 h -0.261 l -0.887,0.199 v 1.042 h 0.261 l 0.887,-0.199"
         id="path275"
         style="color-interpolation:linearRGB;fill:#000000" />
      <path
         class="write-chisel-pen"
         fill="#ffffff"
         stroke-width="4"
         __comx="397.278"
         __comy="788.287"
         __timestamp="0x17638afd437"
         d="m 400.557,785.047 h 0.032 v -0.127 l 0.157,-1.028 H 400.4 v 1.385 l 0.157,-0.23 m -0.157,0.23 h 0.346 v -1.385 l -0.047,-0.553 h -0.473 v 1.893 l 0.174,0.045 m 0.299,-1.938 h -0.473 v 1.893 l 0.444,0.442 h 0.694 v -2.777 l -0.664,0.442 m -0.03,-0.442 v 2.777 h 0.694 l 6.872,-0.091 v -2.793 h -0.698 l -6.868,0.108 m 6.868,-0.108 v 2.793 h 0.698 l 6.097,-1.285 v -2.816 h -0.704 l -6.091,1.308 m 6.091,1.508 h 0.704 v -2.816 l -4.297,-3.489 h -0.753 v 3.012 l 4.346,3.292 m -4.346,-3.292 h 0.753 v -3.012 l -8.978,-9.564 h -0.748 v 2.993 l 8.973,9.583 m -8.225,-12.576 h -0.748 v 2.993 l 0.172,0.354 h 0.626 v -2.504 l -0.05,-0.843 m 0.05,0.843 h -0.626 v 2.504 l 0.144,0.266 h 0.56 v -2.239 l -0.078,-0.531 m 0.078,0.531 h -0.56 v 2.239 l 0.185,0.301 h 0.411 v -1.644 l -0.036,-0.896 m 0.036,2.54 v -1.644 h -0.411 l 0.125,0.997 v 0.647 h 0.162 0.125 m -0.125,0 v -0.647 h -0.162 l -0.222,0.499 v 0.647 h 0.162 l 0.222,-0.499"
         id="path277"
         style="color-interpolation:linearRGB;fill:#000000" />
      <path
         class="write-chisel-pen"
         fill="#ffffff"
         stroke-width="4"
         __comx="355.556"
         __comy="788.287"
         __timestamp="0x17638afd04d"
         d="m 322.851,784.621 h 0.318 v -1.271 l -0.059,-0.506 h -0.421 v 1.686 l 0.163,0.092 m -0.163,-0.092 h 0.421 v -1.686 l 0.064,-0.555 h -0.549 v 2.197 l 0.064,0.043 m -0.064,-2.241 v 2.197 h 0.549 l 3.264,-2.09 v -2.604 h -0.651 l -3.162,2.497 m 3.162,-2.497 v 2.604 h 0.651 l 16.51,-7.577 v -2.608 h -0.652 l -16.509,7.581 m 16.509,-7.581 v 2.608 h 0.652 l 7.312,-1.998 v -2.601 h -0.65 l -7.314,1.991 m 7.314,-1.991 v 2.601 h 0.65 l 9.971,-0.105 v -2.59 h -0.647 l -9.974,0.094 m 10.621,-0.094 h -0.647 v 2.59 l 15.071,1.192 h 0.645 v -2.58 l -15.068,-1.202 m 15.068,1.202 h -0.645 v 2.58 l 24.818,4.395 h 0.649 v -2.595 l -24.822,-4.38 m 24.822,4.38 h -0.649 v 2.595 l 8.477,2.967 h 0.537 v -2.147 l -8.365,-3.415 m 7.828,5.562 h 0.537 v -2.147 l -0.528,0.042 h -0.366 v 1.464 l 0.358,0.641 m -0.358,-0.641 h 0.366 v -1.464 l -0.835,0.084 h -0.025 v 0.101 l 0.494,1.28 m -0.494,-1.28 h 0.025 v -0.101 l -0.886,-0.798 h -0.025 v 0.101 l 0.886,0.798"
         id="path279"
         style="color-interpolation:linearRGB;fill:#000000" />
      <path
         class="write-chisel-pen"
         fill="#ffffff"
         stroke-width="4"
         __comx="777.36"
         __comy="599.237"
         __timestamp="0x17638af7943"
         d="m 779.495,606.678 h 0.05 v -0.2 l -0.249,-0.976 h -0.438 v 1.754 l 0.638,-0.578 m -0.638,0.578 h 0.438 v -1.754 l -0.279,-0.413 h -0.545 v 2.18 l 0.386,-0.014 m -0.386,0.014 h 0.545 v -2.18 l -0.173,-0.494 h -0.643 v 2.57 l 0.27,0.104 m -0.27,-2.674 v 2.57 h 0.643 l 3.688,-0.374 v -2.818 h -0.705 l -3.626,0.623 m 4.33,-0.623 h -0.705 v 2.818 l 4.766,1.59 h 0.702 v -2.808 l -4.763,-1.601 m 4.763,1.601 h -0.702 v 2.808 l 5.43,3.187 h 0.7 v -2.799 l -5.428,-3.196 m 5.428,3.196 h -0.7 v 2.799 l 2.327,2.292 h 0.699 v -2.796 l -2.326,-2.295 m 2.326,2.295 h -0.699 v 2.796 l 1.434,2.818 h 0.712 v -2.848 l -1.447,-2.766 m 1.447,5.614 v -2.848 h -0.712 l -0.022,2.304 v 3.027 h 0.757 l -0.022,-2.483 m 0.022,2.483 v -3.027 h -0.757 l -1.228,2.359 v 3.096 h 0.774 l 1.21,-2.428 m -1.21,2.428 v -3.096 h -0.774 l -2.886,2.57 v 3.141 h 0.785 l 2.875,-2.615 m -2.875,2.615 v -3.141 h -0.785 l -6.54,3.777 v 3.166 h 0.791 l 6.534,-3.802 m -6.534,3.802 v -3.166 h -0.791 l -2.546,0.709 v 3.145 h 0.786 l 2.551,-0.687 m -3.337,0.687 h 0.786 v -3.145 l -1.579,-0.286 h -0.73 v 2.919 l 1.523,0.512 m -1.523,-0.512 h 0.73 v -2.919 l -0.496,-0.088 h -0.624 v 2.496 l 0.39,0.511 m 0.234,-0.511 v -2.496 h -0.624 l 0.017,1.009 v 1.474 h 0.369 l 0.238,0.012 m -0.238,-0.012 v -1.474 h -0.369 l 0.057,1.37 v 0.13 h 0.033 l 0.279,-0.026 m -0.279,0.026 v -0.13 h -0.033 l -0.332,0.997 v 0.13 h 0.033 l 0.332,-0.997"
         id="path281"
         style="color-interpolation:linearRGB;fill:#000000" />
      <path
         class="write-chisel-pen"
         fill="#ffffff"
         stroke-width="4"
         __comx="772.831"
         __comy="599.083"
         __timestamp="0x17638af774f"
         d="m 782.043,608.57 v 0.205 h 0.051 l 0.225,0.156 v -1.115 h -0.279 l 0.003,0.754 m -0.003,0.361 h 0.279 v -1.115 l 0.078,-0.611 h -0.435 v 1.74 l 0.078,-0.013 m -0.078,0.013 h 0.435 v -1.74 l 0.067,-1.464 h -0.568 v 2.273 l 0.067,0.93 m -0.067,-0.93 h 0.568 v -2.273 l -0.2,-0.388 h -0.613 v 2.452 l 0.244,0.21 m 0.369,-2.662 h -0.613 v 2.452 l 1.799,14.355 h 0.561 v -2.243 l -1.747,-14.564 m 1.186,14.564 v 2.243 h 0.561 l -0.104,-1.755 v -0.528 h -0.132 l -0.325,0.04 m 0.325,0.488 h 0.132 v -0.528 l -0.151,-0.836 h -0.051 v 0.205 l 0.07,1.159 m -0.07,-1.159 h 0.051 v -0.205 l -0.24,-1.323 h -0.015 v 0.06 l 0.204,1.469 m -0.204,-1.469 h 0.015 v -0.06 l -0.443,-1.496 h -0.015 v 0.06 l 0.443,1.496"
         id="path283"
         style="color-interpolation:linearRGB;fill:#000000" />
      <path
         class="write-chisel-pen"
         fill="#ffffff"
         stroke-width="4"
         __comx="612.248"
         __comy="600.677"
         __timestamp="0x17638af72f4"
         d="m 620.608,608.693 v 0.157 h 0.039 l 0.23,-0.267 v -0.221 h -0.055 l -0.214,0.331 m 0.214,-0.331 v 0.221 h 0.055 l 0.48,0.093 v -1.405 h -0.351 l -0.184,1.091 m 0.184,0.314 h 0.351 v -1.405 l 0.079,-1.012 h -0.508 v 2.034 l 0.079,0.384 m -0.079,-0.384 h 0.508 v -2.034 l -0.274,-0.334 h -0.626 v 2.502 l 0.391,-0.135 m 0.235,0.135 v -2.502 h -0.626 l -3.915,2.843 v 2.799 h 0.7 l 3.841,-3.14 m -3.841,3.14 v -2.799 h -0.7 l -2.995,3.975 v 2.826 h 0.706 l 2.988,-4.002 m -2.988,4.002 v -2.826 h -0.706 l -1.219,3.689 v 2.827 h 0.707 l 1.219,-3.691 m -1.219,0.863 h -0.707 v 2.827 l 0.333,2.891 h 0.706 v -2.826 l -0.332,-2.893 m 0.332,2.893 h -0.706 v 2.826 l 1.662,1.895 h 0.707 v -2.827 l -1.662,-1.894 m 1.662,1.894 h -0.707 v 2.827 l 4.21,2.097 h 0.708 v -2.833 l -4.211,-2.091 m 4.211,2.091 h -0.708 v 2.833 l 3.098,0.615 h 0.717 v -2.867 l -3.107,-0.581 m 2.39,0.581 v 2.867 h 0.717 l 5.216,-0.566 v -2.932 h -0.733 l -5.2,0.631 m 5.2,-0.631 v 2.932 h 0.733 l 4.445,-1.943 v -3.035 h -0.759 l -4.419,2.046 m 4.419,0.989 h 0.759 v -3.035 l -0.536,0.173 h -0.573 v 2.291 l 0.35,0.571 m -0.35,-0.571 h 0.573 v -2.291 l -0.419,0.247 h -0.399 v 1.597 l 0.246,0.447 m 0.154,-0.447 v -1.597 h -0.399 l -0.332,0.443 v 0.711 h 0.178 l 0.554,0.443 m -0.554,-0.443 v -0.711 h -0.178 -0.554 v 0.711 h 0.178 0.554"
         id="path285"
         style="color-interpolation:linearRGB;fill:#000000" />
      <path
         class="write-chisel-pen"
         fill="#ffffff"
         stroke-width="4"
         __comx="441.34"
         __comy="608.055"
         __timestamp="0x17638af6ddf"
         d="m 443.146,617.036 h 0.392 v -1.57 l -0.229,-0.611 h -0.598 v 2.393 l 0.435,-0.212 m -0.435,-2.181 v 2.393 h 0.598 l 2.795,-1.793 v -2.596 h -0.649 l -2.745,1.996 m 2.745,-1.996 v 2.596 h 0.649 l 3.311,-0.453 v -2.487 h -0.622 l -3.338,0.344 m 3.96,-0.344 h -0.622 v 2.487 l 1.218,0.903 h 0.624 v -2.497 l -1.22,-0.893 m 1.22,3.39 v -2.497 h -0.624 l -0.13,3.017 v 2.646 h 0.662 l 0.092,-3.166 m -0.092,3.166 v -2.646 h -0.662 l -2.449,5.74 v 2.734 h 0.683 l 2.427,-5.828 m -3.11,3.094 v 2.734 h 0.683 l 4.418,-0.256 v -2.621 h -0.655 l -4.446,0.143 m 5.101,-0.143 h -0.655 v 2.621 l 3.88,1.092 h 0.653 v -2.611 l -3.877,-1.102 m 3.877,1.102 h -0.653 v 2.611 l 2.105,1.496 h 0.653 v -2.611 l -2.105,-1.496 m 2.105,1.496 h -0.653 v 2.611 l 1.428,2.445 h 0.678 v -2.714 l -1.453,-2.342 m 1.453,5.056 v -2.714 h -0.678 l -0.248,1.19 v 2.926 h 0.731 l 0.195,-1.403 m -0.195,1.403 v -2.926 h -0.731 l -1.679,1.428 v 3.062 h 0.765 l 1.645,-1.564 m -1.645,1.564 v -3.062 h -0.765 l -3.444,1.259 v 3.137 h 0.784 l 3.425,-1.334 m -3.425,1.334 v -3.137 h -0.784 l -4.213,0.39 v 3.155 h 0.789 l 4.208,-0.408 m -4.997,0.408 h 0.789 v -3.155 l -6.481,-1.577 h -0.68 v 2.718 l 6.372,2.013 m -6.372,-4.732 v 2.718 h 0.68 l 0.246,-0.447 v -2.024 h -0.506 l -0.419,-0.247 m 0.925,0.247 h -0.506 v 2.024 l 0.969,-0.776 h 0.118 v -0.473 l -0.582,-0.776 m 0.582,0.776 h -0.118 v 0.473 h 1.108 0.118 v -0.473 h -1.108"
         id="path287"
         style="color-interpolation:linearRGB;fill:#000000" />
      <path
         class="write-chisel-pen"
         fill="#ffffff"
         stroke-width="4"
         __comx="435.184"
         __comy="608.732"
         __timestamp="0x17638af6b98"
         d="m 445.107,617.326 h 0.238 v -0.953 l -0.258,-0.497 H 444.7 v 1.549 l 0.407,-0.098 m -0.407,0.098 h 0.387 v -1.549 l -0.271,-0.545 h -0.51 v 2.041 l 0.394,0.053 m 0.116,-0.053 v -2.041 h -0.51 l -0.288,2.627 v 2.57 h 0.643 l 0.155,-3.156 m -0.155,0.586 h -0.643 v 2.57 l 1.715,10.76 h 0.538 v -2.151 l -1.61,-11.179 m 1.61,11.179 h -0.538 v 2.151 l 0.164,0.185 h 0.431 v -1.723 l -0.057,-0.613 m -0.373,0.613 v 1.723 h 0.431 l 0.022,-1.597 v -0.125 h -0.031 l -0.421,-10e-4 m 0.421,0.126 h 0.031 v -0.125 l -0.111,-0.898 h -0.031 v 0.125 l 0.111,0.898"
         id="path289"
         style="color-interpolation:linearRGB;fill:#000000" />
      <path
         class="write-chisel-pen"
         fill="#ffffff"
         stroke-width="4"
         __comx="612.123"
         __comy="586.917"
         __timestamp="0x17638af677d"
         d="m 613.914,595.971 h 0.131 v -0.526 l -0.405,-0.897 h -0.43 v 1.721 l 0.703,-0.298 m -0.703,0.298 h 0.43 v -1.721 l -1.576,-0.743 h -0.602 v 2.409 l 1.748,0.055 m -1.146,-0.055 v -2.409 h -0.602 l -0.455,-0.046 v 2.501 h 0.625 l 0.432,-0.046 m -0.432,0.046 v -2.501 h -0.625 l -2.005,1.952 v 2.585 h 0.646 l 1.984,-2.037 m -1.984,2.037 v -2.585 h -0.646 l -3.111,6.349 v 2.651 h 0.663 l 3.094,-6.415 m -3.094,6.415 v -2.651 h -0.663 l -1.554,6.473 v 2.67 h 0.667 l 1.549,-6.492 m -1.549,6.492 v -2.67 h -0.667 l -0.667,7.67 v 2.687 h 0.672 l 0.663,-7.687 m -0.663,5 h -0.672 v 2.687 l 0.554,7.578 h 0.671 v -2.686 l -0.554,-7.58 m 0.554,7.58 h -0.671 v 2.686 l 2.217,6.078 h 0.669 v -2.676 l -2.215,-6.088 m 2.215,6.088 h -0.669 v 2.676 l 4.101,4.783 h 0.667 v -2.668 l -4.099,-4.791 m 4.099,4.791 h -0.667 v 2.668 l 5.318,3.991 h 0.668 v -2.671 l -5.319,-3.987 m 5.319,3.987 h -0.668 v 2.671 l 5.983,2.695 h 0.669 v -2.676 l -5.984,-2.69 m 5.984,2.69 h -0.669 v 2.676 l 5.872,0.998 h 0.669 v -2.678 l -5.873,-0.996 m 5.203,0.996 v 2.678 h 0.669 l 5.098,-1.093 v -2.686 h -0.671 l -5.096,1.101 m 5.096,-1.101 v 2.686 h 0.671 l 4.212,-3.185 v -2.698 h -0.675 l -4.209,3.197 m 4.209,-3.197 v 2.698 h 0.675 l 5.431,-6.874 v -2.712 h -0.678 l -5.428,6.888 m 5.428,-6.888 v 2.712 h 0.678 l 2.106,-4.384 v -2.72 h -0.68 l -2.104,4.392 m 2.104,-4.392 v 2.72 h 0.68 l 1.555,-6.167 v -2.752 h -0.688 l -1.547,6.199 m 1.547,-3.447 h 0.688 v -2.752 l -0.108,-4.798 h -0.694 v 2.775 l 0.114,4.775 m -0.114,-4.775 h 0.694 v -2.775 l -1.328,-5.691 h -0.697 v 2.789 l 1.331,5.677 m -1.331,-5.677 h 0.697 v -2.789 l -3.435,-6.681 h -0.697 v 2.789 l 3.435,6.681 m -3.435,-6.681 h 0.697 v -2.789 l -5.762,-7.677 h -0.696 v 2.786 l 5.761,7.68 m -5.761,-7.68 h 0.696 v -2.786 l -7.315,-7.172 h -0.692 v 2.769 l 7.311,7.188 m -7.311,-7.188 h 0.692 v -2.769 l -6.872,-4.38 h -0.688 v 2.754 l 6.868,4.395 m -6.868,-4.395 h 0.688 v -2.754 l -2.993,-0.792 h -0.686 v 2.743 l 2.99,0.803 m -2.305,-0.803 v -2.743 h -0.686 l -2.758,0.546 v 2.648 h 0.662 l 2.782,-0.451 m -2.782,0.451 v -2.648 h -0.662 l -2.863,2.166 v 2.504 h 0.626 l 2.899,-2.022 m -2.899,2.022 v -2.504 h -0.626 l -3.178,4.031 v 2.221 h 0.555 l 3.248,-3.748 m -3.248,3.748 v -2.221 h -0.555 l -3.641,5.99 v 1.21 h 0.302 l 3.894,-4.979 m -3.894,4.979 v -1.21 h -0.302 l -3.962,7.135 v 0.103 h 0.026 l 4.238,-6.028 m -4.238,6.028 v -0.103 h -0.026 l -4.432,7.08 v 0.103 h 0.026 l 4.432,-7.08"
         id="path291"
         style="color-interpolation:linearRGB;fill:#000000" />
      <path
         class="write-chisel-pen"
         fill="#ffffff"
         stroke-width="4"
         __comx="442.743"
         __comy="598.616"
         __timestamp="0x17638af61b2"
         d="m 448.7,604.417 h 0.366 v -1.462 l -2.13,-0.745 h -0.539 v 2.155 l 2.303,0.053 m -2.303,-0.053 h 0.539 v -2.155 l -0.766,-0.14 h -0.559 v 2.235 l 0.786,0.059 m -0.227,-0.059 v -2.235 h -0.559 l -2.907,-0.104 v 2.443 h 0.611 l 2.855,-0.104 m -2.855,0.104 v -2.443 h -0.611 l -3.446,1.849 v 2.534 h 0.634 l 3.424,-1.94 m -3.424,1.94 v -2.534 h -0.634 l -2.67,2.748 v 2.622 h 0.656 l 2.648,-2.836 m -2.648,2.836 v -2.622 h -0.656 l -3.328,6.266 v 2.656 h 0.664 l 3.32,-6.299 m -3.32,6.299 v -2.656 h -0.664 l -2.219,7.768 v 2.676 h 0.669 l 2.214,-7.789 m -2.214,7.789 v -2.676 h -0.669 l -0.221,5.087 v 2.675 h 0.669 l 0.222,-5.085 m -0.222,2.41 h -0.669 v 2.675 l 1.553,4.879 h 0.665 v -2.66 l -1.549,-4.894 m 1.549,4.894 h -0.665 v 2.66 l 4.878,7.866 h 0.659 v -2.637 l -4.872,-7.89 m 4.872,7.89 h -0.659 v 2.637 l 4.323,5.18 h 0.656 v -2.625 l -4.32,-5.191 m 4.32,5.191 h -0.656 v 2.625 l 4.661,3.861 h 0.642 v -2.569 l -4.647,-3.917 m 4.647,3.917 h -0.642 v 2.569 l 4.442,2.353 h 0.622 v -2.487 l -4.422,-2.434 m 4.422,2.434 h -0.622 v 2.487 l 5.1,1.087 h 0.617 v -2.467 l -5.095,-1.107 m 4.478,1.107 v 2.467 h 0.617 l 3.106,-1.182 v -2.496 h -0.624 l -3.099,1.211 m 3.099,-1.211 v 2.496 h 0.624 l 6.986,-6.161 v -2.539 h -0.635 l -6.975,6.205 m 6.975,-6.205 v 2.539 h 0.635 l 9.206,-12.028 v -2.616 h -0.654 l -9.187,12.105 m 9.187,-12.105 v 2.616 h 0.654 l 2.117,-4.742 v -2.706 h -0.676 l -2.094,4.832 m 2.094,-4.832 v 2.706 h 0.676 l 0.448,-3.571 v -2.745 h -0.686 l -0.438,3.609 m 0.438,-0.865 h 0.686 v -2.745 l -1.214,-4.506 h -0.695 v 2.781 l 1.223,4.469 m -1.223,-4.469 h 0.695 v -2.781 l -3.655,-5.291 h -0.698 v 2.792 l 3.658,5.28 m -3.658,-5.28 h 0.698 v -2.792 l -3.103,-2.889 h -0.696 v 2.786 l 3.102,2.895 m -3.102,-2.895 h 0.696 v -2.786 l -8.534,-5.279 h -0.693 v 2.772 l 8.53,5.292 m -8.53,-5.292 h 0.693 v -2.772 l -9.646,-3.866 h -0.682 v 2.726 l 9.634,3.912 m -9.634,-3.912 h 0.682 v -2.726 l -4.548,-0.978 h -0.672 v 2.687 l 4.538,1.017 m -3.866,-1.017 v -2.687 h -0.672 l -4.431,0.006 v 2.675 h 0.669 l 4.434,0.006 m -4.434,-0.006 v -2.675 h -0.669 l -7.301,2.839 v 2.582 h 0.645 l 7.325,-2.746 m -7.325,2.746 v -2.582 h -0.645 l -2.863,2.865 v 2.436 h 0.609 l 2.899,-2.72 m -2.899,2.72 v -2.436 h -0.609 l -3.598,7.414 v 1.968 h 0.492 l 3.715,-6.946 m -3.715,6.946 v -1.968 h -0.492 l -0.909,4.343 v 1.26 h 0.315 l 1.086,-3.635 m -1.086,3.635 v -1.26 h -0.315 l -0.554,4.089 v 1.26 h 0.315 l 0.554,-4.089"
         id="path293"
         style="color-interpolation:linearRGB;fill:#000000" />
      <path
         class="write-chisel-pen"
         fill="#ffffff"
         stroke-width="4"
         __comx="790.801"
         __comy="581.6"
         __timestamp="0x17638af44bd"
         d="m 801.44,592.194 h 0.038 v -0.152 l -0.206,-0.705 h -0.29 v 1.162 l 0.459,-0.306 m -0.459,0.306 h 0.29 v -1.162 l -0.734,0.077 h -0.152 v 0.609 l 0.596,0.476 m -0.596,-0.476 h 0.152 v -0.609 l -0.293,-0.014 h -0.01 v 0.038 l 0.15,0.585 m -0.15,-0.585 h 0.01 V 591.4 l -0.111,-0.499 h -0.01 v 0.038 l 0.111,0.499"
         id="path295"
         style="color-interpolation:linearRGB;fill:#000000" />
      <path
         class="write-chisel-pen"
         fill="#ffffff"
         stroke-width="4"
         __comx="401.053"
         __comy="613.326"
         __timestamp="0x17638aee211"
         d="m 403.865,630.125 h -0.157 v 0.63 l 0.225,0.973 h 0.594 v -2.376 l -0.661,0.773 m 0.661,-0.773 h -0.594 v 2.376 l 10.519,0.227 h 0.608 v -2.431 l -10.533,-0.172 m 10.533,0.172 h -0.608 v 2.431 l 3.212,1.301 h 0.61 v -2.44 l -3.214,-1.292 m 3.214,1.292 h -0.61 v 2.44 l 0.097,3.847 h 0.638 v -2.554 l -0.125,-3.733 m 0.125,6.286 v -2.554 h -0.638 l -3.335,10.726 v 2.641 h 0.66 l 3.313,-10.814 m -3.974,10.814 h 0.66 v -2.641 h -0.075 -0.511 v 2.043 l -0.075,0.598"
         id="path297"
         style="color-interpolation:linearRGB;fill:#000000" />
      <path
         class="write-chisel-pen"
         fill="#ffffff"
         stroke-width="4"
         __comx="356.291"
         __comy="613.326"
         __timestamp="0x17638aedf59"
         d="m 319.597,646.152 h 0.177 v -0.709 l -0.352,-1.064 h -0.36 v 1.44 l 0.535,0.333 m -0.535,-1.773 v 1.44 h 0.36 l 0.552,0.235 v -2.309 h -0.577 l -0.335,0.634 m 0.912,-0.634 h -0.577 v 2.309 l 11.172,6.358 h 0.615 v -2.46 l -11.21,-6.207 m 11.21,6.207 h -0.615 v 2.46 l 6.425,2.698 h 0.618 v -2.47 l -6.428,-2.687 m 6.428,2.687 h -0.618 v 2.47 l 7.976,2.103 h 0.622 v -2.489 l -7.98,-2.085 m 7.98,2.085 h -0.622 v 2.489 l 25.704,0.009 h 0.627 v -2.507 l -25.709,0.009 m 25.082,-0.009 v 2.507 h 0.627 l 9.196,-0.7 v -2.504 h -0.626 l -9.197,0.696 m 9.197,-0.696 v 2.504 h 0.626 l 6.646,-1.602 v -2.491 h -0.623 l -6.65,1.589 m 6.65,-1.589 v 2.491 h 0.623 l 8.642,-3.393 v -2.486 h -0.621 l -8.643,3.388 m 8.643,-3.388 v 2.486 h 0.621 l 6.54,-7.071 v -2.504 h -0.626 l -6.535,7.089 m 6.535,-7.089 v 2.504 h 0.626 l 11.194,-7.768 v -2.524 h -0.631 l -11.189,7.788 m 11.82,-5.264 v -2.524 h -0.631 l -0.031,0.618 v 1.886 h 0.472 l 0.191,0.02 m -0.191,-0.02 v -1.886 h -0.472 l -0.554,0.1 v 1.886 h 0.472 l 0.554,-0.1"
         id="path299"
         style="color-interpolation:linearRGB;fill:#000000" />
      <path
         class="write-chisel-pen"
         fill="#ffffff"
         stroke-width="4"
         __comx="395.277"
         __comy="613.326"
         __timestamp="0x17638aed8e6"
         d="m 398.263,612.701 v -1.022 h -0.255 l -0.378,-0.182 v 1.385 h 0.346 l 0.287,-0.182 m -0.633,0.182 h 0.346 v -1.385 l -0.013,-0.688 h -0.541 v 2.164 l 0.208,-0.09 m 0.333,-2.074 h -0.541 v 2.164 l 8.805,0.937 h 0.66 v -2.641 l -8.924,-0.459 m 8.264,0.459 v 2.641 h 0.66 l 5.763,-0.592 v -2.654 h -0.664 l -5.76,0.605 m 5.76,-0.605 v 2.654 h 0.664 l 0.483,-0.638 v -2.974 h -0.743 l -0.403,0.958 m 0.403,2.016 h 0.743 v -2.974 l -1.662,-4.789 h -0.744 v 2.978 l 1.663,4.785 m -1.663,-4.785 h 0.744 v -2.978 l -3.448,-6.13 h -0.718 v 2.871 l 3.421,6.236 m -2.704,-6.236 v -2.871 h -0.718 l 0.013,1.095 v 1.877 h 0.469 l 0.235,-0.101 m -0.235,0.101 v -1.877 h -0.469 l 0.06,1.036 v 1.401 h 0.35 l 0.06,-0.559 m -0.06,0.559 v -1.401 h -0.35 l -0.111,0.898 v 1.401 h 0.35 l 0.111,-0.898"
         id="path301"
         style="color-interpolation:linearRGB;fill:#000000" />
      <path
         class="write-chisel-pen"
         fill="#ffffff"
         stroke-width="4"
         __comx="357.862"
         __comy="613.326"
         __timestamp="0x17638aed564"
         d="m 324.711,607.757 v -0.308 h -0.077 l -0.383,-0.102 v 0.712 h 0.178 l 0.282,-0.302 m -0.46,-0.41 v 0.712 h 0.178 l 0.759,0.423 v -2.355 h -0.589 l -0.349,1.22 m 0.349,-1.22 v 2.355 h 0.589 l 11.863,-7.652 v -2.409 h -0.602 l -11.849,7.706 m 11.849,-7.706 v 2.409 h 0.602 l 7.202,-2.396 v -2.404 h -0.601 l -7.203,2.391 m 7.203,-2.391 v 2.404 h 0.601 l 22.821,-3.409 v -2.367 h -0.592 l -22.83,3.372 m 23.422,-3.372 h -0.592 v 2.367 l 5.32,0.093 h 0.588 v -2.353 l -5.317,-0.107 m 5.317,0.107 h -0.588 v 2.353 l 8.864,2.295 h 0.589 v -2.355 l -8.864,-2.293 m 8.864,2.293 h -0.589 v 2.355 l 9.974,3.783 h 0.586 v -2.343 l -9.971,-3.796 m 9.971,3.796 h -0.586 v 2.343 l 13.734,6.802 h 0.596 v -2.385 l -13.745,-6.76 m 13.745,6.76 h -0.596 v 2.385 l 5.648,4.601 h 0.603 v -2.412 l -5.654,-4.573 m 5.051,4.573 v 2.412 h 0.603 l 0.848,-0.652 v -2.106 h -0.526 l -0.925,0.345 m 0.925,1.76 h 0.526 v -2.106 l -0.072,-0.011 h -0.382 v 1.529 l -0.072,0.588 m 0.072,-0.588 h 0.382 v -1.529 l -0.111,-0.499 h -0.382 v 1.529 l 0.111,0.499"
         id="path303"
         style="color-interpolation:linearRGB;fill:#000000" />
      <path
         class="write-chisel-pen"
         fill="#ffffff"
         stroke-width="4"
         __comx="779.218"
         __comy="590.711"
         __timestamp="0x17638ae60fd"
         d="m 781.125,598.897 h 0.334 v -1.334 l -1.237,-1.367 h -0.518 v 2.074 l 1.422,0.627 m -1.422,-0.627 h 0.518 v -2.074 l -0.324,-0.135 h -0.536 v 2.143 l 0.341,0.065 m 0.195,-0.065 v -2.143 h -0.536 l -1.345,0.039 v 2.264 h 0.566 l 1.314,-0.16 m -1.314,0.16 V 596.1 h -0.566 l -4.993,5.257 v 2.32 h 0.58 l 4.979,-5.313 m -4.979,5.313 v -2.32 h -0.58 l -3.991,6.175 v 2.336 h 0.584 l 3.987,-6.191 m -3.987,6.191 v -2.336 h -0.584 l -2.217,5.78 v 2.344 h 0.586 l 2.215,-5.788 m -2.215,5.788 v -2.344 h -0.586 l -1.441,9.071 v 2.352 h 0.588 l 1.44,-9.078 m -1.44,6.727 h -0.588 v 2.352 l 0.332,5.088 h 0.589 v -2.355 l -0.333,-5.084 m 0.333,5.084 h -0.589 v 2.355 l 1.774,4.086 h 0.587 v -2.35 l -1.772,-4.091 m 1.772,4.091 h -0.587 v 2.35 l 3.325,3.287 h 0.586 v -2.343 l -3.323,-3.294 m 3.323,3.294 h -0.586 v 2.343 l 4.765,2.194 h 0.586 v -2.343 l -4.765,-2.194 m 4.765,2.194 h -0.586 v 2.343 L 781.33,640 h 0.591 v -2.364 l -5.764,-0.588 m 5.173,0.588 V 640 h 0.591 l 8.644,-0.395 v -2.371 h -0.593 l -8.642,0.402 m 8.642,-0.402 v 2.371 h 0.593 l 7.646,-1.591 v -2.379 h -0.595 l -7.644,1.6 m 7.644,-1.6 v 2.379 h 0.595 l 4.767,-2.384 v -2.399 h -0.6 l -4.762,2.403 m 4.762,-2.403 v 2.399 h 0.6 l 6.981,-5.384 v -2.4 h -0.6 l -6.98,5.386 m 6.98,-5.386 v 2.4 h 0.6 l 2.107,-2.887 v -2.411 h -0.603 l -2.104,2.897 m 2.104,-2.897 v 2.411 h 0.603 l 1.344,-7.221 v -2.529 h -0.632 l -1.315,7.339 m 1.315,-4.81 h 0.632 v -2.529 l -0.324,-5.221 h -0.65 v 2.6 l 0.341,5.15 m -0.341,-5.15 h 0.65 v -2.6 l -1.437,-5.099 h -0.656 v 2.625 l 1.444,5.073 m -1.444,-5.073 h 0.656 v -2.625 l -2.655,-4.902 h -0.664 v 2.657 l 2.663,4.87 m -2.663,-4.87 h 0.664 v -2.657 l -3.767,-4.688 h -0.665 v 2.659 l 3.767,4.686 m -3.767,-4.686 h 0.665 v -2.659 l -5.211,-4.473 h -0.658 v 2.63 l 5.204,4.502 m -5.204,-4.502 h 0.658 v -2.63 l -6.213,-2.862 h -0.643 v 2.57 l 6.198,2.922 m -6.198,-2.922 h 0.643 v -2.57 l -3.329,-0.679 h -0.633 v 2.532 l 3.319,0.717 m -2.686,-0.717 v -2.532 h -0.633 l -6.865,1.217 v 2.492 h 0.623 l 6.875,-1.177 m -6.875,1.177 v -2.492 h -0.623 l -7.496,5.94 v 2.18 h 0.545 l 7.574,-5.628 m -7.574,5.628 v -2.18 h -0.545 l -3.822,4.613 v 1.729 h 0.432 l 3.934,-4.162 m -3.934,4.162 v -1.729 h -0.432 l -3.418,5.695 v 0.709 h 0.177 l 3.673,-4.676 m -3.673,4.676 v -0.709 h -0.177 l -3.213,5.485 v 0.709 h 0.177 l 3.213,-5.485"
         id="path305"
         style="color-interpolation:linearRGB;fill:#000000" />
      <path
         class="write-chisel-pen"
         fill="#ffffff"
         stroke-width="4"
         __comx="294.503"
         __comy="614.97"
         __timestamp="0x17638add79f"
         d="m 299.159,626.725 v -1.546 h -0.387 l -0.378,-0.181 v 1.909 h 0.477 l 0.287,-0.181 m -0.287,-1.728 h -0.477 v 1.909 l 0.376,0.268 h 0.611 v -2.445 l -0.51,0.268 m -0.101,-0.268 v 2.445 h 0.611 l 10.823,-2.037 v -2.16 h -0.54 l -10.894,1.752 m 10.894,-1.752 v 2.16 h 0.54 l 0.407,-0.788 v -0.983 h -0.246 l -0.701,-0.389"
         id="path307"
         style="color-interpolation:linearRGB;fill:#000000" />
      <path
         class="write-chisel-pen"
         fill="#ffffff"
         stroke-width="4"
         __comx="292.45"
         __comy="610.703"
         __timestamp="0x17638add62a"
         d="m 294.87,631.663 h 0.213 v -0.852 l -0.001,-1.18 h -0.653 v 2.612 l 0.442,-0.581 m -0.442,-2.031 v 2.612 h 0.653 l 2.445,-9.842 v -2.673 h -0.668 l -2.43,9.903 m 2.43,-9.903 v 2.673 h 0.668 l 3.989,-11.368 v -2.673 h -0.668 l -3.989,11.368 m 3.989,-11.368 v 2.673 h 0.668 l 0.654,-0.341 v -2.59 h -0.647 l -0.675,0.258 m 1.323,-0.258 h -0.647 v 2.59 l 6.751,17.681 h 0.663 v -2.651 l -6.767,-17.62 m 6.767,17.62 h -0.663 v 2.651 l 1.568,1.629 h 0.629 v -2.517 l -1.535,-1.762 m 1.535,4.279 v -2.517 h -0.629 l -0.665,0.399 v 2.517 h 0.629 l 0.665,-0.399"
         id="path309"
         style="color-interpolation:linearRGB;fill:#000000" />
      <path
         class="write-chisel-pen"
         fill="#ffffff"
         stroke-width="4"
         __comx="290.07"
         __comy="615.551"
         __timestamp="0x17638adc705"
         d="m 298.703,602.68 h 0.082 v -0.327 l -0.527,-0.652 H 297.9 v 1.432 l 0.803,-0.453 m -0.803,0.453 h 0.358 v -1.432 l -3.136,-0.809 h -0.513 v 2.053 l 3.291,0.188 m -3.291,-0.188 h 0.513 v -2.053 l -1.314,-0.164 h -0.545 v 2.18 l 1.345,0.036 m -0.8,-0.036 v -2.18 h -0.545 l -3.917,-0.154 v 2.489 h 0.622 l 3.84,-0.154 m -3.84,0.154 v -2.489 h -0.622 l -2.883,1.187 v 2.507 h 0.627 l 2.878,-1.206 m -2.878,1.206 v -2.507 h -0.627 l -3.329,3.072 v 2.546 h 0.636 l 3.319,-3.111 m -3.319,3.111 v -2.546 h -0.636 l -3.326,5.876 v 2.562 h 0.641 l 3.322,-5.892 m -3.322,5.892 v -2.562 h -0.641 l -2.44,8.665 v 2.583 h 0.646 l 2.435,-8.687 m -2.435,8.687 v -2.583 h -0.646 l -0.998,8.973 v 2.587 h 0.647 l 0.997,-8.977 m -0.997,6.39 h -0.647 v 2.587 l 0.332,3.691 h 0.647 v -2.588 l -0.333,-3.689 m 0.333,3.689 h -0.647 v 2.588 l 2.327,6.184 h 0.647 v -2.59 l -2.327,-6.182 m 2.327,6.182 h -0.647 v 2.59 l 5.097,5.184 h 0.647 v -2.587 l -5.097,-5.187 m 5.097,5.187 h -0.647 v 2.587 l 3.546,1.895 h 0.647 V 645.3 l -3.546,-1.894 m 3.546,1.894 h -0.647 v 2.588 l 8.642,1.699 h 0.649 v -2.596 l -8.644,-1.691 m 7.995,1.691 v 2.596 h 0.649 l 4.654,-0.398 v -2.598 h -0.649 l -4.653,0.4 m 4.653,-0.4 v 2.598 h 0.649 l 8.754,-3.489 v -2.601 h -0.65 l -8.753,3.492 m 8.753,-3.492 v 2.601 h 0.65 l 7.98,-6.274 v -2.619 h -0.655 l -7.976,6.291 m 7.976,-6.291 v 2.619 h 0.655 l 6.095,-7.376 v -2.627 h -0.657 l -6.093,7.384 m 6.093,-7.384 v 2.627 h 0.657 l 2.55,-7.674 v -2.637 h -0.659 l -2.547,7.683 m 2.547,-5.047 h 0.659 v -2.637 l -0.774,-7.886 h -0.663 v 2.652 l 0.778,7.87 m -0.778,-7.87 h 0.663 v -2.652 l -1.661,-3.793 h -0.665 v 2.659 l 1.663,3.786 m -1.663,-3.786 h 0.665 v -2.659 l -6.315,-6.387 h -0.667 v 2.668 l 6.317,6.378 m -6.317,-6.378 h 0.667 v -2.668 l -4.544,-2.489 h -0.665 v 2.66 l 4.542,2.497 m -4.542,-2.497 h 0.665 v -2.66 l -10.085,-2.985 h -0.662 v 2.646 l 10.081,2.999 m -10.081,-2.999 h 0.662 v -2.646 l -5.431,-0.191 h -0.657 v 2.629 l 5.427,0.208 m -4.77,-0.208 v -2.629 h -0.657 l -5.2,0.83 v 2.564 h 0.641 l 5.216,-0.765 m -5.216,0.765 v -2.564 h -0.641 l -5.083,1.949 v 2.455 h 0.614 l 5.11,-1.841 m -5.11,1.841 v -2.455 h -0.614 l -4.625,3.209 v 2.221 h 0.555 l 4.683,-2.974 m -4.683,2.974 v -2.221 h -0.555 l -3.828,4.191 v 1.817 h 0.454 l 3.929,-3.787 m -3.929,3.787 v -1.817 h -0.454 l -2.778,4.899 v 0.993 h 0.248 l 2.984,-4.076 m -2.984,4.076 v -0.993 h -0.248 l -1.874,4.768 v 0.033 h 0.008 l 2.115,-3.808 m -2.115,3.808 v -0.033 h -0.008 l -0.997,3.59 v 0.033 h 0.008 l 0.997,-3.59"
         id="path311"
         style="color-interpolation:linearRGB;fill:#000000" />
      <path
         class="write-chisel-pen"
         fill="#ffffff"
         stroke-width="4"
         __comx="243.574"
         __comy="615.551"
         __timestamp="0x17638adc17c"
         d="m 246.952,611.68 h 0.094 v -0.376 l -0.284,-0.935 h -0.412 v 1.648 l 0.602,-0.337 m -0.602,0.337 h 0.412 v -1.648 l -0.689,-0.744 h -0.584 v 2.337 l 0.862,0.054 m -0.277,-2.392 h -0.584 v 2.337 l 0.087,0.495 h 0.632 v -2.529 l -0.135,-0.303 m 0.135,0.303 h -0.632 v 2.529 l 4.085,3.651 h 0.663 v -2.651 l -4.115,-3.529 m 4.115,3.529 h -0.663 v 2.651 l 11.187,6.797 h 0.671 v -2.682 l -11.195,-6.765 m 11.195,6.765 h -0.671 v 2.682 l 0.079,1.621 h 0.733 v -2.933 l -0.142,-1.37 m 0.142,4.304 v -2.933 h -0.733 l -7.556,8.291 v 3.105 h 0.776 l 7.513,-8.463 m -8.289,5.358 v 3.105 h 0.776 l 0.809,-0.709 v -2.486 h -0.621 l -0.964,0.089 m 1.585,-0.089 h -0.621 v 2.486 l 0.481,-0.153 h 0.545 v -2.18 l -0.405,-0.153 m 0.405,0.153 h -0.545 v 2.18 l 0.391,0.164 h 0.428 v -1.711 l -0.274,-0.634 m 0.274,0.634 h -0.428 v 1.711 l 0.488,0.176 h 0.117 V 632 l -0.177,-1.42 m 0.177,1.887 V 632 h -0.117 l -0.111,1.097 v 0.467 h 0.117 l 0.111,-1.097"
         id="path313"
         style="color-interpolation:linearRGB;fill:#000000" />
      <path
         class="write-chisel-pen"
         fill="#ffffff"
         stroke-width="4"
         __comx="224.179"
         __comy="615.551"
         __timestamp="0x17638adbef2"
         d="m 218.487,625.795 h 0.071 v -0.285 l -0.176,-1.322 h -0.383 v 1.533 l 0.489,0.074 m -0.489,-0.074 h 0.383 v -1.533 l -0.694,-1.424 h -0.547 v 2.188 l 0.857,0.77 m -0.857,-0.77 h 0.547 v -2.188 l -0.511,-0.572 h -0.634 v 2.534 l 0.597,0.226 m -0.597,-2.76 v 2.534 h 0.634 l 27.093,0.13 v -2.994 h -0.749 l -26.978,0.33 m 27.727,-0.33 h -0.749 v 2.994 l 7.526,1.133 h 0.766 v -3.066 l -7.544,-1.061 m 7.544,4.127 v -3.066 h -0.766 l 0.017,1.009 v 2.044 h 0.511 l 0.239,0.012 m -0.239,-0.012 v -2.044 h -0.511 l -0.332,0.798 v 2.044 h 0.511 l 0.332,-0.798"
         id="path315"
         style="color-interpolation:linearRGB;fill:#000000" />
      <path
         class="write-chisel-pen"
         fill="#ffffff"
         stroke-width="4"
         __comx="778.47"
         __comy="585.828"
         __timestamp="0x17638ae60fd"
         d="m 778.369,593.425 h 0.334 v -1.334 l -1.574,-1.603 h -0.518 v 2.074 l 1.759,0.863 m -1.759,-0.863 h 0.518 v -2.074 l -0.408,-0.158 h -0.536 v 2.143 l 0.425,0.089 m 0.11,-0.089 v -2.143 h -0.536 l -1.682,0.063 v 2.264 h 0.566 l 1.651,-0.184 m -1.651,0.184 v -2.264 h -0.566 l -6.257,6.508 v 2.32 h 0.58 l 6.243,-6.563 m -6.243,6.563 v -2.32 h -0.58 l -5.002,7.637 v 2.336 h 0.584 l 4.998,-7.653 m -4.998,7.653 v -2.336 h -0.584 l -2.779,7.148 v 2.344 h 0.586 l 2.776,-7.156 m -2.776,7.156 v -2.344 h -0.586 l -1.806,11.218 v 2.352 h 0.588 l 1.805,-11.225 m -1.805,8.873 h -0.588 v 2.352 l 0.416,6.291 h 0.589 v -2.355 l -0.417,-6.287 m 0.417,6.287 h -0.589 v 2.355 l 2.223,5.053 h 0.587 v -2.35 l -2.222,-5.058 m 2.222,5.058 h -0.587 v 2.35 l 4.167,4.066 h 0.586 v -2.343 l -4.166,-4.073 m 4.166,4.073 h -0.586 v 2.343 l 5.972,2.713 h 0.586 v -2.343 l -5.972,-2.713 m 5.972,2.713 h -0.586 v 2.343 l 7.219,0.75 h 0.591 v -2.364 l -7.224,-0.729 m 6.633,0.729 v 2.364 h 0.591 l 10.834,-0.49 v -2.371 h -0.593 l -10.832,0.497 m 10.832,-0.497 v 2.371 h 0.593 l 9.584,-1.969 v -2.379 h -0.595 l -9.582,1.977 m 9.582,-1.977 v 2.379 h 0.595 l 5.974,-2.95 v -2.399 h -0.6 l -5.97,2.969 m 5.97,-2.969 v 2.399 h 0.6 l 8.75,-6.658 v -2.4 h -0.6 l -8.75,6.66 m 8.75,-6.66 v 2.4 h 0.6 l 2.64,-3.571 v -2.411 h -0.603 l -2.638,3.581 m 2.638,-3.581 v 2.411 h 0.603 l 1.681,-8.943 v -2.529 h -0.632 l -1.652,9.061 m 1.652,-6.532 h 0.632 v -2.529 l -0.408,-6.447 h -0.65 v 2.6 l 0.425,6.377 m -0.425,-6.377 h 0.65 v -2.6 l -1.802,-6.302 h -0.656 v 2.625 l 1.809,6.276 m -1.809,-6.276 h 0.656 v -2.625 l -3.329,-6.058 h -0.664 v 2.657 l 3.337,6.026 m -3.337,-6.026 h 0.664 v -2.657 l -4.722,-5.796 h -0.665 v 2.659 l 4.722,5.795 m -4.722,-5.795 h 0.665 v -2.659 l -6.531,-5.535 h -0.658 v 2.63 l 6.524,5.563 m -6.524,-5.563 h 0.658 v -2.63 l -7.785,-3.546 h -0.643 v 2.57 l 7.77,3.606 m -7.77,-3.606 h 0.643 v -2.57 l -4.171,-0.844 h -0.633 v 2.532 l 4.162,0.882 m -3.528,-0.882 v -2.532 h -0.633 l -8.606,1.5 v 2.492 h 0.623 l 8.616,-1.46 m -8.616,1.46 v -2.492 h -0.623 l -9.405,7.308 v 2.18 h 0.545 l 9.483,-6.996 m -9.483,6.996 v -2.18 h -0.545 l -4.804,5.651 v 1.729 h 0.432 l 4.917,-5.2 m -4.917,5.2 v -1.729 h -0.432 l -4.317,6.922 v 0.709 h 0.177 l 4.572,-5.902 m -4.572,5.902 v -0.709 h -0.177 l -4.027,6.782 v 0.709 h 0.177 l 4.027,-6.782"
         id="path591"
         style="color-interpolation:linearRGB;fill:#000000" />
      <path
         class="write-chisel-pen"
         fill="#ffffff"
         stroke-width="4"
         __comx="565.997"
         __comy="612.339"
         __timestamp="0x17638aee211"
         d="m 568.809,629.138 h -0.157 v 0.63 l 0.225,0.973 h 0.594 v -2.376 l -0.661,0.773 m 0.661,-0.773 h -0.594 v 2.376 l 10.519,0.227 h 0.608 v -2.431 l -10.533,-0.172 m 10.533,0.172 h -0.608 v 2.431 l 3.212,1.301 h 0.61 v -2.44 l -3.214,-1.292 m 3.214,1.292 h -0.61 v 2.44 l 0.097,3.847 h 0.638 v -2.554 l -0.125,-3.733 m 0.125,6.286 v -2.554 h -0.638 l -3.335,10.726 v 2.641 h 0.66 l 3.313,-10.814 m -3.974,10.814 h 0.66 v -2.641 h -0.075 -0.511 v 2.043 l -0.075,0.598"
         id="path593"
         style="color-interpolation:linearRGB;fill:#000000" />
      <path
         class="write-chisel-pen"
         fill="#ffffff"
         stroke-width="4"
         __comx="521.236"
         __comy="612.339"
         __timestamp="0x17638aedf59"
         d="m 484.541,645.165 h 0.177 v -0.709 l -0.352,-1.064 h -0.36 v 1.44 l 0.535,0.333 m -0.535,-1.773 v 1.44 h 0.36 l 0.552,0.235 v -2.309 h -0.577 l -0.335,0.634 m 0.912,-0.634 h -0.577 v 2.309 l 11.172,6.358 h 0.615 v -2.46 l -11.21,-6.207 m 11.21,6.207 h -0.615 v 2.46 l 6.425,2.698 h 0.618 v -2.47 l -6.428,-2.687 m 6.428,2.687 h -0.618 v 2.47 l 7.976,2.103 h 0.622 v -2.489 l -7.98,-2.085 m 7.98,2.085 h -0.622 v 2.489 l 25.704,0.009 h 0.627 v -2.507 l -25.709,0.009 m 25.082,-0.009 v 2.507 h 0.627 l 9.196,-0.7 v -2.504 h -0.626 l -9.197,0.696 m 9.197,-0.696 v 2.504 h 0.626 l 6.646,-1.602 v -2.491 h -0.623 l -6.65,1.589 m 6.65,-1.589 v 2.491 h 0.623 l 8.642,-3.393 v -2.486 h -0.621 l -8.643,3.388 m 8.643,-3.388 v 2.486 h 0.621 l 6.54,-7.071 v -2.504 h -0.626 l -6.535,7.089 m 6.535,-7.089 v 2.504 h 0.626 l 11.194,-7.768 v -2.524 h -0.631 l -11.189,7.788 m 11.82,-5.264 v -2.524 h -0.631 l -0.031,0.618 v 1.886 h 0.472 l 0.191,0.02 m -0.191,-0.02 v -1.886 h -0.472 l -0.554,0.1 v 1.886 h 0.472 l 0.554,-0.1"
         id="path595"
         style="color-interpolation:linearRGB;fill:#000000" />
      <path
         class="write-chisel-pen"
         fill="#ffffff"
         stroke-width="4"
         __comx="560.221"
         __comy="612.339"
         __timestamp="0x17638aed8e6"
         d="m 563.207,611.714 v -1.022 h -0.255 l -0.378,-0.182 v 1.385 h 0.346 l 0.287,-0.182 m -0.633,0.182 h 0.346 v -1.385 l -0.013,-0.688 h -0.541 v 2.164 l 0.208,-0.09 m 0.333,-2.074 h -0.541 v 2.164 l 8.805,0.937 h 0.66 v -2.641 l -8.924,-0.459 m 8.264,0.459 v 2.641 h 0.66 l 5.763,-0.592 v -2.654 h -0.664 l -5.76,0.605 m 5.76,-0.605 v 2.654 h 0.664 l 0.483,-0.638 v -2.974 h -0.743 l -0.403,0.958 m 0.403,2.016 h 0.743 v -2.974 l -1.662,-4.789 h -0.744 v 2.978 l 1.663,4.785 m -1.663,-4.785 h 0.744 v -2.978 l -3.448,-6.13 h -0.718 v 2.871 l 3.421,6.236 m -2.704,-6.236 V 597.8 h -0.718 l 0.013,1.095 v 1.877 h 0.469 l 0.235,-0.101 m -0.235,0.101 v -1.877 h -0.469 l 0.06,1.036 v 1.401 h 0.35 l 0.06,-0.559 m -0.06,0.559 v -1.401 h -0.35 l -0.111,0.898 v 1.401 h 0.35 l 0.111,-0.898"
         id="path597"
         style="color-interpolation:linearRGB;fill:#000000" />
      <path
         class="write-chisel-pen"
         fill="#ffffff"
         stroke-width="4"
         __comx="522.806"
         __comy="612.339"
         __timestamp="0x17638aed564"
         d="m 489.655,606.77 v -0.308 h -0.077 l -0.383,-0.102 v 0.712 h 0.178 l 0.282,-0.302 m -0.46,-0.41 v 0.712 h 0.178 l 0.759,0.423 v -2.355 h -0.589 l -0.349,1.22 m 0.349,-1.22 v 2.355 h 0.589 l 11.863,-7.652 v -2.409 h -0.602 l -11.849,7.706 m 11.849,-7.706 v 2.409 h 0.602 l 7.202,-2.396 v -2.404 h -0.601 l -7.203,2.391 m 7.203,-2.391 v 2.404 h 0.601 l 22.821,-3.409 v -2.367 h -0.592 l -22.83,3.372 m 23.422,-3.372 h -0.592 v 2.367 l 5.32,0.093 h 0.588 v -2.353 l -5.317,-0.107 m 5.317,0.107 h -0.588 v 2.353 l 8.864,2.295 h 0.589 v -2.355 l -8.864,-2.293 m 8.864,2.293 h -0.589 v 2.355 l 9.974,3.783 h 0.586 v -2.343 l -9.971,-3.796 m 9.971,3.796 h -0.586 v 2.343 l 13.734,6.802 h 0.596 v -2.385 l -13.745,-6.76 m 13.745,6.76 h -0.596 v 2.385 l 5.648,4.601 h 0.603 V 609.2 l -5.654,-4.573 m 5.051,4.573 v 2.412 h 0.603 l 0.848,-0.652 v -2.106 h -0.526 l -0.925,0.345 m 0.925,1.76 h 0.526 v -2.106 l -0.072,-0.011 h -0.382 v 1.529 l -0.072,0.588 m 0.072,-0.588 h 0.382 v -1.529 l -0.111,-0.499 h -0.382 v 1.529 l 0.111,0.499"
         id="path599"
         style="color-interpolation:linearRGB;fill:#000000" />
      <path
         class="write-chisel-pen"
         fill="#ffffff"
         stroke-width="4"
         __comx="733.31"
         __comy="605.458"
         __timestamp="0x17638aee211"
         d="m 736.122,622.257 h -0.157 v 0.63 l 0.225,0.973 h 0.594 v -2.376 l -0.661,0.773 m 0.661,-0.773 h -0.594 v 2.376 l 10.519,0.227 h 0.608 v -2.431 l -10.533,-0.172 m 10.533,0.172 h -0.608 v 2.431 l 3.212,1.301 h 0.61 v -2.44 l -3.214,-1.292 m 3.214,1.292 h -0.61 v 2.44 l 0.097,3.847 h 0.638 v -2.554 l -0.125,-3.733 m 0.125,6.286 v -2.554 h -0.638 l -3.335,10.726 v 2.641 h 0.66 l 3.313,-10.814 m -3.974,10.814 h 0.66 v -2.641 h -0.075 -0.511 v 2.043 l -0.075,0.598"
         id="path601"
         style="color-interpolation:linearRGB;fill:#000000" />
      <path
         class="write-chisel-pen"
         fill="#ffffff"
         stroke-width="4"
         __comx="688.549"
         __comy="605.458"
         __timestamp="0x17638aedf59"
         d="m 651.854,638.284 h 0.177 v -0.709 l -0.352,-1.064 h -0.36 v 1.44 l 0.535,0.333 m -0.535,-1.773 v 1.44 h 0.36 l 0.552,0.235 v -2.309 h -0.577 l -0.335,0.634 m 0.912,-0.634 h -0.577 v 2.309 l 11.172,6.358 h 0.615 v -2.46 l -11.21,-6.207 m 11.21,6.207 h -0.615 v 2.46 l 6.425,2.698 h 0.618 v -2.47 l -6.428,-2.687 m 6.428,2.687 h -0.618 v 2.47 l 7.976,2.103 h 0.622 v -2.489 l -7.98,-2.085 m 7.98,2.085 h -0.622 v 2.489 l 25.704,0.009 h 0.627 v -2.507 l -25.709,0.009 m 25.082,-0.009 v 2.507 h 0.627 l 9.196,-0.7 v -2.504 h -0.626 l -9.197,0.696 m 9.197,-0.696 v 2.504 h 0.626 l 6.646,-1.602 v -2.491 h -0.623 l -6.65,1.589 m 6.65,-1.589 v 2.491 h 0.623 l 8.642,-3.393 v -2.486 h -0.621 l -8.643,3.388 m 8.643,-3.388 v 2.486 h 0.621 l 6.54,-7.071 v -2.504 h -0.626 l -6.535,7.089 m 6.535,-7.089 v 2.504 h 0.626 l 11.194,-7.768 v -2.524 h -0.631 l -11.189,7.788 m 11.82,-5.264 v -2.524 h -0.631 l -0.031,0.618 v 1.886 h 0.472 l 0.191,0.02 m -0.191,-0.02 v -1.886 h -0.472 l -0.554,0.1 v 1.886 h 0.472 l 0.554,-0.1"
         id="path603"
         style="color-interpolation:linearRGB;fill:#000000" />
      <path
         class="write-chisel-pen"
         fill="#ffffff"
         stroke-width="4"
         __comx="727.534"
         __comy="605.458"
         __timestamp="0x17638aed8e6"
         d="m 730.52,604.833 v -1.022 h -0.255 l -0.378,-0.182 v 1.385 h 0.346 l 0.287,-0.182 m -0.633,0.182 h 0.346 v -1.385 l -0.013,-0.688 h -0.541 v 2.164 l 0.208,-0.09 m 0.333,-2.074 h -0.541 v 2.164 l 8.805,0.937 h 0.66 v -2.641 l -8.924,-0.459 m 8.264,0.459 v 2.641 h 0.66 l 5.763,-0.592 v -2.654 h -0.664 l -5.76,0.605 m 5.76,-0.605 v 2.654 h 0.664 l 0.483,-0.638 v -2.974 h -0.743 l -0.403,0.958 m 0.403,2.016 h 0.743 v -2.974 l -1.662,-4.789 h -0.744 v 2.978 l 1.663,4.785 m -1.663,-4.785 h 0.744 v -2.978 l -3.448,-6.13 h -0.718 v 2.871 l 3.421,6.236 m -2.704,-6.236 v -2.871 h -0.718 l 0.013,1.095 v 1.877 h 0.469 l 0.235,-0.101 m -0.235,0.101 v -1.877 h -0.469 l 0.06,1.036 v 1.401 h 0.35 l 0.06,-0.559 m -0.06,0.559 v -1.401 h -0.35 l -0.111,0.898 v 1.401 h 0.35 l 0.111,-0.898"
         id="path605"
         style="color-interpolation:linearRGB;fill:#000000" />
      <path
         class="write-chisel-pen"
         fill="#ffffff"
         stroke-width="4"
         __comx="690.119"
         __comy="605.458"
         __timestamp="0x17638aed564"
         d="m 656.968,599.889 v -0.308 h -0.077 l -0.383,-0.102 v 0.712 h 0.178 l 0.282,-0.302 m -0.46,-0.41 v 0.712 h 0.178 l 0.759,0.423 v -2.355 h -0.589 l -0.349,1.22 m 0.349,-1.22 v 2.355 h 0.589 l 11.863,-7.652 v -2.409 h -0.602 l -11.849,7.706 m 11.849,-7.706 v 2.409 h 0.602 l 7.202,-2.396 v -2.404 h -0.601 l -7.203,2.391 m 7.203,-2.391 v 2.404 h 0.601 l 22.821,-3.409 v -2.367 h -0.592 l -22.83,3.372 m 23.422,-3.372 h -0.592 v 2.367 l 5.32,0.093 h 0.588 v -2.353 l -5.317,-0.107 m 5.317,0.107 h -0.588 v 2.353 l 8.864,2.295 h 0.589 v -2.355 l -8.864,-2.293 m 8.864,2.293 h -0.589 v 2.355 l 9.974,3.783 h 0.586 v -2.343 l -9.971,-3.796 m 9.971,3.796 h -0.586 v 2.343 l 13.734,6.802 h 0.596 v -2.385 l -13.745,-6.76 m 13.745,6.76 h -0.596 v 2.385 l 5.648,4.601 h 0.603 v -2.412 l -5.654,-4.573 m 5.051,4.573 v 2.412 h 0.603 l 0.848,-0.652 v -2.106 h -0.526 l -0.925,0.345 m 0.925,1.76 h 0.526 v -2.106 l -0.072,-0.011 h -0.382 v 1.529 l -0.072,0.588 m 0.072,-0.588 h 0.382 v -1.529 l -0.111,-0.499 h -0.382 v 1.529 l 0.111,0.499"
         id="path607"
         style="color-interpolation:linearRGB;fill:#000000" />
      <path
         class="write-chisel-pen"
         fill="#ffffff"
         stroke-width="4"
         __comx="767.812"
         __comy="774.131"
         __timestamp="0x17638af7943"
         d="m 769.947,781.572 h 0.05 v -0.2 l -0.249,-0.976 h -0.438 v 1.754 l 0.638,-0.578 m -0.638,0.578 h 0.438 v -1.754 l -0.279,-0.413 h -0.545 v 2.18 l 0.386,-0.014 m -0.386,0.014 h 0.545 v -2.18 l -0.173,-0.494 h -0.643 v 2.57 l 0.27,0.104 m -0.27,-2.674 v 2.57 h 0.643 l 3.688,-0.374 v -2.818 h -0.705 l -3.626,0.623 m 4.33,-0.623 h -0.705 v 2.818 l 4.766,1.59 h 0.702 v -2.808 l -4.763,-1.601 m 4.763,1.601 h -0.702 v 2.808 l 5.43,3.187 h 0.7 v -2.799 l -5.428,-3.196 m 5.428,3.196 h -0.7 v 2.799 l 2.327,2.292 h 0.699 v -2.796 l -2.326,-2.295 m 2.326,2.295 h -0.699 v 2.796 l 1.434,2.818 h 0.712 v -2.848 l -1.447,-2.766 m 1.447,5.614 v -2.848 h -0.712 l -0.022,2.304 v 3.027 h 0.757 l -0.022,-2.483 m 0.022,2.483 v -3.027 h -0.757 l -1.228,2.359 v 3.096 h 0.774 l 1.21,-2.428 m -1.21,2.428 v -3.096 h -0.774 l -2.886,2.57 v 3.141 h 0.785 l 2.875,-2.615 m -2.875,2.615 v -3.141 h -0.785 l -6.54,3.777 v 3.166 h 0.791 l 6.534,-3.802 m -6.534,3.802 v -3.166 h -0.791 l -2.546,0.709 v 3.145 h 0.786 l 2.551,-0.687 m -3.337,0.687 h 0.786 v -3.145 l -1.579,-0.286 h -0.73 v 2.919 l 1.523,0.512 m -1.523,-0.512 h 0.73 v -2.919 l -0.496,-0.088 H 771.1 v 2.496 l 0.39,0.511 m 0.234,-0.511 v -2.496 H 771.1 l 0.017,1.009 v 1.474 h 0.369 l 0.238,0.012 m -0.238,-0.012 v -1.474 h -0.369 l 0.057,1.37 v 0.13 h 0.033 l 0.279,-0.026 m -0.279,0.026 v -0.13 h -0.033 l -0.332,0.997 v 0.13 h 0.033 l 0.332,-0.997"
         id="path609"
         style="color-interpolation:linearRGB;fill:#000000" />
      <path
         class="write-chisel-pen"
         fill="#ffffff"
         stroke-width="4"
         __comx="763.283"
         __comy="773.977"
         __timestamp="0x17638af774f"
         d="m 772.495,783.464 v 0.205 h 0.051 l 0.225,0.156 v -1.115 h -0.279 l 0.003,0.754 m -0.003,0.361 h 0.279 v -1.115 l 0.078,-0.611 h -0.435 v 1.74 l 0.078,-0.013 m -0.078,0.013 h 0.435 v -1.74 l 0.067,-1.464 h -0.568 v 2.273 l 0.067,0.93 m -0.067,-0.93 h 0.568 v -2.273 l -0.2,-0.388 h -0.613 v 2.452 l 0.244,0.21 m 0.369,-2.662 h -0.613 v 2.452 l 1.799,14.355 h 0.561 v -2.243 l -1.747,-14.564 m 1.186,14.564 v 2.243 h 0.561 l -0.104,-1.755 v -0.528 h -0.132 l -0.325,0.04 m 0.325,0.488 h 0.132 v -0.528 l -0.151,-0.836 h -0.051 v 0.205 l 0.07,1.159 m -0.07,-1.159 h 0.051 v -0.205 l -0.24,-1.323 h -0.015 v 0.06 l 0.204,1.469 m -0.204,-1.469 h 0.015 v -0.06 l -0.443,-1.496 h -0.015 v 0.06 l 0.443,1.496"
         id="path611"
         style="color-interpolation:linearRGB;fill:#000000" />
      <path
         class="write-chisel-pen"
         fill="#ffffff"
         stroke-width="4"
         __comx="602.7"
         __comy="775.571"
         __timestamp="0x17638af72f4"
         d="m 611.06,783.587 v 0.157 h 0.039 l 0.23,-0.267 v -0.221 h -0.055 l -0.214,0.331 m 0.214,-0.331 v 0.221 h 0.055 l 0.48,0.093 v -1.405 h -0.351 l -0.184,1.091 m 0.184,0.314 h 0.351 v -1.405 l 0.079,-1.012 h -0.508 v 2.034 l 0.079,0.384 m -0.079,-0.384 h 0.508 v -2.034 l -0.274,-0.334 h -0.626 v 2.502 l 0.391,-0.135 m 0.235,0.135 v -2.502 h -0.626 l -3.915,2.843 v 2.799 h 0.7 l 3.841,-3.14 m -3.841,3.14 v -2.799 h -0.7 l -2.995,3.975 v 2.826 h 0.706 l 2.988,-4.002 m -2.988,4.002 v -2.826 h -0.706 l -1.219,3.689 v 2.827 h 0.707 l 1.219,-3.691 m -1.219,0.863 h -0.707 v 2.827 l 0.333,2.891 h 0.706 v -2.826 l -0.332,-2.893 m 0.332,2.893 h -0.706 v 2.826 l 1.662,1.895 h 0.707 v -2.827 l -1.662,-1.894 m 1.662,1.894 h -0.707 v 2.827 l 4.21,2.097 h 0.708 v -2.833 l -4.211,-2.091 m 4.211,2.091 h -0.708 v 2.833 l 3.098,0.615 h 0.717 v -2.867 l -3.107,-0.581 m 2.39,0.581 v 2.867 h 0.717 l 5.216,-0.566 v -2.932 h -0.733 l -5.2,0.631 m 5.2,-0.631 v 2.932 h 0.733 l 4.445,-1.943 v -3.035 h -0.759 l -4.419,2.046 m 4.419,0.989 h 0.759 v -3.035 l -0.536,0.173 h -0.573 v 2.291 l 0.35,0.571 m -0.35,-0.571 h 0.573 v -2.291 l -0.419,0.247 h -0.399 v 1.597 l 0.246,0.447 m 0.154,-0.447 v -1.597 h -0.399 l -0.332,0.443 v 0.711 h 0.178 l 0.554,0.443 m -0.554,-0.443 v -0.711 h -0.178 -0.554 v 0.711 h 0.178 0.554"
         id="path613"
         style="color-interpolation:linearRGB;fill:#000000" />
      <path
         class="write-chisel-pen"
         fill="#ffffff"
         stroke-width="4"
         __comx="431.792"
         __comy="782.949"
         __timestamp="0x17638af6ddf"
         d="m 433.598,791.93 h 0.392 v -1.57 l -0.229,-0.611 h -0.598 v 2.393 l 0.435,-0.212 m -0.435,-2.181 v 2.393 h 0.598 l 2.795,-1.793 v -2.596 h -0.649 l -2.745,1.996 m 2.745,-1.996 v 2.596 h 0.649 l 3.311,-0.453 v -2.487 h -0.622 l -3.338,0.344 m 3.96,-0.344 h -0.622 v 2.487 l 1.218,0.903 h 0.624 v -2.497 l -1.22,-0.893 m 1.22,3.39 v -2.497 h -0.624 l -0.13,3.017 v 2.646 h 0.662 l 0.092,-3.166 m -0.092,3.166 v -2.646 h -0.662 l -2.449,5.74 v 2.734 h 0.683 l 2.427,-5.828 m -3.11,3.094 v 2.734 h 0.683 l 4.418,-0.256 v -2.621 h -0.655 l -4.446,0.143 m 5.101,-0.143 h -0.655 v 2.621 l 3.88,1.092 h 0.653 v -2.611 l -3.877,-1.102 m 3.877,1.102 h -0.653 v 2.611 l 2.105,1.496 h 0.653 v -2.611 l -2.105,-1.496 m 2.105,1.496 h -0.653 v 2.611 l 1.428,2.445 h 0.678 v -2.714 l -1.453,-2.342 m 1.453,5.056 v -2.714 h -0.678 l -0.248,1.19 v 2.926 h 0.731 l 0.195,-1.403 m -0.195,1.403 v -2.926 h -0.731 l -1.679,1.428 v 3.062 h 0.765 l 1.645,-1.564 m -1.645,1.564 v -3.062 h -0.765 l -3.444,1.259 v 3.137 h 0.784 l 3.425,-1.334 m -3.425,1.334 v -3.137 h -0.784 l -4.213,0.39 v 3.155 h 0.789 l 4.208,-0.408 m -4.997,0.408 h 0.789 v -3.155 l -6.481,-1.577 h -0.68 v 2.718 l 6.372,2.013 m -6.372,-4.732 v 2.718 h 0.68 l 0.246,-0.447 v -2.024 h -0.506 l -0.419,-0.247 m 0.925,0.247 h -0.506 v 2.024 l 0.969,-0.776 h 0.118 v -0.473 l -0.582,-0.776 m 0.582,0.776 h -0.118 v 0.473 h 1.108 0.118 v -0.473 h -1.108"
         id="path615"
         style="color-interpolation:linearRGB;fill:#000000" />
      <path
         class="write-chisel-pen"
         fill="#ffffff"
         stroke-width="4"
         __comx="425.636"
         __comy="783.627"
         __timestamp="0x17638af6b98"
         d="m 435.559,792.22 h 0.238 v -0.953 l -0.258,-0.497 h -0.387 v 1.549 l 0.407,-0.098 m -0.407,0.098 h 0.387 v -1.549 l -0.271,-0.545 h -0.51 v 2.041 l 0.394,0.053 m 0.116,-0.053 v -2.041 h -0.51 l -0.288,2.627 v 2.57 h 0.643 l 0.155,-3.156 m -0.155,0.586 h -0.643 v 2.57 l 1.715,10.76 h 0.538 v -2.151 l -1.61,-11.179 m 1.61,11.179 h -0.538 v 2.151 l 0.164,0.185 h 0.431 v -1.723 l -0.057,-0.613 m -0.373,0.613 v 1.723 h 0.431 l 0.022,-1.597 v -0.125 h -0.031 l -0.421,-10e-4 m 0.421,0.126 h 0.031 v -0.125 l -0.111,-0.898 h -0.031 v 0.125 l 0.111,0.898"
         id="path617"
         style="color-interpolation:linearRGB;fill:#000000" />
      <path
         class="write-chisel-pen"
         fill="#ffffff"
         stroke-width="4"
         __comx="602.575"
         __comy="761.811"
         __timestamp="0x17638af677d"
         d="m 604.366,770.865 h 0.131 v -0.526 l -0.405,-0.897 h -0.43 v 1.721 l 0.703,-0.298 m -0.703,0.298 h 0.43 v -1.721 l -1.576,-0.743 h -0.602 v 2.409 l 1.748,0.055 m -1.146,-0.055 v -2.409 h -0.602 l -0.455,-0.046 v 2.501 h 0.625 l 0.432,-0.046 m -0.432,0.046 v -2.501 h -0.625 l -2.005,1.952 v 2.585 h 0.646 l 1.984,-2.037 m -1.984,2.037 v -2.585 h -0.646 l -3.111,6.349 v 2.651 h 0.663 l 3.094,-6.415 m -3.094,6.415 v -2.651 h -0.663 l -1.554,6.473 v 2.67 h 0.667 l 1.549,-6.492 m -1.549,6.492 v -2.67 h -0.667 l -0.667,7.67 v 2.687 h 0.672 l 0.663,-7.687 m -0.663,5 h -0.672 v 2.687 l 0.554,7.578 h 0.671 v -2.686 l -0.554,-7.58 m 0.554,7.58 h -0.671 v 2.686 l 2.217,6.078 h 0.669 v -2.676 l -2.215,-6.088 m 2.215,6.088 h -0.669 v 2.676 l 4.101,4.783 h 0.667 v -2.668 l -4.099,-4.791 m 4.099,4.791 h -0.667 v 2.668 l 5.318,3.991 h 0.668 v -2.671 l -5.319,-3.987 m 5.319,3.987 h -0.668 v 2.671 l 5.983,2.695 h 0.669 v -2.676 l -5.984,-2.69 m 5.984,2.69 h -0.669 v 2.676 l 5.872,0.998 h 0.669 v -2.678 l -5.873,-0.996 m 5.203,0.996 v 2.678 h 0.669 l 5.098,-1.093 v -2.686 h -0.671 l -5.096,1.101 m 5.096,-1.101 v 2.686 h 0.671 l 4.212,-3.185 v -2.698 h -0.675 l -4.209,3.197 m 4.209,-3.197 v 2.698 h 0.675 l 5.431,-6.874 v -2.712 h -0.678 l -5.428,6.888 m 5.428,-6.888 v 2.712 h 0.678 l 2.106,-4.384 v -2.72 h -0.68 l -2.104,4.392 m 2.104,-4.392 v 2.72 h 0.68 l 1.555,-6.167 v -2.752 h -0.688 l -1.547,6.199 m 1.547,-3.447 h 0.688 v -2.752 l -0.108,-4.798 h -0.694 v 2.775 l 0.114,4.775 m -0.114,-4.775 h 0.694 v -2.775 l -1.328,-5.691 h -0.697 v 2.789 l 1.331,5.677 m -1.331,-5.677 h 0.697 v -2.789 l -3.435,-6.681 h -0.697 v 2.789 l 3.435,6.681 m -3.435,-6.681 h 0.697 v -2.789 l -5.762,-7.677 h -0.696 v 2.786 l 5.761,7.68 m -5.761,-7.68 h 0.696 v -2.786 l -7.315,-7.172 h -0.692 v 2.769 l 7.311,7.188 m -7.311,-7.188 h 0.692 v -2.769 l -6.872,-4.38 h -0.688 v 2.754 l 6.868,4.395 m -6.868,-4.395 h 0.688 v -2.754 l -2.993,-0.792 h -0.686 v 2.743 l 2.99,0.803 m -2.305,-0.803 v -2.743 h -0.686 l -2.758,0.546 v 2.648 h 0.662 l 2.782,-0.451 m -2.782,0.451 v -2.648 h -0.662 l -2.863,2.166 v 2.504 h 0.626 l 2.899,-2.022 m -2.899,2.022 v -2.504 h -0.626 l -3.178,4.031 v 2.221 h 0.555 l 3.248,-3.748 m -3.248,3.748 v -2.221 h -0.555 l -3.641,5.99 v 1.21 h 0.302 l 3.894,-4.979 m -3.894,4.979 v -1.21 h -0.302 l -3.962,7.135 v 0.103 h 0.026 l 4.238,-6.028 m -4.238,6.028 v -0.103 h -0.026 l -4.432,7.08 v 0.103 h 0.026 l 4.432,-7.08"
         id="path619"
         style="color-interpolation:linearRGB;fill:#000000" />
      <path
         class="write-chisel-pen"
         fill="#ffffff"
         stroke-width="4"
         __comx="433.195"
         __comy="773.51"
         __timestamp="0x17638af61b2"
         d="m 439.152,779.311 h 0.366 v -1.462 l -2.13,-0.745 h -0.539 v 2.155 l 2.303,0.053 m -2.303,-0.053 h 0.539 v -2.155 l -0.766,-0.14 h -0.559 v 2.235 l 0.786,0.059 m -0.227,-0.059 v -2.235 h -0.559 l -2.907,-0.104 v 2.443 h 0.611 l 2.855,-0.104 m -2.855,0.104 v -2.443 h -0.611 l -3.446,1.849 v 2.534 h 0.634 l 3.424,-1.94 m -3.424,1.94 v -2.534 h -0.634 l -2.67,2.748 v 2.622 h 0.656 l 2.648,-2.836 m -2.648,2.836 v -2.622 h -0.656 l -3.328,6.266 v 2.656 h 0.664 l 3.32,-6.299 m -3.32,6.299 v -2.656 h -0.664 l -2.219,7.768 v 2.676 h 0.669 l 2.214,-7.789 m -2.214,7.789 v -2.676 h -0.669 l -0.221,5.087 v 2.675 h 0.669 l 0.222,-5.085 m -0.222,2.41 h -0.669 v 2.675 l 1.553,4.879 h 0.665 v -2.66 l -1.549,-4.894 m 1.549,4.894 h -0.665 v 2.66 l 4.878,7.866 h 0.659 v -2.637 l -4.872,-7.89 m 4.872,7.89 h -0.659 v 2.637 l 4.323,5.18 h 0.656 v -2.625 l -4.32,-5.191 m 4.32,5.191 h -0.656 v 2.625 l 4.661,3.861 h 0.642 v -2.569 l -4.647,-3.917 m 4.647,3.917 h -0.642 v 2.569 l 4.442,2.353 h 0.622 v -2.487 l -4.422,-2.434 m 4.422,2.434 h -0.622 v 2.487 l 5.1,1.087 h 0.617 v -2.467 l -5.095,-1.107 m 4.478,1.107 v 2.467 h 0.617 l 3.106,-1.182 v -2.496 h -0.624 l -3.099,1.211 m 3.099,-1.211 v 2.496 h 0.624 l 6.986,-6.161 v -2.539 h -0.635 l -6.975,6.205 m 6.975,-6.205 v 2.539 h 0.635 l 9.206,-12.028 v -2.616 h -0.654 l -9.187,12.105 m 9.187,-12.105 v 2.616 h 0.654 l 2.117,-4.742 v -2.706 h -0.676 l -2.094,4.832 m 2.094,-4.832 v 2.706 h 0.676 l 0.448,-3.571 v -2.745 h -0.686 l -0.438,3.609 m 0.438,-0.865 h 0.686 v -2.745 l -1.214,-4.506 H 466.8 v 2.781 l 1.223,4.469 m -1.223,-4.469 h 0.695 v -2.781 l -3.655,-5.291 h -0.698 v 2.792 l 3.658,5.28 m -3.658,-5.28 h 0.698 v -2.792 l -3.103,-2.889 h -0.696 v 2.786 l 3.102,2.895 m -3.102,-2.895 h 0.696 v -2.786 l -8.534,-5.279 h -0.693 v 2.772 l 8.53,5.292 m -8.53,-5.292 h 0.693 v -2.772 l -9.646,-3.866 h -0.682 v 2.726 l 9.634,3.912 m -9.634,-3.912 h 0.682 v -2.726 l -4.548,-0.978 h -0.672 v 2.687 l 4.538,1.017 m -3.866,-1.017 v -2.687 h -0.672 l -4.431,0.006 v 2.675 h 0.669 l 4.434,0.006 m -4.434,-0.006 v -2.675 h -0.669 l -7.301,2.839 v 2.582 h 0.645 l 7.325,-2.746 m -7.325,2.746 v -2.582 h -0.645 l -2.863,2.865 v 2.436 h 0.609 l 2.899,-2.72 m -2.899,2.72 v -2.436 h -0.609 l -3.598,7.414 v 1.968 h 0.492 l 3.715,-6.946 m -3.715,6.946 v -1.968 h -0.492 l -0.909,4.343 v 1.26 h 0.315 l 1.086,-3.635 m -1.086,3.635 v -1.26 h -0.315 l -0.554,4.089 v 1.26 h 0.315 l 0.554,-4.089"
         id="path621"
         style="color-interpolation:linearRGB;fill:#000000" />
      <path
         class="write-chisel-pen"
         fill="#ffffff"
         stroke-width="4"
         __comx="781.253"
         __comy="756.494"
         __timestamp="0x17638af44bd"
         d="m 791.892,767.088 h 0.038 v -0.152 l -0.206,-0.705 h -0.29 v 1.162 l 0.459,-0.306 m -0.459,0.306 h 0.29 v -1.162 l -0.734,0.077 h -0.152 v 0.609 l 0.596,0.476 m -0.596,-0.476 h 0.152 v -0.609 l -0.293,-0.014 h -0.01 v 0.038 l 0.15,0.585 m -0.15,-0.585 h 0.01 v -0.038 l -0.111,-0.499 h -0.01 v 0.038 l 0.111,0.499"
         id="path623"
         style="color-interpolation:linearRGB;fill:#000000" />
      <path
         class="write-chisel-pen"
         fill="#ffffff"
         stroke-width="4"
         __comx="769.67"
         __comy="765.606"
         __timestamp="0x17638ae60fd"
         d="m 771.577,773.791 h 0.334 v -1.334 l -1.237,-1.367 h -0.518 v 2.074 l 1.422,0.627 m -1.422,-0.627 h 0.518 v -2.074 l -0.324,-0.135 h -0.536 v 2.143 l 0.341,0.065 m 0.195,-0.065 v -2.143 h -0.536 l -1.345,0.039 v 2.264 h 0.566 l 1.314,-0.16 m -1.314,0.16 v -2.264 h -0.566 l -4.993,5.257 v 2.32 h 0.58 l 4.979,-5.313 m -4.979,5.313 v -2.32 h -0.58 l -3.991,6.175 v 2.336 h 0.584 l 3.987,-6.191 m -3.987,6.191 v -2.336 h -0.584 l -2.217,5.78 v 2.344 h 0.586 l 2.215,-5.788 m -2.215,5.788 v -2.344 h -0.586 l -1.441,9.071 v 2.352 h 0.588 l 1.44,-9.078 m -1.44,6.727 h -0.588 v 2.352 l 0.332,5.088 h 0.589 v -2.355 l -0.333,-5.084 m 0.333,5.084 h -0.589 v 2.355 l 1.774,4.086 h 0.587 v -2.35 l -1.772,-4.091 m 1.772,4.091 h -0.587 v 2.35 l 3.325,3.287 h 0.586 v -2.343 l -3.323,-3.294 m 3.323,3.294 h -0.586 v 2.343 l 4.765,2.194 h 0.586 v -2.343 l -4.765,-2.194 m 4.765,2.194 h -0.586 v 2.343 l 5.759,0.609 h 0.591 v -2.364 l -5.764,-0.588 m 5.173,0.588 v 2.364 h 0.591 l 8.644,-0.395 v -2.371 h -0.593 l -8.642,0.402 m 8.642,-0.402 v 2.371 h 0.593 l 7.646,-1.591 v -2.379 h -0.595 l -7.644,1.6 m 7.644,-1.6 v 2.379 h 0.595 l 4.767,-2.384 v -2.399 h -0.6 l -4.762,2.403 m 4.762,-2.403 v 2.399 h 0.6 l 6.981,-5.384 v -2.4 h -0.6 l -6.98,5.386 m 6.98,-5.386 v 2.4 h 0.6 l 2.107,-2.887 v -2.411 h -0.603 l -2.104,2.897 m 2.104,-2.897 v 2.411 h 0.603 l 1.344,-7.221 v -2.529 h -0.632 l -1.315,7.339 m 1.315,-4.81 h 0.632 v -2.529 l -0.324,-5.221 h -0.65 v 2.6 l 0.341,5.15 m -0.341,-5.15 h 0.65 v -2.6 l -1.437,-5.099 h -0.656 v 2.625 l 1.444,5.073 m -1.444,-5.073 h 0.656 v -2.625 l -2.655,-4.902 h -0.664 v 2.657 l 2.663,4.87 m -2.663,-4.87 h 0.664 v -2.657 l -3.767,-4.688 h -0.665 v 2.659 l 3.767,4.686 m -3.767,-4.686 h 0.665 v -2.659 l -5.211,-4.473 h -0.658 v 2.63 l 5.204,4.502 m -5.204,-4.502 h 0.658 v -2.63 l -6.213,-2.862 h -0.643 v 2.57 l 6.198,2.922 m -6.198,-2.922 h 0.643 v -2.57 l -3.329,-0.679 h -0.633 v 2.532 l 3.319,0.717 m -2.686,-0.717 v -2.532 h -0.633 l -6.865,1.217 v 2.492 h 0.623 l 6.875,-1.177 m -6.875,1.177 v -2.492 h -0.623 l -7.496,5.94 v 2.18 h 0.545 l 7.574,-5.628 m -7.574,5.628 v -2.18 h -0.545 l -3.822,4.613 v 1.729 h 0.432 l 3.934,-4.162 m -3.934,4.162 v -1.729 h -0.432 l -3.418,5.695 v 0.709 h 0.177 l 3.673,-4.676 m -3.673,4.676 v -0.709 h -0.177 l -3.213,5.485 v 0.709 h 0.177 l 3.213,-5.485"
         id="path625"
         style="color-interpolation:linearRGB;fill:#000000" />
      <path
         class="write-chisel-pen"
         fill="#ffffff"
         stroke-width="4"
         __comx="284.955"
         __comy="789.864"
         __timestamp="0x17638add79f"
         d="m 289.611,801.619 v -1.546 h -0.387 l -0.378,-0.181 v 1.909 h 0.477 l 0.287,-0.181 m -0.287,-1.728 h -0.477 v 1.909 l 0.376,0.268 h 0.611 v -2.445 l -0.51,0.268 m -0.101,-0.268 v 2.445 h 0.611 l 10.823,-2.037 v -2.16 h -0.54 l -10.894,1.752 m 10.894,-1.752 v 2.16 h 0.54 l 0.407,-0.788 v -0.983 h -0.246 l -0.701,-0.389"
         id="path627"
         style="color-interpolation:linearRGB;fill:#000000" />
      <path
         class="write-chisel-pen"
         fill="#ffffff"
         stroke-width="4"
         __comx="282.902"
         __comy="785.597"
         __timestamp="0x17638add62a"
         d="m 285.322,806.557 h 0.213 v -0.852 l -0.001,-1.18 h -0.653 v 2.612 l 0.442,-0.581 m -0.442,-2.031 v 2.612 h 0.653 l 2.445,-9.842 v -2.673 h -0.668 l -2.43,9.903 m 2.43,-9.903 v 2.673 h 0.668 l 3.989,-11.368 v -2.673 H 291.3 l -3.989,11.368 m 3.989,-11.368 v 2.673 h 0.668 l 0.654,-0.341 v -2.59 h -0.647 l -0.675,0.258 m 1.323,-0.258 h -0.647 v 2.59 l 6.751,17.681 h 0.663 v -2.651 l -6.767,-17.62 m 6.767,17.62 h -0.663 v 2.651 l 1.568,1.629 h 0.629 v -2.517 l -1.535,-1.762 m 1.535,4.279 v -2.517 h -0.629 l -0.665,0.399 v 2.517 h 0.629 l 0.665,-0.399"
         id="path629"
         style="color-interpolation:linearRGB;fill:#000000" />
      <path
         class="write-chisel-pen"
         fill="#ffffff"
         stroke-width="4"
         __comx="280.522"
         __comy="790.446"
         __timestamp="0x17638adc705"
         d="m 289.155,777.574 h 0.082 v -0.327 l -0.527,-0.652 h -0.358 v 1.432 l 0.803,-0.453 m -0.803,0.453 h 0.358 v -1.432 l -3.136,-0.809 h -0.513 v 2.053 l 3.291,0.188 m -3.291,-0.188 h 0.513 v -2.053 l -1.314,-0.164 h -0.545 v 2.18 l 1.345,0.036 m -0.8,-0.036 v -2.18 h -0.545 l -3.917,-0.154 v 2.489 h 0.622 l 3.84,-0.154 m -3.84,0.154 v -2.489 h -0.622 l -2.883,1.187 v 2.507 h 0.627 l 2.878,-1.206 m -2.878,1.206 v -2.507 h -0.627 l -3.329,3.072 v 2.546 h 0.636 l 3.319,-3.111 m -3.319,3.111 v -2.546 h -0.636 l -3.326,5.876 v 2.562 h 0.641 l 3.322,-5.892 m -3.322,5.892 v -2.562 h -0.641 l -2.44,8.665 v 2.583 h 0.646 l 2.435,-8.687 m -2.435,8.687 v -2.583 h -0.646 l -0.998,8.973 v 2.587 h 0.647 l 0.997,-8.977 m -0.997,6.39 h -0.647 v 2.587 l 0.332,3.691 h 0.647 v -2.588 l -0.333,-3.689 m 0.333,3.689 h -0.647 v 2.588 l 2.327,6.184 h 0.647 v -2.59 l -2.327,-6.182 m 2.327,6.182 h -0.647 v 2.59 l 5.097,5.184 h 0.647 V 818.3 l -5.097,-5.187 m 5.097,5.187 h -0.647 v 2.587 l 3.546,1.895 h 0.647 v -2.588 l -3.546,-1.894 m 3.546,1.894 h -0.647 v 2.588 l 8.642,1.699 h 0.649 v -2.596 l -8.644,-1.691 m 7.995,1.691 v 2.596 h 0.649 l 4.654,-0.398 v -2.598 h -0.649 l -4.653,0.4 m 4.653,-0.4 v 2.598 h 0.649 l 8.754,-3.489 v -2.601 h -0.65 l -8.753,3.492 m 8.753,-3.492 v 2.601 h 0.65 l 7.98,-6.274 v -2.619 h -0.655 l -7.976,6.291 m 7.976,-6.291 v 2.619 h 0.655 l 6.095,-7.376 v -2.627 h -0.657 l -6.093,7.384 m 6.093,-7.384 v 2.627 h 0.657 l 2.55,-7.674 v -2.637 h -0.659 l -2.547,7.683 m 2.547,-5.047 h 0.659 v -2.637 l -0.774,-7.886 h -0.663 v 2.652 l 0.778,7.87 m -0.778,-7.87 h 0.663 v -2.652 l -1.661,-3.793 h -0.665 v 2.659 l 1.663,3.786 m -1.663,-3.786 h 0.665 v -2.659 l -6.315,-6.387 h -0.667 v 2.668 l 6.317,6.378 m -6.317,-6.378 h 0.667 v -2.668 l -4.544,-2.489 h -0.665 v 2.66 l 4.542,2.497 m -4.542,-2.497 h 0.665 v -2.66 l -10.085,-2.985 h -0.662 v 2.646 l 10.081,2.999 m -10.081,-2.999 h 0.662 v -2.646 l -5.431,-0.191 h -0.657 v 2.629 l 5.427,0.208 m -4.77,-0.208 v -2.629 h -0.657 l -5.2,0.83 v 2.564 h 0.641 l 5.216,-0.765 m -5.216,0.765 v -2.564 h -0.641 l -5.083,1.949 v 2.455 h 0.614 l 5.11,-1.841 m -5.11,1.841 v -2.455 h -0.614 l -4.625,3.209 v 2.221 h 0.555 l 4.683,-2.974 m -4.683,2.974 v -2.221 h -0.555 l -3.828,4.191 v 1.817 h 0.454 l 3.929,-3.787 m -3.929,3.787 v -1.817 h -0.454 l -2.778,4.899 v 0.993 h 0.248 l 2.984,-4.076 m -2.984,4.076 v -0.993 h -0.248 l -1.874,4.768 v 0.033 h 0.008 l 2.115,-3.808 m -2.115,3.808 v -0.033 h -0.008 l -0.997,3.59 v 0.033 h 0.008 l 0.997,-3.59"
         id="path631"
         style="color-interpolation:linearRGB;fill:#000000" />
      <path
         class="write-chisel-pen"
         fill="#ffffff"
         stroke-width="4"
         __comx="234.026"
         __comy="790.446"
         __timestamp="0x17638adc17c"
         d="m 237.404,786.574 h 0.094 v -0.376 l -0.284,-0.935 h -0.412 v 1.648 l 0.602,-0.337 m -0.602,0.337 h 0.412 v -1.648 l -0.689,-0.744 h -0.584 v 2.337 l 0.862,0.054 m -0.277,-2.392 h -0.584 v 2.337 l 0.087,0.495 h 0.632 v -2.529 l -0.135,-0.303 m 0.135,0.303 h -0.632 v 2.529 l 4.085,3.651 h 0.663 v -2.651 l -4.115,-3.529 m 4.115,3.529 h -0.663 v 2.651 l 11.187,6.797 h 0.671 v -2.682 l -11.195,-6.765 m 11.195,6.765 h -0.671 v 2.682 l 0.079,1.621 h 0.733 v -2.933 l -0.142,-1.37 m 0.142,4.304 v -2.933 h -0.733 l -7.556,8.291 v 3.105 h 0.776 l 7.513,-8.463 m -8.289,5.358 v 3.105 h 0.776 l 0.809,-0.709 v -2.486 h -0.621 l -0.964,0.089 m 1.585,-0.089 h -0.621 v 2.486 l 0.481,-0.153 h 0.545 v -2.18 l -0.405,-0.153 m 0.405,0.153 h -0.545 v 2.18 l 0.391,0.164 h 0.428 v -1.711 l -0.274,-0.634 m 0.274,0.634 h -0.428 v 1.711 l 0.488,0.176 h 0.117 v -0.467 l -0.177,-1.42 m 0.177,1.887 v -0.467 h -0.117 l -0.111,1.097 v 0.467 h 0.117 l 0.111,-1.097"
         id="path633"
         style="color-interpolation:linearRGB;fill:#000000" />
      <path
         class="write-chisel-pen"
         fill="#ffffff"
         stroke-width="4"
         __comx="214.631"
         __comy="790.446"
         __timestamp="0x17638adbef2"
         d="m 208.939,800.689 h 0.071 v -0.285 l -0.176,-1.322 h -0.383 v 1.533 l 0.489,0.074 m -0.489,-0.074 h 0.383 v -1.533 l -0.694,-1.424 h -0.547 v 2.188 l 0.857,0.77 m -0.857,-0.77 h 0.547 v -2.188 l -0.511,-0.572 h -0.634 v 2.534 l 0.597,0.226 m -0.597,-2.76 v 2.534 h 0.634 l 27.093,0.13 v -2.994 h -0.749 l -26.978,0.33 m 27.727,-0.33 h -0.749 v 2.994 l 7.526,1.133 h 0.766 v -3.066 l -7.544,-1.061 m 7.544,4.127 v -3.066 h -0.766 l 0.017,1.009 v 2.044 h 0.511 l 0.239,0.012 m -0.239,-0.012 v -2.044 h -0.511 l -0.332,0.798 v 2.044 h 0.511 l 0.332,-0.798"
         id="path635"
         style="color-interpolation:linearRGB;fill:#000000" />
      <path
         class="write-chisel-pen"
         fill="#ffffff"
         stroke-width="4"
         __comx="768.921"
         __comy="760.722"
         __timestamp="0x17638ae60fd"
         d="m 768.821,768.32 h 0.334 v -1.334 l -1.574,-1.603 h -0.518 v 2.074 l 1.759,0.863 m -1.759,-0.863 h 0.518 v -2.074 l -0.408,-0.158 h -0.536 v 2.143 l 0.425,0.089 m 0.11,-0.089 v -2.143 h -0.536 l -1.682,0.063 v 2.264 h 0.566 l 1.651,-0.184 m -1.651,0.184 v -2.264 h -0.566 l -6.257,6.508 v 2.32 h 0.58 l 6.243,-6.563 m -6.243,6.563 v -2.32 h -0.58 l -5.002,7.637 v 2.336 h 0.584 l 4.998,-7.653 m -4.998,7.653 v -2.336 h -0.584 l -2.779,7.148 v 2.344 h 0.586 l 2.776,-7.156 m -2.776,7.156 v -2.344 h -0.586 l -1.806,11.218 v 2.352 h 0.588 l 1.805,-11.225 m -1.805,8.873 h -0.588 v 2.352 l 0.416,6.291 h 0.589 v -2.355 l -0.417,-6.287 m 0.417,6.287 h -0.589 v 2.355 l 2.223,5.053 h 0.587 v -2.35 l -2.222,-5.058 m 2.222,5.058 h -0.587 v 2.35 l 4.167,4.066 h 0.586 v -2.343 l -4.166,-4.073 m 4.166,4.073 h -0.586 v 2.343 l 5.972,2.713 h 0.586 v -2.343 l -5.972,-2.713 m 5.972,2.713 h -0.586 v 2.343 l 7.219,0.75 h 0.591 v -2.364 l -7.224,-0.729 m 6.633,0.729 v 2.364 h 0.591 l 10.834,-0.49 v -2.371 h -0.593 l -10.832,0.497 m 10.832,-0.497 v 2.371 h 0.593 l 9.584,-1.969 v -2.379 h -0.595 l -9.582,1.977 m 9.582,-1.977 v 2.379 h 0.595 l 5.974,-2.95 v -2.399 h -0.6 l -5.97,2.969 m 5.97,-2.969 v 2.399 h 0.6 l 8.75,-6.658 v -2.4 h -0.6 l -8.75,6.66 m 8.75,-6.66 v 2.4 h 0.6 l 2.64,-3.571 v -2.411 h -0.603 l -2.638,3.581 m 2.638,-3.581 v 2.411 h 0.603 l 1.681,-8.943 v -2.529 h -0.632 l -1.652,9.061 m 1.652,-6.532 h 0.632 v -2.529 l -0.408,-6.447 h -0.65 v 2.6 l 0.425,6.377 m -0.425,-6.377 h 0.65 v -2.6 l -1.802,-6.302 h -0.656 v 2.625 l 1.809,6.276 m -1.809,-6.276 h 0.656 v -2.625 l -3.329,-6.058 h -0.664 v 2.657 l 3.337,6.026 m -3.337,-6.026 h 0.664 v -2.657 l -4.722,-5.796 h -0.665 v 2.659 l 4.722,5.795 m -4.722,-5.795 h 0.665 v -2.659 l -6.531,-5.535 h -0.658 v 2.63 l 6.524,5.563 m -6.524,-5.563 h 0.658 v -2.63 l -7.785,-3.546 h -0.643 v 2.57 l 7.77,3.606 m -7.77,-3.606 h 0.643 v -2.57 l -4.171,-0.844 h -0.633 v 2.532 l 4.162,0.882 m -3.528,-0.882 v -2.532 h -0.633 l -8.606,1.5 v 2.492 h 0.623 l 8.616,-1.46 m -8.616,1.46 v -2.492 h -0.623 l -9.405,7.308 v 2.18 h 0.545 l 9.483,-6.996 m -9.483,6.996 v -2.18 h -0.545 l -4.804,5.651 v 1.729 h 0.432 l 4.917,-5.2 m -4.917,5.2 v -1.729 h -0.432 l -4.317,6.922 v 0.709 h 0.177 l 4.572,-5.902 m -4.572,5.902 v -0.709 h -0.177 l -4.027,6.782 v 0.709 h 0.177 l 4.027,-6.782"
         id="path637"
         style="color-interpolation:linearRGB;fill:#000000" />
      <path
         class="write-chisel-pen"
         fill="#ffffff"
         stroke-width="4"
         __comx="483.227"
         __comy="779.893"
         __timestamp="0x17638afe5e0"
         d="m 485.186,807.854 v -0.106 h -0.026 l -0.527,-0.922 v 2.549 h 0.637 l -0.084,-1.521 m 0.084,-1.028 h -0.637 v 2.549 l 4.646,7.609 h 0.652 v -2.609 l -4.661,-7.549 m 4.661,7.549 h -0.652 v 2.609 l 2.766,2.608 h 0.66 v -2.64 l -2.774,-2.578 m 2.114,5.217 h 0.66 v -2.64 l -6.298,-10.943 h -0.696 v 2.786 l 6.334,10.797 m -6.334,-13.582 v 2.786 h 0.696 l 0.233,-1.252 v -2.874 h -0.719 l -0.211,1.341 m 0.211,1.534 h 0.719 v -2.874 l -1.219,-2.192 h -0.717 v 2.87 l 1.218,2.196 m -1.218,-5.066 v 2.87 h 0.717 l 16.399,-3.091 v -2.871 h -0.718 l -16.399,3.092 m 17.117,-0.221 v -2.871 h -0.718 l -0.221,0.747 v 1.977 h 0.494 l 0.444,0.148 m -0.444,-0.148 v -1.977 h -0.494 l -0.161,1.283 v 0.608 h 0.152 l 0.503,0.086 m -0.503,-0.086 v -0.608 h -0.152 l -0.776,0.598 v 0.608 h 0.152 l 0.776,-0.598"
         id="path639"
         style="color-interpolation:linearRGB;fill:#000000" />
      <path
         class="write-chisel-pen"
         fill="#ffffff"
         stroke-width="4"
         __comx="521.444"
         __comy="779.893"
         __timestamp="0x17638afdd93"
         d="m 483.955,805.848 h 0.22 v -0.881 l 0.083,-0.633 h -0.387 v 1.549 l 0.083,-0.035 m 0.304,-1.514 h -0.387 v 1.549 l 0.234,0.695 h 0.585 v -2.339 l -0.431,0.096 m 0.431,-0.096 h -0.585 v 2.339 l 4.843,3.721 h 0.65 v -2.601 l -4.908,-3.459 m 4.908,3.459 h -0.65 v 2.601 l 9.082,4.702 h 0.658 v -2.632 l -9.09,-4.672 m 9.09,4.672 h -0.658 v 2.632 l 10.745,4.199 h 0.663 v -2.652 l -10.751,-4.178 m 10.751,4.178 h -0.663 v 2.652 l 10.526,1.496 h 0.663 v -2.652 l -10.526,-1.496 m 10.526,1.496 h -0.663 v 2.652 l 17.84,0.395 h 0.661 v -2.645 l -17.838,-0.403 m 17.177,0.403 v 2.645 h 0.661 l 14.513,-3.001 v -2.625 h -0.656 l -14.518,2.982 m 14.518,-2.982 v 2.625 h 0.656 l 7.642,-0.713 v -2.595 h -0.649 l -7.649,0.683 m 7.649,-0.683 v 2.595 h 0.649 l 7.091,-2.295 v -2.591 H 566.4 l -7.092,2.292 m 7.092,-2.292 v 2.591 h 0.648 l 3.989,-2.192 v -2.595 h -0.649 l -3.989,2.196 m 3.989,-2.196 v 2.595 h 0.649 l 7.979,-6.476 v -2.606 h -0.652 l -7.976,6.488 m 8.628,-3.882 v -2.606 h -0.652 l -0.58,0.882 v 1.042 h 0.261 l 0.971,0.682 m -0.971,-0.682 v -1.042 h -0.261 l -0.887,0.199 v 1.042 h 0.261 l 0.887,-0.199"
         id="path641"
         style="color-interpolation:linearRGB;fill:#000000" />
      <path
         class="write-chisel-pen"
         fill="#ffffff"
         stroke-width="4"
         __comx="557.225"
         __comy="779.893"
         __timestamp="0x17638afd437"
         d="m 560.504,776.652 h 0.032 v -0.127 l 0.157,-1.028 h -0.346 v 1.385 l 0.157,-0.23 m -0.157,0.23 h 0.346 v -1.385 l -0.047,-0.553 h -0.473 v 1.893 l 0.174,0.045 m 0.299,-1.938 h -0.473 v 1.893 l 0.444,0.442 h 0.694 v -2.777 l -0.664,0.442 m -0.03,-0.442 v 2.777 h 0.694 l 6.872,-0.091 v -2.793 h -0.698 l -6.868,0.108 m 6.868,-0.108 v 2.793 h 0.698 l 6.097,-1.285 v -2.816 h -0.704 l -6.091,1.308 m 6.091,1.508 h 0.704 v -2.816 l -4.297,-3.489 h -0.753 v 3.012 l 4.346,3.292 m -4.346,-3.292 h 0.753 v -3.012 l -8.978,-9.564 h -0.748 v 2.993 l 8.973,9.583 m -8.225,-12.576 h -0.748 v 2.993 l 0.172,0.354 h 0.626 v -2.504 l -0.05,-0.843 m 0.05,0.843 h -0.626 v 2.504 l 0.144,0.266 h 0.56 v -2.239 l -0.078,-0.531 m 0.078,0.531 h -0.56 v 2.239 l 0.185,0.301 h 0.411 v -1.644 l -0.036,-0.896 m 0.036,2.54 v -1.644 h -0.411 l 0.125,0.997 v 0.647 h 0.162 0.125 m -0.125,0 v -0.647 h -0.162 l -0.222,0.499 v 0.647 h 0.162 l 0.222,-0.499"
         id="path643"
         style="color-interpolation:linearRGB;fill:#000000" />
      <path
         class="write-chisel-pen"
         fill="#ffffff"
         stroke-width="4"
         __comx="515.502"
         __comy="779.893"
         __timestamp="0x17638afd04d"
         d="m 482.798,776.226 h 0.318 v -1.271 l -0.059,-0.506 h -0.421 v 1.686 l 0.163,0.092 m -0.163,-0.092 h 0.421 v -1.686 l 0.064,-0.555 h -0.549 v 2.197 l 0.064,0.043 m -0.064,-2.241 v 2.197 h 0.549 l 3.264,-2.09 v -2.604 h -0.651 l -3.162,2.497 m 3.162,-2.497 V 774 h 0.651 l 16.51,-7.577 v -2.608 h -0.652 l -16.509,7.581 m 16.509,-7.581 v 2.608 h 0.652 l 7.312,-1.998 v -2.601 h -0.65 l -7.314,1.991 m 7.314,-1.991 v 2.601 h 0.65 l 9.971,-0.105 v -2.59 h -0.647 l -9.974,0.094 m 10.621,-0.094 h -0.647 v 2.59 l 15.071,1.192 h 0.645 v -2.58 l -15.068,-1.202 m 15.068,1.202 h -0.645 v 2.58 l 24.818,4.395 h 0.649 v -2.595 l -24.822,-4.38 m 24.822,4.38 h -0.649 v 2.595 l 8.477,2.967 h 0.537 v -2.147 l -8.365,-3.415 m 7.828,5.562 h 0.537 v -2.147 l -0.528,0.042 h -0.366 v 1.464 l 0.358,0.641 m -0.358,-0.641 h 0.366 v -1.464 l -0.835,0.084 h -0.025 v 0.101 l 0.494,1.28 m -0.494,-1.28 h 0.025 v -0.101 l -0.886,-0.798 h -0.025 v 0.101 l 0.886,0.798"
         id="path645"
         style="color-interpolation:linearRGB;fill:#000000" />
      <path
         class="write-chisel-pen"
         fill="#ffffff"
         stroke-width="4"
         __comx="648.102"
         __comy="783.583"
         __timestamp="0x17638afe5e0"
         d="m 650.061,811.544 v -0.106 h -0.026 l -0.527,-0.922 v 2.549 h 0.637 l -0.084,-1.521 m 0.084,-1.028 h -0.637 v 2.549 l 4.646,7.609 h 0.652 v -2.609 l -4.661,-7.549 m 4.661,7.549 h -0.652 v 2.609 l 2.766,2.608 h 0.66 v -2.64 l -2.774,-2.578 m 2.114,5.217 h 0.66 v -2.64 l -6.298,-10.943 h -0.696 v 2.786 l 6.334,10.797 m -6.334,-13.582 v 2.786 h 0.696 l 0.233,-1.252 v -2.874 h -0.719 l -0.211,1.341 m 0.211,1.534 h 0.719 v -2.874 l -1.219,-2.192 h -0.717 v 2.87 l 1.218,2.196 m -1.218,-5.066 v 2.87 h 0.717 l 16.399,-3.091 v -2.871 h -0.718 l -16.399,3.092 m 17.117,-0.221 v -2.871 h -0.718 l -0.221,0.747 v 1.977 h 0.494 l 0.444,0.148 M 666.25,805.8 v -1.977 h -0.494 l -0.161,1.283 v 0.608 h 0.152 l 0.503,0.086 m -0.503,-0.086 v -0.608 h -0.152 l -0.776,0.598 v 0.608 h 0.152 l 0.776,-0.598"
         id="path647"
         style="color-interpolation:linearRGB;fill:#000000" />
      <path
         class="write-chisel-pen"
         fill="#ffffff"
         stroke-width="4"
         __comx="686.319"
         __comy="783.583"
         __timestamp="0x17638afdd93"
         d="m 648.83,809.538 h 0.22 v -0.881 l 0.083,-0.633 h -0.387 v 1.549 l 0.083,-0.035 m 0.304,-1.514 h -0.387 v 1.549 l 0.234,0.695 h 0.585 v -2.339 l -0.431,0.096 m 0.431,-0.096 h -0.585 v 2.339 l 4.843,3.721 h 0.65 v -2.601 l -4.908,-3.459 m 4.908,3.459 h -0.65 v 2.601 l 9.082,4.702 h 0.658 v -2.632 l -9.09,-4.672 m 9.09,4.672 h -0.658 v 2.632 l 10.745,4.199 h 0.663 v -2.652 l -10.751,-4.178 m 10.751,4.178 h -0.663 v 2.652 l 10.526,1.496 h 0.663 v -2.652 l -10.526,-1.496 m 10.526,1.496 h -0.663 v 2.652 l 17.84,0.395 h 0.661 v -2.645 l -17.838,-0.403 m 17.177,0.403 v 2.645 h 0.661 l 14.513,-3.001 v -2.625 h -0.656 l -14.518,2.982 m 14.518,-2.982 v 2.625 h 0.656 l 7.642,-0.713 v -2.595 h -0.649 l -7.649,0.683 m 7.649,-0.683 v 2.595 h 0.649 l 7.091,-2.295 v -2.591 h -0.648 l -7.092,2.292 m 7.092,-2.292 v 2.591 h 0.648 l 3.989,-2.192 v -2.595 h -0.649 l -3.989,2.196 m 3.989,-2.196 v 2.595 h 0.649 l 7.979,-6.476 v -2.606 h -0.652 l -7.976,6.488 m 8.628,-3.882 v -2.606 h -0.652 l -0.58,0.882 v 1.042 h 0.261 l 0.971,0.682 m -0.971,-0.682 v -1.042 h -0.261 l -0.887,0.199 v 1.042 h 0.261 l 0.887,-0.199"
         id="path649"
         style="color-interpolation:linearRGB;fill:#000000" />
      <path
         class="write-chisel-pen"
         fill="#ffffff"
         stroke-width="4"
         __comx="722.1"
         __comy="783.583"
         __timestamp="0x17638afd437"
         d="m 725.379,780.342 h 0.032 v -0.127 l 0.157,-1.028 h -0.346 v 1.385 l 0.157,-0.23 m -0.157,0.23 h 0.346 v -1.385 l -0.047,-0.553 h -0.473 v 1.893 l 0.174,0.045 m 0.299,-1.938 h -0.473 v 1.893 l 0.444,0.442 h 0.694 v -2.777 l -0.664,0.442 m -0.03,-0.442 v 2.777 h 0.694 l 6.872,-0.091 v -2.793 h -0.698 l -6.868,0.108 m 6.868,-0.108 v 2.793 h 0.698 l 6.097,-1.285 v -2.816 h -0.704 l -6.091,1.308 m 6.091,1.508 h 0.704 v -2.816 l -4.297,-3.489 h -0.753 v 3.012 l 4.346,3.292 m -4.346,-3.292 h 0.753 v -3.012 l -8.978,-9.564 h -0.748 v 2.993 l 8.973,9.583 m -8.225,-12.576 h -0.748 v 2.993 l 0.172,0.354 h 0.626 v -2.504 l -0.05,-0.843 m 0.05,0.843 h -0.626 v 2.504 l 0.144,0.266 h 0.56 v -2.239 l -0.078,-0.531 m 0.078,0.531 h -0.56 v 2.239 l 0.185,0.301 h 0.411 v -1.644 l -0.036,-0.896 m 0.036,2.54 v -1.644 h -0.411 l 0.125,0.997 v 0.647 h 0.162 0.125 m -0.125,0 v -0.647 h -0.162 l -0.222,0.499 v 0.647 h 0.162 l 0.222,-0.499"
         id="path651"
         style="color-interpolation:linearRGB;fill:#000000" />
      <path
         class="write-chisel-pen"
         fill="#ffffff"
         stroke-width="4"
         __comx="680.378"
         __comy="783.583"
         __timestamp="0x17638afd04d"
         d="m 647.673,779.916 h 0.318 v -1.271 l -0.059,-0.506 h -0.421 v 1.686 l 0.163,0.092 m -0.163,-0.092 h 0.421 v -1.686 l 0.064,-0.555 h -0.549 v 2.197 l 0.064,0.043 m -0.064,-2.241 v 2.197 h 0.549 l 3.264,-2.09 v -2.604 h -0.651 l -3.162,2.497 m 3.162,-2.497 v 2.604 h 0.651 l 16.51,-7.577 v -2.608 h -0.652 l -16.509,7.581 m 16.509,-7.581 v 2.608 h 0.652 l 7.312,-1.998 v -2.601 h -0.65 l -7.314,1.991 m 7.314,-1.991 v 2.601 h 0.65 l 9.971,-0.105 v -2.59 h -0.647 l -9.974,0.094 m 10.621,-0.094 h -0.647 v 2.59 l 15.071,1.192 h 0.645 v -2.58 l -15.068,-1.202 m 15.068,1.202 h -0.645 v 2.58 l 24.818,4.395 h 0.649 v -2.595 l -24.822,-4.38 m 24.822,4.38 h -0.649 v 2.595 l 8.477,2.967 h 0.537 v -2.147 l -8.365,-3.415 m 7.828,5.562 h 0.537 v -2.147 l -0.528,0.042 h -0.366 v 1.464 l 0.358,0.641 m -0.358,-0.641 h 0.366 v -1.464 l -0.835,0.084 h -0.025 v 0.101 l 0.494,1.28 m -0.494,-1.28 h 0.025 v -0.101 l -0.886,-0.798 h -0.025 v 0.101 l 0.886,0.798"
         id="path653"
         style="color-interpolation:linearRGB;fill:#000000" />
    </g>
  </g>
</svg>
